<svg width="278" height="203" viewBox="0 0 278 203" fill="none" xmlns="http://www.w3.org/2000/svg">
<path d="M134.515 153.082C134.921 153.082 135.327 152.916 135.62 152.595C140.632 147.084 141.717 142.172 142.769 137.421C143.435 134.412 144.12 131.302 145.838 127.966C149.918 120.018 160.322 119.371 160.422 119.371C161.248 119.324 161.88 118.624 161.834 117.796C161.794 116.969 161.088 116.335 160.269 116.375C159.77 116.402 148.054 117.096 143.175 126.591C141.285 130.274 140.552 133.578 139.847 136.774C138.835 141.345 137.883 145.662 133.41 150.58C132.851 151.194 132.897 152.142 133.51 152.695C133.789 152.956 134.155 153.082 134.515 153.082Z" fill="#F17255"/>
<path d="M144.502 150.815C145.188 150.815 145.807 150.341 145.96 149.64C147.398 143.181 150.286 134.152 155.885 127.793C159.2 124.023 161.936 122.969 161.962 122.962C162.734 122.675 163.127 121.814 162.847 121.04C162.568 120.266 161.716 119.866 160.944 120.146C160.431 120.326 148.403 124.904 143.037 148.993C142.858 149.8 143.364 150.601 144.169 150.781C144.289 150.801 144.395 150.815 144.502 150.815Z" fill="#F17255"/>
<path d="M145.583 132.383C148.498 132.383 151.607 130.875 154.749 127.899C158.064 124.763 160.261 121.113 160.354 120.959C160.693 120.392 160.507 119.658 159.941 119.318C159.375 118.977 158.643 119.164 158.304 119.731C158.224 119.865 150.123 133.211 142.7 129.247C135.052 125.17 137.275 114.346 137.295 114.24C137.435 113.592 137.022 112.952 136.377 112.818C135.731 112.678 135.092 113.092 134.959 113.739C134.932 113.866 134.293 116.922 134.746 120.592C135.365 125.59 137.728 129.314 141.575 131.369C142.854 132.043 144.198 132.383 145.583 132.383Z" fill="#EAE9F5"/>
<path d="M162.163 116.707C162.609 116.707 163.035 116.453 163.242 116.026C163.528 115.426 163.275 114.712 162.676 114.425C162.536 114.358 162.403 114.324 162.19 114.264C158.369 113.217 156.458 110.614 156.512 106.544C156.565 102.834 158.189 97.729 159.76 92.7844C161.418 87.5729 162.989 82.6483 162.689 79.4119C162.409 76.4158 160.998 75.1146 159.86 74.554C157.57 73.4196 154.608 74.3538 153.177 75.2547C152.618 75.6083 152.451 76.349 152.804 76.9096C153.157 77.4701 153.896 77.6369 154.455 77.2899C155.433 76.6693 157.497 76.0621 158.808 76.7094C159.667 77.1364 160.173 78.1174 160.313 79.6388C160.566 82.388 159.001 87.3059 157.49 92.057C155.866 97.1618 154.182 102.447 154.129 106.511C154.089 109.5 155.001 114.778 161.564 116.58C161.631 116.6 161.684 116.613 161.724 116.627C161.864 116.68 162.01 116.707 162.163 116.707ZM161.644 116.587C161.664 116.593 161.677 116.6 161.697 116.613C161.677 116.6 161.657 116.593 161.644 116.587Z" fill="#EAE9F5"/>
<path d="M254.015 187.367H263.707V197.083H254.015V187.367Z" fill="#D2D1DB"/>
<path d="M175.449 187.367H185.141V197.083H175.449V187.367Z" fill="#D2D1DB"/>
<path d="M164.969 102.488H270.49L278.371 109.014H157.088L164.969 102.488Z" fill="#D2D1DB"/>
<path d="M157.088 109.014H278.371V193.146H157.088V109.014Z" fill="#E2E1EC"/>
<path d="M163.693 120.799C163.693 122.42 169.544 123.728 176.766 123.728C183.989 123.728 189.84 122.42 189.84 120.799C189.84 119.177 183.989 117.869 176.766 117.869C169.544 117.869 163.693 119.177 163.693 120.799Z" fill="#B0AFB8"/>
<path d="M217.752 186.647C198.721 178.744 189.684 156.873 197.567 137.795C205.45 118.718 227.268 109.658 246.299 117.561C265.33 125.463 274.367 147.335 266.484 166.412C258.601 185.49 236.783 194.549 217.752 186.647Z" fill="#371D14"/>
<path d="M231.427 111.918H232.625V191.252H231.427V111.918Z" fill="#E2E1EC"/>
<path d="M192.461 150.988H271.602V152.189H192.461V150.988Z" fill="#E2E1EC"/>
<path d="M204.526 123.047L260.352 179.287L259.502 180.134L203.677 123.894L204.526 123.047Z" fill="#E2E1EC"/>
<path d="M259.643 123.168L260.488 124.02L204.394 179.982L203.548 179.13L259.643 123.168Z" fill="#E2E1EC"/>
<path d="M217.448 114.707L247.719 188.004L246.612 188.463L216.341 115.167L217.448 114.707Z" fill="#E2E1EC"/>
<path d="M268.354 135.849L268.812 136.959L195.687 167.296L195.229 166.186L268.354 135.849Z" fill="#E2E1EC"/>
<path d="M195.739 135.753L268.777 166.297L268.316 167.405L195.277 136.862L195.739 135.753Z" fill="#E2E1EC"/>
<path d="M246.707 114.746L247.812 115.209L217.336 188.426L216.23 187.964L246.707 114.746Z" fill="#E2E1EC"/>
<path d="M232.028 166.382C239.883 166.382 246.273 159.976 246.273 152.102C246.273 144.228 239.883 137.822 232.028 137.822C224.174 137.822 217.783 144.228 217.783 152.102C217.783 159.976 224.174 166.382 232.028 166.382ZM232.028 139.023C239.224 139.023 245.075 144.889 245.075 152.102C245.075 159.316 239.224 165.181 232.028 165.181C224.833 165.181 218.981 159.316 218.981 152.102C218.975 144.889 224.833 139.023 232.028 139.023Z" fill="#E2E1EC"/>
<path d="M232.027 172.261C243.117 172.261 252.137 163.219 252.137 152.102C252.137 140.985 243.117 131.943 232.027 131.943C220.937 131.943 211.918 140.985 211.918 152.102C211.911 163.219 220.937 172.261 232.027 172.261ZM232.027 133.138C242.458 133.138 250.945 141.646 250.945 152.102C250.945 162.559 242.458 171.067 232.027 171.067C221.596 171.067 213.109 162.559 213.109 152.102C213.109 141.646 221.596 133.138 232.027 133.138Z" fill="#E2E1EC"/>
<path d="M232.029 178.52C246.561 178.52 258.383 166.669 258.383 152.102C258.383 137.535 246.561 125.684 232.029 125.684C217.498 125.684 205.676 137.535 205.676 152.102C205.669 166.669 217.491 178.52 232.029 178.52ZM232.029 126.878C245.902 126.878 257.191 138.195 257.191 152.102C257.191 166.008 245.902 177.325 232.029 177.325C218.157 177.325 206.867 166.008 206.867 152.102C206.867 138.195 218.15 126.878 232.029 126.878Z" fill="#E2E1EC"/>
<path d="M232.031 184.458C249.83 184.458 264.309 169.944 264.309 152.101C264.309 134.258 249.83 119.744 232.031 119.744C214.231 119.744 199.753 134.258 199.753 152.101C199.753 169.944 214.231 184.458 232.031 184.458ZM232.031 120.939C249.171 120.939 263.117 134.918 263.117 152.101C263.117 169.284 249.171 183.263 232.031 183.263C214.89 183.263 200.944 169.284 200.944 152.101C200.944 134.918 214.89 120.939 232.031 120.939Z" fill="#E2E1EC"/>
<path d="M195.219 190.448H268.834C270.938 190.448 272.648 188.733 272.648 186.625V117.574C272.648 115.465 270.938 113.75 268.834 113.75H195.219C193.115 113.75 191.405 115.465 191.405 117.574V186.625C191.405 188.733 193.115 190.448 195.219 190.448ZM268.834 114.204C270.691 114.204 272.196 115.719 272.196 117.574V186.625C272.196 188.486 270.685 189.995 268.834 189.995H195.219C193.362 189.995 191.857 188.48 191.857 186.625V117.574C191.857 115.712 193.368 114.204 195.219 114.204H268.834Z" fill="#B0AFB8"/>
<path d="M98.9301 47.3828L113.049 53.8288C113.049 53.8288 139.822 59.4874 144.421 63.0374C149.014 66.5874 157.155 73.3871 157.415 74.0677C157.415 74.0677 158.054 79.0791 157.954 79.3727C157.854 79.6663 156.783 80.2535 156.783 80.2535C156.783 80.2535 156.49 81.7215 155.318 82.0085L154.346 82.8893C154.346 82.8893 153.375 85.098 152.396 85.118C151.424 85.1381 149.667 83.1829 149.374 83.283C149.081 83.3831 145.48 82.6958 144.408 81.7215C143.336 80.7473 139.928 69.3166 139.928 69.3166C139.928 69.3166 105.54 67.0679 99.9819 65.6065C94.4236 64.1385 98.9301 47.3828 98.9301 47.3828Z" fill="#FFA890"/>
<path d="M148.803 82.4635C148.85 82.4635 148.896 82.4502 148.936 82.4235C149.036 82.3501 149.063 82.21 148.99 82.1099L147.052 79.394C146.979 79.2939 146.839 79.2672 146.74 79.3406C146.64 79.414 146.613 79.5542 146.686 79.6542L148.623 82.3701C148.663 82.4302 148.73 82.4635 148.803 82.4635Z" fill="#E28065"/>
<path d="M146.166 94.7263C146.731 94.7263 147.231 94.3259 147.337 93.7521C147.364 93.6186 147.963 90.4223 148.369 86.572C148.715 83.2956 151.251 81.207 151.271 81.187C151.784 80.7733 151.864 80.0192 151.451 79.5054C151.038 78.9916 150.293 78.9049 149.773 79.3186C149.64 79.4253 146.438 82.0211 145.986 86.3184C145.586 90.0686 144.987 93.2716 144.981 93.305C144.861 93.9522 145.287 94.5795 145.933 94.7063C146.012 94.7196 146.092 94.7263 146.166 94.7263Z" fill="#EAE9F5"/>
<path d="M145.368 94.1464C145.382 94.1464 145.402 94.1464 145.422 94.1397C145.541 94.113 145.615 93.9929 145.588 93.8728C145.541 93.666 145.575 93.5926 145.588 93.5725C145.641 93.4991 145.868 93.4858 146.021 93.4791C146.22 93.4658 146.527 93.8061 146.673 94.0396C146.74 94.1464 146.879 94.1731 146.979 94.113C147.086 94.0463 147.112 93.9062 147.046 93.8061C146.959 93.6726 146.513 93.0053 145.987 93.032C145.728 93.0454 145.402 93.0654 145.222 93.3056C145.102 93.4658 145.075 93.686 145.142 93.9729C145.175 94.073 145.262 94.1464 145.368 94.1464Z" fill="#B0AFB8"/>
<path d="M149.159 78.5049C149.159 78.5049 150.923 80.5201 151.076 81.6945L150.117 82.909C150.117 82.909 152.254 83.0291 152.254 82.7488C152.254 82.4753 152.254 78.9386 152.254 78.9386C152.254 78.9386 150.789 77.0302 150.523 77.0235C150.257 77.0168 147.827 77.604 147.827 77.604L149.159 78.5049Z" fill="#FFA890"/>
<path d="M103.681 44.9735C103.681 44.9735 104.513 73.647 94.8015 80.6668C85.0895 87.6867 84.0511 38.334 84.0511 38.334L102.55 39.822L103.681 44.9735Z" fill="#393253"/>
<path d="M76.1785 43.4079L87.3083 55.219L102.545 39.8313L110.207 32.0907L100.522 21.8145L88.4466 32.5245L76.1785 43.4079Z" fill="#FFA890"/>
<path d="M96.4533 26.6836L102.551 39.8225C102.551 39.8225 96.034 48.7175 94.1968 43.1323C91.8936 36.1458 96.4533 26.6836 96.4533 26.6836Z" fill="#D98F7A"/>
<path d="M88.0561 27.418C88.7683 30.1673 89.6803 31.1949 94.8059 32.1424C94.8059 30.4942 94.959 28.7926 95.3051 27.0844C97.6616 15.4335 99.572 5.97801 113.624 8.83401C114.742 9.06089 115.768 9.33448 116.699 9.66145L117.145 8.80065L115.974 6.97227C115.974 6.97227 120.108 5.89794 119.662 4.06956C119.216 2.24119 112.173 4.06956 112.173 4.06956C112.173 4.06956 113.997 2.40801 112.839 1.16018C111.68 -0.0876508 107.7 2.57484 107.7 2.57484C107.7 2.57484 108.365 0.165919 107.034 -0.00090311C105.709 -0.167726 104.485 2.74166 104.485 2.74166C104.485 2.74166 104.178 0.0858445 102.747 0.332742C101.316 0.579639 100.903 4.897 100.903 4.897C100.903 4.897 93.6942 4.24973 90.8718 10.2286C90.2195 11.6099 88.4222 12.4974 88.0494 16.2142C87.8697 18.076 87.2972 24.4953 88.0561 27.418Z" fill="#BC6842"/>
<path d="M94.7967 32.1433C95.1295 32.2033 95.489 32.2634 95.8617 32.3301C101.939 33.331 112.357 17.97 112.357 17.97L116.684 9.67562C115.752 9.34865 114.727 9.07506 113.608 8.84818C99.5561 5.99218 97.639 15.441 95.2893 27.0986C94.9498 28.7935 94.7967 30.4884 94.7967 32.1433Z" fill="#BC6842"/>
<path d="M94.7975 32.1423C94.8241 41.7579 100.289 49.8989 105.162 50.6663C114.421 52.1209 116.405 44.2736 121.624 33.31C126.323 23.4275 127.495 13.4181 116.691 9.66797L112.364 17.9624C112.364 17.9624 101.94 33.3234 95.8692 32.3225C95.4898 32.2624 95.137 32.2023 94.7975 32.1423Z" fill="#FFA890"/>
<path d="M119.66 33.9102V41.9844C119.66 42.5249 119.114 42.8985 118.608 42.705L115.506 41.4972L119.66 33.9102Z" fill="#FFA890"/>
<path d="M100.112 27.9781C99.4193 31.3746 100.598 34.4775 102.748 34.9179C104.891 35.3583 107.194 32.9627 107.88 29.5662C108.572 26.1697 107.394 23.0668 105.244 22.6264C103.1 22.186 100.804 24.5816 100.112 27.9781Z" fill="#FFA890"/>
<path d="M102.747 31.575C102.853 31.575 102.946 31.5016 102.966 31.3948C103.659 27.7181 106.195 27.6447 106.221 27.6447C106.348 27.6447 106.448 27.5446 106.441 27.4178C106.441 27.291 106.348 27.1909 106.215 27.1976C106.188 27.1976 103.279 27.2777 102.527 31.3148C102.507 31.4349 102.587 31.555 102.707 31.575C102.72 31.575 102.733 31.575 102.747 31.575Z" fill="#E28065"/>
<path d="M116.424 35.1392C115.958 36.2936 116.098 37.4413 116.737 37.7015C117.376 37.9618 118.274 37.2344 118.74 36.08C119.206 34.9256 119.067 33.7779 118.428 33.5176C117.789 33.2574 116.89 33.9847 116.424 35.1392Z" fill="#371D14"/>
<path d="M117.491 30.2014C117.783 30.128 118.123 30.1013 118.442 30.1214C118.762 30.1347 119.075 30.1881 119.374 30.2815C119.674 30.3749 119.96 30.495 120.22 30.6619C120.486 30.8153 120.719 31.0155 120.945 31.2224L120.965 31.2357C121.212 31.4559 121.591 31.4426 121.817 31.1957C122.037 30.9488 122.024 30.5685 121.777 30.3416C121.751 30.3216 121.724 30.2949 121.691 30.2815C121.365 30.0747 121.025 29.8811 120.659 29.7477C120.3 29.6009 119.92 29.5208 119.541 29.4674C119.161 29.4207 118.782 29.4274 118.409 29.4741C118.036 29.5275 117.684 29.6142 117.324 29.7744C117.211 29.8278 117.158 29.9612 117.211 30.0747C117.258 30.1747 117.364 30.2281 117.471 30.2014H117.491Z" fill="#BC6842"/>
<path d="M115.973 6.97266C115.973 6.97266 127.235 12.1975 128.434 14.9134C129.625 17.6359 132.448 20.899 131.689 22.9676C130.93 25.0362 127.169 25.9037 119.66 24.2755C119.66 24.2755 117.883 31.1886 111.286 29.5804L108.923 32.5632C108.497 33.1037 107.805 33.3706 107.126 33.2439C106.5 33.1304 105.828 32.9769 105.755 32.8034C105.608 32.4765 107.405 24.4556 107.405 24.4556L108.364 18.2832L115.973 6.97266Z" fill="#BC6842"/>
<path d="M107.036 26.3025C107.142 26.3025 107.235 26.2291 107.255 26.1224L107.888 22.7125C107.908 22.5924 107.828 22.4723 107.708 22.4523C107.588 22.4323 107.468 22.5123 107.448 22.6325L106.816 26.0423C106.796 26.1624 106.876 26.2825 106.996 26.3025C107.009 26.3025 107.022 26.3025 107.036 26.3025Z" fill="#8A4C30"/>
<path d="M116.692 24.5026H119.66C119.787 24.5026 119.887 24.4025 119.887 24.2757C119.887 24.1489 119.787 24.0488 119.66 24.0488H116.692C116.565 24.0488 116.465 24.1489 116.465 24.2757C116.465 24.4025 116.565 24.5026 116.692 24.5026Z" fill="#8A4C30"/>
<path d="M114.488 7.20766C115.147 7.20766 115.727 7.20766 115.98 7.20099C116.106 7.20099 116.199 7.09422 116.199 6.97411C116.199 6.84733 116.099 6.75391 115.973 6.75391C115.241 6.76725 111.586 6.75391 111.546 6.75391C111.42 6.75391 111.32 6.854 111.32 6.98078C111.32 7.10757 111.42 7.20766 111.546 7.20766C111.639 7.20099 113.21 7.20766 114.488 7.20766Z" fill="#8A4C30"/>
<path d="M109.06 5.41081C109.086 5.41081 109.113 5.40414 109.133 5.39746L112.242 4.28976C112.361 4.24973 112.421 4.12294 112.375 4.00283C112.335 3.88272 112.208 3.82266 112.089 3.86937L108.98 4.97707C108.86 5.01711 108.8 5.14389 108.847 5.26401C108.88 5.35075 108.967 5.41081 109.06 5.41081Z" fill="#8A4C30"/>
<path d="M97.2052 7.66435C97.2318 7.66435 97.2584 7.65768 97.285 7.651L99.9676 6.67009C100.014 6.65674 100.054 6.62338 100.081 6.58334L101.093 5.02188C101.159 4.91512 101.133 4.78166 101.026 4.70826C100.92 4.64153 100.786 4.66822 100.713 4.77498L99.7413 6.26971L97.1253 7.22394C97.0121 7.26397 96.9522 7.39743 96.9921 7.51087C97.0254 7.61097 97.112 7.66435 97.2052 7.66435Z" fill="#8A4C30"/>
<path d="M90.4202 12.6432C90.5267 12.6432 90.6199 12.5698 90.6399 12.463L91.0925 10.2877C91.1192 10.1676 91.0393 10.0475 90.9195 10.0208C90.7996 9.99408 90.6798 10.0742 90.6532 10.1943L90.2005 12.3696C90.1739 12.4897 90.2538 12.6099 90.3736 12.6365C90.3936 12.6365 90.4069 12.6432 90.4202 12.6432Z" fill="#8A4C30"/>
<path d="M98.043 82.3153C98.043 82.3153 100.959 62.9906 96.1925 55.2167L84.0442 38.3343L82.7994 34.9978C82.4466 34.0503 81.3815 33.5765 80.4429 33.9502L78.5059 34.7242L75.0511 35.4182C74.1258 35.6051 73.7464 36.7128 74.3522 37.4334L74.4387 37.5335C74.4387 37.5335 57.3712 46.4952 50.7012 64.1651C44.0313 81.8349 56.6589 114.319 56.6589 114.319C56.6589 114.319 84.7697 103.809 85.7216 102.141C86.6669 100.466 98.043 82.3153 98.043 82.3153Z" fill="#393253"/>
<path d="M100.254 164.786C100.254 164.786 96.2067 172.107 98.4566 177.965C100.707 183.824 81.9416 185.059 81.9416 185.059L80.0311 183.257L88.9044 163.318L100.254 164.786Z" fill="#E2E1EC"/>
<path d="M27.463 174.803C26.8772 174.729 16.8591 172.961 11.6137 172.961L6.32831 178.846C6.32831 178.846 7.49985 184.572 7.49985 185.059C7.49985 185.539 15.8606 188.188 15.8606 188.188L18.5565 187.268L32.2891 187.748L27.463 174.803Z" fill="#E2E1EC"/>
<path d="M13.6315 172.7C13.6315 172.7 11.8342 177.959 10.4829 179.46C9.13163 180.961 11.6811 185.919 13.6315 186.52C15.5819 187.121 18.5774 187.274 18.5774 187.274L19.6291 189.529C19.6291 189.529 24.4218 192.532 24.8745 195.689C25.3271 198.845 17.9849 200.346 15.4354 200.193C12.886 200.039 7.94676 197.791 6.44902 195.689C4.95129 193.587 0.757634 180.154 0.757634 177.405C0.744321 174.649 6.13617 171.646 13.6315 172.7Z" fill="#393253"/>
<path d="M80.0309 177.398C80.0309 177.398 85.4627 181.262 90.1423 180.508C94.8286 179.754 97.8906 175.75 97.8906 175.75L103.808 180.608L112.049 185.059L114.446 185.412C115.877 185.626 117.015 186.727 117.275 188.162L117.721 190.644C117.814 191.158 117.421 191.625 116.902 191.625H95.0815L74.7522 192.225L80.0309 177.398Z" fill="#393253"/>
<path d="M80.7799 190.412C80.7932 190.412 80.8066 190.412 80.8199 190.412C85.0468 189.698 92.8084 190.011 98.4732 190.245C100.31 190.318 101.901 190.385 103.159 190.405C107.173 190.478 113.144 190.105 116.02 189.924C116.839 189.871 117.431 189.831 117.551 189.838C117.684 189.844 117.777 189.738 117.777 189.618C117.777 189.491 117.677 189.391 117.558 189.391C117.425 189.397 116.885 189.424 116 189.477C113.131 189.658 107.173 190.031 103.179 189.958C101.928 189.938 100.344 189.871 98.5065 189.798C92.8217 189.564 85.0402 189.25 80.76 189.971C80.6401 189.991 80.5536 190.105 80.5736 190.231C80.5802 190.331 80.6734 190.412 80.7799 190.412Z" fill="#645891"/>
<path d="M15.043 198.899C18.7308 198.899 24.6951 196.01 24.9614 195.883C25.0745 195.83 25.1211 195.696 25.0679 195.583C25.0146 195.47 24.8815 195.423 24.7683 195.476C24.7017 195.51 17.7722 198.866 14.3441 198.406C10.9226 197.945 7.77401 195.116 6.84874 191.686C6.60911 190.792 6.17643 189.651 5.68384 188.33C4.19941 184.386 2.16914 178.994 3.0345 174.49C3.06113 174.37 2.98126 174.25 2.85478 174.23C2.73496 174.203 2.61513 174.283 2.59516 174.41C1.70983 179.034 3.76673 184.499 5.26447 188.49C5.75706 189.798 6.18309 190.925 6.41607 191.799C7.40125 195.456 10.6363 198.352 14.2842 198.846C14.5238 198.886 14.7768 198.899 15.043 198.899Z" fill="#645891"/>
<path d="M12.1033 191.385C12.1365 191.385 12.1698 191.379 12.1965 191.365C15.6646 189.731 19.5853 189.744 19.6252 189.744C19.7451 189.744 19.8516 189.644 19.8516 189.524C19.8516 189.397 19.7517 189.297 19.6319 189.297C19.5853 189.297 15.5647 189.284 12.0101 190.958C11.8969 191.012 11.8503 191.145 11.9036 191.259C11.9369 191.339 12.0167 191.385 12.1033 191.385Z" fill="#645891"/>
<path d="M89.8175 57.6867L84.1927 50.8336C84.1927 50.8336 69.2619 48.825 55.9621 64.4997L55.3097 55.2177C55.3097 55.2177 46.1635 66.1345 43.8271 80.1676C43.8271 80.1676 38.4618 91.3981 39.1608 98.8784L37.7629 106.132C37.7629 106.132 32.3977 116.889 33.7955 126.951C35.1934 137.007 54.0982 179.814 54.0982 179.814C54.0982 179.814 52.4673 177.005 23.2981 173.969C23.2981 173.969 23.0651 184.959 31.2328 198.999C31.2328 198.999 73.2825 203.676 76.1782 202.041C79.0671 200.407 82.3355 199.232 82.5685 189.176C82.8015 179.12 83.2674 144.588 83.2674 144.588H91.9011L85.1313 170.465L112.197 169.531C112.197 169.531 114.181 145.675 116.69 136.554C119.2 127.432 120.365 118.51 113.129 112.565C105.893 106.619 89.3316 109.889 89.3316 109.889C89.3316 109.889 88.6327 101.935 88.6327 101C88.6327 100.066 87.6675 94.2141 87.6675 94.2141C87.6675 94.2141 73.2293 108.948 60.3954 104.037C60.3954 104.037 54.0982 84.158 60.8613 71.5262C67.6311 58.8878 77.9422 56.4922 89.8175 57.6867Z" fill="#FF5500"/>
<path d="M91.9052 60.1816L94.8008 63.6382L94.5345 70.2177C94.1418 65.9137 91.9052 60.1816 91.9052 60.1816Z" fill="#231A43"/>
<path d="M83.2655 144.808C83.2789 144.808 83.2922 144.808 83.3055 144.802C83.4253 144.782 83.5052 144.662 83.4852 144.542L80.2501 127.232C80.2301 127.112 80.1103 127.032 79.9905 127.052C79.8707 127.072 79.7908 127.192 79.8108 127.312L83.0459 144.622C83.0659 144.735 83.159 144.808 83.2655 144.808Z" fill="#1D5237"/>
<path d="M60.5847 109.241H60.5913C60.7178 109.234 60.811 109.134 60.8044 109.007L60.6113 104.022C60.6046 103.896 60.5048 103.802 60.3783 103.809C60.2518 103.816 60.1587 103.916 60.1653 104.042L60.3584 109.027C60.365 109.147 60.4649 109.241 60.5847 109.241Z" fill="#1D5237"/>
<path d="M91.8992 144.807C91.9857 144.807 92.0656 144.754 92.1055 144.673C94.5485 139.135 98.2828 130.774 98.5824 130.3C98.649 130.227 98.6623 130.113 98.6024 130.026C98.5358 129.92 98.396 129.893 98.2895 129.966C98.2229 130.013 98.0432 130.133 92.3651 142.972L94.3355 129.846C94.3554 129.726 94.2689 129.606 94.1491 129.593C94.0226 129.573 93.9095 129.659 93.8961 129.78L91.6728 144.56C91.6529 144.673 91.7261 144.78 91.8326 144.807C91.8526 144.8 91.8792 144.807 91.8992 144.807Z" fill="#1D5237"/>
<path d="M93.1383 142.012C93.1982 142.012 93.2581 141.985 93.3047 141.939L101.246 133.177C101.333 133.084 101.319 132.944 101.233 132.857C101.14 132.777 101 132.783 100.913 132.87L92.9719 141.632C92.8854 141.725 92.8987 141.865 92.9852 141.952C93.0251 141.992 93.0784 142.012 93.1383 142.012Z" fill="#1D5237"/>
<path d="M63.7314 191.978C63.7913 191.978 63.8512 191.951 63.8978 191.905C63.9777 191.811 63.971 191.671 63.8779 191.584C57.9734 186.306 54.3323 179.773 54.299 179.707C54.2458 179.613 54.1392 179.573 54.0394 179.6C53.9395 179.627 53.873 179.72 53.8796 179.827C53.893 180.174 54.279 188.321 55.7635 190.323C55.8367 190.423 55.9765 190.443 56.0763 190.37C56.1762 190.297 56.1961 190.156 56.1229 190.056C55.0046 188.542 54.5253 182.956 54.3789 180.734C55.5504 182.663 58.8455 187.694 63.5783 191.925C63.6249 191.958 63.6782 191.978 63.7314 191.978Z" fill="#1D5237"/>
<path d="M87.5445 161.475C87.5512 161.475 87.5578 161.475 87.5711 161.475C99.8126 160.113 105.071 150.478 105.125 150.378C105.185 150.271 105.145 150.131 105.031 150.071C104.925 150.011 104.785 150.051 104.725 150.164C104.672 150.258 99.5198 159.693 87.5179 161.028C87.3981 161.041 87.3049 161.154 87.3182 161.275C87.3315 161.395 87.4314 161.475 87.5445 161.475Z" fill="#1D5237"/>
<path d="M43.302 114.82C43.3286 114.82 43.3486 114.813 43.3752 114.807C43.4951 114.767 43.555 114.64 43.515 114.52C42.004 109.976 43.5017 105.231 43.515 105.184C43.555 105.064 43.4884 104.938 43.3686 104.904C43.2488 104.864 43.1223 104.931 43.089 105.051C43.0757 105.098 41.5314 109.982 43.089 114.667C43.1223 114.76 43.2088 114.82 43.302 114.82Z" fill="#1D5237"/>
<path d="M38.7101 123.956C38.8233 123.956 38.9231 123.869 38.9298 123.756C39.1162 121.854 43.0369 119.298 43.0768 119.278C43.1833 119.211 43.21 119.071 43.1434 118.964C43.0768 118.858 42.937 118.831 42.8305 118.898C42.6641 119.004 38.6968 121.6 38.4838 123.709C38.4705 123.829 38.5637 123.942 38.6835 123.956C38.6968 123.956 38.7034 123.956 38.7101 123.956Z" fill="#1D5237"/>
<path d="M36.389 111.503C36.4289 111.503 36.4755 111.49 36.5155 111.463C37.3143 110.916 39.3911 110.622 39.4111 110.622C39.5309 110.602 39.6174 110.489 39.6041 110.369C39.5841 110.249 39.471 110.162 39.3512 110.175C39.2646 110.189 37.1478 110.489 36.2625 111.089C36.1627 111.156 36.136 111.296 36.2026 111.403C36.2492 111.47 36.3158 111.503 36.389 111.503Z" fill="#1D5237"/>
<path d="M59.7726 127.812C59.8192 127.812 59.8725 127.798 59.9124 127.765C63.7067 124.775 66.103 115.94 66.2029 115.567C66.2362 115.447 66.163 115.327 66.0431 115.293C65.9233 115.26 65.8035 115.333 65.7702 115.453C65.7436 115.547 63.3139 124.522 59.6395 127.418C59.5396 127.491 59.5263 127.638 59.5996 127.732C59.6395 127.785 59.706 127.812 59.7726 127.812Z" fill="#1D5237"/>
<path d="M66.4233 110.082C66.43 110.082 66.4366 110.082 66.4433 110.082C74.5444 109.401 79.2373 103.242 80.7816 101.22C81.008 100.92 81.201 100.666 81.2742 100.606C81.3741 100.526 81.3874 100.386 81.3075 100.292C81.2276 100.192 81.0878 100.179 80.9946 100.259C80.8881 100.346 80.7417 100.533 80.4288 100.946C78.9178 102.935 74.318 108.974 66.41 109.634C66.2835 109.648 66.197 109.755 66.2036 109.875C66.2103 109.995 66.3035 110.082 66.4233 110.082Z" fill="#1D5237"/>
<path d="M43.8323 84.643C43.9587 84.643 44.0586 84.5429 44.0586 84.4162V80.1722C44.0586 80.0454 43.9587 79.9453 43.8323 79.9453C43.7058 79.9453 43.6059 80.0454 43.6059 80.1722V84.4162C43.6059 84.5429 43.7058 84.643 43.8323 84.643Z" fill="#1D5237"/>
<path d="M56.8189 69.2232C56.9188 69.2232 57.012 69.1565 57.0453 69.0564C57.1118 68.8495 56.8256 67.3014 56.1866 64.4521C56.1599 64.332 56.0401 64.2519 55.9203 64.2786C55.8005 64.3053 55.7206 64.4254 55.7539 64.5455C56.1866 66.4873 56.6325 68.6827 56.6126 68.9429C56.5726 69.063 56.6392 69.1765 56.759 69.2099C56.7723 69.2232 56.7923 69.2232 56.8189 69.2232Z" fill="#1D5237"/>
<path d="M85.713 102.142C85.713 102.142 71.4345 124.729 51.8974 122.734C51.8974 122.734 43.9894 120.179 39.17 98.8853C39.17 98.8853 37.7122 102.816 37.7721 106.139C37.7721 106.139 37.832 117.956 47.7637 126.571L58.5274 133.024C58.5274 133.024 83.8491 124.616 92.4694 107.3C101.09 89.9837 85.713 102.142 85.713 102.142Z" fill="#7597D1"/>
<path d="M60.5898 125.483L45.0533 123.14C42.8101 122.8 40.7132 124.355 40.3804 126.604L38.4234 139.789C38.4234 139.789 35.348 153.349 36.7592 154.757C38.1704 156.171 51.4903 159.121 55.5907 156.552C59.6979 153.996 60.5898 125.483 60.5898 125.483Z" fill="#7597D1"/>
<path d="M60.586 131.369C60.5994 131.369 60.606 131.369 60.6193 131.369C60.7392 131.349 60.8257 131.236 60.8057 131.116L59.7274 124.096C59.7074 123.976 59.5942 123.889 59.4744 123.909C59.3546 123.929 59.268 124.043 59.288 124.163L60.3664 131.183C60.3864 131.289 60.4795 131.369 60.586 131.369Z" fill="#5B7FBD"/>
<path d="M44.378 123.321C44.3846 123.321 44.3913 123.321 44.3979 123.321L50.6818 122.687C50.8082 122.673 50.8948 122.567 50.8815 122.44C50.8681 122.32 50.755 122.226 50.6352 122.24L44.3513 122.873C44.2315 122.887 44.1383 122.994 44.1516 123.12C44.165 123.234 44.2648 123.321 44.378 123.321Z" fill="#5B7FBD"/>
<path d="M50.4467 139.642L55.2994 124.061C55.5923 123.114 56.5974 122.586 57.5493 122.88C58.4946 123.174 59.0205 124.181 58.7276 125.135L53.6086 141.571C52.6634 140.763 51.5917 140.109 50.4467 139.642Z" fill="#F0CA4D"/>
<path d="M49.5852 139.663C48.8396 139.062 48.0142 138.562 47.1489 138.161L50.7102 120.932C50.8633 120.205 51.5755 119.738 52.3011 119.884C53.0267 120.038 53.4993 120.752 53.3462 121.479L49.5852 139.663Z" fill="#53372A"/>
<path d="M59.5096 130.413C59.5096 130.413 57.8321 136.165 55.8285 136.686C53.8315 137.206 42.8747 135.291 41.57 133.55C40.2653 131.808 41.57 127.584 41.57 127.584C41.57 127.584 38.8941 131.808 37.8823 147.756C36.8705 163.704 38.701 147.756 38.701 147.756L54.7767 150.272C54.7901 150.272 60.1486 134.684 59.5096 130.413Z" fill="#7597D1"/>
<path d="M54.7999 137.007C55.2659 137.007 55.6387 136.973 55.885 136.913C57.9818 136.366 59.6526 130.721 59.7258 130.481C59.7591 130.36 59.6925 130.234 59.5727 130.2C59.4529 130.167 59.3264 130.234 59.2932 130.354C58.8338 131.922 57.3095 136.072 55.7718 136.473C53.9146 136.96 42.9711 135.058 41.7463 133.417C40.5282 131.788 41.7663 127.691 41.7796 127.651C41.8129 127.531 41.753 127.404 41.6332 127.371C41.5133 127.331 41.3869 127.398 41.3536 127.518C41.3003 127.691 40.0289 131.869 41.3869 133.684C42.5851 135.285 51.3052 137.007 54.7999 137.007Z" fill="#5B7FBD"/>
<path d="M39.3885 144.568C39.4018 144.568 39.4218 144.568 39.4351 144.561C39.5549 144.534 39.6348 144.414 39.6082 144.294L38.6496 139.743C38.623 139.623 38.5032 139.543 38.3833 139.57C38.2635 139.596 38.1836 139.716 38.2103 139.837L39.1688 144.387C39.1888 144.494 39.282 144.568 39.3885 144.568Z" fill="#5B7FBD"/>
<path d="M52.3426 150.499C52.4425 150.499 52.5356 150.433 52.5623 150.333C52.5955 150.212 52.5223 150.092 52.4025 150.059C52.3493 150.046 46.6845 148.551 42.5973 148.871C42.4709 148.878 42.3843 148.991 42.391 149.111C42.4043 149.238 42.5108 149.332 42.6306 149.318C46.6446 149.005 52.2294 150.479 52.2893 150.493C52.3027 150.499 52.3226 150.499 52.3426 150.499Z" fill="#5B7FBD"/>
<path d="M97.2604 85.1191L103.684 98.2514C103.684 98.2514 113.602 103.309 132.966 102.295C132.966 102.295 137.606 101.888 140.428 103.309C143.251 104.724 148.696 108.568 148.902 109.782C149.102 110.997 146.686 112.558 146.686 112.558C146.686 112.558 145.88 115.648 143.863 115.648C143.863 115.648 143.058 118.077 140.835 117.87C140.835 117.87 139.623 119.691 137.806 118.884C135.989 118.077 131.815 112.558 131.815 112.558C131.815 112.558 96.9076 119.091 91.8153 114.326C85.7045 108.608 83.9472 85.1325 83.9472 85.1325H97.2604V85.1191Z" fill="#FFA890"/>
<path d="M89.8179 57.6855C89.8179 57.6855 93.712 64.4585 94.797 71.7453C95.8821 79.0388 101.074 89.9757 101.074 89.9757C101.074 89.9757 91.7217 109.421 79.6 112.543C79.6 112.543 70.0744 88.3675 69.2091 74.0675C68.3437 59.7742 89.8179 57.6855 89.8179 57.6855Z" fill="#393253"/>
<path d="M131.814 112.777C131.874 112.777 131.928 112.757 131.974 112.711C132.061 112.624 132.061 112.484 131.974 112.39L130.716 111.116C130.63 111.029 130.49 111.029 130.397 111.116C130.31 111.203 130.31 111.343 130.397 111.436L131.655 112.711C131.701 112.751 131.754 112.777 131.814 112.777Z" fill="#E28065"/>
<path d="M101.945 98.4772H103.676C103.802 98.4772 103.902 98.3771 103.902 98.2503C103.902 98.1235 103.802 98.0234 103.676 98.0234H101.945C101.819 98.0234 101.719 98.1235 101.719 98.2503C101.719 98.3771 101.825 98.4772 101.945 98.4772Z" fill="#E28065"/>
<path d="M146.681 112.777C146.747 112.777 146.807 112.75 146.854 112.697C146.934 112.603 146.92 112.463 146.827 112.383L143.659 109.687C143.565 109.607 143.426 109.621 143.346 109.714C143.266 109.807 143.279 109.948 143.372 110.028L146.541 112.724C146.581 112.757 146.634 112.777 146.681 112.777Z" fill="#E28065"/>
<path d="M143.856 115.869C143.916 115.869 143.976 115.842 144.023 115.795C144.103 115.702 144.096 115.562 144.003 115.475L140.568 112.386C140.475 112.305 140.335 112.312 140.249 112.406C140.169 112.499 140.175 112.639 140.268 112.726L143.703 115.815C143.75 115.849 143.803 115.869 143.856 115.869Z" fill="#E28065"/>
<path d="M140.828 118.089C140.895 118.089 140.962 118.062 141.008 118.002C141.081 117.902 141.068 117.762 140.968 117.689L138.126 115.467C138.026 115.393 137.886 115.406 137.813 115.507C137.74 115.607 137.753 115.747 137.853 115.82L140.695 118.042C140.735 118.076 140.782 118.089 140.828 118.089Z" fill="#E28065"/>
<path d="M149.579 83.4687C149.639 83.4687 149.706 83.442 149.746 83.3953L151.117 81.8205C151.164 81.7737 151.177 81.707 151.17 81.6403L150.751 78.8577C150.731 78.7376 150.618 78.6508 150.498 78.6708C150.378 78.6909 150.292 78.8043 150.312 78.9244L150.718 81.6069L149.413 83.1017C149.333 83.1951 149.34 83.3352 149.433 83.4219C149.473 83.4486 149.526 83.4687 149.579 83.4687Z" fill="#E28065"/>
<path d="M153.961 83.8565C153.967 83.8565 153.967 83.8565 153.974 83.8565C154.101 83.8498 154.194 83.743 154.187 83.6229C154.107 81.8212 153.994 78.8585 154.061 78.5715C154.107 78.4581 154.047 78.3313 153.934 78.2846C153.821 78.2379 153.688 78.3046 153.641 78.4181C153.535 78.685 153.661 81.8012 153.748 83.6363C153.741 83.763 153.841 83.8565 153.961 83.8565Z" fill="#E28065"/>
<path d="M155.32 82.2379C155.44 82.2379 155.533 82.1445 155.546 82.031L155.906 77.0531C155.913 76.9263 155.819 76.8195 155.7 76.8128C155.573 76.8062 155.467 76.8996 155.46 77.0197L155.1 81.9977C155.094 82.1245 155.187 82.2312 155.307 82.2379C155.307 82.2379 155.313 82.2379 155.32 82.2379Z" fill="#E28065"/>
<path d="M156.776 80.4828C156.896 80.4828 156.995 80.3894 157.002 80.2693C157.042 79.295 157.182 76.6592 157.308 76.2055C157.342 76.0854 157.268 75.9653 157.149 75.9319C157.029 75.8985 156.909 75.9719 156.876 76.092C156.716 76.6793 156.569 79.8889 156.556 80.2559C156.55 80.3827 156.649 80.4828 156.769 80.4895C156.769 80.4828 156.776 80.4828 156.776 80.4828Z" fill="#E28065"/>
<path d="M139.922 69.5462C139.962 69.5462 140.002 69.5328 140.035 69.5128C140.142 69.4527 140.175 69.3126 140.115 69.2058L138.923 67.184C138.864 67.0772 138.724 67.0438 138.617 67.1039C138.511 67.1639 138.477 67.3041 138.537 67.4108L139.729 69.4327C139.769 69.5061 139.849 69.5462 139.922 69.5462Z" fill="#E28065"/>
<path d="M96.3398 65.7026C96.3597 65.7026 96.3731 65.7026 96.393 65.6959C96.4729 65.6759 96.5395 65.6092 96.5594 65.5291C96.6127 65.3022 97.8308 59.9772 97.4314 57.2814C97.0254 54.5588 92.7985 50.0546 92.6187 49.8678C92.5322 49.7744 92.3924 49.7744 92.2992 49.8611C92.206 49.9479 92.206 50.088 92.2925 50.1814C92.3325 50.2281 96.5994 54.7724 96.9855 57.3548C97.3116 59.5302 96.5062 63.634 96.2199 64.9886L89.9894 57.5483C89.9095 57.4549 89.7697 57.4415 89.6765 57.5216C89.5833 57.6017 89.57 57.7418 89.6499 57.8352L96.1667 65.6225C96.2066 65.6759 96.2732 65.7026 96.3398 65.7026Z" fill="#E8AE8B"/>
<path d="M84.2004 51.0594C84.2537 51.0594 84.3136 51.0394 84.3535 50.9927C84.4401 50.9059 84.4467 50.7658 84.3602 50.6724C84.2803 50.5856 76.146 42.1844 74.6482 37.4534C74.6083 37.3333 74.4818 37.2665 74.3686 37.3066C74.2488 37.3466 74.1823 37.4734 74.2222 37.5868C75.7532 42.418 83.7012 50.6323 84.0407 50.9793C84.0806 51.0394 84.1405 51.0594 84.2004 51.0594Z" fill="#E8AE8B"/>
<path d="M84.0479 38.5615C84.1344 38.5615 84.2143 38.5148 84.2476 38.4347C84.3008 38.3213 84.2542 38.1878 84.141 38.1344L81.312 36.7798C81.1988 36.7265 81.0657 36.7732 81.0125 36.8866C80.9592 37.0001 81.0058 37.1335 81.119 37.1869L83.948 38.5415C83.9813 38.5548 84.0146 38.5615 84.0479 38.5615Z" fill="#E8AE8B"/>
<path d="M98.0457 82.5431C98.0857 82.5431 98.1323 82.5297 98.1722 82.503C98.2787 82.4363 98.3053 82.2962 98.2321 82.1894C96.6478 79.7872 94.7707 70.2716 94.7507 70.1715C94.7241 70.0514 94.6109 69.9713 94.4844 69.9913C94.3646 70.018 94.2848 70.1315 94.3047 70.2583C94.3846 70.652 96.2152 79.9607 97.8527 82.4363C97.8993 82.503 97.9725 82.5431 98.0457 82.5431Z" fill="#E8AE8B"/>
<path d="M80.0318 70.024C80.0784 70.024 80.125 70.0106 80.1649 69.9839C83.1338 67.8153 86.6485 68.5226 86.6817 68.5293C86.8016 68.5559 86.9214 68.4759 86.948 68.3558C86.9746 68.2357 86.8948 68.1155 86.7749 68.0888C86.6218 68.0555 83.0406 67.3281 79.9053 69.6169C79.8055 69.6903 79.7855 69.8305 79.8587 69.9306C79.892 69.9906 79.9652 70.024 80.0318 70.024Z" fill="#E8AE8B"/>
<path d="M75.9776 102.715C75.9976 102.715 76.0176 102.715 76.0375 102.708C76.1574 102.675 76.2239 102.555 76.1973 102.435L70.3994 81.2952C70.3661 81.1751 70.2463 81.1017 70.1265 81.135C70.0067 81.1684 69.9401 81.2885 69.9667 81.4086L75.7646 102.548C75.7912 102.648 75.8778 102.715 75.9776 102.715Z" fill="#E8AE8B"/>
<path d="M116.185 44.439C116.398 44.439 116.518 44.399 116.531 44.3923C116.651 44.3523 116.711 44.2255 116.671 44.1054C116.631 43.9853 116.505 43.9252 116.392 43.9652C116.358 43.9786 115.639 44.1721 114.568 43.2312C114.475 43.1511 114.335 43.1578 114.248 43.2512C114.168 43.3447 114.175 43.4848 114.268 43.5715C115.107 44.3056 115.793 44.439 116.185 44.439Z" fill="#E28065"/>
</svg>
