<svg width="139" height="111" viewBox="0 0 139 111" fill="none" xmlns="http://www.w3.org/2000/svg">
<g clip-path="url(#clip0_6437_2665)">
<path d="M54.8555 13.2967C56.4298 12.4533 58.2599 12.0555 60.0795 12.09C61.9017 12.1218 63.724 12.5674 65.3695 13.3789C67.015 14.1879 68.4944 15.3761 69.573 16.8746C70.1136 17.6226 70.5382 18.4527 70.8177 19.3253C71.0867 20.2006 71.2133 21.1182 71.1289 22.0147C70.8968 20.2324 70.1031 18.6331 69.0008 17.3255C67.8958 16.0126 66.4876 14.9809 64.9581 14.2197C63.4233 13.4638 61.7514 12.9785 60.0373 12.8167C58.3232 12.6522 56.5722 12.8167 54.8555 13.2967Z" fill="#FF5500"/>
<path d="M55.4458 41.0195C54.8182 39.3407 54.5729 37.4814 54.7865 35.6514C54.9975 33.824 55.6515 32.031 56.7037 30.5007C57.7479 28.9703 59.1878 27.6946 60.8702 26.9254C61.7088 26.5382 62.6054 26.2862 63.5126 26.1855C64.4198 26.0926 65.3401 26.1457 66.2024 26.3923C64.4145 26.3022 62.6898 26.7477 61.1946 27.5779C59.6941 28.4107 58.4362 29.6281 57.4684 31.0338C56.5006 32.4448 55.8334 34.0627 55.5012 35.7654C55.1689 37.4682 55.1953 39.2425 55.4458 41.0195Z" fill="#FF5500"/>
<path d="M83.3654 12.0098C84.3042 13.5348 84.8211 15.3437 84.9081 17.1737C84.9977 19.0038 84.676 20.863 83.9772 22.5684C83.281 24.2712 82.2024 25.836 80.7863 27.0189C80.0822 27.6104 79.2858 28.0931 78.4367 28.4299C77.5849 28.7588 76.683 28.9444 75.7891 28.9206C77.5427 28.5705 79.0749 27.6687 80.3011 26.4752C81.53 25.279 82.4609 23.7991 83.1149 22.213C83.7636 20.6243 84.1328 18.9136 84.1829 17.1817C84.233 15.4497 83.9535 13.7019 83.3654 12.0098Z" fill="#FF5500"/>
<path d="M83.4028 41.5755C81.7678 42.2969 79.9377 42.6443 78.1076 42.5276C76.2827 42.4136 74.4658 41.854 72.8888 40.8806C71.3144 39.9125 69.9695 38.5386 69.1125 36.8889C68.6826 36.0694 68.3846 35.1809 68.2343 34.2738C68.0946 33.3667 68.0972 32.4384 68.2924 31.5605C68.2976 33.3614 68.8356 35.0668 69.7401 36.5256C70.6473 37.987 71.9236 39.1858 73.3714 40.0823C74.8244 40.9761 76.4673 41.5622 78.1735 41.8036C79.8902 42.0449 81.6518 41.9256 83.4028 41.5755Z" fill="#FF5500"/>
<path d="M88.9901 14.9482C90.728 24.7854 84.7102 35.7313 75.6755 32.7289C83.0989 34.1558 87.8615 27.5039 88.7686 19.8548C88.2729 22.5548 87.1205 25.17 85.1215 27.4244C78.3363 35.0788 70.2326 28.6312 70.2326 28.6312C68.8376 33.5378 71.5116 37.7045 76.9756 39.3304C82.3711 40.9376 89.0271 39.1208 93.1594 32.4133C101.15 19.4411 90.4695 5.30454 83.5947 2.76367C86.4243 5.50876 88.5814 10.0998 88.9901 14.9482Z" fill="#FF5500"/>
<path d="M94.5861 41.3648C91.8778 44.2319 87.3315 46.4386 82.5162 46.8895C72.7484 48.7169 61.8177 42.7519 64.7291 33.6414C63.371 41.1182 70.0217 45.8551 77.6349 46.7065C74.9451 46.2291 72.337 45.0912 70.0797 43.0994C62.4137 36.3361 68.7612 28.1327 68.7612 28.1327C63.872 26.7694 59.7503 29.4907 58.1786 34.9994C56.6253 40.4392 58.4845 47.1176 65.1853 51.2206C78.1439 59.1535 92.1151 48.2978 94.5861 41.3648Z" fill="#FF5500"/>
<path d="M50.2327 39.6212C48.8324 29.7283 55.2247 18.9999 64.1486 22.3126C56.7806 20.631 51.7912 27.1105 50.623 34.7251C51.2111 32.0437 52.4531 29.471 54.5285 27.2856C61.5722 19.8698 69.4518 26.596 69.4518 26.596C71.0129 21.7423 68.4866 17.4855 63.0806 15.6687C57.7431 13.8757 51.0291 15.4618 46.67 22.0208C38.234 34.7092 48.4237 49.2091 55.2036 51.986C52.4716 49.1428 50.4727 44.4802 50.2327 39.6212Z" fill="#FF5500"/>
<path d="M75.1153 21.9293C76.8901 14.5427 70.5189 9.43449 62.9637 8.15345C65.6219 8.78204 68.164 10.0684 70.3053 12.1849C77.5784 19.3725 70.7826 27.202 70.7826 27.202C75.5874 28.8411 79.8542 26.3559 81.7344 20.948C83.5909 15.6063 82.1089 8.83243 75.648 4.35542C63.1535 -4.30686 48.5942 5.73724 45.7383 12.5191C48.6021 9.81111 53.2671 7.86436 58.1009 7.69196C67.9557 6.42153 78.533 12.9991 75.1153 21.9293Z" fill="#FF5500"/>
<path d="M88.7813 40.388C88.7813 40.8813 88.3831 41.2818 87.8926 41.2818C87.4021 41.2818 87.0039 40.8813 87.0039 40.388C87.0039 39.8946 87.4021 39.4941 87.8926 39.4941C88.3857 39.4941 88.7813 39.8946 88.7813 40.388Z" fill="#FF5500"/>
<path d="M92.8321 37.3938C92.8321 37.8871 92.4339 38.2876 91.9434 38.2876C91.4529 38.2876 91.0547 37.8871 91.0547 37.3938C91.0547 36.9005 91.4529 36.5 91.9434 36.5C92.4339 36.5 92.8321 36.9005 92.8321 37.3938Z" fill="#FF5500"/>
<path d="M95.9102 33.4075C95.9102 33.9008 95.512 34.3013 95.0215 34.3013C94.531 34.3013 94.1328 33.9008 94.1328 33.4075C94.1328 32.9142 94.531 32.5137 95.0215 32.5137C95.5146 32.5137 95.9102 32.9115 95.9102 33.4075Z" fill="#FF5500"/>
<path d="M57.3081 44.9406C57.4374 44.4644 57.1584 43.973 56.6849 43.8429C56.2114 43.7129 55.7227 43.9936 55.5935 44.4698C55.4642 44.946 55.7432 45.4374 56.2167 45.5675C56.6902 45.6975 57.1788 45.4168 57.3081 44.9406Z" fill="#FF5500"/>
<path d="M59.0105 49.9005C58.5226 49.8607 58.1587 49.4284 58.1983 48.9351C58.2378 48.4444 58.6677 48.0784 59.1582 48.1182C59.646 48.158 60.0099 48.5903 59.9704 49.0836C59.9282 49.5769 59.4983 49.9429 59.0105 49.9005Z" fill="#FF5500"/>
<path d="M63.6284 52.6943C63.7731 52.2226 63.5102 51.7223 63.0412 51.5767C62.5722 51.4312 62.0746 51.6956 61.93 52.1674C61.7853 52.6391 62.0482 53.1395 62.5172 53.285C62.9862 53.4305 63.4837 53.1661 63.6284 52.6943Z" fill="#FF5500"/>
<path d="M49.9261 15.0528C49.9129 14.5595 50.2979 14.1484 50.7884 14.1351C51.2789 14.1218 51.6877 14.5091 51.7009 15.0024C51.714 15.4957 51.329 15.9068 50.8385 15.9201C50.3507 15.936 49.9419 15.5461 49.9261 15.0528Z" fill="#FF5500"/>
<path d="M45.9652 18.1641C45.952 17.6708 46.337 17.2597 46.8275 17.2464C47.318 17.2332 47.7267 17.6204 47.7399 18.1137C47.7531 18.607 47.3681 19.0181 46.8776 19.0314C46.3871 19.0473 45.9784 18.6574 45.9652 18.1641Z" fill="#FF5500"/>
<path d="M43.0003 22.2403C42.9871 21.747 43.3722 21.3359 43.8627 21.3226C44.3532 21.3093 44.7619 21.6966 44.7751 22.1899C44.7883 22.6832 44.4033 23.0943 43.9128 23.1076C43.4249 23.1208 43.0135 22.7336 43.0003 22.2403Z" fill="#FF5500"/>
<path d="M81.6433 6.17228C82.1285 6.10598 82.5768 6.44812 82.6427 6.93613C82.7086 7.42415 82.3685 7.87503 81.8832 7.94134C81.398 8.00765 80.9497 7.6655 80.8838 7.17749C80.8152 6.68947 81.1554 6.23859 81.6433 6.17228Z" fill="#FF5500"/>
<path d="M78.1426 2.54142C78.6279 2.47512 79.0762 2.81726 79.1421 3.30527C79.208 3.79329 78.8678 4.24417 78.3826 4.31048C77.8974 4.37679 77.4491 4.03464 77.3832 3.54663C77.3172 3.05861 77.6574 2.60773 78.1426 2.54142Z" fill="#FF5500"/>
<path d="M73.7989 0.00821925C74.2841 -0.0580872 74.7324 0.284054 74.7984 0.77207C74.8643 1.26009 74.5241 1.71097 74.0389 1.77728C73.5537 1.84358 73.1053 1.50144 73.0394 1.01343C72.9735 0.52541 73.3137 0.0745257 73.7989 0.00821925Z" fill="#FF5500"/>
</g>
<path d="M0.6 86L9.09 64.91H12.42L20.88 86H16.53L9.99 68.69H11.49L4.86 86H0.6ZM5.1 82.07V78.65H16.44V82.07H5.1ZM23.1853 86V71.51H27.1153V86H23.1853ZM27.1153 77.99L25.5853 76.97C25.7653 75.19 26.2853 73.79 27.1453 72.77C28.0053 71.73 29.2453 71.21 30.8653 71.21C31.5653 71.21 32.1953 71.33 32.7553 71.57C33.3153 71.79 33.8253 72.16 34.2853 72.68L31.8253 75.5C31.6053 75.26 31.3353 75.08 31.0153 74.96C30.7153 74.84 30.3653 74.78 29.9653 74.78C29.1253 74.78 28.4353 75.05 27.8953 75.59C27.3753 76.11 27.1153 76.91 27.1153 77.99ZM44.9058 86L39.2958 78.53L44.8758 71.51H49.4058L42.8658 79.43L43.0158 77.51L49.7058 86H44.9058ZM35.6658 86V64.31H39.5958V86H35.6658ZM56.9616 86.3C55.6216 86.3 54.4216 85.97 53.3616 85.31C52.3016 84.65 51.4616 83.75 50.8416 82.61C50.2416 81.47 49.9416 80.19 49.9416 78.77C49.9416 77.33 50.2416 76.04 50.8416 74.9C51.4616 73.76 52.2916 72.86 53.3316 72.2C54.3916 71.54 55.6016 71.21 56.9616 71.21C58.0016 71.21 58.9316 71.42 59.7516 71.84C60.5916 72.26 61.2616 72.85 61.7616 73.61C62.2816 74.35 62.5616 75.19 62.6016 76.13V81.29C62.5616 82.23 62.2916 83.08 61.7916 83.84C61.2916 84.6 60.6216 85.2 59.7816 85.64C58.9416 86.08 58.0016 86.3 56.9616 86.3ZM57.6216 82.67C58.3616 82.67 59.0016 82.51 59.5416 82.19C60.1016 81.85 60.5316 81.39 60.8316 80.81C61.1516 80.21 61.3116 79.52 61.3116 78.74C61.3116 77.98 61.1516 77.31 60.8316 76.73C60.5316 76.13 60.1016 75.67 59.5416 75.35C59.0016 75.01 58.3716 74.84 57.6516 74.84C56.9116 74.84 56.2616 75.01 55.7016 75.35C55.1616 75.69 54.7316 76.15 54.4116 76.73C54.1116 77.31 53.9616 77.98 53.9616 78.74C53.9616 79.52 54.1116 80.21 54.4116 80.81C54.7316 81.39 55.1716 81.85 55.7316 82.19C56.2916 82.51 56.9216 82.67 57.6216 82.67ZM65.0016 86H61.1016V82.1L61.7316 78.56L61.0716 75.08V64.31H65.0016V86ZM68.4783 86V71.51H72.4383V86H68.4783ZM70.4583 69.17C69.8183 69.17 69.2883 68.96 68.8683 68.54C68.4483 68.1 68.2383 67.56 68.2383 66.92C68.2383 66.3 68.4483 65.77 68.8683 65.33C69.2883 64.89 69.8183 64.67 70.4583 64.67C71.1183 64.67 71.6483 64.89 72.0483 65.33C72.4683 65.77 72.6783 66.3 72.6783 66.92C72.6783 67.56 72.4683 68.1 72.0483 68.54C71.6483 68.96 71.1183 69.17 70.4583 69.17ZM85.6697 86V77.69C85.6697 76.83 85.3997 76.13 84.8597 75.59C84.3197 75.05 83.6197 74.78 82.7597 74.78C82.1997 74.78 81.6997 74.9 81.2597 75.14C80.8197 75.38 80.4697 75.72 80.2097 76.16C79.9697 76.6 79.8497 77.11 79.8497 77.69L78.3197 76.91C78.3197 75.77 78.5597 74.78 79.0397 73.94C79.5397 73.08 80.2197 72.41 81.0797 71.93C81.9597 71.45 82.9497 71.21 84.0497 71.21C85.1097 71.21 86.0597 71.48 86.8997 72.02C87.7397 72.54 88.3997 73.23 88.8797 74.09C89.3597 74.93 89.5997 75.84 89.5997 76.82V86H85.6697ZM75.9197 86V71.51H79.8497V86H75.9197ZM91.6254 86L100.115 64.91H103.445L111.905 86H107.555L101.015 68.69H102.515L95.8854 86H91.6254ZM96.1254 82.07V78.65H107.465V82.07H96.1254ZM114.211 86V71.51H118.171V86H114.211ZM116.191 69.17C115.551 69.17 115.021 68.96 114.601 68.54C114.181 68.1 113.971 67.56 113.971 66.92C113.971 66.3 114.181 65.77 114.601 65.33C115.021 64.89 115.551 64.67 116.191 64.67C116.851 64.67 117.381 64.89 117.781 65.33C118.201 65.77 118.411 66.3 118.411 66.92C118.411 67.56 118.201 68.1 117.781 68.54C117.381 68.96 116.851 69.17 116.191 69.17ZM121.652 86V71.51H125.582V86H121.652ZM125.582 77.99L124.052 76.97C124.232 75.19 124.752 73.79 125.612 72.77C126.472 71.73 127.712 71.21 129.332 71.21C130.032 71.21 130.662 71.33 131.222 71.57C131.782 71.79 132.292 72.16 132.752 72.68L130.292 75.5C130.072 75.26 129.802 75.08 129.482 74.96C129.182 74.84 128.832 74.78 128.432 74.78C127.592 74.78 126.902 75.05 126.362 75.59C125.842 76.11 125.582 76.91 125.582 77.99Z" fill="white"/>
<path d="M1.184 107V95.8H4.8C5.67467 95.8 6.38933 95.944 6.944 96.232C7.49867 96.52 7.90933 96.9147 8.176 97.416C8.44267 97.9173 8.576 98.472 8.576 99.08C8.576 99.784 8.384 100.419 8 100.984C7.62667 101.549 7.04 101.949 6.24 102.184L8.688 107H7.104L4.832 102.376H4.736H2.528V107H1.184ZM2.528 101.32H4.704C5.568 101.32 6.19733 101.112 6.592 100.696C6.98667 100.28 7.184 99.7467 7.184 99.096C7.184 98.4347 6.98667 97.912 6.592 97.528C6.208 97.1333 5.57333 96.936 4.688 96.936H2.528V101.32ZM13.672 107.192C12.9147 107.192 12.2427 107.021 11.656 106.68C11.0693 106.328 10.6053 105.843 10.264 105.224C9.93333 104.605 9.768 103.875 9.768 103.032C9.768 102.2 9.93333 101.475 10.264 100.856C10.5947 100.227 11.0533 99.7413 11.64 99.4C12.2373 99.048 12.9253 98.872 13.704 98.872C14.472 98.872 15.1333 99.048 15.688 99.4C16.2533 99.7413 16.6853 100.195 16.984 100.76C17.2827 101.325 17.432 101.933 17.432 102.584C17.432 102.701 17.4267 102.819 17.416 102.936C17.416 103.053 17.416 103.187 17.416 103.336H11.096C11.128 103.944 11.2667 104.451 11.512 104.856C11.768 105.251 12.0827 105.549 12.456 105.752C12.84 105.955 13.2453 106.056 13.672 106.056C14.2267 106.056 14.6907 105.928 15.064 105.672C15.4373 105.416 15.7093 105.069 15.88 104.632H17.208C16.9947 105.368 16.584 105.981 15.976 106.472C15.3787 106.952 14.6107 107.192 13.672 107.192ZM13.672 100.008C13.032 100.008 12.4613 100.205 11.96 100.6C11.4693 100.984 11.1867 101.549 11.112 102.296H16.104C16.072 101.581 15.8267 101.021 15.368 100.616C14.9093 100.211 14.344 100.008 13.672 100.008ZM19.2134 110.52V99.064H20.4294L20.5574 100.376C20.8134 99.992 21.176 99.6453 21.6454 99.336C22.1254 99.0267 22.7334 98.872 23.4694 98.872C24.2587 98.872 24.9467 99.0533 25.5334 99.416C26.12 99.7787 26.5734 100.275 26.8934 100.904C27.224 101.533 27.3894 102.248 27.3894 103.048C27.3894 103.848 27.224 104.563 26.8934 105.192C26.5734 105.811 26.1147 106.301 25.5174 106.664C24.9307 107.016 24.2427 107.192 23.4534 107.192C22.8027 107.192 22.2214 107.059 21.7094 106.792C21.208 106.525 20.824 106.152 20.5574 105.672V110.52H19.2134ZM23.3094 106.024C23.8427 106.024 24.312 105.901 24.7174 105.656C25.1227 105.4 25.4427 105.048 25.6774 104.6C25.912 104.152 26.0294 103.629 26.0294 103.032C26.0294 102.435 25.912 101.912 25.6774 101.464C25.4427 101.016 25.1227 100.669 24.7174 100.424C24.312 100.168 23.8427 100.04 23.3094 100.04C22.776 100.04 22.3067 100.168 21.9014 100.424C21.496 100.669 21.176 101.016 20.9414 101.464C20.7067 101.912 20.5894 102.435 20.5894 103.032C20.5894 103.629 20.7067 104.152 20.9414 104.6C21.176 105.048 21.496 105.4 21.9014 105.656C22.3067 105.901 22.776 106.024 23.3094 106.024ZM31.9003 107.192C31.2389 107.192 30.6896 107.08 30.2523 106.856C29.8149 106.632 29.4896 106.333 29.2763 105.96C29.0629 105.587 28.9563 105.181 28.9563 104.744C28.9563 103.933 29.2656 103.309 29.8843 102.872C30.5029 102.435 31.3456 102.216 32.4123 102.216H34.5563V102.12C34.5563 101.427 34.3749 100.904 34.0123 100.552C33.6496 100.189 33.1643 100.008 32.5563 100.008C32.0336 100.008 31.5803 100.141 31.1963 100.408C30.8229 100.664 30.5883 101.043 30.4923 101.544H29.1163C29.1696 100.968 29.3616 100.483 29.6923 100.088C30.0336 99.6933 30.4549 99.3947 30.9563 99.192C31.4576 98.9787 31.9909 98.872 32.5563 98.872C33.6656 98.872 34.4976 99.1707 35.0523 99.768C35.6176 100.355 35.9003 101.139 35.9003 102.12V107H34.7003L34.6203 105.576C34.3963 106.024 34.0656 106.408 33.6283 106.728C33.2016 107.037 32.6256 107.192 31.9003 107.192ZM32.1083 106.056C32.6203 106.056 33.0576 105.923 33.4203 105.656C33.7936 105.389 34.0763 105.043 34.2683 104.616C34.4603 104.189 34.5563 103.741 34.5563 103.272V103.256H32.5243C31.7349 103.256 31.1749 103.395 30.8443 103.672C30.5243 103.939 30.3643 104.275 30.3643 104.68C30.3643 105.096 30.5136 105.432 30.8123 105.688C31.1216 105.933 31.5536 106.056 32.1083 106.056ZM38.7325 97.304C38.4658 97.304 38.2418 97.2187 38.0605 97.048C37.8898 96.8667 37.8045 96.6427 37.8045 96.376C37.8045 96.12 37.8898 95.9067 38.0605 95.736C38.2418 95.5653 38.4658 95.48 38.7325 95.48C38.9885 95.48 39.2072 95.5653 39.3885 95.736C39.5698 95.9067 39.6605 96.12 39.6605 96.376C39.6605 96.6427 39.5698 96.8667 39.3885 97.048C39.2072 97.2187 38.9885 97.304 38.7325 97.304ZM38.0605 107V99.064H39.4045V107H38.0605ZM41.7446 107V99.064H42.9606L43.0726 100.584C43.318 100.061 43.6913 99.6453 44.1926 99.336C44.694 99.0267 45.3126 98.872 46.0486 98.872V100.28H45.6806C45.2113 100.28 44.7793 100.365 44.3846 100.536C43.99 100.696 43.6753 100.973 43.4406 101.368C43.206 101.763 43.0886 102.307 43.0886 103V107H41.7446ZM48.3731 97.304C48.1065 97.304 47.8825 97.2187 47.7011 97.048C47.5305 96.8667 47.4451 96.6427 47.4451 96.376C47.4451 96.12 47.5305 95.9067 47.7011 95.736C47.8825 95.5653 48.1065 95.48 48.3731 95.48C48.6291 95.48 48.8478 95.5653 49.0291 95.736C49.2105 95.9067 49.3011 96.12 49.3011 96.376C49.3011 96.6427 49.2105 96.8667 49.0291 97.048C48.8478 97.2187 48.6291 97.304 48.3731 97.304ZM47.7011 107V99.064H49.0451V107H47.7011ZM51.3853 107V99.064H52.6013L52.6813 100.488C52.9373 99.9867 53.3053 99.592 53.7853 99.304C54.2653 99.016 54.8093 98.872 55.4173 98.872C56.3559 98.872 57.1026 99.16 57.6573 99.736C58.2226 100.301 58.5052 101.176 58.5052 102.36V107H57.1613V102.504C57.1613 100.851 56.4786 100.024 55.1133 100.024C54.4306 100.024 53.8599 100.275 53.4013 100.776C52.9533 101.267 52.7293 101.971 52.7293 102.888V107H51.3853ZM63.6775 104.504C63.2295 104.504 62.8188 104.445 62.4455 104.328L61.6455 105.08C61.7628 105.165 61.9068 105.24 62.0775 105.304C62.2588 105.357 62.5148 105.411 62.8455 105.464C63.1762 105.507 63.6402 105.555 64.2375 105.608C65.3042 105.683 66.0668 105.928 66.5255 106.344C66.9842 106.76 67.2135 107.304 67.2135 107.976C67.2135 108.435 67.0855 108.872 66.8295 109.288C66.5842 109.704 66.2002 110.045 65.6775 110.312C65.1655 110.579 64.5042 110.712 63.6935 110.712C62.9788 110.712 62.3442 110.616 61.7895 110.424C61.2348 110.243 60.8028 109.96 60.4935 109.576C60.1842 109.203 60.0295 108.728 60.0295 108.152C60.0295 107.853 60.1095 107.528 60.2695 107.176C60.4295 106.835 60.7282 106.509 61.1655 106.2C60.9308 106.104 60.7282 106.003 60.5575 105.896C60.3975 105.779 60.2482 105.651 60.1095 105.512V105.144L61.4695 103.8C60.8402 103.267 60.5255 102.563 60.5255 101.688C60.5255 101.165 60.6482 100.691 60.8935 100.264C61.1388 99.8373 61.4962 99.5013 61.9655 99.256C62.4348 99 63.0055 98.872 63.6775 98.872C64.1362 98.872 64.5522 98.936 64.9255 99.064H67.8535V100.072L66.3655 100.136C66.6748 100.584 66.8295 101.101 66.8295 101.688C66.8295 102.211 66.7015 102.685 66.4455 103.112C66.2002 103.539 65.8428 103.88 65.3735 104.136C64.9148 104.381 64.3495 104.504 63.6775 104.504ZM63.6775 103.4C64.2428 103.4 64.6908 103.256 65.0215 102.968C65.3628 102.669 65.5335 102.243 65.5335 101.688C65.5335 101.144 65.3628 100.728 65.0215 100.44C64.6908 100.141 64.2428 99.992 63.6775 99.992C63.1015 99.992 62.6428 100.141 62.3015 100.44C61.9708 100.728 61.8055 101.144 61.8055 101.688C61.8055 102.243 61.9708 102.669 62.3015 102.968C62.6428 103.256 63.1015 103.4 63.6775 103.4ZM61.3415 108.024C61.3415 108.557 61.5655 108.952 62.0135 109.208C62.4615 109.475 63.0215 109.608 63.6935 109.608C64.3548 109.608 64.8828 109.464 65.2775 109.176C65.6828 108.888 65.8855 108.504 65.8855 108.024C65.8855 107.683 65.7468 107.384 65.4695 107.128C65.1922 106.883 64.6802 106.739 63.9335 106.696C63.3468 106.653 62.8402 106.6 62.4135 106.536C61.9762 106.771 61.6882 107.021 61.5495 107.288C61.4108 107.565 61.3415 107.811 61.3415 108.024ZM77.252 107.192C76.4307 107.192 75.716 107.043 75.108 106.744C74.5 106.445 74.0307 106.029 73.7 105.496C73.3693 104.963 73.204 104.344 73.204 103.64H74.612C74.612 104.077 74.7133 104.483 74.916 104.856C75.1187 105.219 75.412 105.512 75.796 105.736C76.1907 105.949 76.676 106.056 77.252 106.056C78.0093 106.056 78.596 105.875 79.012 105.512C79.428 105.149 79.636 104.696 79.636 104.152C79.636 103.704 79.54 103.347 79.348 103.08C79.156 102.803 78.8947 102.579 78.564 102.408C78.244 102.237 77.8707 102.088 77.444 101.96C77.028 101.832 76.5907 101.688 76.132 101.528C75.268 101.229 74.628 100.861 74.212 100.424C73.796 99.976 73.588 99.3947 73.588 98.68C73.5773 98.0827 73.716 97.5547 74.004 97.096C74.292 96.6267 74.6973 96.264 75.22 96.008C75.7533 95.7413 76.3827 95.608 77.108 95.608C77.8227 95.608 78.4413 95.7413 78.964 96.008C79.4973 96.2747 79.908 96.6427 80.196 97.112C80.4947 97.5813 80.6493 98.1147 80.66 98.712H79.252C79.252 98.4027 79.172 98.0987 79.012 97.8C78.852 97.4907 78.6067 97.24 78.276 97.048C77.956 96.856 77.5507 96.76 77.06 96.76C76.452 96.7493 75.9507 96.904 75.556 97.224C75.172 97.544 74.98 97.9867 74.98 98.552C74.98 99.032 75.1133 99.4 75.38 99.656C75.6573 99.912 76.0413 100.125 76.532 100.296C77.0227 100.456 77.588 100.643 78.228 100.856C78.7613 101.048 79.2413 101.272 79.668 101.528C80.0947 101.784 80.4253 102.115 80.66 102.52C80.9053 102.925 81.028 103.443 81.028 104.072C81.028 104.605 80.8893 105.112 80.612 105.592C80.3347 106.061 79.9133 106.445 79.348 106.744C78.7933 107.043 78.0947 107.192 77.252 107.192ZM86.422 107.192C85.6647 107.192 84.9927 107.021 84.406 106.68C83.8193 106.328 83.3553 105.843 83.014 105.224C82.6833 104.605 82.518 103.875 82.518 103.032C82.518 102.2 82.6833 101.475 83.014 100.856C83.3447 100.227 83.8033 99.7413 84.39 99.4C84.9873 99.048 85.6753 98.872 86.454 98.872C87.222 98.872 87.8833 99.048 88.438 99.4C89.0033 99.7413 89.4353 100.195 89.734 100.76C90.0327 101.325 90.182 101.933 90.182 102.584C90.182 102.701 90.1767 102.819 90.166 102.936C90.166 103.053 90.166 103.187 90.166 103.336H83.846C83.878 103.944 84.0167 104.451 84.262 104.856C84.518 105.251 84.8327 105.549 85.206 105.752C85.59 105.955 85.9953 106.056 86.422 106.056C86.9767 106.056 87.4407 105.928 87.814 105.672C88.1873 105.416 88.4593 105.069 88.63 104.632H89.958C89.7447 105.368 89.334 105.981 88.726 106.472C88.1287 106.952 87.3607 107.192 86.422 107.192ZM86.422 100.008C85.782 100.008 85.2113 100.205 84.71 100.6C84.2193 100.984 83.9367 101.549 83.862 102.296H88.854C88.822 101.581 88.5767 101.021 88.118 100.616C87.6593 100.211 87.094 100.008 86.422 100.008ZM91.9634 107V99.064H93.1794L93.2914 100.584C93.5367 100.061 93.91 99.6453 94.4114 99.336C94.9127 99.0267 95.5314 98.872 96.2674 98.872V100.28H95.8994C95.43 100.28 94.998 100.365 94.6034 100.536C94.2087 100.696 93.894 100.973 93.6594 101.368C93.4247 101.763 93.3074 102.307 93.3074 103V107H91.9634ZM100.064 107L97.0559 99.064H98.4639L100.848 105.704L103.248 99.064H104.624L101.616 107H100.064ZM106.936 97.304C106.669 97.304 106.445 97.2187 106.264 97.048C106.093 96.8667 106.008 96.6427 106.008 96.376C106.008 96.12 106.093 95.9067 106.264 95.736C106.445 95.5653 106.669 95.48 106.936 95.48C107.192 95.48 107.41 95.5653 107.592 95.736C107.773 95.9067 107.864 96.12 107.864 96.376C107.864 96.6427 107.773 96.8667 107.592 97.048C107.41 97.2187 107.192 97.304 106.936 97.304ZM106.264 107V99.064H107.608V107H106.264ZM113.596 107.192C112.838 107.192 112.156 107.021 111.548 106.68C110.95 106.328 110.476 105.843 110.124 105.224C109.782 104.595 109.612 103.864 109.612 103.032C109.612 102.2 109.782 101.475 110.124 100.856C110.476 100.227 110.95 99.7413 111.548 99.4C112.156 99.048 112.838 98.872 113.596 98.872C114.534 98.872 115.324 99.1173 115.964 99.608C116.614 100.099 117.025 100.755 117.196 101.576H115.82C115.713 101.085 115.452 100.707 115.036 100.44C114.62 100.163 114.134 100.024 113.58 100.024C113.132 100.024 112.71 100.136 112.316 100.36C111.921 100.584 111.601 100.92 111.356 101.368C111.11 101.816 110.988 102.371 110.988 103.032C110.988 103.693 111.11 104.248 111.356 104.696C111.601 105.144 111.921 105.485 112.316 105.72C112.71 105.944 113.132 106.056 113.58 106.056C114.134 106.056 114.62 105.923 115.036 105.656C115.452 105.379 115.713 104.989 115.82 104.488H117.196C117.036 105.288 116.63 105.939 115.98 106.44C115.329 106.941 114.534 107.192 113.596 107.192ZM122.641 107.192C121.883 107.192 121.211 107.021 120.625 106.68C120.038 106.328 119.574 105.843 119.233 105.224C118.902 104.605 118.737 103.875 118.737 103.032C118.737 102.2 118.902 101.475 119.233 100.856C119.563 100.227 120.022 99.7413 120.609 99.4C121.206 99.048 121.894 98.872 122.673 98.872C123.441 98.872 124.102 99.048 124.657 99.4C125.222 99.7413 125.654 100.195 125.953 100.76C126.251 101.325 126.401 101.933 126.401 102.584C126.401 102.701 126.395 102.819 126.385 102.936C126.385 103.053 126.385 103.187 126.385 103.336H120.065C120.097 103.944 120.235 104.451 120.481 104.856C120.737 105.251 121.051 105.549 121.425 105.752C121.809 105.955 122.214 106.056 122.641 106.056C123.195 106.056 123.659 105.928 124.033 105.672C124.406 105.416 124.678 105.069 124.849 104.632H126.177C125.963 105.368 125.553 105.981 124.945 106.472C124.347 106.952 123.579 107.192 122.641 107.192ZM122.641 100.008C122.001 100.008 121.43 100.205 120.929 100.6C120.438 100.984 120.155 101.549 120.081 102.296H125.073C125.041 101.581 124.795 101.021 124.337 100.616C123.878 100.211 123.313 100.008 122.641 100.008ZM131.222 107.192C130.273 107.192 129.483 106.952 128.854 106.472C128.225 105.992 127.857 105.341 127.75 104.52H129.126C129.211 104.936 129.43 105.299 129.782 105.608C130.145 105.907 130.63 106.056 131.238 106.056C131.803 106.056 132.219 105.939 132.486 105.704C132.753 105.459 132.886 105.171 132.886 104.84C132.886 104.36 132.71 104.04 132.358 103.88C132.017 103.72 131.531 103.576 130.902 103.448C130.475 103.363 130.049 103.24 129.622 103.08C129.195 102.92 128.838 102.696 128.55 102.408C128.262 102.109 128.118 101.72 128.118 101.24C128.118 100.547 128.374 99.9813 128.886 99.544C129.409 99.096 130.113 98.872 130.998 98.872C131.841 98.872 132.529 99.0853 133.062 99.512C133.606 99.928 133.921 100.525 134.006 101.304H132.678C132.625 100.899 132.449 100.584 132.15 100.36C131.862 100.125 131.473 100.008 130.982 100.008C130.502 100.008 130.129 100.109 129.862 100.312C129.606 100.515 129.478 100.781 129.478 101.112C129.478 101.432 129.643 101.683 129.974 101.864C130.315 102.045 130.774 102.2 131.35 102.328C131.841 102.435 132.305 102.568 132.742 102.728C133.19 102.877 133.553 103.107 133.83 103.416C134.118 103.715 134.262 104.152 134.262 104.728C134.273 105.443 134.001 106.035 133.446 106.504C132.902 106.963 132.161 107.192 131.222 107.192Z" fill="#FF5500"/>
<defs>
<clipPath id="clip0_6437_2665">
<rect width="53" height="54" fill="white" transform="translate(43)"/>
</clipPath>
</defs>
</svg>
