<svg width="212" height="54" viewBox="0 0 212 54" fill="none" xmlns="http://www.w3.org/2000/svg">
<g clip-path="url(#clip0_6284_573)">
<path d="M11.8555 13.2987C13.4298 12.4553 15.2599 12.0574 17.0795 12.0919C18.9017 12.1237 20.724 12.5693 22.3695 13.3809C24.015 14.1898 25.4944 15.3781 26.573 16.8766C27.1136 17.6245 27.5382 18.4547 27.8177 19.3273C28.0867 20.2025 28.2133 21.1202 28.1289 22.0167C27.8968 20.2343 27.1031 18.635 26.0008 17.3275C24.8958 16.0146 23.4876 14.9829 21.9581 14.2217C20.4233 13.4658 18.7514 12.9804 17.0373 12.8186C15.3232 12.6542 13.5722 12.8186 11.8555 13.2987Z" fill="#FF5500"/>
<path d="M12.4458 41.0215C11.8182 39.3426 11.5729 37.4834 11.7865 35.6533C11.9975 33.8259 12.6515 32.033 13.7037 30.5026C14.7479 28.9723 16.1878 27.6965 17.8702 26.9274C18.7088 26.5402 19.6054 26.2882 20.5126 26.1874C21.4198 26.0946 22.3401 26.1476 23.2024 26.3943C21.4145 26.3041 19.6898 26.7497 18.1946 27.5798C16.6941 28.4127 15.4362 29.63 14.4684 31.0357C13.5006 32.4467 12.8334 34.0646 12.5012 35.7674C12.1689 37.4701 12.1953 39.2445 12.4458 41.0215Z" fill="#FF5500"/>
<path d="M40.3654 12.0117C41.3042 13.5368 41.8211 15.3456 41.9081 17.1757C41.9977 19.0057 41.676 20.865 40.9772 22.5704C40.281 24.2731 39.2024 25.8379 37.7863 27.0209C37.0822 27.6123 36.2858 28.095 35.4367 28.4319C34.5849 28.7607 33.683 28.9464 32.7891 28.9225C34.5427 28.5724 36.0749 27.6707 37.3011 26.4771C38.53 25.281 39.4609 23.801 40.1149 22.215C40.7636 20.6263 41.1328 18.9155 41.1829 17.1836C41.233 15.4517 40.9535 13.7039 40.3654 12.0117Z" fill="#FF5500"/>
<path d="M40.4028 41.5774C38.7678 42.2988 36.9377 42.6463 35.1076 42.5296C33.2827 42.4155 31.4658 41.8559 29.8888 40.8825C28.3144 39.9145 26.9695 38.5406 26.1125 36.8909C25.6826 36.0713 25.3846 35.1828 25.2343 34.2758C25.0946 33.3687 25.0972 32.4404 25.2924 31.5625C25.2976 33.3634 25.8356 35.0688 26.7401 36.5275C27.6473 37.9889 28.9236 39.1877 30.3714 40.0842C31.8244 40.978 33.4673 41.5642 35.1735 41.8055C36.8902 42.0469 38.6518 41.9275 40.4028 41.5774Z" fill="#FF5500"/>
<path d="M45.9901 14.9501C47.728 24.7873 41.7102 35.7332 32.6755 32.7309C40.0989 34.1578 44.8615 27.5059 45.7686 19.8568C45.2729 22.5568 44.1205 25.1719 42.1215 27.4263C35.3363 35.0808 27.2326 28.6331 27.2326 28.6331C25.8376 33.5398 28.5116 37.7065 33.9756 39.3323C39.3711 40.9396 46.0271 39.1228 50.1594 32.4152C58.1497 19.443 47.4695 5.30649 40.5947 2.76562C43.4243 5.51071 45.5814 10.1018 45.9901 14.9501Z" fill="#FF5500"/>
<path d="M51.5861 41.3668C48.8778 44.2339 44.3315 46.4405 39.5162 46.8914C29.7484 48.7188 18.8177 42.7539 21.7291 33.6434C20.371 41.1201 27.0217 45.857 34.6349 46.7084C31.9451 46.231 29.337 45.0932 27.0797 43.1013C19.4137 36.3381 25.7612 28.1346 25.7612 28.1346C20.872 26.7714 16.7503 29.4926 15.1786 35.0013C13.6253 40.4411 15.4845 47.1195 22.1853 51.2226C35.1439 59.1555 49.1151 48.2998 51.5861 41.3668Z" fill="#FF5500"/>
<path d="M7.23273 39.6232C5.83244 29.7302 12.2247 19.0018 21.1486 22.3145C13.7806 20.633 8.79124 27.1125 7.62301 34.7271C8.21108 32.0457 9.45315 29.473 11.5285 27.2875C18.5722 19.8718 26.4518 26.5979 26.4518 26.5979C28.0129 21.7443 25.4866 17.4874 20.0806 15.6706C14.7431 13.8777 8.02912 15.4637 3.67003 22.0228C-4.76598 34.7112 5.42369 49.2111 12.2036 51.988C9.47161 49.1448 7.4727 44.4821 7.23273 39.6232Z" fill="#FF5500"/>
<path d="M32.1153 21.9312C33.8901 14.5447 27.5189 9.43645 19.9637 8.1554C22.6219 8.78399 25.164 10.0703 27.3053 12.1868C34.5784 19.3745 27.7826 27.2039 27.7826 27.2039C32.5874 28.843 36.8542 26.3579 38.7344 20.9499C40.5909 15.6083 39.1089 8.83438 32.648 4.35737C20.1535 -4.30491 5.59424 5.7392 2.73828 12.521C5.60215 9.81307 10.2671 7.86631 15.1009 7.69391C24.9557 6.42348 35.533 13.0011 32.1153 21.9312Z" fill="#FF5500"/>
<path d="M45.7813 40.3899C45.7813 40.8832 45.3831 41.2837 44.8926 41.2837C44.4021 41.2837 44.0039 40.8832 44.0039 40.3899C44.0039 39.8966 44.4021 39.4961 44.8926 39.4961C45.3857 39.4961 45.7813 39.8966 45.7813 40.3899Z" fill="#FF5500"/>
<path d="M49.8321 37.3958C49.8321 37.8891 49.4339 38.2896 48.9434 38.2896C48.4529 38.2896 48.0547 37.8891 48.0547 37.3958C48.0547 36.9024 48.4529 36.502 48.9434 36.502C49.4339 36.502 49.8321 36.9024 49.8321 37.3958Z" fill="#FF5500"/>
<path d="M52.9102 33.4094C52.9102 33.9028 52.512 34.3032 52.0215 34.3032C51.531 34.3032 51.1328 33.9028 51.1328 33.4094C51.1328 32.9161 51.531 32.5156 52.0215 32.5156C52.5146 32.5156 52.9102 32.9135 52.9102 33.4094Z" fill="#FF5500"/>
<path d="M14.3081 44.9426C14.4374 44.4664 14.1584 43.9749 13.6849 43.8449C13.2114 43.7149 12.7227 43.9955 12.5935 44.4717C12.4642 44.9479 12.7432 45.4394 13.2167 45.5694C13.6902 45.6994 14.1788 45.4188 14.3081 44.9426Z" fill="#FF5500"/>
<path d="M16.0105 49.9025C15.5226 49.8627 15.1587 49.4304 15.1983 48.937C15.2378 48.4464 15.6677 48.0804 16.1582 48.1201C16.646 48.1599 17.0099 48.5922 16.9704 49.0856C16.9282 49.5789 16.4983 49.9449 16.0105 49.9025Z" fill="#FF5500"/>
<path d="M20.6284 52.6963C20.7731 52.2246 20.5102 51.7242 20.0412 51.5787C19.5722 51.4332 19.0746 51.6976 18.93 52.1693C18.7853 52.641 19.0482 53.1414 19.5172 53.2869C19.9862 53.4325 20.4837 53.168 20.6284 52.6963Z" fill="#FF5500"/>
<path d="M6.92611 15.0547C6.91292 14.5614 7.29794 14.1503 7.78843 14.137C8.27893 14.1238 8.68768 14.511 8.70086 15.0043C8.71405 15.4977 8.32904 15.9088 7.83854 15.922C7.35068 15.9379 6.94193 15.5481 6.92611 15.0547Z" fill="#FF5500"/>
<path d="M2.96517 18.1661C2.95199 17.6727 3.337 17.2616 3.8275 17.2484C4.31799 17.2351 4.72674 17.6223 4.73993 18.1157C4.75311 18.609 4.3681 19.0201 3.8776 19.0333C3.38711 19.0493 2.97836 18.6594 2.96517 18.1661Z" fill="#FF5500"/>
<path d="M0.000328792 22.2422C-0.0128566 21.7489 0.372157 21.3378 0.862653 21.3245C1.35315 21.3113 1.7619 21.6985 1.77508 22.1918C1.78827 22.6852 1.40325 23.0963 0.912758 23.1095C0.424898 23.1228 0.0135142 22.7356 0.000328792 22.2422Z" fill="#FF5500"/>
<path d="M38.6433 6.17423C39.1285 6.10793 39.5768 6.45007 39.6427 6.93809C39.7086 7.4261 39.3685 7.87699 38.8832 7.94329C38.398 8.0096 37.9497 7.66746 37.8838 7.17944C37.8152 6.69143 38.1554 6.24054 38.6433 6.17423Z" fill="#FF5500"/>
<path d="M35.1426 2.54338C35.6279 2.47707 36.0762 2.81921 36.1421 3.30723C36.208 3.79524 35.8678 4.24613 35.3826 4.31243C34.8974 4.37874 34.4491 4.0366 34.3832 3.54858C34.3172 3.06057 34.6574 2.60968 35.1426 2.54338Z" fill="#FF5500"/>
<path d="M30.7989 0.0101724C31.2841 -0.0561341 31.7324 0.286007 31.7984 0.774023C31.8643 1.26204 31.5241 1.71292 31.0389 1.77923C30.5537 1.84554 30.1053 1.50339 30.0394 1.01538C29.9735 0.527363 30.3137 0.0764789 30.7989 0.0101724Z" fill="#FF5500"/>
</g>
<path d="M73.6 27.002L82.09 5.91195H85.42L93.88 27.002H89.53L82.99 9.69195H84.49L77.86 27.002H73.6ZM78.1 23.072V19.652H89.44V23.072H78.1ZM96.1853 27.002V12.512H100.115V27.002H96.1853ZM100.115 18.992L98.5853 17.972C98.7653 16.192 99.2853 14.792 100.145 13.772C101.005 12.732 102.245 12.212 103.865 12.212C104.565 12.212 105.195 12.332 105.755 12.572C106.315 12.792 106.825 13.162 107.285 13.682L104.825 16.502C104.605 16.262 104.335 16.082 104.015 15.962C103.715 15.842 103.365 15.782 102.965 15.782C102.125 15.782 101.435 16.052 100.895 16.592C100.375 17.112 100.115 17.912 100.115 18.992ZM117.906 27.002L112.296 19.532L117.876 12.512H122.406L115.866 20.432L116.016 18.512L122.706 27.002H117.906ZM108.666 27.002V5.31195H112.596V27.002H108.666ZM129.962 27.302C128.622 27.302 127.422 26.972 126.362 26.312C125.302 25.652 124.462 24.752 123.842 23.612C123.242 22.472 122.942 21.192 122.942 19.772C122.942 18.332 123.242 17.042 123.842 15.902C124.462 14.762 125.292 13.862 126.332 13.202C127.392 12.542 128.602 12.212 129.962 12.212C131.002 12.212 131.932 12.422 132.752 12.842C133.592 13.262 134.262 13.852 134.762 14.612C135.282 15.352 135.562 16.192 135.602 17.132V22.292C135.562 23.232 135.292 24.082 134.792 24.842C134.292 25.602 133.622 26.202 132.782 26.642C131.942 27.082 131.002 27.302 129.962 27.302ZM130.622 23.672C131.362 23.672 132.002 23.512 132.542 23.192C133.102 22.852 133.532 22.392 133.832 21.812C134.152 21.212 134.312 20.522 134.312 19.742C134.312 18.982 134.152 18.312 133.832 17.732C133.532 17.132 133.102 16.672 132.542 16.352C132.002 16.012 131.372 15.842 130.652 15.842C129.912 15.842 129.262 16.012 128.702 16.352C128.162 16.692 127.732 17.152 127.412 17.732C127.112 18.312 126.962 18.982 126.962 19.742C126.962 20.522 127.112 21.212 127.412 21.812C127.732 22.392 128.172 22.852 128.732 23.192C129.292 23.512 129.922 23.672 130.622 23.672ZM138.002 27.002H134.102V23.102L134.732 19.562L134.072 16.082V5.31195H138.002V27.002ZM141.478 27.002V12.512H145.438V27.002H141.478ZM143.458 10.172C142.818 10.172 142.288 9.96195 141.868 9.54195C141.448 9.10195 141.238 8.56195 141.238 7.92195C141.238 7.30195 141.448 6.77195 141.868 6.33195C142.288 5.89195 142.818 5.67195 143.458 5.67195C144.118 5.67195 144.648 5.89195 145.048 6.33195C145.468 6.77195 145.678 7.30195 145.678 7.92195C145.678 8.56195 145.468 9.10195 145.048 9.54195C144.648 9.96195 144.118 10.172 143.458 10.172ZM158.67 27.002V18.692C158.67 17.832 158.4 17.132 157.86 16.592C157.32 16.052 156.62 15.782 155.76 15.782C155.2 15.782 154.7 15.902 154.26 16.142C153.82 16.382 153.47 16.722 153.21 17.162C152.97 17.602 152.85 18.112 152.85 18.692L151.32 17.912C151.32 16.772 151.56 15.782 152.04 14.942C152.54 14.082 153.22 13.412 154.08 12.932C154.96 12.452 155.95 12.212 157.05 12.212C158.11 12.212 159.06 12.482 159.9 13.022C160.74 13.542 161.4 14.232 161.88 15.092C162.36 15.932 162.6 16.842 162.6 17.822V27.002H158.67ZM148.92 27.002V12.512H152.85V27.002H148.92ZM164.625 27.002L173.115 5.91195H176.445L184.905 27.002H180.555L174.015 9.69195H175.515L168.885 27.002H164.625ZM169.125 23.072V19.652H180.465V23.072H169.125ZM187.211 27.002V12.512H191.171V27.002H187.211ZM189.191 10.172C188.551 10.172 188.021 9.96195 187.601 9.54195C187.181 9.10195 186.971 8.56195 186.971 7.92195C186.971 7.30195 187.181 6.77195 187.601 6.33195C188.021 5.89195 188.551 5.67195 189.191 5.67195C189.851 5.67195 190.381 5.89195 190.781 6.33195C191.201 6.77195 191.411 7.30195 191.411 7.92195C191.411 8.56195 191.201 9.10195 190.781 9.54195C190.381 9.96195 189.851 10.172 189.191 10.172ZM194.652 27.002V12.512H198.582V27.002H194.652ZM198.582 18.992L197.052 17.972C197.232 16.192 197.752 14.792 198.612 13.772C199.472 12.732 200.712 12.212 202.332 12.212C203.032 12.212 203.662 12.332 204.222 12.572C204.782 12.792 205.292 13.162 205.752 13.682L203.292 16.502C203.072 16.262 202.802 16.082 202.482 15.962C202.182 15.842 201.832 15.782 201.432 15.782C200.592 15.782 199.902 16.052 199.362 16.592C198.842 17.112 198.582 17.912 198.582 18.992Z" fill="white"/>
<path d="M74.184 48.002V36.802H77.8C78.6747 36.802 79.3893 36.946 79.944 37.234C80.4987 37.522 80.9093 37.9166 81.176 38.418C81.4427 38.9193 81.576 39.474 81.576 40.082C81.576 40.786 81.384 41.4206 81 41.986C80.6267 42.5513 80.04 42.9513 79.24 43.186L81.688 48.002H80.104L77.832 43.378H77.736H75.528V48.002H74.184ZM75.528 42.322H77.704C78.568 42.322 79.1973 42.114 79.592 41.698C79.9867 41.282 80.184 40.7486 80.184 40.098C80.184 39.4366 79.9867 38.914 79.592 38.53C79.208 38.1353 78.5733 37.938 77.688 37.938H75.528V42.322ZM86.672 48.194C85.9147 48.194 85.2427 48.0233 84.656 47.682C84.0693 47.33 83.6053 46.8446 83.264 46.226C82.9333 45.6073 82.768 44.8766 82.768 44.034C82.768 43.202 82.9333 42.4766 83.264 41.858C83.5947 41.2286 84.0533 40.7433 84.64 40.402C85.2373 40.05 85.9253 39.874 86.704 39.874C87.472 39.874 88.1333 40.05 88.688 40.402C89.2533 40.7433 89.6853 41.1966 89.984 41.762C90.2827 42.3273 90.432 42.9353 90.432 43.586C90.432 43.7033 90.4267 43.8206 90.416 43.938C90.416 44.0553 90.416 44.1886 90.416 44.338H84.096C84.128 44.946 84.2667 45.4526 84.512 45.858C84.768 46.2526 85.0827 46.5513 85.456 46.754C85.84 46.9566 86.2453 47.058 86.672 47.058C87.2267 47.058 87.6907 46.93 88.064 46.674C88.4373 46.418 88.7093 46.0713 88.88 45.634H90.208C89.9947 46.37 89.584 46.9833 88.976 47.474C88.3787 47.954 87.6107 48.194 86.672 48.194ZM86.672 41.01C86.032 41.01 85.4613 41.2073 84.96 41.602C84.4693 41.986 84.1867 42.5513 84.112 43.298H89.104C89.072 42.5833 88.8267 42.0233 88.368 41.618C87.9093 41.2126 87.344 41.01 86.672 41.01ZM92.2134 51.522V40.066H93.4294L93.5574 41.378C93.8134 40.994 94.176 40.6473 94.6454 40.338C95.1254 40.0286 95.7334 39.874 96.4694 39.874C97.2587 39.874 97.9467 40.0553 98.5334 40.418C99.12 40.7806 99.5734 41.2766 99.8934 41.906C100.224 42.5353 100.389 43.25 100.389 44.05C100.389 44.85 100.224 45.5646 99.8934 46.194C99.5734 46.8126 99.1147 47.3033 98.5174 47.666C97.9307 48.018 97.2427 48.194 96.4534 48.194C95.8027 48.194 95.2214 48.0606 94.7094 47.794C94.208 47.5273 93.824 47.154 93.5574 46.674V51.522H92.2134ZM96.3094 47.026C96.8427 47.026 97.312 46.9033 97.7174 46.658C98.1227 46.402 98.4427 46.05 98.6774 45.602C98.912 45.154 99.0294 44.6313 99.0294 44.034C99.0294 43.4366 98.912 42.914 98.6774 42.466C98.4427 42.018 98.1227 41.6713 97.7174 41.426C97.312 41.17 96.8427 41.042 96.3094 41.042C95.776 41.042 95.3067 41.17 94.9014 41.426C94.496 41.6713 94.176 42.018 93.9414 42.466C93.7067 42.914 93.5894 43.4366 93.5894 44.034C93.5894 44.6313 93.7067 45.154 93.9414 45.602C94.176 46.05 94.496 46.402 94.9014 46.658C95.3067 46.9033 95.776 47.026 96.3094 47.026ZM104.9 48.194C104.239 48.194 103.69 48.082 103.252 47.858C102.815 47.634 102.49 47.3353 102.276 46.962C102.063 46.5886 101.956 46.1833 101.956 45.746C101.956 44.9353 102.266 44.3113 102.884 43.874C103.503 43.4366 104.346 43.218 105.412 43.218H107.556V43.122C107.556 42.4286 107.375 41.906 107.012 41.554C106.65 41.1913 106.164 41.01 105.556 41.01C105.034 41.01 104.58 41.1433 104.196 41.41C103.823 41.666 103.588 42.0446 103.492 42.546H102.116C102.17 41.97 102.362 41.4846 102.692 41.09C103.034 40.6953 103.455 40.3966 103.956 40.194C104.458 39.9806 104.991 39.874 105.556 39.874C106.666 39.874 107.498 40.1726 108.052 40.77C108.618 41.3566 108.9 42.1406 108.9 43.122V48.002H107.7L107.62 46.578C107.396 47.026 107.066 47.41 106.628 47.73C106.202 48.0393 105.626 48.194 104.9 48.194ZM105.108 47.058C105.62 47.058 106.058 46.9246 106.42 46.658C106.794 46.3913 107.076 46.0446 107.268 45.618C107.46 45.1913 107.556 44.7433 107.556 44.274V44.258H105.524C104.735 44.258 104.175 44.3966 103.844 44.674C103.524 44.9406 103.364 45.2766 103.364 45.682C103.364 46.098 103.514 46.434 103.812 46.69C104.122 46.9353 104.554 47.058 105.108 47.058ZM111.733 38.306C111.466 38.306 111.242 38.2206 111.061 38.05C110.89 37.8686 110.805 37.6446 110.805 37.378C110.805 37.122 110.89 36.9086 111.061 36.738C111.242 36.5673 111.466 36.482 111.733 36.482C111.989 36.482 112.207 36.5673 112.389 36.738C112.57 36.9086 112.661 37.122 112.661 37.378C112.661 37.6446 112.57 37.8686 112.389 38.05C112.207 38.2206 111.989 38.306 111.733 38.306ZM111.061 48.002V40.066H112.405V48.002H111.061ZM114.745 48.002V40.066H115.961L116.073 41.586C116.318 41.0633 116.691 40.6473 117.193 40.338C117.694 40.0286 118.313 39.874 119.049 39.874V41.282H118.681C118.211 41.282 117.779 41.3673 117.385 41.538C116.99 41.698 116.675 41.9753 116.441 42.37C116.206 42.7646 116.089 43.3086 116.089 44.002V48.002H114.745ZM121.373 38.306C121.106 38.306 120.882 38.2206 120.701 38.05C120.53 37.8686 120.445 37.6446 120.445 37.378C120.445 37.122 120.53 36.9086 120.701 36.738C120.882 36.5673 121.106 36.482 121.373 36.482C121.629 36.482 121.848 36.5673 122.029 36.738C122.21 36.9086 122.301 37.122 122.301 37.378C122.301 37.6446 122.21 37.8686 122.029 38.05C121.848 38.2206 121.629 38.306 121.373 38.306ZM120.701 48.002V40.066H122.045V48.002H120.701ZM124.385 48.002V40.066H125.601L125.681 41.49C125.937 40.9886 126.305 40.594 126.785 40.306C127.265 40.018 127.809 39.874 128.417 39.874C129.356 39.874 130.103 40.162 130.657 40.738C131.223 41.3033 131.505 42.178 131.505 43.362V48.002H130.161V43.506C130.161 41.8526 129.479 41.026 128.113 41.026C127.431 41.026 126.86 41.2766 126.401 41.778C125.953 42.2686 125.729 42.9726 125.729 43.89V48.002H124.385ZM136.678 45.506C136.23 45.506 135.819 45.4473 135.446 45.33L134.646 46.082C134.763 46.1673 134.907 46.242 135.078 46.306C135.259 46.3593 135.515 46.4126 135.846 46.466C136.176 46.5086 136.64 46.5566 137.238 46.61C138.304 46.6846 139.067 46.93 139.526 47.346C139.984 47.762 140.214 48.306 140.214 48.978C140.214 49.4366 140.086 49.874 139.83 50.29C139.584 50.706 139.2 51.0473 138.678 51.314C138.166 51.5806 137.504 51.714 136.694 51.714C135.979 51.714 135.344 51.618 134.789 51.426C134.235 51.2446 133.803 50.962 133.493 50.578C133.184 50.2046 133.03 49.73 133.03 49.154C133.03 48.8553 133.11 48.53 133.27 48.178C133.43 47.8366 133.728 47.5113 134.166 47.202C133.931 47.106 133.728 47.0046 133.558 46.898C133.398 46.7806 133.248 46.6526 133.11 46.514V46.146L134.47 44.802C133.84 44.2686 133.526 43.5646 133.526 42.69C133.526 42.1673 133.648 41.6926 133.894 41.266C134.139 40.8393 134.496 40.5033 134.966 40.258C135.435 40.002 136.006 39.874 136.678 39.874C137.136 39.874 137.552 39.938 137.926 40.066H140.854V41.074L139.366 41.138C139.675 41.586 139.83 42.1033 139.83 42.69C139.83 43.2126 139.702 43.6873 139.446 44.114C139.2 44.5406 138.843 44.882 138.374 45.138C137.915 45.3833 137.35 45.506 136.678 45.506ZM136.678 44.402C137.243 44.402 137.691 44.258 138.022 43.97C138.363 43.6713 138.534 43.2446 138.534 42.69C138.534 42.146 138.363 41.73 138.022 41.442C137.691 41.1433 137.243 40.994 136.678 40.994C136.102 40.994 135.643 41.1433 135.302 41.442C134.971 41.73 134.806 42.146 134.806 42.69C134.806 43.2446 134.971 43.6713 135.302 43.97C135.643 44.258 136.102 44.402 136.678 44.402ZM134.342 49.026C134.342 49.5593 134.566 49.954 135.014 50.21C135.462 50.4766 136.022 50.61 136.694 50.61C137.355 50.61 137.883 50.466 138.278 50.178C138.683 49.89 138.886 49.506 138.886 49.026C138.886 48.6846 138.747 48.386 138.47 48.13C138.192 47.8846 137.68 47.7406 136.934 47.698C136.347 47.6553 135.84 47.602 135.414 47.538C134.976 47.7726 134.688 48.0233 134.549 48.29C134.411 48.5673 134.342 48.8126 134.342 49.026ZM150.252 48.194C149.431 48.194 148.716 48.0446 148.108 47.746C147.5 47.4473 147.031 47.0313 146.7 46.498C146.369 45.9646 146.204 45.346 146.204 44.642H147.612C147.612 45.0793 147.713 45.4846 147.916 45.858C148.119 46.2206 148.412 46.514 148.796 46.738C149.191 46.9513 149.676 47.058 150.252 47.058C151.009 47.058 151.596 46.8766 152.012 46.514C152.428 46.1513 152.636 45.698 152.636 45.154C152.636 44.706 152.54 44.3486 152.348 44.082C152.156 43.8046 151.895 43.5806 151.564 43.41C151.244 43.2393 150.871 43.09 150.444 42.962C150.028 42.834 149.591 42.69 149.132 42.53C148.268 42.2313 147.628 41.8633 147.212 41.426C146.796 40.978 146.588 40.3966 146.588 39.682C146.577 39.0846 146.716 38.5566 147.004 38.098C147.292 37.6286 147.697 37.266 148.22 37.01C148.753 36.7433 149.383 36.61 150.108 36.61C150.823 36.61 151.441 36.7433 151.964 37.01C152.497 37.2766 152.908 37.6446 153.196 38.114C153.495 38.5833 153.649 39.1166 153.66 39.714H152.252C152.252 39.4046 152.172 39.1006 152.012 38.802C151.852 38.4926 151.607 38.242 151.276 38.05C150.956 37.858 150.551 37.762 150.06 37.762C149.452 37.7513 148.951 37.906 148.556 38.226C148.172 38.546 147.98 38.9886 147.98 39.554C147.98 40.034 148.113 40.402 148.38 40.658C148.657 40.914 149.041 41.1273 149.532 41.298C150.023 41.458 150.588 41.6446 151.228 41.858C151.761 42.05 152.241 42.274 152.668 42.53C153.095 42.786 153.425 43.1166 153.66 43.522C153.905 43.9273 154.028 44.4446 154.028 45.074C154.028 45.6073 153.889 46.114 153.612 46.594C153.335 47.0633 152.913 47.4473 152.348 47.746C151.793 48.0446 151.095 48.194 150.252 48.194ZM159.422 48.194C158.665 48.194 157.993 48.0233 157.406 47.682C156.819 47.33 156.355 46.8446 156.014 46.226C155.683 45.6073 155.518 44.8766 155.518 44.034C155.518 43.202 155.683 42.4766 156.014 41.858C156.345 41.2286 156.803 40.7433 157.39 40.402C157.987 40.05 158.675 39.874 159.454 39.874C160.222 39.874 160.883 40.05 161.438 40.402C162.003 40.7433 162.435 41.1966 162.734 41.762C163.033 42.3273 163.182 42.9353 163.182 43.586C163.182 43.7033 163.177 43.8206 163.166 43.938C163.166 44.0553 163.166 44.1886 163.166 44.338H156.846C156.878 44.946 157.017 45.4526 157.262 45.858C157.518 46.2526 157.833 46.5513 158.206 46.754C158.59 46.9566 158.995 47.058 159.422 47.058C159.977 47.058 160.441 46.93 160.814 46.674C161.187 46.418 161.459 46.0713 161.63 45.634H162.958C162.745 46.37 162.334 46.9833 161.726 47.474C161.129 47.954 160.361 48.194 159.422 48.194ZM159.422 41.01C158.782 41.01 158.211 41.2073 157.71 41.602C157.219 41.986 156.937 42.5513 156.862 43.298H161.854C161.822 42.5833 161.577 42.0233 161.118 41.618C160.659 41.2126 160.094 41.01 159.422 41.01ZM164.963 48.002V40.066H166.179L166.291 41.586C166.537 41.0633 166.91 40.6473 167.411 40.338C167.913 40.0286 168.531 39.874 169.267 39.874V41.282H168.899C168.43 41.282 167.998 41.3673 167.603 41.538C167.209 41.698 166.894 41.9753 166.659 42.37C166.425 42.7646 166.307 43.3086 166.307 44.002V48.002H164.963ZM173.064 48.002L170.056 40.066H171.464L173.848 46.706L176.248 40.066H177.624L174.616 48.002H173.064ZM179.936 38.306C179.669 38.306 179.445 38.2206 179.264 38.05C179.093 37.8686 179.008 37.6446 179.008 37.378C179.008 37.122 179.093 36.9086 179.264 36.738C179.445 36.5673 179.669 36.482 179.936 36.482C180.192 36.482 180.41 36.5673 180.592 36.738C180.773 36.9086 180.864 37.122 180.864 37.378C180.864 37.6446 180.773 37.8686 180.592 38.05C180.41 38.2206 180.192 38.306 179.936 38.306ZM179.264 48.002V40.066H180.608V48.002H179.264ZM186.596 48.194C185.838 48.194 185.156 48.0233 184.548 47.682C183.95 47.33 183.476 46.8446 183.124 46.226C182.782 45.5966 182.612 44.866 182.612 44.034C182.612 43.202 182.782 42.4766 183.124 41.858C183.476 41.2286 183.95 40.7433 184.548 40.402C185.156 40.05 185.838 39.874 186.596 39.874C187.534 39.874 188.324 40.1193 188.964 40.61C189.614 41.1006 190.025 41.7566 190.196 42.578H188.82C188.713 42.0873 188.452 41.7086 188.036 41.442C187.62 41.1646 187.134 41.026 186.58 41.026C186.132 41.026 185.71 41.138 185.316 41.362C184.921 41.586 184.601 41.922 184.356 42.37C184.11 42.818 183.988 43.3726 183.988 44.034C183.988 44.6953 184.11 45.25 184.356 45.698C184.601 46.146 184.921 46.4873 185.316 46.722C185.71 46.946 186.132 47.058 186.58 47.058C187.134 47.058 187.62 46.9246 188.036 46.658C188.452 46.3806 188.713 45.9913 188.82 45.49H190.196C190.036 46.29 189.63 46.9406 188.98 47.442C188.329 47.9433 187.534 48.194 186.596 48.194ZM195.641 48.194C194.883 48.194 194.211 48.0233 193.625 47.682C193.038 47.33 192.574 46.8446 192.233 46.226C191.902 45.6073 191.737 44.8766 191.737 44.034C191.737 43.202 191.902 42.4766 192.233 41.858C192.563 41.2286 193.022 40.7433 193.609 40.402C194.206 40.05 194.894 39.874 195.673 39.874C196.441 39.874 197.102 40.05 197.657 40.402C198.222 40.7433 198.654 41.1966 198.953 41.762C199.251 42.3273 199.401 42.9353 199.401 43.586C199.401 43.7033 199.395 43.8206 199.385 43.938C199.385 44.0553 199.385 44.1886 199.385 44.338H193.065C193.097 44.946 193.235 45.4526 193.481 45.858C193.737 46.2526 194.051 46.5513 194.425 46.754C194.809 46.9566 195.214 47.058 195.641 47.058C196.195 47.058 196.659 46.93 197.033 46.674C197.406 46.418 197.678 46.0713 197.849 45.634H199.177C198.963 46.37 198.553 46.9833 197.945 47.474C197.347 47.954 196.579 48.194 195.641 48.194ZM195.641 41.01C195.001 41.01 194.43 41.2073 193.929 41.602C193.438 41.986 193.155 42.5513 193.081 43.298H198.073C198.041 42.5833 197.795 42.0233 197.337 41.618C196.878 41.2126 196.313 41.01 195.641 41.01ZM204.222 48.194C203.273 48.194 202.483 47.954 201.854 47.474C201.225 46.994 200.857 46.3433 200.75 45.522H202.126C202.211 45.938 202.43 46.3006 202.782 46.61C203.145 46.9086 203.63 47.058 204.238 47.058C204.803 47.058 205.219 46.9406 205.486 46.706C205.753 46.4606 205.886 46.1726 205.886 45.842C205.886 45.362 205.71 45.042 205.358 44.882C205.017 44.722 204.531 44.578 203.902 44.45C203.475 44.3646 203.049 44.242 202.622 44.082C202.195 43.922 201.838 43.698 201.55 43.41C201.262 43.1113 201.118 42.722 201.118 42.242C201.118 41.5486 201.374 40.9833 201.886 40.546C202.409 40.098 203.113 39.874 203.998 39.874C204.841 39.874 205.529 40.0873 206.062 40.514C206.606 40.93 206.921 41.5273 207.006 42.306H205.678C205.625 41.9006 205.449 41.586 205.15 41.362C204.862 41.1273 204.473 41.01 203.982 41.01C203.502 41.01 203.129 41.1113 202.862 41.314C202.606 41.5166 202.478 41.7833 202.478 42.114C202.478 42.434 202.643 42.6846 202.974 42.866C203.315 43.0473 203.774 43.202 204.35 43.33C204.841 43.4366 205.305 43.57 205.742 43.73C206.19 43.8793 206.553 44.1086 206.83 44.418C207.118 44.7166 207.262 45.154 207.262 45.73C207.273 46.4446 207.001 47.0366 206.446 47.506C205.902 47.9646 205.161 48.194 204.222 48.194Z" fill="#FF5500"/>
<defs>
<clipPath id="clip0_6284_573">
<rect width="53" height="54" fill="white" transform="translate(0 0.00195312)"/>
</clipPath>
</defs>
</svg>
