<svg width="120" height="120" viewBox="0 0 120 120" fill="none" xmlns="http://www.w3.org/2000/svg">
<g clip-path="url(#clip0_6365_2903)">
<path d="M26.8438 29.5457C30.4083 27.6714 34.552 26.7873 38.6718 26.864C42.7976 26.9347 46.9234 27.9249 50.6491 29.7284C54.3748 31.526 57.7244 34.1665 60.1665 37.4966C61.3905 39.1586 62.3518 41.0034 62.9847 42.9425C63.5937 44.8875 63.8803 46.9268 63.6892 48.919C63.1638 44.9583 61.3666 41.4042 58.8708 38.4985C56.3691 35.581 53.1807 33.2883 49.7177 31.5968C46.2427 29.917 42.4572 28.8384 38.5763 28.4789C34.6953 28.1135 30.7307 28.4789 26.8438 29.5457Z" fill="#FF5500"/>
<path d="M28.1794 91.1566C26.7584 87.4258 26.2031 83.2941 26.6867 79.2273C27.1644 75.1664 28.6451 71.1821 31.0275 67.7813C33.3919 64.3806 36.6519 61.5456 40.4612 59.8364C42.3599 58.9758 44.39 58.4159 46.4439 58.192C48.4979 57.9857 50.5817 58.1036 52.5341 58.6517C48.4859 58.4513 44.5811 59.4415 41.1956 61.2863C37.7983 63.137 34.9502 65.8423 32.759 68.966C30.5677 72.1016 29.0571 75.6969 28.3048 79.4808C27.5525 83.2647 27.6122 87.2077 28.1794 91.1566Z" fill="#FF5500"/>
<path d="M91.3922 26.6885C93.5178 30.0775 94.6881 34.0971 94.8851 38.1639C95.0881 42.2307 94.3597 46.3623 92.7774 50.1521C91.2012 53.936 88.7591 57.4134 85.5528 60.0421C83.9586 61.3565 82.1555 62.4291 80.2329 63.1777C78.3044 63.9085 76.2624 64.3211 74.2383 64.268C78.2088 63.4901 81.6778 61.4861 84.4542 58.8339C87.2366 56.1757 89.3443 52.8869 90.825 49.3623C92.2938 45.8319 93.1297 42.0303 93.2432 38.1816C93.3566 34.3329 92.7237 30.4488 91.3922 26.6885Z" fill="#FF5500"/>
<path d="M91.4788 92.3882C87.7769 93.9914 83.6332 94.7635 79.4895 94.5041C75.3578 94.2507 71.2439 93.0071 67.6734 90.844C64.1089 88.6927 61.0638 85.6397 59.1233 81.9737C58.1501 80.1525 57.4754 78.178 57.1351 76.1623C56.8186 74.1466 56.8246 72.0837 57.2664 70.1328C57.2784 74.1348 58.4964 77.9246 60.5444 81.1662C62.5983 84.4138 65.4881 87.0778 68.7661 89.0699C72.056 91.0562 75.7757 92.3587 79.6388 92.8951C83.5258 93.4314 87.5142 93.1662 91.4788 92.3882Z" fill="#FF5500"/>
<path d="M104.129 33.2182C108.064 55.0787 94.4388 79.4029 73.983 72.731C90.7906 75.9019 101.574 61.12 103.628 44.122C102.505 50.122 99.896 55.9334 95.3702 60.9432C80.0075 77.953 61.6594 63.6249 61.6594 63.6249C58.5009 74.5286 64.5552 83.788 76.9266 87.4009C89.1427 90.9726 104.213 86.9353 113.569 72.0296C131.66 43.2025 107.479 11.788 91.9131 6.1416C98.3197 12.2418 103.204 22.4442 104.129 33.2182Z" fill="#FF5500"/>
<path d="M116.8 91.9221C110.668 98.2935 100.375 103.197 89.472 104.199C67.3564 108.26 42.6077 95.0047 49.1994 74.7591C46.1244 91.374 61.1826 101.901 78.4202 103.792C72.33 102.732 66.425 100.203 61.314 95.7768C43.9571 80.7473 58.3286 62.5174 58.3286 62.5174C47.2589 59.488 37.9266 65.5351 34.368 77.7768C30.8513 89.8652 35.0606 104.706 50.2323 113.824C79.5725 131.453 111.206 107.329 116.8 91.9221Z" fill="#FF5500"/>
<path d="M16.3751 88.0449C13.2046 66.0606 27.6777 42.2197 47.8827 49.5812C31.2005 45.8445 19.9038 60.2433 17.2588 77.1647C18.5902 71.206 21.4025 65.4889 26.1014 60.6323C42.0493 44.1529 59.8899 59.0999 59.8899 59.0999C63.4246 48.314 57.7046 38.8543 45.4646 34.817C33.3798 30.8327 18.1783 34.3572 8.30863 48.9329C-10.7918 77.1293 12.2792 109.351 27.6299 115.522C21.4443 109.204 16.9184 98.8425 16.3751 88.0449Z" fill="#FF5500"/>
<path d="M72.7133 48.7321C76.7316 32.3175 62.3063 20.9659 45.2001 18.1191C51.2186 19.516 56.9744 22.3745 61.8227 27.0778C78.29 43.0503 62.9034 60.4492 62.9034 60.4492C73.7821 64.0916 83.4427 58.569 87.6999 46.5513C91.9033 34.681 88.5477 19.6279 73.9194 9.67903C45.63 -9.57048 12.6655 12.7498 6.19922 27.8205C12.6834 21.8028 23.2457 17.4767 34.1901 17.0936C56.5027 14.2704 80.4514 28.8873 72.7133 48.7321Z" fill="#FF5500"/>
<path d="M103.657 89.7528C103.657 90.8491 102.756 91.7391 101.645 91.7391C100.534 91.7391 99.6328 90.8491 99.6328 89.7528C99.6328 88.6566 100.534 87.7666 101.645 87.7666C102.761 87.7666 103.657 88.6566 103.657 89.7528Z" fill="#FF5500"/>
<path d="M112.829 83.0995C112.829 84.1958 111.927 85.0858 110.817 85.0858C109.706 85.0858 108.805 84.1958 108.805 83.0995C108.805 82.0033 109.706 81.1133 110.817 81.1133C111.927 81.1133 112.829 82.0033 112.829 83.0995Z" fill="#FF5500"/>
<path d="M119.798 74.2411C119.798 75.3374 118.896 76.2274 117.786 76.2274C116.675 76.2274 115.773 75.3374 115.773 74.2411C115.773 73.1449 116.675 72.2549 117.786 72.2549C118.902 72.2549 119.798 73.139 119.798 74.2411Z" fill="#FF5500"/>
<path d="M32.3966 99.8656C32.6893 98.8073 32.0575 97.7152 30.9855 97.4263C29.9134 97.1373 28.8071 97.761 28.5144 98.8192C28.2217 99.8775 28.8534 100.97 29.9255 101.259C30.9975 101.547 32.1039 100.924 32.3966 99.8656Z" fill="#FF5500"/>
<path d="M36.2519 110.888C35.1473 110.8 34.3234 109.839 34.4129 108.743C34.5025 107.652 35.4757 106.839 36.5863 106.927C37.6908 107.016 38.5148 107.977 38.4253 109.073C38.3297 110.169 37.3565 110.982 36.2519 110.888Z" fill="#FF5500"/>
<path d="M46.7083 117.094C47.0359 116.046 46.4406 114.934 45.3787 114.611C44.3168 114.287 43.1903 114.875 42.8627 115.923C42.5351 116.971 43.1304 118.083 44.1923 118.407C45.2543 118.73 46.3807 118.143 46.7083 117.094Z" fill="#FF5500"/>
<path d="M15.6804 33.4482C15.6506 32.352 16.5223 31.4384 17.6329 31.4089C18.7434 31.3795 19.6689 32.24 19.6987 33.3362C19.7286 34.4325 18.8569 35.3461 17.7463 35.3755C16.6417 35.4109 15.7163 34.5445 15.6804 33.4482Z" fill="#FF5500"/>
<path d="M6.71168 40.3623C6.68183 39.266 7.55356 38.3525 8.66412 38.323C9.77467 38.2935 10.7001 39.154 10.73 40.2503C10.7598 41.3466 9.88812 42.2601 8.77756 42.2896C7.667 42.325 6.74154 41.4586 6.71168 40.3623Z" fill="#FF5500"/>
<path d="M0.000744436 49.4209C-0.0291093 48.3246 0.842619 47.4111 1.95318 47.3816C3.06374 47.3521 3.9892 48.2126 4.01906 49.3089C4.04891 50.4052 3.17718 51.3187 2.06662 51.3482C0.962034 51.3777 0.0305982 50.5172 0.000744436 49.4209Z" fill="#FF5500"/>
<path d="M87.4934 13.7165C88.592 13.5692 89.607 14.3295 89.7563 15.414C89.9056 16.4984 89.1353 17.5004 88.0367 17.6477C86.9381 17.7951 85.9231 17.0348 85.7738 15.9503C85.6186 14.8658 86.3888 13.8639 87.4934 13.7165Z" fill="#FF5500"/>
<path d="M79.5701 5.64717C80.6687 5.49982 81.6838 6.26014 81.833 7.34462C81.9823 8.4291 81.2121 9.43106 80.1134 9.57841C79.0148 9.72576 77.9998 8.96544 77.8505 7.88096C77.7013 6.79648 78.4715 5.79452 79.5701 5.64717Z" fill="#FF5500"/>
<path d="M69.7342 0.018265C70.8328 -0.129083 71.8478 0.631232 71.9971 1.71571C72.1464 2.80019 71.3761 3.80215 70.2775 3.9495C69.1789 4.09685 68.1639 3.33654 68.0146 2.25206C67.8653 1.16758 68.6356 0.165613 69.7342 0.018265Z" fill="#FF5500"/>
</g>
<defs>
<clipPath id="clip0_6365_2903">
<rect width="120" height="120" fill="white"/>
</clipPath>
</defs>
</svg>
