<svg width="15" height="15" viewBox="0 0 15 15" fill="none" xmlns="http://www.w3.org/2000/svg">
<path fill-rule="evenodd" clip-rule="evenodd" d="M5.71429 0.000976562C6.85 0.000976562 7.85714 0.629548 7.85714 1.78669C7.93429 2.57883 7.11929 4.16098 7.14286 5.00241C7.14286 5.23312 7.17 5.47741 7.22357 5.73598C7.34571 5.71669 7.47857 5.71169 7.60357 5.71812C8.37429 3.36669 9.52429 2.14383 11.0714 2.14383C12.9857 2.14383 15 4.02455 15 5.71526C15 6.85098 14.3714 7.85812 13.2143 7.85812C12.3614 7.92241 10.8543 7.12026 9.99857 7.14383C9.75194 7.14569 9.50614 7.17273 9.265 7.22455C9.28429 7.34598 9.28857 7.47955 9.28286 7.60526C11.6336 8.37455 12.8571 9.52455 12.8571 11.0724C12.8571 12.986 10.9764 15.001 9.28571 15.001C8.15 15.001 7.14286 14.3717 7.14286 13.2153C7.08714 12.3174 7.88071 10.8674 7.85714 9.99955C7.85529 9.75291 7.82824 9.50711 7.77643 9.26598C7.65046 9.28481 7.5229 9.29079 7.39571 9.28383C6.62643 11.6353 5.47643 12.8581 3.92857 12.8581C2.015 12.8581 0 10.9774 0 9.28669C0 8.15098 0.629286 7.14383 1.78571 7.14383C2.68357 7.08812 4.13357 7.88169 5.00143 7.85812C5.24806 7.85627 5.49386 7.82922 5.735 7.77741C5.71615 7.65143 5.71017 7.52387 5.71714 7.39669C3.36714 6.62741 2.14286 5.47741 2.14286 3.92955C2.14286 2.01526 4.02357 0.000976562 5.71429 0.000976562ZM9.09857 8.29598C8.95357 8.58883 8.72714 8.83812 8.45143 9.01241C8.53143 9.35669 8.57143 9.68526 8.57143 9.99955C8.64857 10.7924 7.83357 12.3738 7.85714 13.2153C7.85714 13.8888 8.49429 14.2867 9.28571 14.2867C10.5714 14.2867 12.1429 12.6024 12.1429 11.0724C12.1429 9.90812 11.1593 8.97669 9.09857 8.29598ZM1.78571 7.85812C1.11214 7.85812 0.714286 8.49526 0.714286 9.28669C0.714286 10.5717 2.39857 12.1438 3.92857 12.1438C5.09286 12.1438 6.02429 11.1603 6.705 9.09955C6.41089 8.95371 6.16273 8.72953 5.98786 8.45169C5.66527 8.52971 5.33474 8.57022 5.00286 8.5724C4.21 8.64955 2.62714 7.83455 1.78571 7.85812ZM7.50071 6.42955C7.36001 6.42959 7.2207 6.45736 7.09072 6.51124C6.96075 6.56513 6.84266 6.64409 6.7432 6.74361C6.64375 6.84314 6.56486 6.96128 6.51106 7.09129C6.45726 7.2213 6.4296 7.36063 6.42964 7.50133C6.42969 7.64204 6.45745 7.78135 6.51134 7.91132C6.56522 8.0413 6.64418 8.15939 6.74371 8.25884C6.84323 8.3583 6.96137 8.43718 7.09138 8.49098C7.22139 8.54479 7.36073 8.57245 7.50143 8.5724C7.78559 8.5724 8.05811 8.45952 8.25904 8.25859C8.45998 8.05766 8.57286 7.78514 8.57286 7.50098C8.57286 7.21682 8.45998 6.94429 8.25904 6.74336C8.05811 6.54243 7.78559 6.42955 7.50143 6.42955M11.0729 2.85812C9.90857 2.85812 8.97643 3.84169 8.29571 5.90098C8.59 6.04812 8.83857 6.27383 9.01286 6.55026C9.35571 6.46955 9.685 6.42883 9.99929 6.42883C10.7921 6.35241 12.3736 7.16741 13.215 7.14312C13.8879 7.14312 14.2864 6.50669 14.2864 5.71455C14.2864 4.43026 12.6021 2.85741 11.0721 2.85741M5.715 0.714548C4.43 0.714548 2.85786 2.39955 2.85786 3.92883C2.85786 5.09312 3.84143 6.02526 5.90143 6.70598C6.04786 6.41098 6.27357 6.16312 6.55 5.98883C6.47187 5.66578 6.43136 5.33477 6.42929 5.00241C6.35214 4.20955 7.16714 2.62812 7.14357 1.78669C7.14357 1.11312 6.50643 0.715262 5.715 0.715262" fill="#FF5500"/>
</svg>
