<svg width="24" height="24" viewBox="0 0 24 24" fill="none" xmlns="http://www.w3.org/2000/svg">
  <path d="M21.9032 9.09032C18.8182 7.44108 16.5671 4.06831 15.9327 0C15.2983 4.06831 13.0471 7.44108 9.96209 9.09032C9.36171 9.41131 7.86719 9.90495 7.86719 9.90495C7.86719 9.90495 9.36171 10.3986 9.96209 10.7196C13.0473 12.3688 15.2983 15.7418 15.9327 19.8099C16.5671 15.7416 18.8182 12.3688 21.9032 10.7196C22.5036 10.3986 23.9981 9.90495 23.9981 9.90495C23.9981 9.90495 22.5036 9.41131 21.9032 9.09032Z" fill="#ff5500"/>
  <path d="M9.1651 17.6442C7.33606 16.6664 6.00145 14.6667 5.62538 12.2549C5.2493 14.6669 3.9147 16.6664 2.08566 17.6442C1.72975 17.8343 0.84375 18.127 0.84375 18.127C0.84375 18.127 1.72975 18.4198 2.08566 18.6099C3.9147 19.5876 5.2493 21.5874 5.62538 23.9995C6.00145 21.5874 7.33606 19.5879 9.1651 18.6099C9.52101 18.4198 10.407 18.127 10.407 18.127C10.407 18.127 9.52101 17.8343 9.1651 17.6442Z" fill="#ff5500"/>
  <path d="M23.672 18.1281C23.672 18.7002 23.2943 19.1644 22.8282 19.1644C22.3621 19.1644 21.9844 18.7005 21.9844 18.1281C21.9844 17.5556 22.3621 17.0918 22.8282 17.0918C23.2943 17.0918 23.672 17.5556 23.672 18.1281Z" fill="#ff5500"/>
  <path d="M8.17594 3.87709C8.17594 4.44952 7.79803 4.91338 7.33211 4.91338C6.86599 4.91338 6.48828 4.44952 6.48828 3.87709C6.48828 3.30491 6.86599 2.84082 7.33211 2.84082C7.79803 2.84082 8.17594 3.30466 8.17594 3.87709Z" fill="#ff5500"/>
  <path d="M0.843828 10.9417C1.30986 10.9417 1.68766 10.4777 1.68766 9.90543C1.68766 9.33311 1.30986 8.86914 0.843828 8.86914C0.377795 8.86914 0 9.33311 0 9.90543C0 10.4777 0.377795 10.9417 0.843828 10.9417Z" fill="#ff5500"/>
</svg> 