<svg width="50" height="36" viewBox="0 0 50 36" fill="none" xmlns="http://www.w3.org/2000/svg">
<path d="M43.1228 8.33308H6.87043C6.76228 8.3331 6.65518 8.3122 6.55525 8.27158C6.45533 8.23097 6.36453 8.17143 6.28806 8.09637C6.21158 8.02131 6.15092 7.9322 6.10953 7.83413C6.06815 7.73605 6.04686 7.63094 6.04688 7.52479V1.00947C6.04685 0.903312 6.06813 0.798192 6.1095 0.700112C6.15088 0.602032 6.21154 0.512915 6.28802 0.437852C6.3645 0.36279 6.4553 0.303252 6.55523 0.262641C6.65517 0.222031 6.76227 0.201143 6.87043 0.201172H43.1229C43.231 0.201158 43.3381 0.222055 43.438 0.262671C43.538 0.303287 43.6288 0.362824 43.7052 0.437884C43.7817 0.512944 43.8424 0.602055 43.8838 0.700129C43.9252 0.798202 43.9464 0.903316 43.9464 1.00947V7.52468C43.9464 7.63085 43.9251 7.73597 43.8838 7.83406C43.8424 7.93215 43.7817 8.02127 43.7052 8.09634C43.6287 8.17141 43.5379 8.23096 43.438 8.27158C43.338 8.3122 43.2309 8.3331 43.1228 8.33308ZM7.69399 6.71649H42.2992V1.81787H7.69399V6.71649Z" fill="#FF5500"/>
<path d="M46.9473 21.9548H43.126C43.0178 21.9548 42.9107 21.9339 42.8108 21.8933C42.7109 21.8527 42.6201 21.7931 42.5436 21.7181C42.4672 21.643 42.4065 21.5539 42.3651 21.4558C42.3237 21.3578 42.3024 21.2526 42.3024 21.1465C42.3024 20.1898 41.5091 19.4111 40.5337 19.4111H30.0193C29.9112 19.4112 29.8041 19.3903 29.7042 19.3497C29.6042 19.309 29.5134 19.2495 29.437 19.1744C29.3605 19.0994 29.2998 19.0103 29.2584 18.9122C29.2171 18.8141 29.1958 18.709 29.1958 18.6029C29.1957 18.4967 29.217 18.3916 29.2584 18.2935C29.2998 18.1954 29.3604 18.1063 29.4369 18.0312C29.5134 17.9562 29.6042 17.8966 29.7041 17.856C29.8041 17.8154 29.9112 17.7945 30.0193 17.7946H40.5337C42.1332 17.7946 43.48 18.8795 43.8493 20.3382H46.9474C47.7222 20.3382 48.3528 19.72 48.3528 18.9597V3.1964C48.3528 2.43609 47.7222 1.81787 46.9474 1.81787H3.05233C2.27767 1.81787 1.64711 2.43609 1.64711 3.1964V18.9596C1.64711 19.0657 1.62581 19.1708 1.58442 19.2689C1.54303 19.367 1.48237 19.4561 1.4059 19.5311C1.32942 19.6062 1.23864 19.6657 1.13872 19.7063C1.0388 19.747 0.931706 19.7679 0.823555 19.7679C0.715405 19.7679 0.608313 19.747 0.508394 19.7063C0.408476 19.6657 0.317688 19.6062 0.241214 19.5311C0.16474 19.4561 0.104077 19.367 0.0626895 19.2689C0.0213019 19.1708 -2.27911e-09 19.0657 0 18.9596V3.1964C0 1.54491 1.36922 0.201172 3.05244 0.201172H46.9474C48.6307 0.201172 50 1.54502 50 3.1964V18.9596C49.9999 20.6109 48.6307 21.9548 46.9473 21.9548Z" fill="#FF5500"/>
<path d="M43.1241 23.3518H29.9691C29.5142 23.3518 29.1456 22.99 29.1456 22.5435C29.1456 22.0971 29.5142 21.7353 29.9691 21.7353H42.3006V21.1447C42.3006 20.188 41.5072 19.4094 40.5318 19.4094H30.0174C29.9093 19.4094 29.8022 19.3885 29.7023 19.3479C29.6023 19.3073 29.5116 19.2477 29.4351 19.1727C29.3586 19.0976 29.2979 19.0085 29.2566 18.9104C29.2152 18.8124 29.1939 18.7072 29.1939 18.6011C29.1939 18.4949 29.2151 18.3898 29.2565 18.2917C29.2979 18.1937 29.3586 18.1045 29.435 18.0295C29.5115 17.9544 29.6023 17.8949 29.7023 17.8543C29.8022 17.8137 29.9093 17.7928 30.0174 17.7928H40.5318C42.4151 17.7928 43.9478 19.2964 43.9478 21.1448V22.5437C43.9478 22.6498 43.9264 22.7549 43.885 22.853C43.8436 22.951 43.783 23.0401 43.7065 23.1152C43.63 23.1902 43.5392 23.2497 43.4393 23.2904C43.3394 23.331 43.2323 23.3519 43.1241 23.3518ZM43.1241 12.0863H40.0729C39.618 12.0863 39.2493 11.7245 39.2493 11.278C39.2493 10.8316 39.618 10.4697 40.0729 10.4697H43.1241C43.579 10.4697 43.9477 10.8316 43.9477 11.278C43.9477 11.7245 43.579 12.0863 43.1241 12.0863ZM43.1241 15.5015H40.0729C39.618 15.5015 39.2493 15.1397 39.2493 14.6932C39.2493 14.2467 39.618 13.8849 40.0729 13.8849H43.1241C43.2323 13.8849 43.3394 13.9058 43.4393 13.9464C43.5392 13.987 43.63 14.0466 43.7065 14.1216C43.783 14.1967 43.8436 14.2858 43.885 14.3839C43.9264 14.4819 43.9477 14.5871 43.9477 14.6932C43.9477 14.7994 43.9264 14.9045 43.885 15.0026C43.8437 15.1006 43.783 15.1898 43.7065 15.2648C43.63 15.3399 43.5392 15.3994 43.4393 15.44C43.3394 15.4806 43.2323 15.5015 43.1241 15.5015ZM15.8001 35.1168C15.692 35.1168 15.5849 35.0959 15.4849 35.0553C15.385 35.0147 15.2942 34.9552 15.2177 34.8801C15.1413 34.8051 15.0806 34.7159 15.0392 34.6179C14.9978 34.5198 14.9765 34.4147 14.9766 34.3085V10.779C14.9766 10.3325 15.3452 9.9707 15.8001 9.9707C16.255 9.9707 16.6237 10.3325 16.6237 10.779V34.3085C16.6237 34.4147 16.6024 34.5198 16.561 34.6179C16.5197 34.716 16.459 34.8051 16.3825 34.8801C16.306 34.9552 16.2152 35.0147 16.1153 35.0554C16.0154 35.096 15.9083 35.1169 15.8001 35.1168Z" fill="#FF5500"/>
<path d="M5.47679 29.2679C5.33205 29.268 5.18983 29.2307 5.06444 29.1598C4.93906 29.0888 4.83494 28.9867 4.76257 28.8636C4.53546 28.4772 4.67057 27.9827 5.06435 27.7592L25.8253 15.9947C26.0147 15.8877 26.2395 15.8588 26.4505 15.9143C26.6615 15.9699 26.8414 16.1053 26.9508 16.2909C27.1779 16.6774 27.0428 17.1718 26.649 17.3954L5.88801 29.1599C5.76293 29.2306 5.62113 29.2679 5.47679 29.2679Z" fill="#FF5500"/>
<path d="M26.2363 29.33C26.092 29.33 25.9502 29.2927 25.8252 29.2219L5.0642 17.4575C4.87507 17.3502 4.73706 17.1736 4.68048 16.9665C4.6239 16.7594 4.65337 16.5388 4.76242 16.353C4.87189 16.1675 5.05182 16.0322 5.26278 15.9766C5.47374 15.9211 5.69852 15.9499 5.88786 16.0568L26.6489 27.8212C26.838 27.9285 26.976 28.1051 27.0326 28.3122C27.0892 28.5193 27.0597 28.74 26.9506 28.9257C26.8782 29.0487 26.7741 29.1509 26.6487 29.2218C26.5233 29.2928 26.3811 29.3301 26.2363 29.33ZM15.8019 16.6738C15.5891 16.6741 15.3844 16.5933 15.2312 16.4484C15.1532 16.3749 15.0907 16.287 15.0473 16.1897C15.0039 16.0925 14.9804 15.9878 14.9783 15.8816C14.9761 15.7755 14.9953 15.67 15.0347 15.5711C15.0741 15.4722 15.133 15.382 15.208 15.3054L18.6832 11.7545C18.7581 11.6778 18.8476 11.6164 18.9467 11.5738C19.0458 11.5312 19.1525 11.5081 19.2607 11.506C19.3688 11.5039 19.4764 11.5227 19.5771 11.5615C19.6778 11.6002 19.7698 11.658 19.8478 11.7317C19.9258 11.8052 19.9883 11.8931 20.0317 11.9904C20.0751 12.0877 20.0985 12.1924 20.1007 12.2985C20.1028 12.4047 20.0836 12.5102 20.0442 12.6091C20.0048 12.708 19.9459 12.7983 19.8709 12.8748L16.3958 16.4257C16.3189 16.5042 16.2267 16.5667 16.1246 16.6093C16.0226 16.652 15.9128 16.6739 15.8019 16.6738Z" fill="#FF5500"/>
<path d="M15.7989 16.6738C15.688 16.6739 15.5782 16.652 15.4761 16.6093C15.374 16.5667 15.2818 16.5042 15.205 16.4257L11.7299 12.8748C11.6549 12.7982 11.596 12.7079 11.5566 12.6091C11.5172 12.5102 11.498 12.4047 11.5002 12.2985C11.5023 12.1924 11.5257 12.0877 11.5691 11.9904C11.6125 11.8931 11.675 11.8052 11.753 11.7317C12.0805 11.4211 12.6023 11.433 12.9175 11.7545L16.3928 15.3054C16.5047 15.4197 16.5799 15.5638 16.609 15.7197C16.6382 15.8756 16.62 16.0364 16.5567 16.1823C16.4934 16.3281 16.3878 16.4524 16.2531 16.5398C16.1183 16.6272 15.9604 16.6738 15.7989 16.6738ZM19.2741 33.5869C19.1632 33.587 19.0534 33.5651 18.9513 33.5224C18.8492 33.4798 18.757 33.4173 18.6802 33.3387L15.205 29.7878C15.13 29.7112 15.0712 29.6209 15.0318 29.5221C14.9924 29.4232 14.9732 29.3177 14.9753 29.2116C14.9775 29.1054 15.0009 29.0007 15.0443 28.9035C15.0877 28.8062 15.1502 28.7183 15.2282 28.6448C15.5557 28.3346 16.0774 28.3454 16.3928 28.6675L19.8679 32.2184C19.9798 32.3327 20.055 32.4768 20.0842 32.6327C20.1134 32.7886 20.0952 32.9495 20.0319 33.0953C19.9686 33.2412 19.863 33.3655 19.7283 33.4529C19.5936 33.5403 19.4356 33.5869 19.2741 33.5869Z" fill="#FF5500"/>
<path d="M12.324 33.5861C12.1624 33.5863 12.0044 33.5397 11.8696 33.4523C11.7348 33.365 11.6291 33.2406 11.5658 33.0947C11.5025 32.9488 11.4844 32.7878 11.5136 32.6319C11.5428 32.4759 11.6181 32.3319 11.7302 32.2177L15.2053 28.6667C15.2802 28.59 15.3697 28.5286 15.4688 28.486C15.5679 28.4434 15.6746 28.4203 15.7828 28.4182C15.891 28.4161 15.9986 28.435 16.0993 28.4737C16.2001 28.5125 16.292 28.5703 16.37 28.644C16.448 28.7175 16.5105 28.8055 16.5538 28.9027C16.5972 29 16.6207 29.1047 16.6228 29.2108C16.625 29.3169 16.6058 29.4225 16.5664 29.5213C16.5269 29.6202 16.468 29.7105 16.3931 29.787L12.9178 33.3379C12.841 33.4165 12.7488 33.479 12.6468 33.5217C12.5447 33.5643 12.4349 33.5863 12.324 33.5861ZM26.5657 21.1914C26.4992 21.1913 26.4329 21.1835 26.3683 21.168L21.4974 19.9896C21.3924 19.9643 21.2934 19.9188 21.2063 19.8559C21.1192 19.7931 21.0455 19.7139 20.9895 19.6231C20.9335 19.5323 20.8963 19.4315 20.88 19.3265C20.8637 19.2216 20.8686 19.1145 20.8945 19.0114C21.0033 18.5776 21.4473 18.3143 21.8912 18.4197L26.762 19.5981C26.9574 19.6453 27.1285 19.761 27.243 19.9235C27.3574 20.086 27.4072 20.284 27.3831 20.4801C27.3589 20.6762 27.2625 20.8568 27.1119 20.9879C26.9613 21.1189 26.767 21.1913 26.5657 21.1914Z" fill="#FF5500"/>
<path d="M21.6974 20.0137C21.6197 20.0138 21.5423 20.0029 21.4677 19.9815C21.3638 19.9521 21.2669 19.9028 21.1824 19.8365C21.0979 19.7702 21.0276 19.6883 20.9754 19.5953C20.9233 19.5023 20.8903 19.4002 20.8784 19.2947C20.8665 19.1892 20.8759 19.0824 20.9061 18.9805L22.3016 14.2517C22.4284 13.8229 22.8859 13.5753 23.3215 13.7004C23.4254 13.7299 23.5223 13.7792 23.6068 13.8454C23.6913 13.9117 23.7616 13.9937 23.8138 14.0867C23.8659 14.1796 23.8989 14.2818 23.9108 14.3873C23.9227 14.4927 23.9133 14.5995 23.8832 14.7014L22.4875 19.4302C22.4379 19.5984 22.3341 19.7461 22.1916 19.8513C22.0491 19.9565 21.8757 20.0135 21.6974 20.0137ZM8.5115 31.4244C8.43377 31.4245 8.35642 31.4137 8.28184 31.3922C8.17795 31.3627 8.081 31.3135 7.99652 31.2472C7.91205 31.181 7.84172 31.099 7.78955 31.006C7.73739 30.9131 7.70441 30.8109 7.6925 30.7055C7.6806 30.6 7.69 30.4932 7.72017 30.3913L9.11572 25.6618C9.24261 25.2337 9.70006 24.9855 10.1356 25.1106C10.2395 25.14 10.3365 25.1893 10.4209 25.2555C10.5054 25.3218 10.5757 25.4037 10.6279 25.4967C10.6801 25.5896 10.7131 25.6918 10.725 25.7973C10.7369 25.9028 10.7275 26.0095 10.6974 26.1114L9.30184 30.8409C9.25219 31.009 9.14831 31.1568 9.00579 31.262C8.86328 31.3672 8.68983 31.4242 8.5115 31.4244Z" fill="#FF5500"/>
<path d="M9.90997 26.6953C9.8434 26.6953 9.77708 26.6874 9.71241 26.672L4.84163 25.4935C4.7366 25.4682 4.63768 25.4228 4.55054 25.3599C4.46339 25.297 4.38972 25.2179 4.33374 25.127C4.27775 25.0362 4.24055 24.9354 4.22425 24.8305C4.20795 24.7255 4.21287 24.6184 4.23874 24.5153C4.34741 24.0814 4.79263 23.8182 5.23541 23.9236L10.1063 25.102C10.3018 25.1492 10.4729 25.2649 10.5873 25.4274C10.7018 25.5899 10.7516 25.7879 10.7274 25.9841C10.7033 26.1802 10.6068 26.3608 10.4561 26.4919C10.3055 26.6229 10.1112 26.6953 9.90997 26.6953ZM23.0944 31.4246C22.9161 31.4244 22.7426 31.3675 22.6002 31.2623C22.4577 31.157 22.3538 31.0093 22.3043 30.8411L20.9087 26.1117C20.8786 26.0097 20.8692 25.903 20.8811 25.7975C20.893 25.692 20.926 25.5899 20.9782 25.4969C21.0303 25.404 21.1007 25.322 21.1851 25.2558C21.2696 25.1895 21.3665 25.1402 21.4704 25.1108C21.908 24.9851 22.3642 25.2333 22.4903 25.662L23.886 30.3915C23.9161 30.4934 23.9255 30.6002 23.9136 30.7057C23.9017 30.8111 23.8687 30.9133 23.8165 31.0062C23.7644 31.0992 23.694 31.1811 23.6096 31.2474C23.5251 31.3137 23.4282 31.3629 23.3243 31.3924C23.2496 31.4139 23.1722 31.4248 23.0944 31.4246Z" fill="#FF5500"/>
<path d="M21.6962 26.6945C21.4949 26.6945 21.3006 26.6221 21.15 26.491C20.9994 26.36 20.9029 26.1794 20.8787 25.9832C20.8545 25.7871 20.9044 25.5891 21.0188 25.4266C21.1333 25.2641 21.3044 25.1484 21.4998 25.1012L26.3707 23.9228C26.8096 23.8174 27.2586 24.0806 27.3674 24.5145C27.3932 24.6176 27.3982 24.7247 27.3818 24.8297C27.3655 24.9346 27.3283 25.0354 27.2723 25.1262C27.2163 25.217 27.1427 25.2962 27.0555 25.3591C26.9684 25.4219 26.8694 25.4674 26.7644 25.4927L21.8936 26.6711C21.829 26.6866 21.7627 26.6944 21.6962 26.6945ZM5.03506 21.1914C4.83367 21.1915 4.63919 21.1193 4.48843 20.9882C4.33766 20.8572 4.24106 20.6764 4.21689 20.4802C4.19272 20.2839 4.24267 20.0858 4.35727 19.9233C4.47188 19.7608 4.6432 19.6451 4.83884 19.5981L9.70962 18.4197C10.1497 18.3143 10.5969 18.5776 10.7063 19.0114C10.7322 19.1145 10.7371 19.2216 10.7208 19.3265C10.7045 19.4315 10.6673 19.5323 10.6113 19.6231C10.5553 19.7139 10.4816 19.7931 10.3945 19.8559C10.3073 19.9188 10.2084 19.9643 10.1034 19.9896L5.2325 21.168C5.16788 21.1836 5.10159 21.1914 5.03506 21.1914Z" fill="#FF5500"/>
<path d="M9.90581 20.012C9.72749 20.0118 9.55405 19.9549 9.41156 19.8496C9.26908 19.7444 9.16525 19.5966 9.1157 19.4285L7.72015 14.6997C7.68999 14.5977 7.6806 14.491 7.69251 14.3855C7.70442 14.28 7.7374 14.1779 7.78956 14.0849C7.84173 13.9919 7.91205 13.91 7.99652 13.8437C8.08098 13.7774 8.17793 13.7281 8.28181 13.6987C8.71804 13.573 9.17559 13.8212 9.3017 14.2499L10.6973 18.9787C10.7274 19.0807 10.7368 19.1874 10.7249 19.2929C10.713 19.3984 10.68 19.5006 10.6278 19.5935C10.5756 19.6865 10.5053 19.7685 10.4208 19.8347C10.3363 19.901 10.2394 19.9503 10.1355 19.9797C10.0609 20.0013 9.98355 20.0122 9.90581 20.012ZM30.8316 35.1177C30.7234 35.1177 30.6163 35.0968 30.5164 35.0562C30.4165 35.0156 30.3257 34.9561 30.2492 34.881C30.1727 34.8059 30.1121 34.7168 30.0707 34.6187C30.0293 34.5207 30.008 34.4156 30.008 34.3094V27.2384C30.008 26.7919 30.3767 26.4301 30.8316 26.4301C31.2865 26.4301 31.6551 26.7919 31.6551 27.2384V34.3094C31.6552 34.4156 31.6339 34.5207 31.5925 34.6188C31.5511 34.7168 31.4905 34.806 31.414 34.881C31.3375 34.9561 31.2467 35.0156 31.1468 35.0562C31.0469 35.0968 30.9398 35.1177 30.8316 35.1177ZM34.9451 31.8093C34.837 31.8093 34.7299 31.7884 34.63 31.7478C34.53 31.7072 34.4392 31.6476 34.3628 31.5726C34.2863 31.4975 34.2256 31.4084 34.1842 31.3103C34.1429 31.2123 34.1216 31.1071 34.1216 31.001V27.2384C34.1216 26.7919 34.4903 26.4301 34.9451 26.4301C35.4 26.4301 35.7687 26.7919 35.7687 27.2384V31.001C35.7687 31.1071 35.7474 31.2123 35.706 31.3103C35.6647 31.4084 35.604 31.4975 35.5275 31.5726C35.451 31.6476 35.3603 31.7072 35.2603 31.7478C35.1604 31.7884 35.0533 31.8093 34.9451 31.8093ZM39.0579 29.1809C38.9498 29.1809 38.8427 29.16 38.7427 29.1194C38.6428 29.0788 38.552 29.0193 38.4755 28.9442C38.3991 28.8691 38.3384 28.78 38.297 28.6819C38.2556 28.5839 38.2344 28.4788 38.2344 28.3726V27.2384C38.2344 26.7919 38.603 26.4301 39.0579 26.4301C39.5128 26.4301 39.8815 26.7919 39.8815 27.2384V28.3726C39.8815 28.4788 39.8602 28.5839 39.8188 28.682C39.7775 28.78 39.7168 28.8692 39.6403 28.9442C39.5638 29.0193 39.473 29.0788 39.3731 29.1194C39.2732 29.16 39.1661 29.1809 39.0579 29.1809Z" fill="#FF5500"/>
</svg>
