<svg width="40" height="40" viewBox="0 0 40 40" fill="none" xmlns="http://www.w3.org/2000/svg">
<path d="M37.0968 0.0800781H2.90322C1.30258 0.0800781 0 1.37957 0 2.97713V15.2091C0 16.8067 1.30258 18.1062 2.90322 18.1062H23.871C24.0421 18.1062 24.2062 18.0383 24.3272 17.9176C24.4482 17.7969 24.5161 17.6331 24.5161 17.4624C24.5161 17.2916 24.4482 17.1279 24.3272 17.0071C24.2062 16.8864 24.0421 16.8186 23.871 16.8186H6.12903V12.9559C6.12903 12.2458 6.70774 11.6683 7.41935 11.6683H23.5484C23.7195 11.6683 23.8836 11.6004 24.0046 11.4797C24.1256 11.359 24.1935 11.1952 24.1935 11.0245C24.1935 10.8537 24.1256 10.69 24.0046 10.5693C23.8836 10.4485 23.7195 10.3807 23.5484 10.3807H7.41935C5.99645 10.3807 4.83871 11.536 4.83871 12.9559V16.8186H2.90322C2.01387 16.8186 1.29032 16.0966 1.29032 15.2091V2.97713C1.29032 2.08966 2.01387 1.36766 2.90322 1.36766H37.0968C37.9861 1.36766 38.7097 2.08966 38.7097 2.97713V7.80554C38.7097 7.97629 38.7776 8.14004 38.8986 8.26077C39.0196 8.38151 39.1837 8.44933 39.3548 8.44933C39.5259 8.44933 39.69 8.38151 39.811 8.26077C39.932 8.14004 40 7.97629 40 7.80554V2.97713C40 1.37957 38.6974 0.0800781 37.0968 0.0800781Z" fill="black"/>
<path d="M8.06565 13.5987C7.89454 13.5987 7.73044 13.6665 7.60945 13.7873C7.48846 13.908 7.42049 14.0718 7.42049 14.2425C7.42049 14.4132 7.48846 14.577 7.60945 14.6977C7.73044 14.8185 7.89454 14.8863 8.06565 14.8863H23.2269C23.398 14.8863 23.5621 14.8185 23.6831 14.6977C23.8041 14.577 23.8721 14.4132 23.8721 14.2425C23.8721 14.0718 23.8041 13.908 23.6831 13.7873C23.5621 13.6665 23.398 13.5987 23.2269 13.5987H8.06565ZM6.13017 2.6543C5.41855 2.6543 4.83984 3.23178 4.83984 3.94187V5.55135C4.83984 6.26145 5.41855 6.83892 6.13017 6.83892H11.9366C12.6482 6.83892 13.2269 6.26145 13.2269 5.55135V3.94187C13.2269 3.23178 12.6482 2.6543 11.9366 2.6543H6.13017ZM6.13017 5.55135V3.94187H11.9366L11.9373 5.55135H6.13017ZM35.1624 4.58566C35.1624 4.05325 34.7282 3.61998 34.1947 3.61998C33.6611 3.61998 33.2269 4.05325 33.2269 4.58566C33.2269 5.11808 33.6611 5.55135 34.1947 5.55135C34.7282 5.55135 35.1624 5.11808 35.1624 4.58566ZM30.9689 5.55135C31.5024 5.55135 31.9366 5.11808 31.9366 4.58566C31.9366 4.05325 31.5024 3.61998 30.9689 3.61998C30.4353 3.61998 30.0011 4.05325 30.0011 4.58566C30.0011 5.11808 30.4353 5.55135 30.9689 5.55135ZM28.7108 4.58566C28.7108 4.05325 28.2766 3.61998 27.7431 3.61998C27.2095 3.61998 26.7753 4.05325 26.7753 4.58566C26.7753 5.11808 27.2095 5.55135 27.7431 5.55135C28.2766 5.55135 28.7108 5.11808 28.7108 4.58566Z" fill="black"/>
<path d="M40 13.9205C40 10.9114 38.1974 8.22487 35.4074 7.07636C35.3094 7.03599 35.2029 7.02035 35.0974 7.03083C34.9919 7.0413 34.8906 7.07757 34.8025 7.13642C34.7143 7.19526 34.6421 7.27488 34.5922 7.36821C34.5422 7.46155 34.5161 7.56573 34.5161 7.67154V13.5986H30.6451V7.67122C30.6452 7.56541 30.619 7.46123 30.5691 7.36789C30.5192 7.27455 30.4469 7.19494 30.3588 7.13609C30.2707 7.07725 30.1694 7.04098 30.0639 7.03051C29.9583 7.02003 29.8519 7.03567 29.7539 7.07603C28.3934 7.63235 27.2299 8.58056 26.412 9.79963C25.594 11.0187 25.1585 12.4534 25.1613 13.9205C25.1585 15.3133 25.5508 16.6784 26.2929 17.8581C27.035 19.0377 28.0966 19.9837 29.3548 20.5866V22.2897H25.0639C24.3961 22.2879 23.7346 22.4183 23.1177 22.6733C22.5007 22.9283 21.9406 23.3028 21.4697 23.7753C21.2306 24.0151 20.9462 24.2053 20.6329 24.3347C20.3197 24.4642 19.9839 24.5304 19.6448 24.5295H18.0645V23.5773C18.0645 22.8672 17.4858 22.2897 16.7742 22.2897H0.645161C0.474054 22.2897 0.309955 22.3576 0.188963 22.4783C0.0679723 22.599 0 22.7628 0 22.9335C0 23.1043 0.0679723 23.268 0.188963 23.3887C0.309955 23.5095 0.474054 23.5773 0.645161 23.5773H16.7742V35.1655H0.645161C0.474054 35.1655 0.309955 35.2333 0.188963 35.3541C0.0679723 35.4748 0 35.6385 0 35.8093C0 35.98 0.0679723 36.1438 0.188963 36.2645C0.309955 36.3853 0.474054 36.4531 0.645161 36.4531H16.7742C17.4858 36.4531 18.0645 35.8756 18.0645 35.1655V34.1998H19.6316C20.321 34.1998 20.969 34.4676 21.47 34.9675C21.9408 35.44 22.5009 35.8145 23.1178 36.0695C23.7347 36.3245 24.3961 36.4549 25.0639 36.4531H29.3548V36.6868C29.3548 38.4282 30.6781 39.878 32.3671 39.9868C32.4397 39.9917 32.5119 39.9939 32.5839 39.9939C33.4064 39.9939 34.1816 39.6891 34.7864 39.1235C35.1078 38.822 35.364 38.4581 35.5394 38.0542C35.7148 37.6503 35.8057 37.2148 35.8064 36.7747V36.4528H36.4516C37.519 36.4528 38.3871 35.5865 38.3871 34.5214V26.1525C38.3871 25.3017 37.8326 24.5794 37.0655 24.3222C37.0839 24.1834 37.0968 24.0431 37.0968 23.8992V23.5773C37.0968 22.8672 36.5181 22.2897 35.8064 22.2897V20.5866C37.0647 19.9837 38.1262 19.0377 38.8683 17.8581C39.6104 16.6784 40.0027 15.3133 40 13.9205ZM25.0639 35.1655C24.051 35.1655 23.0984 34.7718 22.3687 34.0437C22.0101 33.6839 21.5836 33.3986 21.1137 33.2044C20.6439 33.0101 20.1401 32.9109 19.6316 32.9122H18.0645V25.817H19.6448C20.679 25.817 21.651 25.415 22.3819 24.6856C22.7334 24.3331 23.1513 24.0537 23.6117 23.8635C24.072 23.6733 24.5656 23.576 25.0639 23.5773H35.8064V23.8992C35.8064 24.9643 34.9384 25.8306 33.871 25.8306H30C29.8289 25.8306 29.6648 25.8984 29.5438 26.0191C29.4228 26.1399 29.3548 26.3036 29.3548 26.4744C29.3548 28.2493 27.9077 29.6933 26.129 29.6933C25.4046 29.696 24.7008 29.4527 24.1332 29.0035C24.0667 28.9511 23.9905 28.9124 23.9089 28.8894C23.8274 28.8664 23.7421 28.8597 23.658 28.8696C23.5738 28.8796 23.4925 28.9059 23.4185 28.9472C23.3446 28.9885 23.2796 29.044 23.2271 29.1103C23.1746 29.1767 23.1358 29.2528 23.1128 29.3342C23.0898 29.4155 23.083 29.5006 23.093 29.5846C23.1029 29.6685 23.1293 29.7497 23.1707 29.8235C23.2121 29.8973 23.2677 29.9622 23.3342 30.0145C24.129 30.6437 25.1145 30.9845 26.129 30.9809C27.3922 30.9809 28.5345 30.4591 29.3548 29.6222V35.1655H25.0639ZM34.5161 36.775C34.5172 37.0394 34.4633 37.3011 34.3579 37.5438C34.2526 37.7864 34.0979 38.0045 33.9039 38.1845C33.7106 38.3663 33.4817 38.5061 33.2316 38.5952C32.9815 38.6843 32.7155 38.7207 32.4506 38.7022C31.4384 38.6368 30.6451 37.7516 30.6451 36.6868V27.1181H31.6129V34.5217C31.6129 35.5869 32.481 36.4531 33.5484 36.4531H34.5161V36.775ZM37.0968 26.1525V34.5217C37.0968 34.8768 36.8074 35.1655 36.4516 35.1655H33.5484C33.1926 35.1655 32.9032 34.8768 32.9032 34.5217V27.1181H33.871C35.0487 27.1181 36.0777 26.483 36.641 25.5402C36.7725 25.5803 36.8877 25.6614 36.9697 25.7715C37.0518 25.8817 37.0963 26.0152 37.0968 26.1525ZM34.9151 19.5742C34.7971 19.6229 34.6961 19.7054 34.625 19.8113C34.554 19.9173 34.5161 20.0419 34.5161 20.1694V22.2897H30.6451V20.1697C30.6452 20.0422 30.6073 19.9176 30.5362 19.8117C30.4652 19.7057 30.3642 19.6232 30.2461 19.5745C29.1222 19.115 28.161 18.3318 27.4851 17.3247C26.8093 16.3177 26.4495 15.1325 26.4516 13.9205C26.4516 11.7718 27.5645 9.82244 29.3548 8.72027V13.5986C29.3548 14.3087 29.9335 14.8862 30.6451 14.8862H34.5161C35.2277 14.8862 35.8064 14.3087 35.8064 13.5986V8.71995C37.5968 9.82212 38.7097 11.7715 38.7097 13.9202C38.7119 15.1322 38.3521 16.3174 37.6763 17.3245C37.0004 18.3315 36.0391 19.1148 34.9151 19.5742Z" fill="black"/>
</svg>
