<svg width="60" height="60" viewBox="0 0 60 60" fill="none" xmlns="http://www.w3.org/2000/svg">
<g clip-path="url(#clip0_5720_4282)">
<path d="M20.625 55.312C21.3709 55.312 22.0863 55.0157 22.6137 54.4883C23.1412 53.9608 23.4375 53.2454 23.4375 52.4995C23.4375 51.3014 22.0106 49.1048 21.3966 48.217C21.3057 48.0988 21.1888 48.003 21.0551 47.9371C20.9213 47.8712 20.7741 47.8369 20.625 47.8369C20.4759 47.8369 20.3287 47.8712 20.1949 47.9371C20.0612 48.003 19.9443 48.0988 19.8534 48.217C19.2394 49.1048 17.8125 51.3014 17.8125 52.4995C17.8125 53.2454 18.1088 53.9608 18.6363 54.4883C19.1637 55.0157 19.8791 55.312 20.625 55.312ZM20.625 50.4877C21.0426 51.1041 21.3591 51.7833 21.5625 52.4995C21.5625 52.7482 21.4637 52.9866 21.2879 53.1624C21.1121 53.3383 20.8736 53.437 20.625 53.437C20.3764 53.437 20.1379 53.3383 19.9621 53.1624C19.7863 52.9866 19.6875 52.7482 19.6875 52.4995C19.8909 51.7833 20.2074 51.1041 20.625 50.4877Z" fill="#FF5500"/>
<path d="M52.5 0.9375H7.5C5.76013 0.939485 4.09208 1.63153 2.8618 2.8618C1.63153 4.09208 0.939485 5.76013 0.9375 7.5V26.25C0.9375 26.4986 1.03627 26.7371 1.21209 26.9129C1.3879 27.0887 1.62636 27.1875 1.875 27.1875H6.70594L7.51312 32.0297C7.54972 32.2484 7.66267 32.4471 7.83191 32.5904C8.00115 32.7338 8.21572 32.8124 8.4375 32.8125H21.2437L25.3125 40.5441V44.0625C25.3125 44.3111 25.4113 44.5496 25.5871 44.7254C25.7629 44.9012 26.0014 45 26.25 45H27.2353C27.4703 47.3113 28.5541 49.4533 30.2769 51.0118C31.9998 52.5703 34.2393 53.4346 36.5625 53.4375C38.0539 53.439 39.4838 54.0321 40.5383 55.0867C41.5929 56.1412 42.186 57.5711 42.1875 59.0625H44.0625C44.0603 57.0741 43.2694 55.1677 41.8633 53.7617C40.4573 52.3556 38.5509 51.5647 36.5625 51.5625C34.7372 51.5595 32.9755 50.8916 31.607 49.6837C30.2385 48.4758 29.3569 46.8108 29.1272 45H31.0219C31.2443 46.3093 31.9224 47.4978 32.9362 48.3555C33.9501 49.2132 35.2345 49.685 36.5625 49.6875C39.0481 49.6902 41.431 50.6788 43.1886 52.4364C44.9462 54.194 45.9348 56.5769 45.9375 59.0625H47.8125C47.8093 56.0798 46.623 53.2202 44.5139 51.1111C42.4048 49.002 39.5452 47.8157 36.5625 47.8125C35.7335 47.8094 34.929 47.5317 34.2746 47.0228C33.6202 46.514 33.1529 45.8026 32.9456 45H33.75C33.9986 45 34.2371 44.9012 34.4129 44.7254C34.5887 44.5496 34.6875 44.3111 34.6875 44.0625V40.5441L38.7562 32.8125H51.5625C51.7843 32.8124 51.9988 32.7338 52.1681 32.5904C52.3373 32.4471 52.4503 32.2484 52.4869 32.0297L53.2941 27.1875H58.125C58.3736 27.1875 58.6121 27.0887 58.7879 26.9129C58.9637 26.7371 59.0625 26.4986 59.0625 26.25V7.5C59.0605 5.76013 58.3685 4.09208 57.1382 2.8618C55.9079 1.63153 54.2399 0.939485 52.5 0.9375ZM42.7041 25.3125L43.6875 23.4375H51.5625V25.3125H42.7041ZM33.1875 39.375H32.0925L35.4478 23.4375H41.5725L33.1875 39.375ZM18.4275 23.4375H24.5522L27.9075 39.375H26.8125L18.4275 23.4375ZM29.8228 39.375L26.4675 23.4375H33.5325L30.1772 39.375H29.8228ZM27.1875 41.25H32.8125V43.125H27.1875V41.25ZM51.5625 14.0625H8.4375V12.1875H51.5625V14.0625ZM8.4375 15.9375H51.5625V17.8125H8.4375V15.9375ZM8.4375 19.6875H51.5625V21.5625H8.4375V19.6875ZM8.4375 23.4375H16.3125L17.2997 25.3125H8.4375V23.4375ZM9.23156 30.9375L8.60625 27.1875H18.2812L20.2547 30.9375H9.23156ZM50.7684 30.9375H39.7434L41.7122 27.1875H51.3937L50.7684 30.9375ZM57.1875 25.3125H53.4375V11.25C53.4375 11.0014 53.3387 10.7629 53.1629 10.5871C52.9871 10.4113 52.7486 10.3125 52.5 10.3125H7.5C7.25136 10.3125 7.0129 10.4113 6.83709 10.5871C6.66127 10.7629 6.5625 11.0014 6.5625 11.25V25.3125H2.8125V7.5C2.81399 6.25725 3.30833 5.06584 4.18708 4.18708C5.06584 3.30833 6.25725 2.81399 7.5 2.8125H52.5C53.7427 2.81399 54.9342 3.30833 55.8129 4.18708C56.6917 5.06584 57.186 6.25725 57.1875 7.5V25.3125Z" fill="#FF5500"/>
<path d="M9.54094 38.842C8.92688 39.7298 7.5 41.9264 7.5 43.1245C7.5 43.8704 7.79632 44.5858 8.32376 45.1133C8.85121 45.6407 9.56658 45.937 10.3125 45.937C11.0584 45.937 11.7738 45.6407 12.3012 45.1133C12.8287 44.5858 13.125 43.8704 13.125 43.1245C13.125 41.9264 11.6981 39.7298 11.0841 38.842C10.9932 38.7238 10.8763 38.628 10.7426 38.5621C10.6088 38.4962 10.4616 38.4619 10.3125 38.4619C10.1634 38.4619 10.0162 38.4962 9.88244 38.5621C9.74866 38.628 9.63182 38.7238 9.54094 38.842ZM10.3125 44.062C10.0639 44.062 9.8254 43.9633 9.64959 43.7874C9.47377 43.6116 9.375 43.3732 9.375 43.1245C9.57827 42.4079 9.89476 41.7284 10.3125 41.1117C10.7302 41.7284 11.0467 42.4079 11.25 43.1245C11.25 43.3732 11.1512 43.6116 10.9754 43.7874C10.7996 43.9633 10.5611 44.062 10.3125 44.062Z" fill="#FF5500"/>
<path d="M16.1034 34.1545C15.4894 35.0423 14.0625 37.2389 14.0625 38.437C14.0625 39.1829 14.3588 39.8983 14.8863 40.4258C15.4137 40.9532 16.1291 41.2495 16.875 41.2495C17.6209 41.2495 18.3363 40.9532 18.8637 40.4258C19.3912 39.8983 19.6875 39.1829 19.6875 38.437C19.6875 37.2389 18.2606 35.0423 17.6466 34.1545C17.5557 34.0363 17.4388 33.9405 17.3051 33.8746C17.1713 33.8087 17.0241 33.7744 16.875 33.7744C16.7259 33.7744 16.5787 33.8087 16.4449 33.8746C16.3112 33.9405 16.1943 34.0363 16.1034 34.1545ZM16.875 39.3745C16.6264 39.3745 16.3879 39.2758 16.2121 39.0999C16.0363 38.9241 15.9375 38.6857 15.9375 38.437C16.1408 37.7204 16.4573 37.0409 16.875 36.4242C17.2927 37.0409 17.6092 37.7204 17.8125 38.437C17.8125 38.6857 17.7137 38.9241 17.5379 39.0999C17.3621 39.2758 17.1236 39.3745 16.875 39.3745Z" fill="#FF5500"/>
<path d="M42.3534 34.1545C41.7394 35.0423 40.3125 37.2389 40.3125 38.437C40.3125 39.1829 40.6088 39.8983 41.1363 40.4258C41.6637 40.9532 42.3791 41.2495 43.125 41.2495C43.8709 41.2495 44.5863 40.9532 45.1137 40.4258C45.6412 39.8983 45.9375 39.1829 45.9375 38.437C45.9375 37.2389 44.5106 35.0423 43.8966 34.1545C43.8057 34.0363 43.6888 33.9405 43.5551 33.8746C43.4213 33.8087 43.2741 33.7744 43.125 33.7744C42.9759 33.7744 42.8287 33.8087 42.6949 33.8746C42.5612 33.9405 42.4443 34.0363 42.3534 34.1545ZM44.0625 38.437C44.0625 38.6857 43.9637 38.9241 43.7879 39.0999C43.6121 39.2758 43.3736 39.3745 43.125 39.3745C42.8764 39.3745 42.6379 39.2758 42.4621 39.0999C42.2863 38.9241 42.1875 38.6857 42.1875 38.437C42.3908 37.7204 42.7073 37.0409 43.125 36.4242C43.5427 37.0409 43.8592 37.7204 44.0625 38.437Z" fill="#FF5500"/>
<path d="M50.4591 38.842C50.3682 38.7238 50.2513 38.628 50.1176 38.5621C49.9838 38.4962 49.8366 38.4619 49.6875 38.4619C49.5384 38.4619 49.3912 38.4962 49.2574 38.5621C49.1237 38.628 49.0068 38.7238 48.9159 38.842C48.3019 39.7298 46.875 41.9264 46.875 43.1245C46.875 43.8704 47.1713 44.5858 47.6988 45.1133C48.2262 45.6407 48.9416 45.937 49.6875 45.937C50.4334 45.937 51.1488 45.6407 51.6762 45.1133C52.2037 44.5858 52.5 43.8704 52.5 43.1245C52.5 41.9264 51.0731 39.7298 50.4591 38.842ZM49.6875 44.062C49.4389 44.062 49.2004 43.9633 49.0246 43.7874C48.8488 43.6116 48.75 43.3732 48.75 43.1245C48.9533 42.4079 49.2698 41.7284 49.6875 41.1117C50.1052 41.7284 50.4217 42.4079 50.625 43.1245C50.625 43.3732 50.5262 43.6116 50.3504 43.7874C50.1746 43.9633 49.9361 44.062 49.6875 44.062Z" fill="#FF5500"/>
</g>
<defs>
<clipPath id="clip0_5720_4282">
<rect width="60" height="60" fill="white"/>
</clipPath>
</defs>
</svg>
