<svg width="40" height="40" viewBox="0 0 40 40" fill="none" xmlns="http://www.w3.org/2000/svg">
<g clip-path="url(#clip0_6143_3162)">
<path d="M25.625 31.2491V37.4991C25.625 37.9964 25.8225 38.4733 26.1742 38.8249C26.5258 39.1765 27.0027 39.3741 27.5 39.3741C27.9973 39.3741 28.4742 39.1765 28.8258 38.8249C29.1775 38.4733 29.375 37.9964 29.375 37.4991V36.2491H28.125V37.4991C28.125 37.6648 28.0592 37.8238 27.9419 37.941C27.8247 38.0582 27.6658 38.1241 27.5 38.1241C27.3342 38.1241 27.1753 38.0582 27.0581 37.941C26.9408 37.8238 26.875 37.6648 26.875 37.4991V31.2491H25.625ZM10.625 36.2491V37.4991C10.625 37.9964 10.8225 38.4733 11.1742 38.8249C11.5258 39.1765 12.0027 39.3741 12.5 39.3741C12.9973 39.3741 13.4742 39.1765 13.8258 38.8249C14.1775 38.4733 14.375 37.9964 14.375 37.4991V31.2491H13.125V37.4991C13.125 37.6648 13.0592 37.8238 12.9419 37.941C12.8247 38.0582 12.6658 38.1241 12.5 38.1241C12.3342 38.1241 12.1753 38.0582 12.0581 37.941C11.9408 37.8238 11.875 37.6648 11.875 37.4991V36.2491H10.625ZM15.625 29.9991H16.875V36.8741H15.625V29.9991ZM23.125 29.9991H24.375V36.8741H23.125V29.9991ZM19.375 31.2491H20.625V38.1241H19.375V31.2491ZM35.625 12.4991H29.0263C29.4174 11.1056 29.4805 9.64041 29.2107 8.21841C28.9409 6.79641 28.3456 5.45618 27.4713 4.30273C26.597 3.14927 25.4675 2.21391 24.1713 1.56992C22.8751 0.92594 21.4474 0.59082 20 0.59082C18.5526 0.59082 17.1249 0.92594 15.8287 1.56992C14.5325 2.21391 13.403 3.14927 12.5287 4.30273C11.6544 5.45618 11.0591 6.79641 10.7893 8.21841C10.5195 9.64041 10.5827 11.1056 10.9738 12.4991H4.375C3.38074 12.5001 2.42749 12.8955 1.72445 13.5985C1.0214 14.3016 0.625993 15.2548 0.625 16.2491V24.9991C0.625993 25.9933 1.0214 26.9466 1.72445 27.6496C2.42749 28.3527 3.38074 28.7481 4.375 28.7491H35.625C36.6193 28.7481 37.5725 28.3527 38.2756 27.6496C38.9786 26.9466 39.374 25.9933 39.375 24.9991V16.2491C39.374 15.2548 38.9786 14.3016 38.2756 13.5985C37.5725 12.8955 36.6193 12.5001 35.625 12.4991ZM20 1.87409C21.607 1.87409 23.1779 2.35061 24.514 3.2434C25.8502 4.13618 26.8916 5.40513 27.5065 6.88978C28.1215 8.37443 28.2824 10.0081 27.9689 11.5842C27.6554 13.1603 26.8815 14.608 25.7452 15.7443C24.6089 16.8806 23.1612 17.6545 21.5851 17.968C20.009 18.2815 18.3753 18.1206 16.8907 17.5056C15.406 16.8906 14.1371 15.8492 13.2443 14.5131C12.3515 13.1769 11.875 11.6061 11.875 9.99909C11.8775 7.84496 12.7343 5.77978 14.2575 4.25658C15.7807 2.73339 17.8459 1.87657 20 1.87409ZM5.625 26.2491H34.375V27.4991H5.625V26.2491ZM5.625 24.9991C5.625 24.6676 5.7567 24.3496 5.99112 24.1152C6.22554 23.8808 6.54348 23.7491 6.875 23.7491H33.125C33.4565 23.7491 33.7745 23.8808 34.0089 24.1152C34.2433 24.3496 34.375 24.6676 34.375 24.9991H5.625ZM38.125 24.9991C38.125 25.6621 37.8616 26.298 37.3928 26.7669C36.9239 27.2357 36.288 27.4991 35.625 27.4991V24.9991C35.625 24.336 35.3616 23.7002 34.8928 23.2313C34.4239 22.7625 33.788 22.4991 33.125 22.4991H6.875C6.21196 22.4991 5.57607 22.7625 5.10723 23.2313C4.63839 23.7002 4.375 24.336 4.375 24.9991V27.4991C3.71196 27.4991 3.07607 27.2357 2.60723 26.7669C2.13839 26.298 1.875 25.6621 1.875 24.9991V16.2491C1.875 15.586 2.13839 14.9502 2.60723 14.4813C3.07607 14.0125 3.71196 13.7491 4.375 13.7491H11.4131C12.1416 15.4207 13.3421 16.8433 14.8675 17.8424C16.3928 18.8416 18.1766 19.3738 20 19.3738C21.8234 19.3738 23.6072 18.8416 25.1325 17.8424C26.6579 16.8433 27.8584 15.4207 28.5869 13.7491H35.625C36.288 13.7491 36.9239 14.0125 37.3928 14.4813C37.8616 14.9502 38.125 15.586 38.125 16.2491V24.9991Z" fill="#010F34"/>
<path d="M34.9998 14.9995C34.629 14.9995 34.2665 15.1095 33.9581 15.3155C33.6498 15.5215 33.4095 15.8143 33.2676 16.157C33.1257 16.4996 33.0885 16.8766 33.1609 17.2403C33.2332 17.604 33.4118 17.9381 33.674 18.2003C33.9362 18.4625 34.2703 18.6411 34.6341 18.7135C34.9978 18.7858 35.3748 18.7487 35.7174 18.6068C36.06 18.4649 36.3528 18.2245 36.5588 17.9162C36.7649 17.6078 36.8748 17.2453 36.8748 16.8745C36.8748 16.3772 36.6773 15.9003 36.3257 15.5487C35.974 15.197 35.4971 14.9995 34.9998 14.9995ZM34.9998 17.4995C34.8762 17.4995 34.7554 17.4628 34.6526 17.3942C34.5498 17.3255 34.4697 17.2279 34.4224 17.1137C34.3751 16.9995 34.3627 16.8738 34.3869 16.7526C34.411 16.6313 34.4705 16.52 34.5579 16.4326C34.6453 16.3451 34.7567 16.2856 34.8779 16.2615C34.9991 16.2374 35.1248 16.2498 35.239 16.2971C35.3532 16.3444 35.4508 16.4245 35.5195 16.5273C35.5882 16.63 35.6248 16.7509 35.6248 16.8745C35.6248 17.0403 35.559 17.1992 35.4418 17.3164C35.3246 17.4336 35.1656 17.4995 34.9998 17.4995ZM16.2286 11.7626L13.8823 11.2932L13.6367 12.5189L15.6242 12.9164L15.2267 14.9039L16.4523 15.1489L16.9217 12.8026L19.3748 11.167V14.1157L17.683 15.8076L18.5667 16.6914L19.9998 15.2582L21.433 16.6914L22.3167 15.8076L20.6248 14.1157V11.167L23.078 12.8026L23.5473 15.1489L24.773 14.9039L24.3755 12.9164L26.363 12.5189L26.1173 11.2932L23.7711 11.7626L21.1267 9.99949L23.7711 8.23637L26.1173 8.70574L26.363 7.48012L24.3755 7.08262L24.773 5.09512L23.5473 4.85012L23.078 7.19637L20.6248 8.83199V5.88324L22.3167 4.19137L21.433 3.30762L19.9998 4.74074L18.5667 3.30762L17.683 4.19137L19.3748 5.88324V8.83199L16.9217 7.19637L16.4523 4.85012L15.2267 5.09512L15.6242 7.08262L13.6367 7.48012L13.8823 8.70574L16.2286 8.23637L18.873 9.99949L16.2286 11.7626Z" fill="#010F34"/>
</g>
<defs>
<clipPath id="clip0_6143_3162">
<rect width="40" height="40" fill="white" transform="translate(0 -0.000976562)"/>
</clipPath>
</defs>
</svg>
