<svg width="61" height="60" viewBox="0 0 61 60" fill="none" xmlns="http://www.w3.org/2000/svg">
<path d="M54.9487 29.9991H46.2776C47.7358 27.2855 48.4666 24.239 48.3988 21.1575C48.3309 18.076 47.4666 15.0648 45.8904 12.4184C44.3142 9.77205 42.08 7.58103 39.4062 6.05957C36.7325 4.53811 33.7107 3.73828 30.6363 3.73828C27.5619 3.73828 24.5402 4.53811 21.8664 6.05957C19.1927 7.58103 16.9585 9.77205 15.3823 12.4184C13.8061 15.0648 12.9418 18.076 12.8739 21.1575C12.806 24.239 13.5369 27.2855 14.995 29.9991H6.3239C5.08435 30.0006 3.89599 30.4949 3.01949 31.3737C2.14299 32.2524 1.64992 33.4438 1.64844 34.6866V49.6866C1.64992 50.9293 2.14299 52.1207 3.01949 52.9995C3.89599 53.8783 5.08435 54.3726 6.3239 54.3741H54.9487C56.1883 54.3726 57.3767 53.8783 58.2532 52.9995C59.1297 52.1207 59.6227 50.9293 59.6242 49.6866V34.6866C59.6227 33.4438 59.1297 32.2524 58.2532 31.3737C57.3767 30.4949 56.1883 30.0006 54.9487 29.9991ZM30.6363 5.62408C34.6166 5.62262 38.4525 7.11904 41.385 9.81726C44.3175 12.5155 46.133 16.219 46.4724 20.195C46.8118 24.171 45.6503 28.1299 43.2177 31.2884C40.7851 34.4469 37.2586 36.575 33.3359 37.2516C33.0928 37.2934 32.876 37.4299 32.7328 37.6313L30.6363 40.5731L28.5398 37.6313C28.3966 37.4299 28.1798 37.2934 27.9367 37.2516C24.014 36.575 20.4876 34.4469 18.055 31.2884C15.6224 28.1299 14.4608 24.171 14.8002 20.195C15.1396 16.219 16.9551 12.5155 19.8877 9.81726C22.8202 7.11904 26.656 5.62262 30.6363 5.62408ZM50.2733 48.7491H10.9994V47.8116C10.9994 47.5629 11.0979 47.3245 11.2733 47.1487C11.4486 46.9729 11.6865 46.8741 11.9345 46.8741H49.3382C49.5862 46.8741 49.824 46.9729 49.9994 47.1487C50.1748 47.3245 50.2733 47.5629 50.2733 47.8116V48.7491ZM10.9994 50.6241H50.2733V52.4991H10.9994V50.6241ZM57.754 49.6866C57.754 50.4325 57.4585 51.1479 56.9324 51.6753C56.4063 52.2028 55.6927 52.4991 54.9487 52.4991H52.1435V47.8116C52.1435 47.0657 51.8479 46.3503 51.3218 45.8228C50.7957 45.2954 50.0822 44.9991 49.3382 44.9991H11.9345C11.1905 44.9991 10.4769 45.2954 9.95083 45.8228C9.42474 46.3503 9.12918 47.0657 9.12918 47.8116V52.4991H6.3239C5.5799 52.4991 4.86636 52.2028 4.34027 51.6753C3.81418 51.1479 3.51862 50.4325 3.51862 49.6866V34.6866C3.51862 33.9407 3.81418 33.2253 4.34027 32.6978C4.86636 32.1704 5.5799 31.8741 6.3239 31.8741H16.1489C18.7882 35.6022 22.7605 38.1656 27.2382 39.03L29.8752 42.7313C29.9617 42.8528 30.0759 42.9519 30.2083 43.0202C30.3406 43.0886 30.4874 43.1242 30.6363 43.1242C30.7852 43.1242 30.932 43.0886 31.0644 43.0202C31.1968 42.9519 31.311 42.8528 31.3975 42.7313L34.0345 39.03C38.5122 38.1656 42.4845 35.6022 45.1237 31.8741H54.9487C55.6927 31.8741 56.4063 32.1704 56.9324 32.6978C57.4585 33.2253 57.754 33.9407 57.754 34.6866V49.6866Z" fill="#FF5500"/>
<path d="M53.0787 33.75C52.5239 33.75 51.9815 33.915 51.5202 34.224C51.0589 34.533 50.6993 34.9723 50.487 35.4862C50.2747 36.0001 50.2191 36.5656 50.3273 37.1112C50.4356 37.6568 50.7028 38.1579 51.0951 38.5512C51.4874 38.9446 51.9873 39.2124 52.5314 39.321C53.0756 39.4295 53.6397 39.3738 54.1522 39.1609C54.6648 38.948 55.103 38.5876 55.4112 38.125C55.7195 37.6625 55.884 37.1188 55.884 36.5625C55.884 35.8166 55.5884 35.1012 55.0623 34.5738C54.5363 34.0463 53.8227 33.75 53.0787 33.75ZM53.0787 37.5C52.8938 37.5 52.713 37.445 52.5592 37.342C52.4054 37.239 52.2856 37.0926 52.2148 36.9213C52.144 36.75 52.1255 36.5615 52.1616 36.3796C52.1977 36.1977 52.2867 36.0307 52.4175 35.8996C52.5483 35.7685 52.7149 35.6792 52.8963 35.643C53.0777 35.6068 53.2657 35.6254 53.4366 35.6964C53.6074 35.7673 53.7535 35.8875 53.8562 36.0417C53.959 36.1958 54.0138 36.3771 54.0138 36.5625C54.0138 36.8111 53.9153 37.0496 53.7399 37.2254C53.5646 37.4012 53.3267 37.5 53.0787 37.5Z" fill="#FF5500"/>
<path d="M20.3656 30.3748L22.6042 28.1248H24.0873V29.6117L21.8477 31.856C21.7361 31.9677 21.6545 32.1059 21.6105 32.2577C21.5665 32.4095 21.5614 32.57 21.5959 32.7242C21.6303 32.8785 21.7031 33.0215 21.8074 33.14C21.9118 33.2585 22.0444 33.3486 22.1928 33.402C22.7991 33.6282 23.4403 33.746 24.0873 33.7498C25.5748 33.7483 27.001 33.1552 28.0529 32.1006C29.1048 31.0461 29.6963 29.6162 29.6978 28.1248C29.696 27.6804 29.6391 27.238 29.5286 26.8076L30.1654 26.1692L37.4526 33.4751C37.6279 33.6509 37.8657 33.7496 38.1137 33.7496C38.3616 33.7496 38.5994 33.6509 38.7748 33.4751L42.5152 29.7251C42.6905 29.5493 42.7889 29.3109 42.7889 29.0623C42.7889 28.8137 42.6905 28.5753 42.5152 28.3995L35.228 21.0935L35.8648 20.4551C36.294 20.566 36.7353 20.623 37.1786 20.6248C38.0803 20.6317 38.9702 20.4189 39.7718 20.0047C40.5733 19.5905 41.2626 18.9874 41.7802 18.2472C42.2979 17.5069 42.6286 16.6517 42.7437 15.755C42.8588 14.8583 42.7551 13.9471 42.4413 13.0995C42.3879 12.9509 42.2979 12.8183 42.1798 12.7139C42.0616 12.6095 41.9191 12.5367 41.7653 12.5023C41.6116 12.4679 41.4517 12.473 41.3005 12.5171C41.1493 12.5612 41.0116 12.6428 40.9002 12.7545L38.6616 14.9998H37.1786V13.5129L39.4228 11.2686C39.5342 11.1569 39.6156 11.0189 39.6596 10.8673C39.7036 10.7156 39.7086 10.5553 39.6743 10.4012C39.64 10.2471 39.5674 10.1042 39.4633 9.98573C39.3591 9.86726 39.2269 9.77708 39.0787 9.72355C38.233 9.41264 37.3248 9.31134 36.4316 9.42829C35.5384 9.54524 34.6867 9.87698 33.949 10.3952C33.2113 10.9134 32.6095 11.6028 32.1949 12.4046C31.7803 13.2063 31.5653 14.0967 31.568 14.9998C31.5698 15.4442 31.6267 15.8866 31.7373 16.317L30.6329 17.4242L29.6978 16.4867V14.9998C29.6978 14.7512 29.5992 14.5128 29.4238 14.337L24.7484 9.64949C24.573 9.47373 24.3352 9.375 24.0873 9.375C23.8393 9.375 23.6015 9.47373 23.4262 9.64949L18.7507 14.337C18.5754 14.5128 18.4769 14.7512 18.4769 14.9998C18.4769 15.2484 18.5754 15.4868 18.7507 15.6626L23.4262 20.3501C23.6015 20.5259 23.8393 20.6247 24.0873 20.6248H25.5703L26.5054 21.5623L25.4011 22.6695C24.9718 22.5586 24.5305 22.5016 24.0873 22.4998C23.1855 22.4929 22.2957 22.7057 21.4941 23.1199C20.6925 23.5341 20.0033 24.1372 19.4856 24.8774C18.9679 25.6177 18.6373 26.4729 18.5221 27.3696C18.407 28.2663 18.5108 29.1775 18.8246 30.0251C18.878 30.1737 18.9679 30.3063 19.0861 30.4107C19.2042 30.5151 19.3468 30.5879 19.5005 30.6223C19.6542 30.6567 19.8141 30.6516 19.9653 30.6075C20.1166 30.5634 20.2542 30.4818 20.3656 30.3701V30.3748ZM38.1137 31.4867L31.0201 24.3748L33.4382 21.9504L40.5318 29.0623L38.1137 31.4867ZM33.4569 17.2498C33.5825 17.1238 33.6696 16.9646 33.7082 16.7908C33.7468 16.617 33.7352 16.4357 33.6748 16.2682C33.5222 15.8626 33.4422 15.4333 33.4382 14.9998C33.4394 14.0767 33.7797 13.1863 34.3941 12.4988C35.0085 11.8112 35.8539 11.3746 36.769 11.2723L35.5824 12.462C35.407 12.6378 35.3084 12.8762 35.3084 13.1248V15.9373C35.3084 16.1859 35.4069 16.4244 35.5823 16.6002C35.7576 16.776 35.9955 16.8748 36.2435 16.8748H39.0488C39.2967 16.8747 39.5345 16.7759 39.7099 16.6001L40.8965 15.4104C40.7945 16.3279 40.359 17.1755 39.6732 17.7914C38.9874 18.4074 38.0993 18.7486 37.1786 18.7498C36.7478 18.7453 36.3212 18.665 35.9181 18.5126C35.751 18.452 35.5702 18.4404 35.3969 18.4791C35.2235 18.5178 35.0647 18.6052 34.939 18.731L33.8665 19.8073C33.7346 19.7371 33.5875 19.7004 33.4382 19.7004C33.2889 19.7004 33.1418 19.7371 33.0099 19.8073L31.9551 18.7498L33.4569 17.2498ZM24.4744 18.7498L20.734 14.9998L24.0873 11.6379L27.8276 15.3879V16.8748C27.8277 17.1234 27.9262 17.3618 28.1016 17.5376L31.6484 21.0935L30.1654 22.5804L26.6186 19.0245C26.4432 18.8487 26.2054 18.7499 25.9575 18.7498H24.4744ZM24.0873 24.3748C24.518 24.3793 24.9447 24.4596 25.3478 24.612C25.5154 24.6735 25.6972 24.6857 25.8715 24.647C26.0458 24.6083 26.2054 24.5203 26.3315 24.3935L27.8276 22.8879L28.8824 23.9454C28.8124 24.0777 28.7758 24.2251 28.7758 24.3748C28.7758 24.5245 28.8124 24.6719 28.8824 24.8042L27.8089 25.8795C27.6834 26.0055 27.5962 26.1647 27.5576 26.3385C27.519 26.5123 27.5306 26.6936 27.5911 26.861C27.7431 27.2652 27.8231 27.6929 27.8276 28.1248C27.8264 29.048 27.4862 29.9385 26.8718 30.6262C26.2575 31.3139 25.412 31.7507 24.4968 31.8532L25.6835 30.6626C25.8589 30.4868 25.9574 30.2484 25.9575 29.9998V27.1873C25.9575 26.9387 25.8589 26.7002 25.6836 26.5244C25.5082 26.3486 25.2704 26.2498 25.0224 26.2498H22.2171C21.9691 26.2499 21.7313 26.3487 21.556 26.5245L20.3693 27.7142C20.4714 26.7967 20.9069 25.9491 21.5927 25.3332C22.2785 24.7172 23.1665 24.376 24.0873 24.3748Z" fill="#FF5500"/>
</svg>
