<svg width="41" height="44" viewBox="0 0 41 44" fill="none" xmlns="http://www.w3.org/2000/svg">
<path d="M0.703125 21.2592H18.8617C19.0612 21.2592 19.2513 21.1744 19.3846 21.026C19.518 20.8776 19.582 20.6796 19.5608 20.4812C19.4985 19.8994 19.386 19.3344 19.2291 18.7898H21.6859C21.5289 19.3344 21.4164 19.8994 21.3542 20.4812C21.3329 20.6796 21.3969 20.8776 21.5303 21.026C21.6637 21.1743 21.8538 21.2592 22.0533 21.2592H40.2118C40.4113 21.2592 40.6014 21.1744 40.7348 21.026C40.8682 20.8776 40.9322 20.6796 40.9109 20.4812C40.4868 16.5188 37.7626 13.3284 34.145 12.1717C35.5377 11.2113 36.4528 9.60565 36.4528 7.78957C36.4528 4.85604 34.0662 2.46938 31.1326 2.46938C28.199 2.46938 25.8123 4.85604 25.8123 7.78957C25.8123 9.60557 26.7275 11.2112 28.1203 12.1716C27.9555 12.2244 27.7925 12.2813 27.6315 12.3423C26.4775 11.1114 25.0422 10.211 23.466 9.70506C24.861 8.74494 25.7779 7.13795 25.7779 5.3202C25.7777 2.38667 23.3911 0 20.4575 0C17.5239 0 15.1372 2.38667 15.1372 5.32028C15.1372 7.13804 16.0541 8.74503 17.4491 9.70515C15.8728 10.211 14.4375 11.1115 13.2834 12.3424C13.1225 12.2814 12.9596 12.2244 12.7949 12.1718C14.1876 11.2114 15.1027 9.60574 15.1027 7.78966C15.1027 4.85613 12.7161 2.46946 9.78249 2.46946C6.84888 2.46946 4.46221 4.85604 4.46221 7.78957C4.46221 9.60557 5.37732 11.2112 6.77013 12.1716C3.15237 13.3283 0.428027 16.5187 0.00413094 20.4812C-0.0171386 20.6796 0.0468458 20.8776 0.180264 21.0261C0.313594 21.1744 0.503701 21.2592 0.703125 21.2592ZM39.3929 19.8529H22.8719C23.3863 17.3 25.0341 15.1968 27.2498 14.0505L28.7801 16.7776C28.893 16.9787 29.0972 17.1117 29.3269 17.1335C29.3491 17.1356 29.3713 17.1367 29.3934 17.1367C29.5995 17.1367 29.7966 17.046 29.9308 16.8869L31.1324 15.4621L32.3341 16.8869C32.4683 17.0461 32.6654 17.1367 32.8714 17.1367C32.8935 17.1367 32.9157 17.1356 32.938 17.1335C33.1675 17.1117 33.3719 16.9787 33.4847 16.7776L35.0151 14.0505C37.2308 15.1969 38.8786 17.3 39.3929 19.8529ZM28.7837 13.4416L30.1223 14.4784L29.5099 15.2046L28.5581 13.5085C28.6328 13.4849 28.7083 13.4634 28.7837 13.4416ZM31.1316 13.1099H31.1325C31.1325 13.1099 31.1331 13.1099 31.1334 13.1099C31.2884 13.1099 31.4422 13.1155 31.5952 13.1237L31.1324 13.4822L30.6697 13.1237C30.8228 13.1155 30.9765 13.1099 31.1316 13.1099ZM33.7067 13.5086L32.7549 15.2046L32.1425 14.4785L33.4811 13.4417C33.5566 13.4634 33.6321 13.4849 33.7067 13.5086ZM27.2185 7.78957C27.2185 5.63142 28.9744 3.87563 31.1325 3.87563C33.2907 3.87563 35.0465 5.63142 35.0465 7.78957C35.0465 9.94737 33.2913 11.703 31.1336 11.7036C31.1332 11.7036 31.1328 11.7036 31.1324 11.7036C31.132 11.7036 31.1317 11.7036 31.1312 11.7036C28.9737 11.703 27.2185 9.94746 27.2185 7.78957ZM20.4574 11.0127L19.9933 10.6532C20.1473 10.6448 20.3021 10.6405 20.4574 10.6405C20.6127 10.6405 20.7675 10.6448 20.9216 10.6532L20.4574 11.0127ZM19.4474 12.0091L18.835 12.7354L17.8849 11.0423C17.9597 11.0184 18.0348 10.9955 18.1102 10.9736L19.4474 12.0091ZM22.8045 10.9735C22.88 10.9954 22.9552 11.0183 23.03 11.0422L22.08 12.7353L21.4675 12.009L22.8045 10.9735ZM16.5435 5.32028C16.5435 3.16204 18.2994 1.40625 20.4575 1.40625C22.6157 1.40625 24.3715 3.16204 24.3715 5.32028C24.3715 7.47853 22.6157 9.23432 20.4575 9.23432C18.2994 9.23432 16.5435 7.47844 16.5435 5.32028ZM16.5776 11.5861L18.1051 14.3082C18.218 14.5093 18.4222 14.6423 18.6519 14.6641C18.6741 14.6662 18.6963 14.6673 18.7184 14.6673C18.9244 14.6673 19.1216 14.5767 19.2558 14.4174L20.4574 12.9926L21.6592 14.4175C21.7934 14.5767 21.9905 14.6673 22.1965 14.6673C22.2186 14.6673 22.2408 14.6662 22.263 14.6641C22.4926 14.6423 22.697 14.5093 22.8098 14.3082L24.3373 11.586C25.0426 11.952 25.6975 12.4182 26.2805 12.9758C24.5099 13.9774 23.0776 15.5141 22.2106 17.3834H18.7043C17.8372 15.5141 16.405 13.9773 14.6342 12.9757C15.2173 12.4183 15.8723 11.9521 16.5776 11.5861ZM9.7824 13.4821L9.31966 13.1237C9.47276 13.1154 9.62648 13.1099 9.78152 13.1098H9.78249C9.78249 13.1098 9.7831 13.1098 9.78337 13.1098C9.93841 13.1098 10.0921 13.1154 10.2451 13.1237L9.7824 13.4821ZM8.77236 14.4785L8.15994 15.2046L7.20817 13.5086C7.28271 13.4849 7.35829 13.4634 7.4337 13.4416L8.77236 14.4785ZM12.1311 13.4416C12.2065 13.4634 12.2821 13.4849 12.3566 13.5086L11.405 15.2046L10.7924 14.4785L12.1311 13.4416ZM5.86846 7.78957C5.86846 5.63142 7.62434 3.87563 9.78249 3.87563C11.9406 3.87563 13.6964 5.63142 13.6964 7.78957C13.6964 9.94737 11.9413 11.703 9.78354 11.7036C9.78319 11.7036 9.78275 11.7036 9.78231 11.7036C9.78196 11.7036 9.78161 11.7036 9.78117 11.7036C7.62363 11.703 5.86846 9.94746 5.86846 7.78957ZM5.89983 14.0506L7.43019 16.7777C7.54304 16.9788 7.74729 17.1118 7.97695 17.1336C7.99919 17.1357 8.02134 17.1367 8.04349 17.1367C8.2495 17.1367 8.44664 17.0461 8.58085 16.887L9.78249 15.4622L10.9842 16.887C11.1184 17.0462 11.3156 17.1367 11.5216 17.1367C11.5436 17.1367 11.5659 17.1357 11.5881 17.1336C11.8177 17.1118 12.022 16.9788 12.1349 16.7777L13.6651 14.0506C15.8809 15.1969 17.5286 17.3 18.0431 19.8529H1.522C2.03625 17.3 3.68402 15.1968 5.89983 14.0506ZM14.425 22.4333C14.0367 22.4333 13.7218 22.7481 13.7218 23.1364C13.7218 26.8503 16.7433 29.8719 20.4573 29.8719C24.1714 29.8719 27.193 26.8504 27.193 23.1364C27.193 22.7481 26.8782 22.4333 26.4899 22.4333H14.425ZM20.4573 28.4656C17.7572 28.4656 15.5195 26.4468 15.1743 23.8395H25.7405C25.3953 26.4469 23.1576 28.4656 20.4573 28.4656ZM40.2117 22.4333H29.7823C29.394 22.4333 29.0791 22.7481 29.0791 23.1364C29.0791 27.8904 25.2114 31.758 20.4573 31.758C15.7033 31.758 11.8357 27.8904 11.8357 23.1364C11.8357 22.7481 11.5209 22.4333 11.1326 22.4333H0.703125C0.314824 22.4333 0 22.7481 0 23.1364V25.8098C0 26.1007 0.179121 26.3615 0.450527 26.466L3.38203 27.5944C3.7902 29.1609 4.41105 30.6586 5.23178 32.0564L3.95596 34.9291C3.83792 35.1948 3.89566 35.506 4.10133 35.7116L7.88229 39.4924C8.08796 39.6981 8.39883 39.7559 8.66479 39.6379L11.5385 38.3616C12.9365 39.1824 14.4339 39.8032 15.9991 40.2109L17.1278 43.1433C17.2322 43.4148 17.493 43.5938 17.784 43.5938H23.1309C23.4218 43.5938 23.6826 43.4147 23.7871 43.1433L24.9155 40.2118C26.4816 39.8039 27.9794 39.183 29.3775 38.3621L32.2502 39.638C32.5162 39.7562 32.8271 39.6982 33.0328 39.4926L36.8136 35.7117C37.0193 35.5061 37.077 35.195 36.959 34.9291L35.6826 32.0555C36.5035 30.6574 37.1242 29.16 37.532 27.5948L40.4644 26.4662C40.7358 26.3617 40.9149 26.1009 40.9149 25.81V23.1366C40.9148 22.748 40.6 22.4333 40.2117 22.4333ZM39.5086 25.327L36.6856 26.4136C36.4692 26.4968 36.3078 26.6814 36.2542 26.907C35.8564 28.5787 35.1964 30.1704 34.2929 31.6378C34.1713 31.8353 34.1549 32.08 34.249 32.2919L35.4778 35.0586L32.3798 38.1567L29.614 36.9284C29.4023 36.8343 29.1575 36.8506 28.96 36.9723C27.4927 37.876 25.9006 38.536 24.2279 38.934C24.0024 38.9876 23.8177 39.149 23.7345 39.3654L22.6481 42.1875H18.2667L17.1802 39.3645C17.0969 39.1481 16.9123 38.9867 16.6867 38.933C15.0151 38.5352 13.4235 37.8753 11.956 36.9717C11.7586 36.8502 11.5138 36.8338 11.302 36.9279L8.53532 38.1566L5.43727 35.0585L6.66571 32.2928C6.75976 32.0809 6.74341 31.8361 6.62177 31.6387C5.71834 30.1719 5.05828 28.5797 4.66005 26.9067C4.60644 26.6811 4.44498 26.4966 4.22868 26.4133L1.40651 25.327V23.8395H10.4541C10.816 29.0422 15.1644 33.1642 20.4575 33.1642C25.7508 33.1642 30.0992 29.0422 30.4611 23.8395H39.5086V25.327Z" fill="#FF5500"/>
</svg>
