<svg width="45" height="37" viewBox="0 0 45 37" fill="none" xmlns="http://www.w3.org/2000/svg">
<path d="M44.9905 9.83445C44.9902 9.06497 44.6875 8.38637 44.1154 7.87221L37.2754 1.72373C36.4246 0.95917 35.3519 0.177734 33.8437 0.177734C33.8433 0.177734 33.8425 0.177734 33.8421 0.177734C32.3329 0.178262 31.2601 0.960752 30.4098 1.72619L23.5742 7.87933C23.0023 8.39401 22.7002 9.07288 22.7005 9.84236L22.7036 17.7393H18.164C18.9856 16.0331 19.5579 13.3379 18.9152 11.3196C18.4629 9.89923 17.4669 8.96284 16.0348 8.61163C15.852 8.56672 15.6589 8.59713 15.4986 8.69583C15.3384 8.79444 15.2244 8.95335 15.1821 9.13669C15.1042 9.47533 15.032 9.79279 14.9643 10.0912C14.1197 13.8102 14.0112 14.2881 11.6785 15.8128C10.0305 16.8899 9.91354 17.0289 8.88864 18.5241C8.78397 18.6769 8.66848 18.8453 8.53919 19.0323C8.12417 19.6326 7.59322 19.9033 6.82163 19.9101L6.76213 19.9102V19.7418C6.76213 18.8661 6.04969 18.1537 5.17386 18.1537H1.58818C0.712441 18.1537 0 18.8661 0 19.7418V35.2337C0 36.1095 0.712441 36.822 1.58818 36.822H5.17395C6.04969 36.822 6.76222 36.1095 6.76222 35.2337V34.513C7.07915 34.6236 7.396 34.7415 7.72225 34.8633C9.31966 35.4599 11.1301 36.1362 13.8183 36.1362H23.1519C23.5498 36.1362 23.9284 36.0531 24.2721 35.9041C24.6096 36.0559 24.9753 36.1362 25.3501 36.1362H25.3507L42.3611 36.1303C43.8167 36.1297 45.0005 34.945 44.9999 33.4893L44.9905 9.83445ZM5.35597 35.2337C5.35597 35.3324 5.27265 35.4157 5.17395 35.4157H1.58818C1.48957 35.4157 1.40625 35.3324 1.40625 35.2337V19.7418C1.40625 19.6432 1.48957 19.5599 1.58818 19.5599H5.17395C5.27265 19.5599 5.35597 19.6432 5.35597 19.7418V35.2337ZM13.8183 34.7299C11.3842 34.7299 9.77273 34.1279 8.21435 33.5459C7.74387 33.3702 7.26144 33.1901 6.7623 33.0292V21.3165L6.83007 21.3163C8.05834 21.3056 9.02268 20.8061 9.69609 19.8318C9.82652 19.6432 9.94298 19.4733 10.0486 19.3192C10.9938 17.9403 10.9938 17.9403 12.4479 16.9898C15.2567 15.154 15.4637 14.2418 16.3356 10.4026C16.3485 10.3456 16.3616 10.2878 16.3749 10.2293C16.9544 10.537 17.3498 11.0381 17.5753 11.7462C18.2387 13.8296 17.1925 17.037 16.374 17.9821C16.1938 18.1901 16.1517 18.4842 16.266 18.7346C16.3804 18.985 16.6303 19.1456 16.9056 19.1456H24.9441C25.7274 19.1456 26.3647 19.7829 26.3647 20.5662C26.3647 21.3496 25.7274 21.987 24.9441 21.987H19.4021C19.0138 21.987 18.699 22.3018 18.699 22.6901C18.699 23.0784 19.0138 23.3933 19.4021 23.3933H26.1054C26.8888 23.3933 27.5261 24.0305 27.5261 24.8139C27.5261 25.5973 26.8888 26.2347 26.1054 26.2347H19.4021C19.0138 26.2347 18.699 26.5495 18.699 26.9378C18.699 27.3261 19.0138 27.6409 19.4021 27.6409H25.3754C26.1588 27.6409 26.7961 28.2782 26.7961 29.0616C26.7961 29.845 26.1588 30.4822 25.3754 30.4822H19.4021C19.0138 30.4822 18.699 30.7971 18.699 31.1854C18.699 31.5737 19.0138 31.8885 19.4021 31.8885H23.152C23.9353 31.8885 24.5727 32.5259 24.5727 33.3092C24.5727 34.0926 23.9354 34.7299 23.152 34.7299H13.8183ZM42.3606 34.724L25.5945 34.7298C25.8384 34.3121 25.9789 33.8269 25.9789 33.3092C25.9789 32.7883 25.8373 32.2999 25.5906 31.8804C27.0492 31.77 28.2023 30.5479 28.2023 29.0616C28.2023 28.3719 27.9541 27.7391 27.5422 27.2479C28.3736 26.7552 28.9324 25.8485 28.9324 24.8139C28.9324 23.6561 28.2327 22.6588 27.2341 22.2221C27.5717 21.7564 27.771 21.1842 27.771 20.5662C27.771 19.0075 26.5028 17.7393 24.9441 17.7393H24.11L24.1068 9.84192C24.1067 9.47208 24.2402 9.17202 24.5151 8.92461L31.3507 2.77139C32.2873 1.92825 33.0093 1.58434 33.8427 1.58398H33.8438C34.6765 1.58398 35.3986 1.92755 36.3355 2.76954L43.1755 8.91802C43.4505 9.16525 43.5843 9.46522 43.5844 9.83507L43.5938 33.4899C43.594 34.1701 43.0408 34.7238 42.3606 34.724ZM38.0666 25.2087C38.1696 26.0573 37.9421 26.8318 37.4089 27.4483C36.7817 28.1734 35.7395 28.6596 34.5534 28.796V29.6904C34.5534 30.0787 34.2386 30.3935 33.8503 30.3935C33.462 30.3935 33.1472 30.0787 33.1472 29.6904V28.7858C31.3908 28.5444 30.0255 27.4338 29.6302 25.8485C29.5363 25.4717 29.7656 25.0901 30.1424 24.9961C30.5194 24.9028 30.9008 25.1316 30.9947 25.5083C31.3589 26.9689 32.8288 27.4563 33.9775 27.4276C34.9639 27.4041 35.8932 27.0513 36.3453 26.5285C36.6197 26.2113 36.7262 25.8349 36.6707 25.3782C36.5395 24.2971 35.6376 23.6766 33.7465 23.3661C30.7368 22.8719 30.0359 21.3455 29.9781 20.1521C29.8978 18.4984 31.0554 17.1124 32.8589 16.7034C32.9534 16.682 33.0497 16.6635 33.1473 16.6481V15.7336C33.1473 15.3453 33.4622 15.0305 33.8505 15.0305C34.2388 15.0305 34.5536 15.3453 34.5536 15.7336V16.6421C35.8409 16.8327 37.1109 17.5785 37.7453 19.0898C37.8956 19.4478 37.7273 19.86 37.3692 20.0103C37.0111 20.1607 36.5991 19.9922 36.4488 19.6342C35.8389 18.1817 34.3626 17.8045 33.1699 18.075C32.2687 18.2793 31.3259 18.9145 31.3828 20.0841C31.4005 20.4503 31.4546 21.5649 33.9744 21.9786C34.908 22.1317 37.7497 22.5983 38.0666 25.2087ZM33.8445 9.60602C35.2252 9.60602 36.3485 8.48278 36.3485 7.10202C36.3485 5.72126 35.2252 4.59802 33.8445 4.59802C32.4637 4.59802 31.3404 5.72126 31.3404 7.10202C31.3404 8.48278 32.4637 9.60602 33.8445 9.60602ZM33.8445 6.00418C34.4498 6.00418 34.9422 6.49672 34.9422 7.10193C34.9422 7.70715 34.4498 8.19969 33.8445 8.19969C33.2392 8.19969 32.7466 7.70715 32.7466 7.10193C32.7466 6.49672 33.2392 6.00418 33.8445 6.00418Z" fill="#FF5500"/>
</svg>
