<svg width="76" height="72" viewBox="0 0 76 72" fill="none" xmlns="http://www.w3.org/2000/svg">
<g opacity="0.15">
<path d="M75.7749 40.017C75.5863 39.6447 75.1151 39.4586 74.7381 39.3655C72.5702 39.3655 53.908 38.621 53.908 17.2157C53.908 16.5643 53.3425 16.0059 52.6827 16.0059C52.023 16.0059 51.4574 16.5643 51.4574 17.2157C51.4574 38.621 32.7952 39.3655 30.7216 39.3655C30.4389 39.3655 30.1561 39.4586 29.9676 39.6447C29.7791 39.7378 29.6849 39.9239 29.5906 40.017C29.4021 40.3892 29.4021 40.8546 29.5906 41.2268C29.7791 41.5991 30.2504 41.8783 30.7216 41.8783C30.7216 41.8783 30.7216 41.8783 30.8159 41.8783C32.9837 41.8783 51.5517 42.6228 51.5517 64.0281C51.5517 64.6795 52.1172 65.2379 52.777 65.2379C53.4368 65.2379 54.0023 64.6795 54.0023 64.0281C54.0023 42.7159 72.5702 41.8783 74.7381 41.8783C75.2093 41.8783 75.5863 41.5991 75.8691 41.2268C76.0576 40.8546 76.0576 40.3892 75.7749 40.017ZM52.6827 54.9076C49.9494 46.0663 43.2574 42.2506 37.9792 40.5754C43.2574 38.9002 49.9494 35.0845 52.6827 26.2432C55.4161 35.0845 62.1081 38.9002 67.3863 40.5754C62.1081 42.2506 55.4161 46.0663 52.6827 54.9076Z" fill="#FF5500"/>
<path d="M37.1405 15.8213C37.8003 15.8213 38.3658 15.2629 38.3658 14.5183C38.3658 13.8669 37.8003 13.3085 37.1405 13.3085C36.0095 13.3085 25.8301 12.9362 25.8301 1.20986C25.8301 0.558398 25.2645 0 24.6048 0C23.945 0 23.3795 0.558398 23.3795 1.20986C23.3795 12.9362 13.2001 13.3085 12.069 13.3085C11.9748 13.3085 11.9748 13.3085 11.9748 13.3085C11.315 13.4016 10.8438 13.8669 10.8438 14.5183C10.8438 15.1698 11.4093 15.7282 12.069 15.7282C13.2943 15.7282 23.3795 16.1005 23.3795 27.8268C23.3795 28.4783 23.945 29.0367 24.6048 29.0367C25.1703 29.1298 25.7358 28.5714 25.7358 27.9199C25.7358 16.1935 35.9152 15.8213 37.0462 15.8213H37.1405ZM24.5105 21.1261C23.0025 17.5895 20.2691 15.6351 17.7243 14.5183C20.4576 13.4015 23.0025 11.261 24.5105 7.91064C26.0186 11.4472 28.7519 13.4015 31.2968 14.5183C28.5634 15.6351 26.0186 17.7757 24.5105 21.1261Z" fill="#FF5500"/>
<path d="M26.2967 55.2811C25.1657 55.2811 14.9863 54.9089 14.9863 43.1825C14.9863 42.5311 14.4208 41.9727 13.761 41.9727C13.1012 41.9727 12.5357 42.5311 12.5357 43.1825C12.5357 54.9089 2.35634 55.2811 1.2253 55.2811C1.13104 55.2811 1.13104 55.2811 1.13104 55.2811C0.471268 55.3742 0 55.8395 0 56.491C0 57.1425 0.565521 57.7009 1.2253 57.7009C2.45059 57.7009 12.5357 58.0731 12.5357 69.7995C12.5357 70.451 13.1012 71.0093 13.761 71.0093C14.3265 71.1955 14.8921 70.6371 14.8921 69.8926C14.8921 58.1662 25.0714 57.7939 26.2025 57.7939H26.2967C26.9565 57.7939 27.522 57.2355 27.522 56.491C27.522 55.8395 26.9565 55.2811 26.2967 55.2811ZM13.6668 63.1918C12.0645 59.6553 9.42536 57.7009 6.88051 56.5841C9.61386 55.4673 12.1587 53.3267 13.6668 49.9764C15.1748 53.5129 17.9082 55.4673 20.453 56.5841C17.7197 57.7009 15.1748 59.8414 13.6668 63.1918Z" fill="#FF5500"/>
</g>
</svg>
