<svg width="1920" height="328" viewBox="0 0 1920 328" fill="none" xmlns="http://www.w3.org/2000/svg">
<rect width="1920" height="328" fill="url(#paint0_linear_5720_2316)"/>
<g opacity="0.2" clip-path="url(#clip0_5720_2316)">
<g opacity="0.15">
<path d="M621.979 358.099H615.944V355.057H612.696V349.024H615.944V340.977L613.53 343.985L608.9 340.056L615.944 331.686V324.296L609.517 332.127L604.887 328.247L615.947 315.115V307.155L604.407 321.143L599.777 317.282L615.949 298.012V282.86L603.921 302.048L602.83 301.648L606.404 275.999L593.649 288.847L591.567 313.906L585.533 313.4L587.222 295.357L581.629 300.971L580.198 318.093L574.163 317.564L575.126 307.506L569.903 312.742L568.981 323.68L562.966 323.178L563.358 319.318L557.697 325.061L560.001 327.343L555.744 331.637L553.437 329.34L551.267 331.508L546.983 327.275L549.139 325.08L546.854 322.803L551.092 318.509L553.418 320.806L559.079 315.109L555.242 315.523L554.693 309.514L565.643 308.533L570.863 303.251L560.747 304.3L560.218 298.272L577.317 296.735L582.91 291.08L564.826 292.902L564.305 286.893L589.365 284.592L601.264 272.624L575.578 277.989L575.145 276.939L596.938 262.072H579.973L560.676 278.232L556.816 273.607L570.819 262.072H562.854L549.707 273.125L545.842 268.5L553.681 262.072H546.264L537.857 269.136L533.973 264.511L536.985 262.072H528.901V265.316H522.867V262.072H519.816V256.044H522.889V252.8H528.904V256.044H536.987L533.976 253.661L537.86 249.008L546.267 256.044H553.684L545.844 249.644L549.709 245.019L562.856 256.044H570.822L556.819 244.537L560.678 239.912L579.975 256.044H595.163L572.687 242.871L573.088 241.775L602.141 246.666L589.151 233.777L564.063 231.711L564.593 225.683L582.636 227.33L577.035 221.762L559.875 220.332L560.396 214.323L570.493 215.313L565.224 210.071L554.274 209.178L554.781 203.15L558.646 203.564L552.888 197.862L550.631 200.163L546.333 195.938L548.612 193.607L546.442 191.461L550.675 187.187L552.853 189.363L555.179 187.034L559.458 191.286L557.154 193.588L562.884 199.243L562.442 195.41L568.458 194.881L569.448 205.778L574.758 211.019L573.686 200.928L579.72 200.385L579.761 200.974L581.281 217.488L586.923 223.056L585.099 205.013L591.115 204.484L591.175 205.054L593.419 229.497L603.033 239.032L596.883 217.244L597.914 216.737L615.958 239.671V220.138L599.785 200.868L604.415 197.007L615.955 210.973V203.062L604.895 189.902L609.547 186.028L615.955 193.87V186.439L608.911 178.041L613.541 174.159L615.955 177.186V169.12H612.707V163.092H615.955V160.037H621.989V163.092H625.215V169.12H621.989V177.186L624.381 174.159L629.033 178.041L621.989 186.439V193.87L628.403 186.028L633.033 189.902L621.987 203.062V210.973L633.535 197.007L638.146 200.868L637.773 201.328L621.989 220.138V235.289L633.998 216.11L635.076 216.502L631.516 242.15L644.29 229.283L646.353 204.243L652.393 204.772L650.744 222.795L656.318 217.181L657.741 200.059L663.781 200.588L662.791 210.674L668.011 205.391L668.914 194.445L674.948 194.993L674.556 198.813L680.237 193.089L677.932 190.807L682.17 186.513L684.496 188.815L686.647 186.62L690.931 190.872L688.781 193.04L691.079 195.341L686.822 199.615L684.518 197.339L678.857 203.062L682.702 202.602L683.251 208.63L672.293 209.638L667.092 214.921L677.167 213.844L677.716 219.853L660.594 221.431L655.02 227.045L673.083 225.242L673.612 231.251L648.544 233.533L636.651 245.529L662.35 240.158L662.788 241.23L640.971 256.05H657.961L677.23 239.917L681.114 244.542L667.114 256.05H675.061L688.202 245.024L692.086 249.649L684.255 256.05H691.694L700.082 249.014L703.966 253.666L700.935 256.05H709.03V252.806H715.045V256.05H718.098V262.078H715.045V265.322H709.03V262.078H700.935L703.966 264.516L700.082 269.141L691.694 262.078H684.255L692.086 268.506L688.202 273.131L675.061 262.078H667.114L681.114 273.613L677.23 278.238L657.961 262.078H642.773L665.224 275.279L664.832 276.375L635.77 271.484L648.788 284.381L673.829 286.441L673.319 292.469L655.284 290.784L660.899 296.371L678.039 297.793L677.537 303.826L667.441 302.859L672.71 308.081L683.66 309.002L683.13 315.011L679.312 314.611L685.02 320.293L687.305 317.97L691.603 322.217L689.299 324.518L691.477 326.694L687.239 330.968L685.064 328.82L682.785 331.124L678.478 326.872L680.763 324.57L675.033 318.893L675.494 322.707L669.479 323.296L668.469 312.358L663.181 307.144L664.259 317.222L658.224 317.77L658.156 317.181L656.663 300.675L651.021 295.08L652.837 313.123L646.811 313.671L646.742 313.101L644.526 288.639L634.89 279.123L641.031 300.892L640.022 301.393L621.979 278.487V298.02L638.135 317.29L633.524 321.151L621.976 307.163V315.123L633.022 328.255L628.392 332.135L621.979 324.304V331.694L629.022 340.065L624.37 343.994L621.979 340.985V349.032H625.204V355.066H621.979V358.099ZM617.11 356.94H620.818V353.893H624.044V350.189H620.818V337.626L624.573 342.32L627.379 339.928L620.815 332.124V321.008L628.564 330.478L631.37 328.086L620.813 315.52V303.906L633.655 319.51L636.503 317.098L620.813 298.445V275.112L639.119 298.355L632.555 275.158L645.628 288.093L645.656 288.31L647.853 312.38L651.542 312.054L649.521 291.973L657.752 300.127L657.772 300.344L659.264 316.504L662.931 316.15L661.678 303.96L669.583 311.81L670.499 321.984L674.166 321.66L673.508 315.712L682.417 324.551L680.113 326.853L682.744 329.461L685.05 327.138L687.226 329.286L689.837 326.677L687.659 324.502L689.925 322.225L687.294 319.616L685.028 321.891L676.1 313.079L682.066 313.715L682.379 310.029L672.194 309.175L664.289 301.325L676.473 302.53L676.778 298.867L660.364 297.491L652.132 289.31L672.257 291.173L672.57 287.488L648.248 285.449L632.333 269.709L661.902 274.668L638.475 260.897H658.361L658.518 261.026L677.09 276.597L679.457 273.744L663.847 260.897H675.464L675.639 261.026L688.059 271.462L690.432 268.637L680.947 260.897H692.075L692.251 261.026L699.912 267.473L702.285 264.648L697.605 260.897H710.184V264.141H713.874V260.897H716.918V257.212H713.874V253.968H710.184V257.212H697.605L702.285 253.439L699.912 250.655L692.072 257.212H680.944L690.429 249.449L688.057 246.646L675.458 257.212H663.842L679.452 244.364L677.085 241.539L658.356 257.212H637.161L659.7 241.89L633.074 247.457L648.026 232.393L648.223 232.374L672.32 230.16L671.997 226.516L651.893 228.514L660.051 220.291L660.273 220.272L676.451 218.781L676.097 215.118L663.913 216.37L671.772 208.501L681.956 207.553L681.633 203.895L675.659 204.572L684.502 195.654L686.806 197.955L689.417 195.319L687.119 193.018L689.269 190.85L686.658 188.264L684.48 190.412L682.181 188.157L679.564 190.785L681.891 193.04L673.022 201.966L673.659 196.026L669.997 195.695L669.141 205.887L661.305 213.784L662.492 201.613L658.803 201.309L657.42 217.685L649.257 225.908L651.123 205.8L647.433 205.495L645.398 229.79L645.264 229.919L629.873 245.444L633.54 219.022L620.813 239.301L620.785 219.68L620.942 219.532L636.503 201.007L633.655 198.615L620.813 214.219V202.605L631.37 190.02L628.564 187.65L620.815 197.147L620.788 186.012L627.379 178.181L624.573 175.811L620.818 180.485V167.942H624.044V164.237H620.818V161.191H617.11V164.237H613.862V167.942H617.11V180.485L613.355 175.811L610.548 178.181L617.112 186.012V197.147L609.383 187.65L606.536 190.02L617.112 202.605V214.219L604.251 198.615L601.417 201.007L617.112 219.68V243.032L598.806 219.749L605.37 242.967L592.269 230.01L592.242 229.793L590.026 205.742L586.383 206.068L588.404 226.176L580.154 217.995L580.126 217.778L578.634 201.64L574.972 201.972L576.248 214.137L568.342 206.315L567.421 196.141L563.731 196.467L564.436 202.413L555.508 193.596L557.807 191.272L555.176 188.664L552.85 190.987L550.694 188.82L548.083 191.448L550.261 193.593L547.976 195.925L550.615 198.511L552.891 196.182L561.828 205.041L555.854 204.405L555.549 208.09L565.734 208.942L573.634 216.751L561.455 215.565L561.15 219.269L577.54 220.631L585.799 228.785L565.646 226.922L565.342 230.626L589.655 232.645L605.589 248.406L576.025 243.449L599.426 257.22H579.539L579.391 257.072L560.84 241.547L558.473 244.372L574.056 257.22H562.467L562.291 257.072L549.871 246.655L547.477 249.458L556.975 257.22H545.828L545.672 257.072L537.997 250.663L535.643 253.447L540.295 257.22H527.716V253.976H524.054V257.22H520.982V260.905H524.054L524.027 264.149H527.716V260.905H540.295L535.643 264.656L537.997 267.481L545.828 260.905H556.975L547.477 268.621L549.871 271.473L562.47 260.908H574.059L558.476 273.755L560.843 276.608L579.542 260.908H600.745L578.228 276.235L604.849 270.662L589.886 285.723L589.683 285.745L565.586 287.959L565.918 291.603L586.048 289.584L577.858 297.826L577.655 297.848L561.482 299.338L561.836 303.001L574.015 301.727L566.184 309.624L555.972 310.539L556.303 314.224L562.25 313.526L553.429 322.447L551.103 320.164L548.491 322.8L550.818 325.077L548.667 327.25L551.278 329.858L553.448 327.691L555.755 329.968L558.344 327.34L556.065 325.058L564.886 316.139L564.269 322.099L567.936 322.411L568.792 312.238L576.651 304.341L575.444 316.512L579.125 316.816L580.466 300.44L588.676 292.217L586.805 312.325L590.495 312.63L592.535 288.335L592.67 288.187L608.055 272.662L604.385 299.103L617.118 278.797V298.445L616.983 298.593L601.423 317.096L604.237 319.507L617.118 303.903V315.517L606.541 328.083L609.369 330.475L617.118 321.006V332.121L610.554 339.925L613.36 342.317L617.115 337.642V350.186H613.868V353.89H617.115V356.94H617.11Z" fill="#D8DDE1"/>
</g>
<g opacity="0.3">
<path d="M273.228 162.915H269.017V160.789H266.751V156.589H269.017V150.974L267.336 153.068L264.102 150.339L269.017 144.494V139.346L264.535 144.804L261.307 142.094L269.017 132.937V127.392L260.969 137.143L257.735 134.455L269.017 121.019V110.453L260.629 123.83L259.864 123.55L262.36 105.67L253.47 114.624L252.011 132.099L247.809 131.748L248.988 119.164L245.082 123.079L244.086 135.02L239.876 134.653L240.553 127.636L236.913 131.285L236.269 138.91L232.072 138.565L232.349 135.869L228.402 139.878L230.009 141.461L227.039 144.462L225.431 142.856L223.92 144.366L220.93 141.42L222.436 139.889L220.842 138.297L223.799 135.305L225.42 136.91L229.367 132.935L226.69 133.225L226.304 129.033L233.946 128.348L237.585 124.663L230.533 125.394L230.16 121.197L242.087 120.125L245.987 116.177L233.383 117.443L233.01 113.256L250.491 111.651L258.783 103.308L240.877 107.053L240.573 106.316L255.769 95.9537H243.944L230.492 107.223L227.801 103.998L237.547 95.9592H231.995L222.828 103.667L220.137 100.442L225.601 95.9592H220.428L214.564 100.883L211.859 97.658L213.955 95.9592H208.326V98.2224H204.113V95.9592H201.984V91.7616H204.132V89.4984H208.323V91.7616H213.952L211.856 90.0957L214.561 86.8517L220.425 91.7616H225.599L220.135 87.2983L222.825 84.0679L231.993 91.7616H237.544L227.788 83.7364L230.478 80.5115L243.93 91.7616H254.521L238.85 82.5719L239.122 81.8074L259.381 85.2214L250.321 76.2344L232.829 74.7932L233.202 70.5929L245.781 71.7382L241.875 67.8584L229.908 66.8638L230.281 62.6772L237.319 63.3622L233.644 59.7126L226.01 59.0824L226.364 54.8821L229.055 55.1671L225.047 51.1914L223.467 52.8025L220.469 49.8488L222.057 48.2295L220.546 46.7335L223.503 43.747L225.014 45.2649L226.635 43.6456L229.62 46.613L228.021 48.2186L232.014 52.1614L231.702 49.4872L235.899 49.1145L236.584 56.7124L240.293 60.3702L239.541 53.3395L243.752 52.9532L243.779 53.3669L244.838 64.8801L248.771 68.7599L247.504 56.1753L251.695 55.8109L251.742 56.211L253.303 73.2589L260.009 79.9032L255.725 64.713L256.443 64.3595L269.017 80.3416V66.7214L257.735 53.2847L260.969 50.5968L269.017 60.3291V54.8163L261.307 45.6403L264.549 42.9387L269.017 48.4104V43.2292L264.102 37.3712L267.336 34.6696L269.017 36.7766V31.1543H266.751V26.9485H269.017V24.8223H273.228V26.9485H275.471V31.1543H273.228V36.7766L274.895 34.6696L278.138 37.3712L273.228 43.2292V48.4104L277.696 42.9387L280.924 45.6403L273.228 54.8163V60.3291L281.27 50.5968L284.49 53.2847L284.227 53.6025L273.228 66.7214V77.2811L281.594 63.9047L282.34 64.1814L279.866 82.0677L288.775 73.0944L290.212 55.6356L294.417 56L293.271 68.5708L297.155 64.6554L298.15 52.7148L302.361 53.0792L301.67 60.1154L305.318 56.4302L305.94 48.8049L310.151 49.183L309.871 51.8435L313.837 47.8542L312.23 46.2623L315.187 43.262L316.808 44.8676L318.3 43.3442L321.29 46.3116L319.792 47.8213L321.4 49.4269L318.429 52.4079L316.822 50.816L312.875 54.8109L315.546 54.4848L315.933 58.6906L308.299 59.3948L304.67 63.08L311.695 62.3292L312.074 66.5159L300.142 67.6201L296.258 71.5354L308.848 70.2751L309.213 74.4672L291.74 76.0591L283.448 84.4159L301.362 80.6704L301.667 81.4211L286.46 91.7561H298.304L311.736 80.506L314.449 83.7309L304.692 91.7561H310.225L319.392 84.0624L322.096 87.2928L316.632 91.7561H321.825L327.67 86.8462L330.383 90.0903L328.268 91.7561H333.916V89.493H338.107V91.7561H340.236V95.9592H338.107V98.2224H333.916V95.9592H328.268L330.383 97.658L327.67 100.883L321.828 95.9592H316.635L322.099 100.442L319.395 103.667L310.228 95.9592H304.695L314.452 104.006L311.739 107.231L298.307 95.9592H287.716L303.373 105.163L303.096 105.927L282.836 102.521L291.907 111.508L309.375 112.944L309.021 117.15L296.444 115.972L300.356 119.865L312.31 120.86L311.956 125.066L304.912 124.389L308.593 128.033L316.221 128.669L315.862 132.861L313.198 132.584L317.178 136.54L318.772 134.929L321.767 137.888L320.154 139.494L321.674 141.012L318.717 143.993L317.206 142.497L315.62 144.103L312.617 141.135L314.21 139.53L310.217 135.568L310.535 138.228L306.344 138.642L305.639 131.017L301.949 127.381L302.701 134.411L298.49 134.79L298.449 134.376L297.399 122.868L293.474 118.966L294.741 131.551L290.539 131.929L290.484 131.529L288.937 114.476L282.225 107.84L286.509 123.019L285.804 123.372L273.228 107.396V121.021L284.49 134.458L281.27 137.146L273.228 127.394V132.94L280.924 142.097L277.696 144.807L273.228 139.349V144.497L278.138 150.341L274.895 153.07L273.228 150.977V156.591H275.471V160.792H273.228V162.915ZM269.829 162.104H272.413V159.983H274.665V157.397H272.413V148.64L275.03 151.911L276.988 150.246L272.41 144.807V137.053L277.814 143.656L279.775 141.99L272.41 133.233V125.134L281.361 136.017L283.355 134.337L272.41 121.328V105.056L285.179 121.265L280.595 105.091L289.716 114.106L289.735 114.262L291.268 131.044L293.838 130.814L292.428 116.816L298.164 122.504L298.183 122.652L299.22 133.921L301.777 133.669L300.91 125.175L306.415 130.641L307.06 137.738L309.616 137.508L309.155 133.362L315.365 139.527L313.766 141.133L315.596 142.946L317.203 141.327L318.714 142.823L320.538 141.009L319.027 139.491L320.599 137.908L318.769 136.086L317.189 137.677L310.957 131.529L315.121 131.976L315.338 129.403L308.239 128.814L302.726 123.342L311.221 124.183L311.437 121.63L299.985 120.668L294.25 114.966L308.286 116.268L308.497 113.695L291.545 112.278L280.444 101.299L301.063 104.754L284.729 95.1564H298.595L298.696 95.2441L311.648 106.1L313.303 104.108L302.418 95.1537H310.513L310.636 95.2413L319.293 102.521L320.947 100.543L314.337 95.1509H322.094L322.214 95.2386L327.563 99.7349L329.212 97.7648L325.95 95.1509H334.717V97.4141H337.293V95.1509H339.421V92.5836H337.293V90.3204H334.717V92.5836H325.95L329.212 89.9478L327.563 88.0107L322.091 92.5836H314.334L320.944 87.1722L319.29 85.2159L310.51 92.5836H302.416L313.3 83.624L311.646 81.654L298.595 92.5863H283.807L299.533 81.8979L280.968 85.7776L291.389 75.2782L291.523 75.2563L308.327 73.7192L308.096 71.1792L294.08 72.5684L299.769 66.8392L299.925 66.8255L311.207 65.7816L310.957 63.2279L302.468 64.102L307.945 58.6084L315.044 57.9508L314.814 55.3972L310.65 55.8712L316.822 49.6543L318.429 51.2599L320.253 49.4241L318.64 47.8185L320.146 46.3088L318.322 44.5005L316.811 45.9965L315.203 44.4238L313.379 46.2595L315 47.8295L308.823 54.0546L309.262 49.9091L306.706 49.679L306.108 56.7918L300.644 62.2909L301.472 53.8108L298.896 53.5943L297.934 65.0144L292.245 70.7518L293.548 56.7316L290.977 56.5151L289.554 73.4534L289.466 73.5493L278.733 84.3638L281.289 65.9487L272.413 80.084L272.394 66.409L272.504 66.2994L283.36 53.3834L281.366 51.7093L272.416 62.6005V54.493L279.781 45.7225L277.819 44.0703L272.416 50.6873L272.397 42.925L276.994 37.4671L275.035 35.8149L272.418 39.0727V30.3295H274.67V27.7485H272.418V25.6223H269.835V27.7485H267.558V30.3295H269.829V39.0727L267.212 35.8149L265.254 37.4671L269.829 42.925V50.6873L264.439 44.0703L262.453 45.7225L269.829 54.493V62.6005L260.86 51.7093L258.887 53.3834L269.832 66.409V82.6842L257.066 66.4501L261.644 82.6431L252.51 73.6068L252.491 73.4506L250.944 56.6795L248.409 56.9096L249.819 70.9299L244.062 65.2281L244.042 65.0719L243.006 53.8218L240.449 54.0519L241.338 62.532L235.833 57.0795L235.188 49.9886L232.618 50.2187L233.106 54.356L226.874 48.2131L228.482 46.5938L226.644 44.7717L225.023 46.391L223.525 44.8813L221.701 46.7171L223.22 48.2131L221.627 49.8324L223.465 51.6353L225.058 50.016L231.282 56.1918L227.118 55.7452L226.907 58.3125L234.006 58.9153L239.519 64.3541L231.024 63.5266L230.808 66.1131L242.24 67.0611L247.998 72.7437L233.948 71.4423L233.732 74.0288L250.689 75.4371L261.803 86.4242L241.19 82.9692L257.502 92.5727H243.636L243.529 92.4658L230.599 81.6431L228.945 83.6131L239.813 92.5727H231.732L231.608 92.4658L222.943 85.205L221.276 87.1613L227.9 92.5727H220.129L220.019 92.4658L214.657 88.0134L213.022 89.9505L216.264 92.5863H207.498V90.3232H204.941V92.5863H202.799V95.1537H204.941L204.922 97.4169H207.498V95.1537H216.264L213.022 97.7676L214.657 99.7376L220.121 95.1537H227.892L221.267 100.532L222.935 102.524L231.724 95.1564H239.805L228.937 104.111L230.591 106.102L243.628 95.1564H258.41L242.707 105.837L261.271 101.957L250.837 112.462L250.702 112.476L233.893 114.018L234.124 116.558L248.16 115.15L242.451 120.901L242.309 120.915L231.032 121.95L231.277 124.504L239.772 123.616L234.308 129.123L227.195 129.767L227.42 132.335L231.57 131.841L225.42 138.067L223.799 136.475L221.975 138.31L223.596 139.902L222.099 141.42L223.923 143.237L225.434 141.727L227.041 143.311L228.844 141.475L227.258 139.891L233.408 133.666L232.98 137.825L235.536 138.042L236.132 130.945L241.609 125.446L240.762 133.932L243.337 134.14L244.267 122.72L249.997 116.991L248.694 131.003L251.265 131.219L252.683 114.281L252.779 114.174L263.512 103.352L260.956 121.789L269.832 107.634V121.336L269.739 121.438L258.89 134.346L260.849 136.025L269.832 125.142V133.242L262.456 141.998L264.428 143.664L269.832 137.061V144.815L265.257 150.254L267.215 151.92L269.832 148.662V157.405H267.558V159.992H269.829V162.104Z" fill="#D8DDE1"/>
</g>
<g opacity="0.7">
<path d="M495.69 135.504H493.059V134.178H491.641V131.55H493.059V128.049L492.009 129.356L489.987 127.643L493.059 123.999V120.782L490.259 124.188L488.237 122.495L493.057 116.779V113.311L488.026 119.407L486.004 117.727L493.057 109.329V102.732L487.815 111.088L487.34 110.913L488.901 99.7451L483.341 105.34L482.439 116.25L479.808 116.034L480.54 108.17L478.107 110.623L477.482 118.073L474.852 117.848L475.279 113.464L473 115.741L472.6 120.508L469.975 120.292L470.145 118.612L467.684 121.119L468.688 122.108L466.831 123.977L465.827 122.974L464.878 123.917L463.013 122.081L463.954 121.125L462.963 120.13L464.81 118.262L465.819 119.264L468.288 116.779L466.614 116.963L466.37 114.341L471.143 113.913L473.42 111.612L469.012 112.072L468.781 109.444L476.226 108.773L478.667 106.315L470.789 107.102L470.559 104.488L481.476 103.485L486.663 98.2765L475.474 100.614L475.285 100.153L484.778 93.6789H477.389L468.987 100.723L467.297 98.6984L473.4 93.6789H469.928L464.203 98.4957L462.516 96.4763L465.934 93.6789H462.7L459.038 96.7613L457.349 94.742L458.657 93.6789H455.138V95.0872H452.507V93.6789H451.18V91.0567H452.521V89.6402H455.138V91.0567H458.657L457.349 90.0074L459.038 87.988L462.7 91.0567H465.934L462.516 88.2647L464.203 86.2454L469.928 91.054H473.4L467.297 86.0345L468.987 84.0233L477.389 91.054H484.008L474.215 85.3111L474.385 84.8289L487.044 86.9633L481.383 81.3492L470.452 80.4477L470.688 77.8256L478.546 78.5435L476.105 76.1131L468.628 75.4967L468.864 72.8745L473.258 73.3074L470.967 71.0251L466.195 70.6333L466.411 68.0057L468.101 68.1893L465.591 65.7096L464.609 66.7042L462.73 64.8602L463.729 63.8519L462.785 62.9094L464.628 61.0462L465.569 61.9942L466.579 60.986L468.444 62.8409L467.44 63.8355L469.942 66.3014L469.744 64.6273L472.369 64.3972L472.797 69.1455L475.109 71.4361L474.643 67.0412L477.274 66.7974L477.293 67.0604L477.951 74.2472L480.412 76.6776L479.611 68.8139L482.236 68.5838L482.263 68.8359L483.24 79.4833L487.431 83.6425L484.745 74.1459L485.201 73.9212L493.059 83.911V75.409L486.007 67.0166L488.029 65.3288L493.059 71.4114V67.97L488.24 62.2408L490.267 60.5476L493.059 63.967V60.7284L489.987 57.0706L492.009 55.3773L493.059 56.698V53.1881H491.641V50.5605H493.059V49.2344H495.69V50.5605H497.094V53.1881H495.69V56.7034L496.727 55.3828L498.754 57.0761L495.69 60.7339V63.9725L498.485 60.5531L500.498 62.2463L495.69 67.9755V71.4169L500.715 65.3342L502.723 67.022L502.561 67.2193L495.69 75.409V82.0067L500.918 73.6499L501.387 73.8253L499.843 84.9933L505.403 79.3928L506.305 68.4879L508.93 68.7126L508.212 76.568L510.645 74.1239L511.27 66.6604L513.895 66.8905L513.462 71.2854L515.747 68.9838L516.133 64.2218L518.764 64.4575L518.594 66.1179L521.068 63.6245L520.064 62.6354L521.907 60.7586L522.925 61.7614L523.855 60.8051L525.72 62.6546L524.785 63.6026L525.789 64.6054L523.937 66.4686L522.928 65.4795L520.467 67.9728L522.143 67.77L522.382 70.3976L517.609 70.8388L515.343 73.1403L519.729 72.6663L519.973 75.2802L512.515 75.9707L510.088 78.4147L517.952 77.6283L518.182 80.2504L507.265 81.245L502.078 86.4674L513.272 84.1247L513.462 84.5987L503.963 91.054H511.369L519.762 84.0233L521.457 86.0345L515.354 91.054H518.813L524.543 86.2454L526.233 88.2647L522.823 91.0567H526.066L529.714 87.988L531.409 90.0074L530.092 91.0567H533.62V89.6402H536.237V91.0567H537.564V93.6789H536.237V95.0872H533.62V93.6789H530.092L531.409 94.742L529.714 96.7613L526.066 93.6789H522.823L526.233 96.4763L524.543 98.4957L518.813 93.6789H515.354L521.457 98.6984L519.762 100.723L511.369 93.6789H504.75L514.529 99.43L514.359 99.904L501.7 97.7778L507.37 103.392L518.278 104.285L518.062 106.921L510.203 106.184L512.65 108.614L520.116 109.239L519.891 111.867L515.491 111.447L517.79 113.716L522.563 114.122L522.332 116.735L520.67 116.56L523.153 119.04L524.148 118.023L526.019 119.878L525.015 120.881L525.964 121.829L524.113 123.684L523.169 122.75L522.173 123.752L520.303 121.903L521.293 120.9L518.805 118.429L519.002 120.086L516.386 120.344L515.944 115.576L513.64 113.308L514.114 117.697L511.484 117.936L511.451 117.678L510.801 110.491L508.346 108.053L509.139 115.916L506.508 116.155L506.481 115.902L505.518 105.25L501.321 101.099L503.993 110.587L503.56 110.803L495.701 100.827V109.335L502.731 117.733L500.723 119.412L495.698 113.316V116.785L500.507 122.5L498.493 124.194L495.698 120.788V124.004L498.762 127.649L496.735 129.361L495.698 128.054V131.556H497.103V134.183H495.698V135.504H495.69ZM493.57 134.997H495.182V133.671H496.587V132.06H495.182V126.588L496.817 128.635L498.046 127.591L495.185 124.191V119.349L498.554 123.473L499.782 122.429L495.185 116.963V111.905L500.778 118.697L502.018 117.656L495.182 109.529V99.3642L503.156 109.483L500.295 99.3834L505.99 105.019L506.004 105.115L506.961 115.601L508.568 115.459L507.688 106.707L511.267 110.264L511.281 110.36L511.931 117.396L513.53 117.248L512.987 111.938L516.424 115.352L516.825 119.788L518.424 119.645L518.133 117.051L522.012 120.903L521.016 121.906L522.162 123.043L523.166 122.026L524.11 122.961L525.248 121.829L524.299 120.881L525.289 119.886L524.143 118.749L523.161 119.744L519.26 115.902L521.863 116.182L522.001 114.576L517.565 114.204L514.12 110.784L519.43 111.313L519.565 109.721L512.411 109.118L508.823 105.556L517.59 106.37L517.724 104.765L507.134 103.877L500.197 97.0161L513.08 99.1779L502.877 93.1774H511.542L511.602 93.2377L519.691 100.016L520.722 98.7779L513.928 93.1774H518.986L519.06 93.2377L524.472 97.7806L525.503 96.5476L521.381 93.1747H526.222L526.296 93.235L529.64 96.0462L530.663 94.8132L528.63 93.1747H534.108V94.5913H535.715V93.1747H537.043V91.5773H535.715V90.1608H534.108V91.5773H528.63L530.663 89.9306L529.64 88.7196L526.222 91.5773H521.381L525.503 88.199L524.472 86.9715L518.986 91.5773H513.928L520.722 85.9824L519.691 84.7439L511.542 91.5773H502.3L512.126 84.9001L500.526 87.325L507.043 80.7683L507.125 80.7546L517.62 79.7929L517.477 78.2092L508.725 79.075L512.277 75.4912L512.373 75.483L519.425 74.8336L519.263 73.2417L513.961 73.7842L517.384 70.3565L521.819 69.9428L521.677 68.3454L519.074 68.6441L522.925 64.7561L523.934 65.7644L525.067 64.6136L524.063 63.6108L525.004 62.6628L523.866 61.5394L522.925 62.4737L521.916 61.4929L520.783 62.6436L521.792 63.6245L517.933 67.5125L518.204 64.9178L516.611 64.7753L516.238 69.2195L512.82 72.6608L513.335 67.3563L511.728 67.222L511.125 74.3596L507.572 77.9352L508.384 69.1784L506.777 69.0441L505.888 79.6312L505.833 79.686L499.127 86.4537L500.726 74.9404L495.18 83.7713L495.166 75.2309L495.235 75.1624L502.015 67.0905L500.775 66.0548L495.182 72.8554V67.7947L499.78 62.3093L498.551 61.2791L495.182 65.411L495.169 60.5613L498.043 57.1528L496.815 56.1171L495.18 58.1556V52.6894H496.584V51.0784H495.18V49.7522H493.567V51.0784H492.149V52.6894H493.567V58.1556L491.932 56.1171L490.703 57.1528L493.564 60.5613V65.411L490.193 61.2791L488.953 62.3093L493.564 67.7947V72.8554L487.963 66.0548L486.723 67.0905L493.564 75.2309V85.396L485.59 75.2583L488.446 85.3714L482.743 79.7299L482.729 79.6367L481.767 69.1592L480.181 69.3017L481.056 78.0585L477.468 74.4966L477.455 74.4034L476.805 67.3727L475.211 67.5207L475.759 72.817L472.323 69.4085L471.922 64.9726L470.306 65.1205L470.619 67.7015L466.727 63.8684L467.731 62.8601L466.579 61.723L465.569 62.734L464.634 61.786L463.496 62.9313L464.445 63.8739L463.449 64.8821L464.601 66.0137L465.591 64.9972L469.484 68.8578L466.88 68.5783L466.746 70.1839L471.187 70.5565L474.624 73.9568L469.322 73.4417L469.185 75.0528L476.325 75.6419L479.926 79.1983L471.146 78.3845L471.009 80.0039L481.607 80.8779L488.544 87.7387L475.669 85.5851L485.859 91.5855H477.2L477.131 91.517L469.047 84.7521L468.016 85.9906L474.802 91.5855H469.758L469.684 91.517L464.266 86.9797L463.221 88.2072L467.363 91.5855H462.508L462.44 91.517L459.096 88.7278L458.073 89.9389L460.1 91.5855H454.622V90.169H453.023V91.5855H451.687V93.1829H453.023L453.015 94.5995H454.622V93.1829H460.1L458.073 94.8214L459.096 96.0544L462.505 93.1829H467.36L463.219 96.5476L464.264 97.786L469.755 93.1802H474.799L468.013 98.7806L469.045 100.019L477.194 93.1774H486.43L476.618 99.8547L488.213 97.4298L481.698 103.992L481.61 103.997L471.116 104.959L471.258 106.543L480.025 105.669L476.459 109.258L476.371 109.266L469.327 109.916L469.484 111.508L474.794 110.951L471.376 114.398L466.927 114.798L467.075 116.396L469.665 116.097L465.819 119.977L464.81 118.988L463.671 120.133L464.681 121.128L463.745 122.07L464.878 123.207L465.827 122.259L466.831 123.248L467.964 122.111L466.968 121.122L470.814 117.226L470.542 119.826L472.141 119.963L472.515 115.527L475.932 112.094L475.411 117.39L477.018 117.525L477.6 110.392L481.18 106.809L480.365 115.565L481.967 115.7L482.856 105.113L482.916 105.044L489.614 98.2847L488.021 109.806L493.567 100.962V109.524L493.507 109.584L486.726 117.651L487.955 118.692L493.57 111.899V116.957L488.959 122.424L490.193 123.467L493.57 119.344V124.185L490.709 127.586L491.938 128.629L493.572 126.591V132.057H492.154V133.668H493.572V134.997H493.57Z" fill="#D8DDE1"/>
</g>
<path fill-rule="evenodd" clip-rule="evenodd" d="M299.428 271.576L260.672 272.831L259.133 306.587L257.701 272.911L218.855 271.576L257.605 270.324L259.133 236.568L260.584 270.242L299.428 271.576Z" fill="#D8DDE1"/>
<path fill-rule="evenodd" clip-rule="evenodd" d="M277.102 287.935L259.215 272.755L241.995 287.189L257.846 271.586L241.172 255.223L259.073 270.399L276.296 255.965L260.444 271.572L277.102 287.935Z" fill="#D8DDE1"/>
<path fill-rule="evenodd" clip-rule="evenodd" d="M300.614 46.7679L199.041 50.0531L195.009 138.534L191.238 50.264L89.4375 46.7679L191.007 43.4827L195.009 -44.998L198.805 43.2744L300.614 46.7679Z" fill="#D8DDE1"/>
<path fill-rule="evenodd" clip-rule="evenodd" d="M242.104 89.6467L195.21 49.8628L150.066 87.6904L191.623 46.7941L147.93 3.88672L194.837 43.6733L239.973 5.83755L198.417 46.7393L242.104 89.6467Z" fill="#D8DDE1"/>
<path fill-rule="evenodd" clip-rule="evenodd" d="M117.197 288.765L48.3119 290.993L45.5773 350.999L43.0195 291.136L-26.0195 288.765L42.8632 286.537L45.5773 226.531L48.1519 286.396L117.197 288.765Z" fill="#D8DDE1"/>
<path fill-rule="evenodd" clip-rule="evenodd" d="M77.516 317.845L45.7134 290.864L15.0976 316.518L43.2802 288.783L13.6484 259.684L45.4604 286.666L76.0706 261.007L47.888 288.745L77.516 317.845Z" fill="#D8DDE1"/>
<path fill-rule="evenodd" clip-rule="evenodd" d="M163.967 317.178L138.88 317.984L137.884 339.84L136.955 318.038L111.812 317.178L136.9 316.364L137.884 294.508L138.825 316.309L163.967 317.178Z" fill="#D8DDE1"/>
<path fill-rule="evenodd" clip-rule="evenodd" d="M149.517 327.766L137.936 317.938L126.783 327.283L137.05 317.184L126.254 306.586L137.843 316.414L148.99 307.065L138.723 317.17L149.517 327.766Z" fill="#D8DDE1"/>
<path fill-rule="evenodd" clip-rule="evenodd" d="M129.839 109.803L104.749 110.616L103.753 132.473L102.823 110.671L77.6758 109.803L102.763 108.992L103.753 87.1406L104.689 108.945L129.839 109.803Z" fill="#D8DDE1"/>
<path fill-rule="evenodd" clip-rule="evenodd" d="M115.38 120.399L103.799 110.571L92.6516 119.917L102.919 109.812L92.125 99.2109L103.706 109.039L114.859 99.6987L104.592 109.798L115.38 120.399Z" fill="#D8DDE1"/>
<path fill-rule="evenodd" clip-rule="evenodd" d="M422.155 306.584L397.068 307.395L396.072 329.246L395.142 307.444L370 306.584L395.087 305.77L396.072 283.922L397.013 305.715L422.155 306.584Z" fill="#D8DDE1"/>
<path fill-rule="evenodd" clip-rule="evenodd" d="M407.705 317.177L396.124 307.349L384.971 316.69L395.238 306.59L384.441 295.992L396.03 305.818L407.178 296.48L396.919 306.577L407.705 317.177Z" fill="#D8DDE1"/>
<path fill-rule="evenodd" clip-rule="evenodd" d="M382.602 160.037L357.515 160.848L356.519 182.704L355.589 160.903L330.441 160.037L355.529 159.231L356.519 137.375L357.454 159.177L382.602 160.037Z" fill="#D8DDE1"/>
<path fill-rule="evenodd" clip-rule="evenodd" d="M368.154 170.631L356.565 160.803L345.417 170.149L355.684 160.044L344.891 149.451L356.477 159.279L367.624 149.933L357.357 160.038L368.154 170.631Z" fill="#D8DDE1"/>
<path fill-rule="evenodd" clip-rule="evenodd" d="M394.829 206.4C396.971 206.854 398.301 209.115 397.805 211.458C397.317 213.8 395.188 215.337 393.051 214.891C390.909 214.444 389.573 212.181 390.062 209.838C390.553 207.498 392.687 205.958 394.829 206.4Z" fill="#D8DDE1"/>
<path fill-rule="evenodd" clip-rule="evenodd" d="M342.467 266.339C344.604 266.785 345.94 269.049 345.451 271.386C344.958 273.728 342.826 275.266 340.692 274.819C338.545 274.372 337.214 272.104 337.702 269.758C338.193 267.432 340.322 265.892 342.467 266.339Z" fill="#D8DDE1"/>
<path fill-rule="evenodd" clip-rule="evenodd" d="M388.803 15.6749C390.932 16.1215 392.268 18.3902 391.774 20.7274C391.286 23.07 389.149 24.6208 387.021 24.1742C384.878 23.7276 383.542 21.4535 384.036 19.1081C384.524 16.7709 386.658 15.2201 388.803 15.6749Z" fill="#D8DDE1"/>
<path fill-rule="evenodd" clip-rule="evenodd" d="M319.212 92.4444C321.354 92.891 322.69 95.1542 322.196 97.505C321.708 99.8477 319.571 101.385 317.437 100.938C315.295 100.492 313.964 98.2229 314.452 95.8857C314.946 93.5349 317.078 91.9977 319.212 92.4444Z" fill="#D8DDE1"/>
<path fill-rule="evenodd" clip-rule="evenodd" d="M376.029 271.629C377.466 271.928 378.36 273.451 378.037 275.016C377.705 276.594 376.273 277.63 374.836 277.326C373.398 277.027 372.504 275.503 372.828 273.933C373.16 272.361 374.589 271.325 376.029 271.629Z" fill="#D8DDE1"/>
<path fill-rule="evenodd" clip-rule="evenodd" d="M415.223 37.2017C416.661 37.5058 417.549 39.0292 417.223 40.5883C416.897 42.1747 415.459 43.2022 414.022 42.9035C412.585 42.5994 411.69 41.0815 412.022 39.5033C412.349 37.9388 413.786 36.9031 415.223 37.2017Z" fill="#D8DDE1"/>
<path fill-rule="evenodd" clip-rule="evenodd" d="M598.393 195.147C596.245 194.701 594.108 196.238 593.62 198.581C593.132 200.918 594.468 203.178 596.61 203.633C598.747 204.074 600.881 202.543 601.369 200.205C601.86 197.863 600.53 195.602 598.393 195.147Z" fill="#D8DDE1"/>
<path fill-rule="evenodd" clip-rule="evenodd" d="M622.282 271.026C620.14 270.58 618.008 272.122 617.515 274.459C617.026 276.81 618.362 279.057 620.504 279.512C622.641 279.958 624.77 278.43 625.264 276.084C625.755 273.742 624.424 271.473 622.282 271.026Z" fill="#D8DDE1"/>
<path fill-rule="evenodd" clip-rule="evenodd" d="M563.993 62.5559C561.851 62.1093 559.727 63.6409 559.234 65.9836C558.745 68.3262 560.076 70.5894 562.21 71.036C564.352 71.4826 566.481 69.9455 566.977 67.6029C567.465 65.2602 566.13 63.0053 563.993 62.5559Z" fill="#D8DDE1"/>
<path fill-rule="evenodd" clip-rule="evenodd" d="M529.129 122.05C526.992 121.603 524.858 123.14 524.362 125.483C523.874 127.82 525.218 130.081 527.352 130.527C529.489 130.974 531.623 129.437 532.111 127.108C532.61 124.76 531.266 122.496 529.129 122.05Z" fill="#D8DDE1"/>
<path fill-rule="evenodd" clip-rule="evenodd" d="M589.408 262.431C587.976 262.132 586.547 263.154 586.215 264.732C585.891 266.297 586.777 267.82 588.215 268.119C589.652 268.423 591.084 267.387 591.407 265.815C591.739 264.247 590.853 262.729 589.408 262.431Z" fill="#D8DDE1"/>
<path fill-rule="evenodd" clip-rule="evenodd" d="M489.696 43.9184C488.259 43.6198 486.827 44.6582 486.503 46.22C486.171 47.7982 487.06 49.3161 488.497 49.6202C489.935 49.9189 491.372 48.8804 491.704 47.305C492.027 45.7405 491.133 44.2225 489.696 43.9184Z" fill="#D8DDE1"/>
<path fill-rule="evenodd" clip-rule="evenodd" d="M174.444 232.735C173.174 232.768 172.118 231.672 172.071 230.283C172.038 228.888 173.028 227.729 174.301 227.688C175.563 227.655 176.627 228.751 176.668 230.146C176.709 231.535 175.719 232.694 174.444 232.735Z" fill="#D8DDE1"/>
<path fill-rule="evenodd" clip-rule="evenodd" d="M266.134 317.685C264.867 317.718 263.808 316.627 263.767 315.233C263.726 313.843 264.716 312.687 265.991 312.652C267.267 312.61 268.323 313.709 268.372 315.104C268.405 316.487 267.41 317.644 266.134 317.685Z" fill="#D8DDE1"/>
<path fill-rule="evenodd" clip-rule="evenodd" d="M73.5403 99.9559C72.273 99.9888 71.2143 98.8928 71.1731 97.4981C71.132 96.109 72.1222 94.9528 73.3894 94.9171C74.6622 94.876 75.721 95.9748 75.7676 97.3694C75.806 98.7503 74.8158 99.9093 73.5403 99.9559Z" fill="#D8DDE1"/>
<path fill-rule="evenodd" clip-rule="evenodd" d="M212.55 60.9457C211.282 60.9868 210.218 59.8826 210.177 58.5017C210.136 57.1071 211.134 55.9481 212.402 55.9152C213.669 55.8741 214.733 56.9728 214.774 58.3674C214.815 59.7538 213.825 60.9128 212.55 60.9457Z" fill="#D8DDE1"/>
<path fill-rule="evenodd" clip-rule="evenodd" d="M207.892 286.823C206.625 286.864 205.574 285.765 205.525 284.37C205.484 282.981 206.474 281.825 207.749 281.784C209.016 281.751 210.075 282.847 210.122 284.236C210.163 285.631 209.167 286.787 207.892 286.823Z" fill="#D8DDE1"/>
<path fill-rule="evenodd" clip-rule="evenodd" d="M126.173 300.091C124.911 300.132 123.847 299.028 123.806 297.638C123.765 296.249 124.755 295.085 126.022 295.052C127.298 295.011 128.362 296.115 128.403 297.504C128.444 298.893 127.446 300.058 126.173 300.091Z" fill="#D8DDE1"/>
<path fill-rule="evenodd" clip-rule="evenodd" d="M104.233 84.3113C102.958 84.3442 101.902 83.2482 101.861 81.8591C101.819 80.4645 102.818 79.3137 104.085 79.2726C105.352 79.2315 106.411 80.3302 106.458 81.7248C106.496 83.114 105.492 84.2702 104.233 84.3113Z" fill="#D8DDE1"/>
<path fill-rule="evenodd" clip-rule="evenodd" d="M227.397 36.4668C226.13 36.4997 225.071 35.4037 225.025 34.0091C224.984 32.6199 225.982 31.4637 227.249 31.4226C228.516 31.3897 229.581 32.4857 229.622 33.8748C229.669 35.2695 228.665 36.4202 227.397 36.4668Z" fill="#D8DDE1"/>
<path fill-rule="evenodd" clip-rule="evenodd" d="M194.38 212.695C193.532 212.728 192.819 211.991 192.786 211.057C192.759 210.122 193.431 209.344 194.278 209.317C195.134 209.295 195.844 210.027 195.877 210.969C195.905 211.895 195.233 212.673 194.38 212.695Z" fill="#D8DDE1"/>
<path fill-rule="evenodd" clip-rule="evenodd" d="M223.905 220.366C223.038 220.399 222.33 219.662 222.305 218.719C222.278 217.79 222.95 217.012 223.803 216.985C224.651 216.966 225.364 217.703 225.391 218.631C225.416 219.569 224.752 220.347 223.905 220.366Z" fill="#D8DDE1"/>
<path fill-rule="evenodd" clip-rule="evenodd" d="M203.719 262.324C202.864 262.352 202.153 261.615 202.126 260.686C202.098 259.752 202.77 258.973 203.618 258.946C204.474 258.919 205.184 259.658 205.212 260.593C205.239 261.524 204.573 262.302 203.719 262.324Z" fill="#D8DDE1"/>
<path fill-rule="evenodd" clip-rule="evenodd" d="M58.4226 220.069C57.5695 220.088 56.8564 219.351 56.8289 218.422C56.8015 217.488 57.4735 216.71 58.3266 216.682C59.1742 216.66 59.8928 217.392 59.9203 218.329C59.9422 219.26 59.2702 220.039 58.4226 220.069Z" fill="#D8DDE1"/>
<path fill-rule="evenodd" clip-rule="evenodd" d="M88.1417 111.754C87.2859 111.773 86.5755 111.042 86.548 110.107C86.5151 109.173 87.1844 108.395 88.0402 108.368C88.8878 108.348 89.6065 109.077 89.6339 110.014C89.6586 110.949 88.9948 111.729 88.1417 111.754Z" fill="#D8DDE1"/>
<path fill-rule="evenodd" clip-rule="evenodd" d="M104.923 140.738C104.067 140.766 103.356 140.026 103.329 139.092C103.302 138.157 103.965 137.379 104.821 137.352C105.677 137.333 106.387 138.07 106.42 138.999C106.448 139.933 105.77 140.711 104.923 140.738Z" fill="#D8DDE1"/>
<path fill-rule="evenodd" clip-rule="evenodd" d="M166.165 105.188C165.309 105.216 164.599 104.479 164.571 103.542C164.544 102.607 165.216 101.835 166.063 101.807C166.911 101.78 167.63 102.517 167.662 103.454C167.684 104.388 167.018 105.167 166.165 105.188Z" fill="#D8DDE1"/>
<path fill-rule="evenodd" clip-rule="evenodd" d="M187.793 34.7353C186.94 34.7545 186.227 34.0257 186.208 33.0886C186.18 32.1598 186.844 31.3762 187.7 31.3543C188.548 31.3269 189.261 32.0639 189.288 32.9927C189.313 33.9353 188.649 34.7079 187.793 34.7353Z" fill="#D8DDE1"/>
<path fill-rule="evenodd" clip-rule="evenodd" d="M126.969 323.715C126.421 323.729 125.965 323.255 125.946 322.657C125.927 322.062 126.352 321.561 126.904 321.547C127.447 321.533 127.9 322.008 127.927 322.597C127.938 323.2 127.513 323.696 126.969 323.715Z" fill="#D8DDE1"/>
<path fill-rule="evenodd" clip-rule="evenodd" d="M163.567 286.51C163.018 286.524 162.562 286.055 162.543 285.46C162.53 284.857 162.958 284.364 163.506 284.342C164.05 284.328 164.511 284.803 164.524 285.4C164.544 286.003 164.118 286.491 163.567 286.51Z" fill="#D8DDE1"/>
<path fill-rule="evenodd" clip-rule="evenodd" d="M195.485 276.649C194.936 276.668 194.48 276.202 194.461 275.599C194.448 274.996 194.876 274.503 195.424 274.481C195.973 274.467 196.429 274.941 196.442 275.539C196.462 276.139 196.034 276.635 195.485 276.649Z" fill="#D8DDE1"/>
<path fill-rule="evenodd" clip-rule="evenodd" d="M186.55 213.695C186.001 213.709 185.546 213.24 185.532 212.637C185.513 212.039 185.938 211.54 186.49 211.524C187.033 211.505 187.494 211.979 187.513 212.574C187.527 213.18 187.093 213.681 186.55 213.695Z" fill="#D8DDE1"/>
<path fill-rule="evenodd" clip-rule="evenodd" d="M75.9054 170.409C75.3621 170.428 74.9093 169.954 74.8873 169.359C74.8681 168.756 75.2935 168.262 75.845 168.249C76.3883 168.227 76.8493 168.696 76.863 169.299C76.8822 169.893 76.4542 170.395 75.9054 170.409Z" fill="#D8DDE1"/>
<path fill-rule="evenodd" clip-rule="evenodd" d="M50.6799 239.035C50.2848 239.043 49.9335 238.805 49.7579 238.44L49.7305 237.519C49.8786 237.147 50.2189 236.875 50.6113 236.87C51.1601 236.851 51.6156 237.325 51.6348 237.92C51.6568 238.52 51.2232 239.013 50.6799 239.035Z" fill="#D8DDE1"/>
<path fill-rule="evenodd" clip-rule="evenodd" d="M197.531 226.179C196.982 226.193 196.534 225.718 196.513 225.115C196.491 224.521 196.919 224.019 197.47 224.003C198.019 223.983 198.466 224.458 198.494 225.052C198.507 225.658 198.079 226.16 197.531 226.179Z" fill="#D8DDE1"/>
<path fill-rule="evenodd" clip-rule="evenodd" d="M222.696 203.327C222.147 203.341 221.691 202.867 221.672 202.264C221.658 201.666 222.087 201.167 222.635 201.151C223.179 201.137 223.64 201.611 223.653 202.2C223.67 202.804 223.245 203.305 222.696 203.327Z" fill="#D8DDE1"/>
<path fill-rule="evenodd" clip-rule="evenodd" d="M90.0473 254.138C89.4985 254.151 89.043 253.677 89.0238 253.08C89.01 252.485 89.4381 251.989 89.9814 251.969C90.5302 251.948 90.9857 252.43 91.0132 253.019C91.0241 253.622 90.5906 254.124 90.0473 254.138Z" fill="#D8DDE1"/>
<path fill-rule="evenodd" clip-rule="evenodd" d="M55.0707 292.009C54.5219 292.023 54.0664 291.549 54.0472 290.951C54.0335 290.362 54.4615 289.855 55.0049 289.838C55.5537 289.824 56.0092 290.299 56.0284 290.893C56.0448 291.494 55.6195 291.995 55.0707 292.009Z" fill="#D8DDE1"/>
<path fill-rule="evenodd" clip-rule="evenodd" d="M67.2426 272.653C66.6993 272.667 66.2383 272.193 66.2191 271.595C66.2054 270.992 66.6334 270.499 67.1767 270.477C67.7201 270.463 68.181 270.932 68.2003 271.535C68.2112 272.132 67.7859 272.634 67.2426 272.653Z" fill="#D8DDE1"/>
<path fill-rule="evenodd" clip-rule="evenodd" d="M88.4812 213.065C87.9324 213.079 87.4714 212.61 87.4576 212.015C87.4384 211.412 87.872 210.919 88.4153 210.897C88.9641 210.883 89.4196 211.357 89.4388 211.955C89.4525 212.558 89.0245 213.051 88.4812 213.065Z" fill="#D8DDE1"/>
<path fill-rule="evenodd" clip-rule="evenodd" d="M73.2452 176.675C72.7019 176.688 72.2409 176.214 72.2272 175.617C72.208 175.014 72.6333 174.512 73.1848 174.498C73.7337 174.485 74.1892 174.953 74.2084 175.556C74.2221 176.151 73.794 176.653 73.2452 176.675Z" fill="#D8DDE1"/>
<path fill-rule="evenodd" clip-rule="evenodd" d="M117.866 129.591C117.323 129.604 116.862 129.136 116.848 128.533C116.829 127.938 117.254 127.436 117.798 127.423C118.347 127.401 118.802 127.878 118.821 128.472C118.843 129.075 118.418 129.569 117.866 129.591Z" fill="#D8DDE1"/>
<path fill-rule="evenodd" clip-rule="evenodd" d="M105.441 92.3325C104.897 92.3462 104.444 91.8775 104.422 91.2745C104.403 90.6797 104.837 90.1781 105.38 90.1644C105.923 90.1507 106.384 90.6194 106.398 91.2142C106.415 91.8172 105.981 92.3133 105.441 92.3325Z" fill="#D8DDE1"/>
<path fill-rule="evenodd" clip-rule="evenodd" d="M139.985 123.508C139.436 123.522 138.98 123.053 138.961 122.458C138.948 121.847 139.376 121.354 139.919 121.34C140.468 121.326 140.923 121.795 140.937 122.398C140.953 122.993 140.528 123.489 139.985 123.508Z" fill="#D8DDE1"/>
<path fill-rule="evenodd" clip-rule="evenodd" d="M113.235 188.298C112.686 188.311 112.225 187.837 112.212 187.234C112.19 186.637 112.618 186.138 113.169 186.121C113.718 186.108 114.174 186.576 114.187 187.179C114.207 187.774 113.779 188.276 113.235 188.298Z" fill="#D8DDE1"/>
<path fill-rule="evenodd" clip-rule="evenodd" d="M103.622 162.588C103.078 162.608 102.617 162.133 102.598 161.539C102.579 160.936 103.013 160.442 103.561 160.42C104.11 160.407 104.566 160.875 104.585 161.47C104.599 162.081 104.171 162.575 103.622 162.588Z" fill="#D8DDE1"/>
<path fill-rule="evenodd" clip-rule="evenodd" d="M85.113 134.817C84.5642 134.831 84.1087 134.362 84.095 133.759C84.0675 133.164 84.5011 132.662 85.0444 132.649C85.5932 132.635 86.0487 133.109 86.0679 133.704C86.0817 134.302 85.6536 134.803 85.113 134.817Z" fill="#D8DDE1"/>
<path fill-rule="evenodd" clip-rule="evenodd" d="M119.667 106.655C119.124 106.669 118.671 106.195 118.649 105.592C118.63 104.989 119.055 104.495 119.607 104.479C120.156 104.465 120.611 104.934 120.63 105.529C120.641 106.134 120.216 106.636 119.667 106.655Z" fill="#D8DDE1"/>
<path fill-rule="evenodd" clip-rule="evenodd" d="M151.468 264.052C152.743 264.01 153.739 262.852 153.692 261.465C153.651 260.07 152.595 258.972 151.325 259.013C150.05 259.046 149.054 260.205 149.095 261.599C149.136 262.988 150.2 264.084 151.468 264.052Z" fill="#D8DDE1"/>
<path fill-rule="evenodd" clip-rule="evenodd" d="M244.358 125.559C245.634 125.526 246.624 124.367 246.588 122.972C246.542 121.583 245.483 120.487 244.216 120.52C242.94 120.561 241.944 121.72 241.986 123.107C242.032 124.496 243.099 125.6 244.358 125.559Z" fill="#D8DDE1"/>
<path fill-rule="evenodd" clip-rule="evenodd" d="M103.296 94.811C104.563 94.7699 105.562 93.6136 105.521 92.2245C105.48 90.8353 104.423 89.7393 103.148 89.7722C101.881 89.8133 100.877 90.9641 100.923 92.3587C100.965 93.7479 102.029 94.8438 103.296 94.811Z" fill="#D8DDE1"/>
<path fill-rule="evenodd" clip-rule="evenodd" d="M121.275 320.018C122.542 319.977 123.538 318.818 123.499 317.432C123.458 316.037 122.402 314.946 121.132 314.979C119.857 315.02 118.866 316.171 118.907 317.566C118.949 318.955 120.005 320.051 121.275 320.018Z" fill="#D8DDE1"/>
<path fill-rule="evenodd" clip-rule="evenodd" d="M203.632 328.448C204.899 328.407 205.895 327.25 205.856 325.861C205.815 324.472 204.751 323.376 203.484 323.409C202.216 323.45 201.218 324.609 201.259 325.995C201.297 327.385 202.364 328.489 203.632 328.448Z" fill="#D8DDE1"/>
<path fill-rule="evenodd" clip-rule="evenodd" d="M284.233 277.204C285.501 277.162 286.496 276.006 286.45 274.617C286.409 273.228 285.353 272.132 284.083 272.165C282.807 272.198 281.817 273.357 281.852 274.751C281.894 276.149 282.963 277.239 284.233 277.204Z" fill="#D8DDE1"/>
<path fill-rule="evenodd" clip-rule="evenodd" d="M212.808 111.748C214.075 111.716 215.071 110.557 215.032 109.162C214.986 107.773 213.927 106.677 212.66 106.71C211.392 106.751 210.389 107.91 210.435 109.296C210.474 110.691 211.532 111.781 212.808 111.748Z" fill="#D8DDE1"/>
<path fill-rule="evenodd" clip-rule="evenodd" d="M87.0245 71.2395C88.2918 71.2066 89.2957 70.0476 89.2491 68.6584C89.2079 67.2638 88.1519 66.1651 86.8819 66.2062C85.6146 66.2391 84.6189 67.3981 84.6573 68.7872C84.6985 70.1846 85.7627 71.2806 87.0245 71.2395Z" fill="#D8DDE1"/>
<path fill-rule="evenodd" clip-rule="evenodd" d="M130.393 245.222C131.248 245.202 131.912 244.422 131.885 243.487C131.857 242.553 131.144 241.813 130.291 241.841C129.435 241.868 128.772 242.646 128.793 243.575C128.826 244.512 129.54 245.249 130.393 245.222Z" fill="#D8DDE1"/>
<path fill-rule="evenodd" clip-rule="evenodd" d="M101.368 254.623C102.224 254.596 102.893 253.818 102.866 252.883C102.844 251.955 102.119 251.217 101.272 251.245C100.416 251.264 99.7468 252.045 99.7743 252.979C99.8099 253.911 100.52 254.651 101.368 254.623Z" fill="#D8DDE1"/>
<path fill-rule="evenodd" clip-rule="evenodd" d="M123.997 295.322C124.853 295.29 125.517 294.517 125.489 293.583C125.462 292.654 124.749 291.917 123.896 291.936C123.04 291.963 122.371 292.741 122.404 293.67C122.425 294.61 123.144 295.342 123.997 295.322Z" fill="#D8DDE1"/>
<path fill-rule="evenodd" clip-rule="evenodd" d="M266.54 244.579C267.401 244.551 268.065 243.773 268.037 242.839C268.01 241.905 267.291 241.165 266.444 241.192C265.591 241.22 264.919 241.998 264.946 242.927C264.974 243.861 265.692 244.601 266.54 244.579Z" fill="#D8DDE1"/>
<path fill-rule="evenodd" clip-rule="evenodd" d="M230.489 138.198C231.337 138.176 232.009 137.398 231.982 136.463C231.954 135.529 231.235 134.798 230.388 134.817C229.532 134.844 228.863 135.622 228.896 136.557C228.918 137.494 229.636 138.225 230.489 138.198Z" fill="#D8DDE1"/>
<path fill-rule="evenodd" clip-rule="evenodd" d="M215.446 168.128C216.294 168.095 216.966 167.322 216.938 166.379C216.911 165.453 216.198 164.714 215.345 164.733C214.489 164.76 213.825 165.547 213.852 166.473C213.88 167.41 214.593 168.149 215.446 168.128Z" fill="#D8DDE1"/>
<path fill-rule="evenodd" clip-rule="evenodd" d="M152.212 136.238C153.067 136.211 153.737 135.433 153.704 134.499C153.676 133.57 152.971 132.833 152.116 132.86C151.263 132.888 150.591 133.66 150.618 134.594C150.651 135.521 151.364 136.26 152.212 136.238Z" fill="#D8DDE1"/>
<path fill-rule="evenodd" clip-rule="evenodd" d="M126.467 67.1826C127.315 67.1634 127.979 66.3771 127.951 65.4482C127.924 64.5084 127.21 63.7741 126.366 63.8015C125.51 63.8207 124.841 64.6016 124.868 65.5359C124.893 66.4702 125.606 67.21 126.467 67.1826Z" fill="#D8DDE1"/>
<path fill-rule="evenodd" clip-rule="evenodd" d="M165.503 317.097C166.052 317.083 166.48 316.587 166.461 315.984C166.452 315.381 165.991 314.912 165.443 314.926C164.894 314.945 164.466 315.441 164.485 316.036C164.504 316.645 164.96 317.119 165.503 317.097Z" fill="#D8DDE1"/>
<path fill-rule="evenodd" clip-rule="evenodd" d="M133.062 309.142C133.605 309.122 134.038 308.621 134.019 308.023C134 307.42 133.55 306.951 133.001 306.973C132.452 306.987 132.024 307.483 132.044 308.086C132.057 308.681 132.518 309.155 133.062 309.142Z" fill="#D8DDE1"/>
<path fill-rule="evenodd" clip-rule="evenodd" d="M138.274 245.761C138.817 245.739 139.243 245.246 139.224 244.648C139.21 244.045 138.749 243.576 138.2 243.59C137.657 243.609 137.231 244.111 137.242 244.708C137.27 245.306 137.725 245.78 138.274 245.761Z" fill="#D8DDE1"/>
<path fill-rule="evenodd" clip-rule="evenodd" d="M246.159 196.04C246.708 196.026 247.136 195.525 247.122 194.922C247.103 194.324 246.648 193.85 246.099 193.872C245.55 193.886 245.122 194.387 245.141 194.982C245.155 195.585 245.61 196.054 246.159 196.04Z" fill="#D8DDE1"/>
<path fill-rule="evenodd" clip-rule="evenodd" d="M275.399 263.049C275.942 263.036 276.376 262.534 276.357 261.939C276.338 261.342 275.882 260.867 275.333 260.881C274.79 260.895 274.356 261.396 274.376 261.994C274.387 262.597 274.85 263.071 275.399 263.049Z" fill="#D8DDE1"/>
<path fill-rule="evenodd" clip-rule="evenodd" d="M287.691 247.954C288.239 247.932 288.662 247.439 288.648 246.836C288.634 246.241 288.168 245.764 287.63 245.778C287.081 245.797 286.653 246.293 286.672 246.896C286.689 247.502 287.142 247.968 287.691 247.954Z" fill="#D8DDE1"/>
<path fill-rule="evenodd" clip-rule="evenodd" d="M128.044 258.866C128.587 258.847 129.015 258.351 128.993 257.748C128.971 257.15 128.518 256.676 127.97 256.698C127.426 256.712 127.001 257.205 127.012 257.811C127.031 258.403 127.495 258.88 128.044 258.866Z" fill="#D8DDE1"/>
<path fill-rule="evenodd" clip-rule="evenodd" d="M101.575 237.53C102.118 237.516 102.546 237.014 102.533 236.42C102.513 235.822 102.058 235.348 101.515 235.362C100.958 235.375 100.532 235.877 100.551 236.48C100.565 237.075 101.026 237.552 101.575 237.53Z" fill="#D8DDE1"/>
<path fill-rule="evenodd" clip-rule="evenodd" d="M236.987 280.45C237.536 280.436 237.964 279.929 237.945 279.332C237.931 278.729 237.47 278.26 236.927 278.274C236.378 278.296 235.955 278.789 235.969 279.392C235.983 279.987 236.444 280.464 236.987 280.45Z" fill="#D8DDE1"/>
<path fill-rule="evenodd" clip-rule="evenodd" d="M274.141 316.196C274.69 316.183 275.118 315.681 275.104 315.078C275.077 314.489 274.624 314.006 274.081 314.028C273.537 314.047 273.104 314.543 273.118 315.146C273.139 315.744 273.6 316.21 274.141 316.196Z" fill="#D8DDE1"/>
<path fill-rule="evenodd" clip-rule="evenodd" d="M260.856 297.586C261.405 297.573 261.824 297.071 261.813 296.476C261.8 295.879 261.33 295.405 260.79 295.418C260.247 295.432 259.821 295.934 259.832 296.531C259.851 297.131 260.304 297.6 260.856 297.586Z" fill="#D8DDE1"/>
<path fill-rule="evenodd" clip-rule="evenodd" d="M236.133 239.357C236.677 239.338 237.11 238.842 237.091 238.244C237.072 237.641 236.616 237.167 236.067 237.186C235.519 237.2 235.096 237.701 235.11 238.299C235.129 238.905 235.584 239.371 236.133 239.357Z" fill="#D8DDE1"/>
<path fill-rule="evenodd" clip-rule="evenodd" d="M249.183 202.13C249.732 202.11 250.16 201.614 250.14 201.02C250.127 200.417 249.671 199.942 249.122 199.961C248.574 199.975 248.145 200.477 248.165 201.074C248.178 201.677 248.634 202.143 249.183 202.13Z" fill="#D8DDE1"/>
<path fill-rule="evenodd" clip-rule="evenodd" d="M201.868 157.751C202.411 157.737 202.844 157.236 202.831 156.638C202.809 156.043 202.348 155.569 201.807 155.58C201.258 155.599 200.83 156.096 200.844 156.699C200.863 157.299 201.319 157.773 201.868 157.751Z" fill="#D8DDE1"/>
<path fill-rule="evenodd" clip-rule="evenodd" d="M212.066 119.829C212.614 119.815 213.042 119.322 213.023 118.718C213.009 118.115 212.548 117.647 212.005 117.66C211.462 117.674 211.028 118.176 211.047 118.773C211.061 119.374 211.522 119.848 212.066 119.829Z" fill="#D8DDE1"/>
<path fill-rule="evenodd" clip-rule="evenodd" d="M179.434 152.993C179.97 152.974 180.398 152.472 180.384 151.875C180.365 151.28 179.909 150.806 179.366 150.817C178.817 150.836 178.389 151.332 178.403 151.935C178.416 152.53 178.877 153.004 179.434 152.993Z" fill="#D8DDE1"/>
<path fill-rule="evenodd" clip-rule="evenodd" d="M209.952 216.083C210.509 216.069 210.935 215.573 210.924 214.972C210.902 214.378 210.441 213.901 209.892 213.914C209.349 213.934 208.915 214.435 208.934 215.024C208.953 215.628 209.409 216.102 209.952 216.083Z" fill="#D8DDE1"/>
<path fill-rule="evenodd" clip-rule="evenodd" d="M218.026 189.862C218.575 189.843 219.003 189.341 218.984 188.744C218.97 188.146 218.509 187.672 217.966 187.686C217.417 187.705 216.989 188.201 217.008 188.804C217.022 189.402 217.483 189.873 218.026 189.862Z" fill="#D8DDE1"/>
<path fill-rule="evenodd" clip-rule="evenodd" d="M234.88 161.05C235.428 161.031 235.856 160.529 235.837 159.931C235.815 159.334 235.354 158.86 234.819 158.873C234.27 158.893 233.837 159.394 233.856 159.992C233.875 160.589 234.328 161.063 234.88 161.05Z" fill="#D8DDE1"/>
<path fill-rule="evenodd" clip-rule="evenodd" d="M198.719 134.96C199.263 134.947 199.688 134.45 199.677 133.847C199.655 133.253 199.202 132.776 198.654 132.789C198.105 132.809 197.677 133.305 197.696 133.899C197.715 134.505 198.171 134.974 198.719 134.96Z" fill="#D8DDE1"/>
<path fill-rule="evenodd" clip-rule="evenodd" d="M489.452 231.798C487.689 231.403 485.919 232.644 485.486 234.573C485.053 236.489 486.136 238.374 487.894 238.765C489.65 239.16 491.419 237.913 491.855 235.995C492.28 234.066 491.208 232.198 489.452 231.798Z" fill="#D8DDE1"/>
<path fill-rule="evenodd" clip-rule="evenodd" d="M515.664 123.897C513.914 123.505 512.145 124.743 511.711 126.675C511.283 128.598 512.356 130.475 514.111 130.867C515.875 131.262 517.65 130.02 518.072 128.089C518.5 126.168 517.428 124.291 515.664 123.897Z" fill="#D8DDE1"/>
<path fill-rule="evenodd" clip-rule="evenodd" d="M446.07 269.522C444.306 269.13 442.537 270.368 442.109 272.3C441.67 274.223 442.754 276.1 444.509 276.492C446.265 276.884 448.037 275.64 448.47 273.722C448.895 271.793 447.826 269.908 446.07 269.522Z" fill="#D8DDE1"/>
<path fill-rule="evenodd" clip-rule="evenodd" d="M457.86 276.553C456.11 276.159 454.327 277.406 453.899 279.323C453.471 281.252 454.543 283.129 456.299 283.524C458.054 283.916 459.832 282.677 460.265 280.746C460.693 278.83 459.623 276.94 457.86 276.553Z" fill="#D8DDE1"/>
<path fill-rule="evenodd" clip-rule="evenodd" d="M515.656 128.512C513.906 128.112 512.132 129.364 511.696 131.282C511.268 133.211 512.34 135.088 514.096 135.482C515.859 135.874 517.629 134.628 518.062 132.704C518.49 130.786 517.42 128.898 515.656 128.512Z" fill="#D8DDE1"/>
<path fill-rule="evenodd" clip-rule="evenodd" d="M483.877 192.365C482.122 191.973 480.345 193.225 479.917 195.135C479.483 197.064 480.553 198.954 482.317 199.341C484.067 199.732 485.85 198.486 486.278 196.562C486.705 194.642 485.633 192.759 483.877 192.365Z" fill="#D8DDE1"/>
<path fill-rule="evenodd" clip-rule="evenodd" d="M445.463 309.525C444.289 309.268 443.09 310.095 442.805 311.389C442.519 312.682 443.238 313.95 444.42 314.214C445.6 314.477 446.793 313.638 447.084 312.345C447.369 311.049 446.645 309.788 445.463 309.525Z" fill="#D8DDE1"/>
<path fill-rule="evenodd" clip-rule="evenodd" d="M419.427 189.394C418.248 189.131 417.068 189.964 416.769 191.257C416.484 192.551 417.203 193.811 418.385 194.074C419.565 194.337 420.752 193.504 421.049 192.211C421.339 190.918 420.615 189.657 419.427 189.394Z" fill="#D8DDE1"/>
<path fill-rule="evenodd" clip-rule="evenodd" d="M435.199 128.152C434.011 127.889 432.826 128.727 432.541 130.015C432.25 131.308 432.969 132.569 434.148 132.832C435.328 133.095 436.521 132.262 436.806 130.968C437.097 129.675 436.373 128.415 435.199 128.152Z" fill="#D8DDE1"/>
<path fill-rule="evenodd" clip-rule="evenodd" d="M437.929 324.843C436.749 324.58 435.548 325.419 435.265 326.698C434.98 328 435.707 329.265 436.878 329.523C438.052 329.786 439.245 328.948 439.53 327.654C439.827 326.375 439.1 325.109 437.929 324.843Z" fill="#D8DDE1"/>
<path fill-rule="evenodd" clip-rule="evenodd" d="M488.488 135.656C487.314 135.399 486.121 136.226 485.83 137.519C485.539 138.813 486.258 140.073 487.443 140.336C488.623 140.607 489.816 139.766 490.101 138.473C490.392 137.18 489.673 135.919 488.488 135.656Z" fill="#D8DDE1"/>
<path fill-rule="evenodd" clip-rule="evenodd" d="M396.08 265.096C395.333 264.926 394.56 265.468 394.376 266.287C394.192 267.12 394.656 267.926 395.408 268.096C396.167 268.266 396.927 267.729 397.116 266.904C397.3 266.077 396.839 265.265 396.08 265.096Z" fill="#D8DDE1"/>
<path fill-rule="evenodd" clip-rule="evenodd" d="M437.855 287.375C437.103 287.213 436.335 287.742 436.151 288.575C435.962 289.4 436.431 290.213 437.188 290.383C437.94 290.545 438.708 290.011 438.889 289.186C439.073 288.358 438.612 287.553 437.855 287.375Z" fill="#D8DDE1"/>
<path fill-rule="evenodd" clip-rule="evenodd" d="M510.925 190.512C510.173 190.336 509.4 190.871 509.216 191.704C509.032 192.523 509.493 193.337 510.253 193.507C511.013 193.676 511.773 193.134 511.954 192.315C512.146 191.487 511.677 190.673 510.925 190.512Z" fill="#D8DDE1"/>
<path fill-rule="evenodd" clip-rule="evenodd" d="M493.756 117.973C493.005 117.803 492.245 118.332 492.056 119.165C491.872 119.984 492.341 120.803 493.087 120.973C493.847 121.143 494.612 120.601 494.796 119.781C494.977 118.949 494.513 118.14 493.756 117.973Z" fill="#D8DDE1"/>
<path fill-rule="evenodd" clip-rule="evenodd" d="M455.255 83.681C455.241 83.8563 455.214 84.0262 455.173 84.1961C454.739 86.1277 452.97 87.3717 451.207 86.9744C449.457 86.5881 448.387 84.7057 448.812 82.7823C448.853 82.6069 448.9 82.437 448.955 82.2754L455.255 83.681Z" fill="#D8DDE1"/>
<path fill-rule="evenodd" clip-rule="evenodd" d="M463.121 217.467C464.871 217.858 465.941 219.743 465.515 221.664C465.087 223.593 463.305 224.834 461.555 224.44C459.799 224.048 458.721 222.171 459.154 220.239C459.582 218.321 461.352 217.075 463.121 217.467Z" fill="#D8DDE1"/>
<path fill-rule="evenodd" clip-rule="evenodd" d="M503.752 292.993C505.508 293.385 506.58 295.27 506.152 297.193C505.724 299.117 503.95 300.363 502.186 299.971C500.422 299.577 499.358 297.695 499.786 295.771C500.219 293.845 501.991 292.598 503.752 292.993Z" fill="#D8DDE1"/>
<path fill-rule="evenodd" clip-rule="evenodd" d="M524.799 129.583C525.978 129.846 526.705 131.101 526.411 132.394C526.121 133.695 524.927 134.52 523.753 134.257C522.574 133.994 521.855 132.739 522.141 131.441C522.431 130.145 523.619 129.317 524.799 129.583Z" fill="#D8DDE1"/>
<path fill-rule="evenodd" clip-rule="evenodd" d="M430.341 115.351C431.52 115.609 432.239 116.875 431.956 118.163C431.666 119.456 430.478 120.302 429.293 120.031C428.114 119.768 427.395 118.508 427.686 117.206C427.974 115.927 429.161 115.08 430.341 115.351Z" fill="#D8DDE1"/>
<path fill-rule="evenodd" clip-rule="evenodd" d="M470.31 184.746C471.07 184.916 471.531 185.721 471.341 186.546C471.158 187.373 470.392 187.913 469.646 187.746C468.886 187.576 468.417 186.757 468.609 185.938C468.782 185.105 469.564 184.579 470.31 184.746Z" fill="#D8DDE1"/>
<path fill-rule="evenodd" clip-rule="evenodd" d="M406.993 223.043C407.753 223.213 408.213 224.024 408.03 224.851C407.84 225.676 407.081 226.213 406.329 226.043C405.569 225.873 405.103 225.068 405.292 224.235C405.473 223.416 406.233 222.873 406.993 223.043Z" fill="#D8DDE1"/>
<path fill-rule="evenodd" clip-rule="evenodd" d="M487.644 310.322C488.404 310.492 488.864 311.298 488.681 312.125C488.483 312.958 487.718 313.493 486.972 313.323C486.22 313.153 485.751 312.347 485.94 311.514C486.127 310.69 486.887 310.153 487.644 310.322Z" fill="#D8DDE1"/>
<path fill-rule="evenodd" clip-rule="evenodd" d="M444.853 92.9631C445.612 93.133 446.073 93.944 445.884 94.7715C445.7 95.6044 444.943 96.1387 444.175 95.9634C443.423 95.7935 442.963 94.9879 443.152 94.1632C443.333 93.3275 444.084 92.7932 444.853 92.9631Z" fill="#D8DDE1"/>
<path fill-rule="evenodd" clip-rule="evenodd" d="M473.484 130.334C474.235 130.504 474.704 131.31 474.52 132.143C474.337 132.97 473.571 133.504 472.812 133.334C472.052 133.165 471.591 132.359 471.775 131.526C471.956 130.699 472.729 130.164 473.484 130.334Z" fill="#D8DDE1"/>
<path fill-rule="evenodd" clip-rule="evenodd" d="M496.645 293.231C497.405 293.4 497.861 294.206 497.677 295.039C497.488 295.866 496.728 296.401 495.976 296.231C495.216 296.061 494.756 295.255 494.945 294.428C495.126 293.598 495.886 293.061 496.645 293.231Z" fill="#D8DDE1"/>
<path fill-rule="evenodd" clip-rule="evenodd" d="M500.186 236.011C500.937 236.181 501.406 236.987 501.222 237.82C501.025 238.653 500.265 239.182 499.522 239.02C498.762 238.845 498.293 238.039 498.491 237.212C498.674 236.379 499.434 235.85 500.186 236.011Z" fill="#D8DDE1"/>
<path fill-rule="evenodd" clip-rule="evenodd" d="M476.684 258.355C477.443 258.525 477.899 259.336 477.715 260.163C477.531 260.988 476.766 261.525 476.014 261.355C475.263 261.185 474.794 260.38 474.977 259.552C475.167 258.736 475.932 258.193 476.684 258.355Z" fill="#D8DDE1"/>
<path fill-rule="evenodd" clip-rule="evenodd" d="M497.697 282.217C495.947 281.825 494.173 283.069 493.736 284.995C493.303 286.918 494.381 288.801 496.145 289.195C497.9 289.587 499.669 288.34 500.106 286.42C500.539 284.485 499.458 282.608 497.697 282.217Z" fill="#D8DDE1"/>
<path fill-rule="evenodd" clip-rule="evenodd" d="M470.538 289.369C469.359 289.106 468.152 289.939 467.859 291.232C467.573 292.525 468.306 293.786 469.485 294.043C470.665 294.306 471.852 293.481 472.149 292.188C472.437 290.892 471.71 289.626 470.538 289.369Z" fill="#D8DDE1"/>
<path fill-rule="evenodd" clip-rule="evenodd" d="M412.377 269.062C413.556 269.325 414.288 270.586 413.998 271.873C413.707 273.175 412.519 274 411.334 273.736C410.155 273.473 409.428 272.213 409.721 270.925C410.018 269.632 411.205 268.799 412.377 269.062Z" fill="#D8DDE1"/>
</g>
<defs>
<linearGradient id="paint0_linear_5720_2316" x1="0" y1="164" x2="1920" y2="164" gradientUnits="userSpaceOnUse">
<stop offset="0.359" stop-color="#FF5500"/>
<stop offset="1" stop-color="#712600"/>
</linearGradient>
<clipPath id="clip0_5720_2316">
<rect width="810" height="327" fill="white" transform="translate(0 1.00195)"/>
</clipPath>
</defs>
</svg>
