<svg width="212" height="54" viewBox="0 0 212 54" fill="none" xmlns="http://www.w3.org/2000/svg">
<g clip-path="url(#clip0_6078_2270)">
<path d="M11.8555 13.2958C13.4298 12.4523 15.2599 12.0545 17.0795 12.089C18.9017 12.1208 20.724 12.5664 22.3695 13.378C24.015 14.1869 25.4944 15.3751 26.573 16.8737C27.1136 17.6216 27.5382 18.4517 27.8177 19.3243C28.0867 20.1996 28.2133 21.1173 28.1289 22.0137C27.8968 20.2314 27.1031 18.6321 26.0008 17.3245C24.8958 16.0117 23.4876 14.9799 21.9581 14.2187C20.4233 13.4628 18.7514 12.9775 17.0373 12.8157C15.3232 12.6513 13.5722 12.8157 11.8555 13.2958Z" fill="#FF5500"/>
<path d="M12.4458 41.0205C11.8182 39.3416 11.5729 37.4824 11.7865 35.6523C11.9975 33.8249 12.6515 32.032 13.7037 30.5017C14.7479 28.9713 16.1878 27.6956 17.8702 26.9264C18.7088 26.5392 19.6054 26.2872 20.5126 26.1864C21.4198 26.0936 22.3401 26.1466 23.2024 26.3933C21.4145 26.3031 19.6898 26.7487 18.1946 27.5789C16.6941 28.4117 15.4362 29.6291 14.4684 31.0348C13.5006 32.4458 12.8334 34.0636 12.5012 35.7664C12.1689 37.4691 12.1953 39.2435 12.4458 41.0205Z" fill="#FF5500"/>
<path d="M40.3654 12.0098C41.3042 13.5348 41.8211 15.3437 41.9081 17.1737C41.9977 19.0038 41.676 20.863 40.9772 22.5684C40.281 24.2712 39.2024 25.836 37.7863 27.0189C37.0822 27.6104 36.2858 28.0931 35.4367 28.4299C34.5849 28.7588 33.683 28.9444 32.7891 28.9206C34.5427 28.5705 36.0749 27.6687 37.3011 26.4752C38.53 25.279 39.4609 23.7991 40.1149 22.213C40.7636 20.6243 41.1328 18.9136 41.1829 17.1817C41.233 15.4497 40.9535 13.7019 40.3654 12.0098Z" fill="#FF5500"/>
<path d="M40.4028 41.5745C38.7678 42.2959 36.9377 42.6434 35.1076 42.5267C33.2827 42.4126 31.4658 41.853 29.8888 40.8796C28.3144 39.9115 26.9695 38.5377 26.1125 36.888C25.6826 36.0684 25.3846 35.1799 25.2343 34.2728C25.0946 33.3658 25.0972 32.4375 25.2924 31.5596C25.2976 33.3605 25.8356 35.0659 26.7401 36.5246C27.6473 37.986 28.9236 39.1848 30.3714 40.0813C31.8244 40.9751 33.4673 41.5612 35.1735 41.8026C36.8902 42.044 38.6518 41.9246 40.4028 41.5745Z" fill="#FF5500"/>
<path d="M45.9901 14.9482C47.728 24.7854 41.7102 35.7313 32.6755 32.7289C40.0989 34.1558 44.8615 27.5039 45.7686 19.8548C45.2729 22.5548 44.1205 25.17 42.1215 27.4244C35.3363 35.0788 27.2326 28.6312 27.2326 28.6312C25.8376 33.5378 28.5116 37.7045 33.9756 39.3304C39.3711 40.9376 46.0271 39.1208 50.1594 32.4133C58.1497 19.4411 47.4695 5.30454 40.5947 2.76367C43.4243 5.50876 45.5814 10.0998 45.9901 14.9482Z" fill="#FF5500"/>
<path d="M51.5861 41.3648C48.8778 44.2319 44.3315 46.4386 39.5162 46.8895C29.7484 48.7169 18.8177 42.7519 21.7291 33.6414C20.371 41.1182 27.0217 45.8551 34.6349 46.7065C31.9451 46.2291 29.337 45.0912 27.0797 43.0994C19.4137 36.3361 25.7612 28.1327 25.7612 28.1327C20.872 26.7694 16.7503 29.4907 15.1786 34.9994C13.6253 40.4392 15.4845 47.1176 22.1853 51.2206C35.1439 59.1535 49.1151 48.2978 51.5861 41.3648Z" fill="#FF5500"/>
<path d="M7.23273 39.6202C5.83244 29.7273 12.2247 18.9989 21.1486 22.3116C13.7806 20.6301 8.79124 27.1095 7.62301 34.7242C8.21108 32.0427 9.45315 29.47 11.5285 27.2846C18.5722 19.8689 26.4518 26.595 26.4518 26.595C28.0129 21.7414 25.4866 17.4845 20.0806 15.6677C14.7431 13.8748 8.02912 15.4608 3.67003 22.0198C-4.76598 34.7082 5.42369 49.2081 12.2036 51.9851C9.47161 49.1418 7.4727 44.4792 7.23273 39.6202Z" fill="#FF5500"/>
<path d="M32.1153 21.9293C33.8901 14.5427 27.5189 9.43449 19.9637 8.15345C22.6219 8.78204 25.164 10.0684 27.3053 12.1849C34.5784 19.3725 27.7826 27.202 27.7826 27.202C32.5874 28.8411 36.8542 26.3559 38.7344 20.948C40.5909 15.6063 39.1089 8.83243 32.648 4.35542C20.1535 -4.30686 5.59424 5.73724 2.73828 12.5191C5.60215 9.81111 10.2671 7.86436 15.1009 7.69196C24.9557 6.42153 35.533 12.9991 32.1153 21.9293Z" fill="#FF5500"/>
<path d="M45.7813 40.3889C45.7813 40.8822 45.3831 41.2827 44.8926 41.2827C44.4021 41.2827 44.0039 40.8822 44.0039 40.3889C44.0039 39.8956 44.4021 39.4951 44.8926 39.4951C45.3857 39.4951 45.7813 39.8956 45.7813 40.3889Z" fill="#FF5500"/>
<path d="M49.8321 37.3948C49.8321 37.8881 49.4339 38.2886 48.9434 38.2886C48.4529 38.2886 48.0547 37.8881 48.0547 37.3948C48.0547 36.9015 48.4529 36.501 48.9434 36.501C49.4339 36.501 49.8321 36.9015 49.8321 37.3948Z" fill="#FF5500"/>
<path d="M52.9102 33.4085C52.9102 33.9018 52.512 34.3023 52.0215 34.3023C51.531 34.3023 51.1328 33.9018 51.1328 33.4085C51.1328 32.9151 51.531 32.5146 52.0215 32.5146C52.5146 32.5146 52.9102 32.9125 52.9102 33.4085Z" fill="#FF5500"/>
<path d="M14.3081 44.9397C14.4374 44.4634 14.1584 43.972 13.6849 43.842C13.2114 43.7119 12.7227 43.9926 12.5935 44.4688C12.4642 44.945 12.7432 45.4365 13.2167 45.5665C13.6902 45.6965 14.1788 45.4159 14.3081 44.9397Z" fill="#FF5500"/>
<path d="M16.0105 49.8995C15.5226 49.8598 15.1587 49.4274 15.1983 48.9341C15.2378 48.4434 15.6677 48.0774 16.1582 48.1172C16.646 48.157 17.0099 48.5893 16.9704 49.0826C16.9282 49.576 16.4983 49.942 16.0105 49.8995Z" fill="#FF5500"/>
<path d="M20.6284 52.6924C20.7731 52.2207 20.5102 51.7203 20.0412 51.5748C19.5722 51.4292 19.0746 51.6937 18.93 52.1654C18.7853 52.6371 19.0482 53.1375 19.5172 53.283C19.9862 53.4286 20.4837 53.1641 20.6284 52.6924Z" fill="#FF5500"/>
<path d="M6.92611 15.0518C6.91292 14.5585 7.29794 14.1474 7.78843 14.1341C8.27893 14.1209 8.68768 14.5081 8.70086 15.0014C8.71405 15.4947 8.32904 15.9058 7.83854 15.9191C7.35068 15.935 6.94193 15.5451 6.92611 15.0518Z" fill="#FF5500"/>
<path d="M2.96517 18.1631C2.95199 17.6698 3.337 17.2587 3.8275 17.2454C4.31799 17.2322 4.72674 17.6194 4.73993 18.1127C4.75311 18.6061 4.3681 19.0172 3.8776 19.0304C3.38711 19.0463 2.97836 18.6565 2.96517 18.1631Z" fill="#FF5500"/>
<path d="M0.000328792 22.2393C-0.0128566 21.746 0.372157 21.3349 0.862653 21.3216C1.35315 21.3084 1.7619 21.6956 1.77508 22.1889C1.78827 22.6822 1.40325 23.0933 0.912758 23.1066C0.424898 23.1199 0.0135142 22.7326 0.000328792 22.2393Z" fill="#FF5500"/>
<path d="M38.6433 6.17228C39.1285 6.10598 39.5768 6.44812 39.6427 6.93613C39.7086 7.42415 39.3685 7.87503 38.8832 7.94134C38.398 8.00765 37.9497 7.6655 37.8838 7.17749C37.8152 6.68947 38.1554 6.23859 38.6433 6.17228Z" fill="#FF5500"/>
<path d="M35.1426 2.54142C35.6279 2.47512 36.0762 2.81726 36.1421 3.30527C36.208 3.79329 35.8678 4.24417 35.3826 4.31048C34.8974 4.37679 34.4491 4.03464 34.3832 3.54663C34.3172 3.05861 34.6574 2.60773 35.1426 2.54142Z" fill="#FF5500"/>
<path d="M30.7989 0.00821925C31.2841 -0.0580872 31.7324 0.284054 31.7984 0.77207C31.8643 1.26009 31.5241 1.71097 31.0389 1.77728C30.5537 1.84358 30.1053 1.50144 30.0394 1.01343C29.9735 0.52541 30.3137 0.0745257 30.7989 0.00821925Z" fill="#FF5500"/>
</g>
<path d="M73.6 27L82.09 5.91H85.42L93.88 27H89.53L82.99 9.69H84.49L77.86 27H73.6ZM78.1 23.07V19.65H89.44V23.07H78.1ZM96.1853 27V12.51H100.115V27H96.1853ZM100.115 18.99L98.5853 17.97C98.7653 16.19 99.2853 14.79 100.145 13.77C101.005 12.73 102.245 12.21 103.865 12.21C104.565 12.21 105.195 12.33 105.755 12.57C106.315 12.79 106.825 13.16 107.285 13.68L104.825 16.5C104.605 16.26 104.335 16.08 104.015 15.96C103.715 15.84 103.365 15.78 102.965 15.78C102.125 15.78 101.435 16.05 100.895 16.59C100.375 17.11 100.115 17.91 100.115 18.99ZM117.906 27L112.296 19.53L117.876 12.51H122.406L115.866 20.43L116.016 18.51L122.706 27H117.906ZM108.666 27V5.31H112.596V27H108.666ZM129.962 27.3C128.622 27.3 127.422 26.97 126.362 26.31C125.302 25.65 124.462 24.75 123.842 23.61C123.242 22.47 122.942 21.19 122.942 19.77C122.942 18.33 123.242 17.04 123.842 15.9C124.462 14.76 125.292 13.86 126.332 13.2C127.392 12.54 128.602 12.21 129.962 12.21C131.002 12.21 131.932 12.42 132.752 12.84C133.592 13.26 134.262 13.85 134.762 14.61C135.282 15.35 135.562 16.19 135.602 17.13V22.29C135.562 23.23 135.292 24.08 134.792 24.84C134.292 25.6 133.622 26.2 132.782 26.64C131.942 27.08 131.002 27.3 129.962 27.3ZM130.622 23.67C131.362 23.67 132.002 23.51 132.542 23.19C133.102 22.85 133.532 22.39 133.832 21.81C134.152 21.21 134.312 20.52 134.312 19.74C134.312 18.98 134.152 18.31 133.832 17.73C133.532 17.13 133.102 16.67 132.542 16.35C132.002 16.01 131.372 15.84 130.652 15.84C129.912 15.84 129.262 16.01 128.702 16.35C128.162 16.69 127.732 17.15 127.412 17.73C127.112 18.31 126.962 18.98 126.962 19.74C126.962 20.52 127.112 21.21 127.412 21.81C127.732 22.39 128.172 22.85 128.732 23.19C129.292 23.51 129.922 23.67 130.622 23.67ZM138.002 27H134.102V23.1L134.732 19.56L134.072 16.08V5.31H138.002V27ZM141.478 27V12.51H145.438V27H141.478ZM143.458 10.17C142.818 10.17 142.288 9.96 141.868 9.54C141.448 9.1 141.238 8.56 141.238 7.92C141.238 7.3 141.448 6.77 141.868 6.33C142.288 5.89 142.818 5.67 143.458 5.67C144.118 5.67 144.648 5.89 145.048 6.33C145.468 6.77 145.678 7.3 145.678 7.92C145.678 8.56 145.468 9.1 145.048 9.54C144.648 9.96 144.118 10.17 143.458 10.17ZM158.67 27V18.69C158.67 17.83 158.4 17.13 157.86 16.59C157.32 16.05 156.62 15.78 155.76 15.78C155.2 15.78 154.7 15.9 154.26 16.14C153.82 16.38 153.47 16.72 153.21 17.16C152.97 17.6 152.85 18.11 152.85 18.69L151.32 17.91C151.32 16.77 151.56 15.78 152.04 14.94C152.54 14.08 153.22 13.41 154.08 12.93C154.96 12.45 155.95 12.21 157.05 12.21C158.11 12.21 159.06 12.48 159.9 13.02C160.74 13.54 161.4 14.23 161.88 15.09C162.36 15.93 162.6 16.84 162.6 17.82V27H158.67ZM148.92 27V12.51H152.85V27H148.92Z" fill="#010F34"/>
<path d="M74.184 48V36.8H77.8C78.6747 36.8 79.3893 36.944 79.944 37.232C80.4987 37.52 80.9093 37.9147 81.176 38.416C81.4427 38.9173 81.576 39.472 81.576 40.08C81.576 40.784 81.384 41.4187 81 41.984C80.6267 42.5493 80.04 42.9493 79.24 43.184L81.688 48H80.104L77.832 43.376H77.736H75.528V48H74.184ZM75.528 42.32H77.704C78.568 42.32 79.1973 42.112 79.592 41.696C79.9867 41.28 80.184 40.7467 80.184 40.096C80.184 39.4347 79.9867 38.912 79.592 38.528C79.208 38.1333 78.5733 37.936 77.688 37.936H75.528V42.32ZM86.672 48.192C85.9147 48.192 85.2427 48.0213 84.656 47.68C84.0693 47.328 83.6053 46.8427 83.264 46.224C82.9333 45.6053 82.768 44.8747 82.768 44.032C82.768 43.2 82.9333 42.4747 83.264 41.856C83.5947 41.2267 84.0533 40.7413 84.64 40.4C85.2373 40.048 85.9253 39.872 86.704 39.872C87.472 39.872 88.1333 40.048 88.688 40.4C89.2533 40.7413 89.6853 41.1947 89.984 41.76C90.2827 42.3253 90.432 42.9333 90.432 43.584C90.432 43.7013 90.4267 43.8187 90.416 43.936C90.416 44.0533 90.416 44.1867 90.416 44.336H84.096C84.128 44.944 84.2667 45.4507 84.512 45.856C84.768 46.2507 85.0827 46.5493 85.456 46.752C85.84 46.9547 86.2453 47.056 86.672 47.056C87.2267 47.056 87.6907 46.928 88.064 46.672C88.4373 46.416 88.7093 46.0693 88.88 45.632H90.208C89.9947 46.368 89.584 46.9813 88.976 47.472C88.3787 47.952 87.6107 48.192 86.672 48.192ZM86.672 41.008C86.032 41.008 85.4613 41.2053 84.96 41.6C84.4693 41.984 84.1867 42.5493 84.112 43.296H89.104C89.072 42.5813 88.8267 42.0213 88.368 41.616C87.9093 41.2107 87.344 41.008 86.672 41.008ZM92.2134 51.52V40.064H93.4294L93.5574 41.376C93.8134 40.992 94.176 40.6453 94.6454 40.336C95.1254 40.0267 95.7334 39.872 96.4694 39.872C97.2587 39.872 97.9467 40.0533 98.5334 40.416C99.12 40.7787 99.5734 41.2747 99.8934 41.904C100.224 42.5333 100.389 43.248 100.389 44.048C100.389 44.848 100.224 45.5627 99.8934 46.192C99.5734 46.8107 99.1147 47.3013 98.5174 47.664C97.9307 48.016 97.2427 48.192 96.4534 48.192C95.8027 48.192 95.2214 48.0587 94.7094 47.792C94.208 47.5253 93.824 47.152 93.5574 46.672V51.52H92.2134ZM96.3094 47.024C96.8427 47.024 97.312 46.9013 97.7174 46.656C98.1227 46.4 98.4427 46.048 98.6774 45.6C98.912 45.152 99.0294 44.6293 99.0294 44.032C99.0294 43.4347 98.912 42.912 98.6774 42.464C98.4427 42.016 98.1227 41.6693 97.7174 41.424C97.312 41.168 96.8427 41.04 96.3094 41.04C95.776 41.04 95.3067 41.168 94.9014 41.424C94.496 41.6693 94.176 42.016 93.9414 42.464C93.7067 42.912 93.5894 43.4347 93.5894 44.032C93.5894 44.6293 93.7067 45.152 93.9414 45.6C94.176 46.048 94.496 46.4 94.9014 46.656C95.3067 46.9013 95.776 47.024 96.3094 47.024ZM104.9 48.192C104.239 48.192 103.69 48.08 103.252 47.856C102.815 47.632 102.49 47.3333 102.276 46.96C102.063 46.5867 101.956 46.1813 101.956 45.744C101.956 44.9333 102.266 44.3093 102.884 43.872C103.503 43.4347 104.346 43.216 105.412 43.216H107.556V43.12C107.556 42.4267 107.375 41.904 107.012 41.552C106.65 41.1893 106.164 41.008 105.556 41.008C105.034 41.008 104.58 41.1413 104.196 41.408C103.823 41.664 103.588 42.0427 103.492 42.544H102.116C102.17 41.968 102.362 41.4827 102.692 41.088C103.034 40.6933 103.455 40.3947 103.956 40.192C104.458 39.9787 104.991 39.872 105.556 39.872C106.666 39.872 107.498 40.1707 108.052 40.768C108.618 41.3547 108.9 42.1387 108.9 43.12V48H107.7L107.62 46.576C107.396 47.024 107.066 47.408 106.628 47.728C106.202 48.0373 105.626 48.192 104.9 48.192ZM105.108 47.056C105.62 47.056 106.058 46.9227 106.42 46.656C106.794 46.3893 107.076 46.0427 107.268 45.616C107.46 45.1893 107.556 44.7413 107.556 44.272V44.256H105.524C104.735 44.256 104.175 44.3947 103.844 44.672C103.524 44.9387 103.364 45.2747 103.364 45.68C103.364 46.096 103.514 46.432 103.812 46.688C104.122 46.9333 104.554 47.056 105.108 47.056ZM111.733 38.304C111.466 38.304 111.242 38.2187 111.061 38.048C110.89 37.8667 110.805 37.6427 110.805 37.376C110.805 37.12 110.89 36.9067 111.061 36.736C111.242 36.5653 111.466 36.48 111.733 36.48C111.989 36.48 112.207 36.5653 112.389 36.736C112.57 36.9067 112.661 37.12 112.661 37.376C112.661 37.6427 112.57 37.8667 112.389 38.048C112.207 38.2187 111.989 38.304 111.733 38.304ZM111.061 48V40.064H112.405V48H111.061ZM114.745 48V40.064H115.961L116.073 41.584C116.318 41.0613 116.691 40.6453 117.193 40.336C117.694 40.0267 118.313 39.872 119.049 39.872V41.28H118.681C118.211 41.28 117.779 41.3653 117.385 41.536C116.99 41.696 116.675 41.9733 116.441 42.368C116.206 42.7627 116.089 43.3067 116.089 44V48H114.745ZM121.373 38.304C121.106 38.304 120.882 38.2187 120.701 38.048C120.53 37.8667 120.445 37.6427 120.445 37.376C120.445 37.12 120.53 36.9067 120.701 36.736C120.882 36.5653 121.106 36.48 121.373 36.48C121.629 36.48 121.848 36.5653 122.029 36.736C122.21 36.9067 122.301 37.12 122.301 37.376C122.301 37.6427 122.21 37.8667 122.029 38.048C121.848 38.2187 121.629 38.304 121.373 38.304ZM120.701 48V40.064H122.045V48H120.701ZM124.385 48V40.064H125.601L125.681 41.488C125.937 40.9867 126.305 40.592 126.785 40.304C127.265 40.016 127.809 39.872 128.417 39.872C129.356 39.872 130.103 40.16 130.657 40.736C131.223 41.3013 131.505 42.176 131.505 43.36V48H130.161V43.504C130.161 41.8507 129.479 41.024 128.113 41.024C127.431 41.024 126.86 41.2747 126.401 41.776C125.953 42.2667 125.729 42.9707 125.729 43.888V48H124.385ZM136.678 45.504C136.23 45.504 135.819 45.4453 135.446 45.328L134.646 46.08C134.763 46.1653 134.907 46.24 135.078 46.304C135.259 46.3573 135.515 46.4107 135.846 46.464C136.176 46.5067 136.64 46.5547 137.238 46.608C138.304 46.6827 139.067 46.928 139.526 47.344C139.984 47.76 140.214 48.304 140.214 48.976C140.214 49.4347 140.086 49.872 139.83 50.288C139.584 50.704 139.2 51.0453 138.678 51.312C138.166 51.5787 137.504 51.712 136.694 51.712C135.979 51.712 135.344 51.616 134.789 51.424C134.235 51.2427 133.803 50.96 133.493 50.576C133.184 50.2027 133.03 49.728 133.03 49.152C133.03 48.8533 133.11 48.528 133.27 48.176C133.43 47.8347 133.728 47.5093 134.166 47.2C133.931 47.104 133.728 47.0027 133.558 46.896C133.398 46.7787 133.248 46.6507 133.11 46.512V46.144L134.47 44.8C133.84 44.2667 133.526 43.5627 133.526 42.688C133.526 42.1653 133.648 41.6907 133.894 41.264C134.139 40.8373 134.496 40.5013 134.966 40.256C135.435 40 136.006 39.872 136.678 39.872C137.136 39.872 137.552 39.936 137.926 40.064H140.854V41.072L139.366 41.136C139.675 41.584 139.83 42.1013 139.83 42.688C139.83 43.2107 139.702 43.6853 139.446 44.112C139.2 44.5387 138.843 44.88 138.374 45.136C137.915 45.3813 137.35 45.504 136.678 45.504ZM136.678 44.4C137.243 44.4 137.691 44.256 138.022 43.968C138.363 43.6693 138.534 43.2427 138.534 42.688C138.534 42.144 138.363 41.728 138.022 41.44C137.691 41.1413 137.243 40.992 136.678 40.992C136.102 40.992 135.643 41.1413 135.302 41.44C134.971 41.728 134.806 42.144 134.806 42.688C134.806 43.2427 134.971 43.6693 135.302 43.968C135.643 44.256 136.102 44.4 136.678 44.4ZM134.342 49.024C134.342 49.5573 134.566 49.952 135.014 50.208C135.462 50.4747 136.022 50.608 136.694 50.608C137.355 50.608 137.883 50.464 138.278 50.176C138.683 49.888 138.886 49.504 138.886 49.024C138.886 48.6827 138.747 48.384 138.47 48.128C138.192 47.8827 137.68 47.7387 136.934 47.696C136.347 47.6533 135.84 47.6 135.414 47.536C134.976 47.7707 134.688 48.0213 134.549 48.288C134.411 48.5653 134.342 48.8107 134.342 49.024ZM150.252 48.192C149.431 48.192 148.716 48.0427 148.108 47.744C147.5 47.4453 147.031 47.0293 146.7 46.496C146.369 45.9627 146.204 45.344 146.204 44.64H147.612C147.612 45.0773 147.713 45.4827 147.916 45.856C148.119 46.2187 148.412 46.512 148.796 46.736C149.191 46.9493 149.676 47.056 150.252 47.056C151.009 47.056 151.596 46.8747 152.012 46.512C152.428 46.1493 152.636 45.696 152.636 45.152C152.636 44.704 152.54 44.3467 152.348 44.08C152.156 43.8027 151.895 43.5787 151.564 43.408C151.244 43.2373 150.871 43.088 150.444 42.96C150.028 42.832 149.591 42.688 149.132 42.528C148.268 42.2293 147.628 41.8613 147.212 41.424C146.796 40.976 146.588 40.3947 146.588 39.68C146.577 39.0827 146.716 38.5547 147.004 38.096C147.292 37.6267 147.697 37.264 148.22 37.008C148.753 36.7413 149.383 36.608 150.108 36.608C150.823 36.608 151.441 36.7413 151.964 37.008C152.497 37.2747 152.908 37.6427 153.196 38.112C153.495 38.5813 153.649 39.1147 153.66 39.712H152.252C152.252 39.4027 152.172 39.0987 152.012 38.8C151.852 38.4907 151.607 38.24 151.276 38.048C150.956 37.856 150.551 37.76 150.06 37.76C149.452 37.7493 148.951 37.904 148.556 38.224C148.172 38.544 147.98 38.9867 147.98 39.552C147.98 40.032 148.113 40.4 148.38 40.656C148.657 40.912 149.041 41.1253 149.532 41.296C150.023 41.456 150.588 41.6427 151.228 41.856C151.761 42.048 152.241 42.272 152.668 42.528C153.095 42.784 153.425 43.1147 153.66 43.52C153.905 43.9253 154.028 44.4427 154.028 45.072C154.028 45.6053 153.889 46.112 153.612 46.592C153.335 47.0613 152.913 47.4453 152.348 47.744C151.793 48.0427 151.095 48.192 150.252 48.192ZM159.422 48.192C158.665 48.192 157.993 48.0213 157.406 47.68C156.819 47.328 156.355 46.8427 156.014 46.224C155.683 45.6053 155.518 44.8747 155.518 44.032C155.518 43.2 155.683 42.4747 156.014 41.856C156.345 41.2267 156.803 40.7413 157.39 40.4C157.987 40.048 158.675 39.872 159.454 39.872C160.222 39.872 160.883 40.048 161.438 40.4C162.003 40.7413 162.435 41.1947 162.734 41.76C163.033 42.3253 163.182 42.9333 163.182 43.584C163.182 43.7013 163.177 43.8187 163.166 43.936C163.166 44.0533 163.166 44.1867 163.166 44.336H156.846C156.878 44.944 157.017 45.4507 157.262 45.856C157.518 46.2507 157.833 46.5493 158.206 46.752C158.59 46.9547 158.995 47.056 159.422 47.056C159.977 47.056 160.441 46.928 160.814 46.672C161.187 46.416 161.459 46.0693 161.63 45.632H162.958C162.745 46.368 162.334 46.9813 161.726 47.472C161.129 47.952 160.361 48.192 159.422 48.192ZM159.422 41.008C158.782 41.008 158.211 41.2053 157.71 41.6C157.219 41.984 156.937 42.5493 156.862 43.296H161.854C161.822 42.5813 161.577 42.0213 161.118 41.616C160.659 41.2107 160.094 41.008 159.422 41.008ZM164.963 48V40.064H166.179L166.291 41.584C166.537 41.0613 166.91 40.6453 167.411 40.336C167.913 40.0267 168.531 39.872 169.267 39.872V41.28H168.899C168.43 41.28 167.998 41.3653 167.603 41.536C167.209 41.696 166.894 41.9733 166.659 42.368C166.425 42.7627 166.307 43.3067 166.307 44V48H164.963ZM173.064 48L170.056 40.064H171.464L173.848 46.704L176.248 40.064H177.624L174.616 48H173.064ZM179.936 38.304C179.669 38.304 179.445 38.2187 179.264 38.048C179.093 37.8667 179.008 37.6427 179.008 37.376C179.008 37.12 179.093 36.9067 179.264 36.736C179.445 36.5653 179.669 36.48 179.936 36.48C180.192 36.48 180.41 36.5653 180.592 36.736C180.773 36.9067 180.864 37.12 180.864 37.376C180.864 37.6427 180.773 37.8667 180.592 38.048C180.41 38.2187 180.192 38.304 179.936 38.304ZM179.264 48V40.064H180.608V48H179.264ZM186.596 48.192C185.838 48.192 185.156 48.0213 184.548 47.68C183.95 47.328 183.476 46.8427 183.124 46.224C182.782 45.5947 182.612 44.864 182.612 44.032C182.612 43.2 182.782 42.4747 183.124 41.856C183.476 41.2267 183.95 40.7413 184.548 40.4C185.156 40.048 185.838 39.872 186.596 39.872C187.534 39.872 188.324 40.1173 188.964 40.608C189.614 41.0987 190.025 41.7547 190.196 42.576H188.82C188.713 42.0853 188.452 41.7067 188.036 41.44C187.62 41.1627 187.134 41.024 186.58 41.024C186.132 41.024 185.71 41.136 185.316 41.36C184.921 41.584 184.601 41.92 184.356 42.368C184.11 42.816 183.988 43.3707 183.988 44.032C183.988 44.6933 184.11 45.248 184.356 45.696C184.601 46.144 184.921 46.4853 185.316 46.72C185.71 46.944 186.132 47.056 186.58 47.056C187.134 47.056 187.62 46.9227 188.036 46.656C188.452 46.3787 188.713 45.9893 188.82 45.488H190.196C190.036 46.288 189.63 46.9387 188.98 47.44C188.329 47.9413 187.534 48.192 186.596 48.192ZM195.641 48.192C194.883 48.192 194.211 48.0213 193.625 47.68C193.038 47.328 192.574 46.8427 192.233 46.224C191.902 45.6053 191.737 44.8747 191.737 44.032C191.737 43.2 191.902 42.4747 192.233 41.856C192.563 41.2267 193.022 40.7413 193.609 40.4C194.206 40.048 194.894 39.872 195.673 39.872C196.441 39.872 197.102 40.048 197.657 40.4C198.222 40.7413 198.654 41.1947 198.953 41.76C199.251 42.3253 199.401 42.9333 199.401 43.584C199.401 43.7013 199.395 43.8187 199.385 43.936C199.385 44.0533 199.385 44.1867 199.385 44.336H193.065C193.097 44.944 193.235 45.4507 193.481 45.856C193.737 46.2507 194.051 46.5493 194.425 46.752C194.809 46.9547 195.214 47.056 195.641 47.056C196.195 47.056 196.659 46.928 197.033 46.672C197.406 46.416 197.678 46.0693 197.849 45.632H199.177C198.963 46.368 198.553 46.9813 197.945 47.472C197.347 47.952 196.579 48.192 195.641 48.192ZM195.641 41.008C195.001 41.008 194.43 41.2053 193.929 41.6C193.438 41.984 193.155 42.5493 193.081 43.296H198.073C198.041 42.5813 197.795 42.0213 197.337 41.616C196.878 41.2107 196.313 41.008 195.641 41.008ZM204.222 48.192C203.273 48.192 202.483 47.952 201.854 47.472C201.225 46.992 200.857 46.3413 200.75 45.52H202.126C202.211 45.936 202.43 46.2987 202.782 46.608C203.145 46.9067 203.63 47.056 204.238 47.056C204.803 47.056 205.219 46.9387 205.486 46.704C205.753 46.4587 205.886 46.1707 205.886 45.84C205.886 45.36 205.71 45.04 205.358 44.88C205.017 44.72 204.531 44.576 203.902 44.448C203.475 44.3627 203.049 44.24 202.622 44.08C202.195 43.92 201.838 43.696 201.55 43.408C201.262 43.1093 201.118 42.72 201.118 42.24C201.118 41.5467 201.374 40.9813 201.886 40.544C202.409 40.096 203.113 39.872 203.998 39.872C204.841 39.872 205.529 40.0853 206.062 40.512C206.606 40.928 206.921 41.5253 207.006 42.304H205.678C205.625 41.8987 205.449 41.584 205.15 41.36C204.862 41.1253 204.473 41.008 203.982 41.008C203.502 41.008 203.129 41.1093 202.862 41.312C202.606 41.5147 202.478 41.7813 202.478 42.112C202.478 42.432 202.643 42.6827 202.974 42.864C203.315 43.0453 203.774 43.2 204.35 43.328C204.841 43.4347 205.305 43.568 205.742 43.728C206.19 43.8773 206.553 44.1067 206.83 44.416C207.118 44.7147 207.262 45.152 207.262 45.728C207.273 46.4427 207.001 47.0347 206.446 47.504C205.902 47.9627 205.161 48.192 204.222 48.192Z" fill="#FF5500"/>
<defs>
<clipPath id="clip0_6078_2270">
<rect width="53" height="54" fill="white"/>
</clipPath>
</defs>
</svg>
