<svg width="121" height="24" viewBox="0 0 121 24" fill="none" xmlns="http://www.w3.org/2000/svg">
<path d="M45.252 2.105C47.2353 2.105 48.7403 2.525 49.767 3.365C50.7936 4.205 51.307 5.45333 51.307 7.11C51.307 8.34667 50.8636 9.39667 49.977 10.26C49.1136 11.1 47.947 11.6483 46.477 11.905C47.5736 11.905 48.577 12.1383 49.487 12.605C50.397 13.0717 51.1203 13.725 51.657 14.565C52.1936 15.3817 52.462 16.3033 52.462 17.33C52.462 21.11 49.8836 23 44.727 23H34.367V21.705L36.047 21.775C36.4203 21.775 36.607 21.5183 36.607 21.005V4.03C36.607 3.86667 36.5486 3.715 36.432 3.575C36.3386 3.41167 36.1986 3.33 36.012 3.33L34.367 3.4V2.105H45.252ZM41.857 3.33C41.6236 3.33 41.4836 3.47 41.437 3.75V11.485H43.257C44.3303 11.485 45.1236 11.1583 45.637 10.505C46.1503 9.82833 46.407 8.755 46.407 7.285C46.407 4.64833 45.3336 3.33 43.187 3.33H41.857ZM41.437 12.71V21.285C41.437 21.5883 41.6003 21.74 41.927 21.74H43.642C44.832 21.74 45.7653 21.3667 46.442 20.62C47.142 19.8733 47.492 18.7533 47.492 17.26C47.492 15.6733 47.212 14.5183 46.652 13.795C46.092 13.0717 45.2403 12.71 44.097 12.71H41.437ZM57.8539 0.00499982C58.6472 0.00499982 59.2889 0.203333 59.7789 0.599998C60.2922 0.996666 60.5489 1.52167 60.5489 2.175C60.5489 2.85167 60.2922 3.38833 59.7789 3.785C59.2889 4.18167 58.6472 4.38 57.8539 4.38C57.0605 4.38 56.4072 4.18167 55.8939 3.785C55.4039 3.38833 55.1589 2.85167 55.1589 2.175C55.1589 1.52167 55.4039 0.996666 55.8939 0.599998C56.4072 0.203333 57.0605 0.00499982 57.8539 0.00499982ZM60.2339 21.215C60.2339 21.6817 60.3855 21.9033 60.6889 21.88L61.8439 21.81V23H54.0389V21.81L55.1939 21.88H55.2639C55.5205 21.88 55.6489 21.6583 55.6489 21.215V9.91C55.6489 9.51333 55.5089 9.28 55.2289 9.21L54.0739 9.28V8.125H60.2339V21.215ZM63.2332 15.545C63.2332 13.025 63.8865 11.1 65.1932 9.77C66.4999 8.44 68.4599 7.775 71.0732 7.775C73.7099 7.775 75.6699 8.44 76.9532 9.77C78.2365 11.1 78.8782 13.025 78.8782 15.545C78.8782 20.7483 76.2765 23.35 71.0732 23.35C68.4599 23.35 66.4999 22.685 65.1932 21.355C63.8865 20.025 63.2332 18.0883 63.2332 15.545ZM68.1332 15.615C68.1332 17.9717 68.3549 19.6517 68.7982 20.655C69.2649 21.635 70.0232 22.125 71.0732 22.125C72.1232 22.125 72.8699 21.635 73.3132 20.655C73.7565 19.675 73.9782 17.995 73.9782 15.615C73.9782 13.1883 73.7565 11.4733 73.3132 10.47C72.8699 9.46667 72.1232 8.965 71.0732 8.965C70.0232 8.965 69.2649 9.46667 68.7982 10.47C68.3549 11.4733 68.1332 13.1883 68.1332 15.615ZM98.0689 21.81V23H90.0889V21.81L91.4189 21.88C91.7222 21.81 91.8739 21.5883 91.8739 21.215V12.745C91.8739 11.5317 91.7689 10.68 91.5589 10.19C91.3722 9.67667 90.9289 9.42 90.2289 9.42C89.6222 9.42 89.0272 9.67667 88.4439 10.19C87.8839 10.7033 87.4172 11.4617 87.0439 12.465C86.6705 13.4683 86.4839 14.67 86.4839 16.07V21.215C86.4839 21.6583 86.6355 21.88 86.9389 21.88L88.3039 21.81V23H80.2889V21.81L81.4439 21.88C81.7472 21.81 81.8989 21.5883 81.8989 21.215V9.91C81.8989 9.51333 81.7472 9.28 81.4439 9.21L80.2889 9.28V8.125H86.6589C86.5422 8.475 86.4839 8.88333 86.4839 9.35V11.31C86.9972 10.19 87.7089 9.32667 88.6189 8.72C89.5522 8.09 90.6489 7.775 91.9089 7.775C93.4955 7.775 94.6505 8.18333 95.3739 9C96.0972 9.79333 96.4589 11.0533 96.4589 12.78V21.215C96.4589 21.6583 96.6105 21.88 96.9139 21.88L98.0689 21.81ZM107.101 7.775C109.224 7.775 110.916 8.35833 112.176 9.525C113.459 10.6683 114.113 12.3017 114.136 14.425V15.72H104.056C104.056 17.7267 104.418 19.255 105.141 20.305C105.888 21.355 106.996 21.8917 108.466 21.915C109.563 21.915 110.508 21.6467 111.301 21.11C112.094 20.55 112.678 19.8733 113.051 19.08L113.996 19.745C113.459 20.8883 112.596 21.775 111.406 22.405C110.239 23.035 108.828 23.35 107.171 23.35C104.394 23.35 102.364 22.72 101.081 21.46C99.7977 20.2 99.1561 18.2517 99.1561 15.615C99.1561 12.9317 99.8211 10.96 101.151 9.7C102.481 8.41667 104.464 7.775 107.101 7.775ZM106.996 8.965C105.993 8.965 105.258 9.49 104.791 10.54C104.324 11.5667 104.091 12.9083 104.091 14.565H108.746C108.979 14.565 109.154 14.4833 109.271 14.32C109.388 14.1567 109.446 13.8533 109.446 13.41C109.446 11.8933 109.248 10.7733 108.851 10.05C108.478 9.32667 107.859 8.965 106.996 8.965Z" fill="white"/>
<path d="M6.19835 1C6.70266 1.1221 7.22991 1.19078 7.71894 1.37392C9.46114 2.03019 10.7143 3.19011 11.2492 5.01394C11.3562 5.38786 11.4096 5.7923 11.4096 6.18149C11.4249 8.21135 11.4173 10.2336 11.4173 12.2634C11.4173 12.3016 11.4096 12.3397 11.4096 12.4084C11.3179 12.4084 11.2339 12.4084 11.1498 12.4084C9.24718 12.4084 7.34452 12.3932 5.44187 12.4161C3.63854 12.439 2.24785 11.653 1.201 10.2565C0.276418 9.02787 -0.120924 7.64665 0.0319 6.11281C0.284059 3.57167 2.28605 1.46549 4.81529 1.08394C4.96047 1.06105 5.10565 1.03052 5.25084 1C5.57177 1 5.88506 1 6.19835 1Z" fill="#FE5B2C"/>
<path d="M23.0019 19.223C22.8873 19.6961 22.8109 20.1921 22.6428 20.65C21.8175 22.9164 19.38 24.3205 16.9959 23.9084C15.2919 23.6108 13.9777 22.7256 13.1295 21.207C12.778 20.5737 12.6328 19.8792 12.6328 19.1619C12.6328 17.3991 12.6328 15.6364 12.6328 13.866C12.6328 13.6828 12.6787 13.6294 12.8697 13.6294C14.6348 13.637 16.3999 13.6218 18.1727 13.637C19.9989 13.6447 21.2979 14.5604 22.2302 16.0637C22.6351 16.7123 22.872 17.4297 22.9561 18.1851C22.9637 18.2386 22.9866 18.2843 22.9943 18.3301C23.0019 18.6201 23.0019 18.9177 23.0019 19.223Z" fill="#FE5B2C"/>
<path d="M11.4175 13.6371C11.4175 13.7363 11.4175 13.8202 11.4175 13.9041C11.4175 15.5982 11.4022 17.3 11.4252 18.9941C11.4481 20.856 10.5923 22.222 9.04875 23.1606C7.39825 24.1679 5.65606 24.2748 3.91387 23.3972C2.35506 22.6112 1.39227 21.3292 1.14775 19.6045C0.834466 17.4144 1.62915 15.644 3.44011 14.3544C4.15075 13.8507 4.96071 13.6218 5.82417 13.6218C7.64277 13.6142 9.46138 13.6218 11.28 13.6218C11.3105 13.6294 11.3411 13.6371 11.4175 13.6371Z" fill="#FE5B2C"/>
<path d="M12.6401 12.3932C12.6401 12.2864 12.6401 12.2024 12.6401 12.1108C12.6401 10.7601 12.6783 9.40182 12.6325 8.05112C12.5484 5.67786 14.5122 4.15928 16.2391 3.91509C18.3634 3.60984 20.2737 4.7545 20.9843 6.78436C21.7714 9.005 20.4494 11.6377 18.2106 12.2787C17.9355 12.355 17.6375 12.4008 17.3471 12.4008C15.8265 12.4161 14.3059 12.4085 12.7853 12.4085C12.7547 12.4008 12.7165 12.4008 12.6401 12.3932Z" fill="#FE5B2C"/>
</svg>
