<svg width="385" height="345" viewBox="0 0 385 345" fill="none" xmlns="http://www.w3.org/2000/svg">
<g opacity="0.1">
<path d="M171.642 344.685C212.271 344.685 245.207 325.637 245.207 302.14C245.207 278.644 212.271 259.596 171.642 259.596C131.014 259.596 98.0781 278.644 98.0781 302.14C98.0781 325.637 131.014 344.685 171.642 344.685Z" fill="#1D1D1B"/>
</g>
<path opacity="0.1" d="M269.055 262.208L327.407 295.937L383.438 263.533L325.086 229.805L269.055 262.208Z" fill="#1D1D1B"/>
<path d="M276.432 264.266C277.5 264.266 278.416 263.453 278.521 262.367L283.931 206.701L320.153 185.755L325.318 232.914C325.445 234.069 326.483 234.896 327.636 234.776C328.788 234.649 329.621 233.61 329.495 232.455L323.627 178.887L279.959 204.141L274.338 261.959C274.225 263.116 275.072 264.144 276.225 264.257C276.296 264.264 276.365 264.266 276.432 264.266Z" fill="#3C3C3B"/>
<path d="M332.966 100.734C332.425 100.437 331.783 100.488 331.074 100.902C329.678 101.698 328.552 103.509 328.384 105.146L321.564 172.25C321.413 173.718 320.393 175.348 319.185 176.042L281.571 197.896C278.723 199.553 276.419 203.55 276.41 206.85L276.417 207.793L326.958 237.02L374.153 205.416L383.44 129.908L333.037 100.776L332.966 100.734Z" fill="#FF5500"/>
<path d="M326.971 293.491C328.039 293.491 328.952 292.678 329.06 291.592L334.47 235.926L370.692 214.98L375.858 262.137C375.984 263.291 377.022 264.119 378.175 263.999C379.327 263.872 380.16 262.833 380.034 261.678L374.166 208.109L330.499 233.363L324.877 291.182C324.765 292.339 325.611 293.367 326.764 293.48C326.835 293.487 326.904 293.491 326.971 293.491Z" fill="#3C3C3B"/>
<path d="M326.953 237.013L377.439 207.816L384.24 132.001C384.413 130.086 383.182 129.21 381.603 130.123C380.211 130.927 379.082 132.734 378.916 134.366L372.091 201.473C371.942 202.943 370.927 204.57 369.721 205.271L332.103 227.123C329.256 228.776 326.953 232.779 326.953 236.07V237.013Z" fill="#C43E3D"/>
<path d="M0.210938 142.341L96.5157 86.6477L96.5134 0.00976562L0.210938 55.7009V142.341Z" fill="#C2E1FF"/>
<path d="M0.210938 139.409L94.1779 85.0663L78.8765 76.1582L0.210938 121.653V139.409Z" fill="#EDEDED"/>
<path d="M0.210938 139.41V144.708L98.7891 87.6988L98.49 -1.80859L93.8926 0.848819L94.1779 85.0667L0.210938 139.41Z" fill="white"/>
<path d="M93.8914 0.847656L78.6406 9.66823L78.8753 76.1598L94.1768 85.0655L93.8914 0.847656Z" fill="#C5C5C5"/>
<path d="M44.7057 87.6693L40.8125 85.4037C38.4034 84.0023 36.91 81.0222 36.8985 76.7883C36.8732 68.2582 42.8626 57.875 50.2671 53.5926C53.997 51.4353 57.3748 51.2348 59.8139 52.6546L63.7048 54.9202C61.2658 53.5004 57.8903 53.7033 54.1604 55.8583C46.7559 60.1406 40.7664 70.5215 40.7918 79.0539C40.8056 83.2878 42.2989 86.268 44.7057 87.6693Z" fill="#878787"/>
<path d="M54.2452 86.7346C46.8407 91.017 40.8144 87.576 40.7891 79.0551C40.7661 70.525 46.7532 60.1417 54.1578 55.8594C61.5692 51.5747 67.5885 55.0112 67.6138 63.5413C67.6391 72.0622 61.6589 82.4477 54.2452 86.7346Z" fill="#CCCCCC"/>
<path d="M53.6535 81.6679C48.8192 84.8393 45.1491 82.7489 45.4598 76.9984C45.7704 71.2432 49.942 64.0107 54.7741 60.8393C59.6107 57.6633 63.2762 59.7538 62.9678 65.5066C62.6572 71.2548 58.4902 78.4919 53.6535 81.6679Z" fill="#A8A8A8"/>
<path d="M149.192 244.296L162.354 221.462L123.028 198.721C117.294 195.404 111.87 185.996 111.87 179.362V117.819C111.873 101.787 101.419 83.6458 87.5514 75.6274L60.7313 59.791L47.4961 82.5949L74.3898 98.4634C80.1261 101.782 85.5495 111.186 85.5495 117.819V179.365C85.5495 195.399 96.0051 213.538 109.868 221.557L149.192 244.296Z" fill="#A8A8A8"/>
<path d="M252.607 220.133L252.439 281.388L250.494 282.519L229.001 295.016L227.043 296.159L227.225 234.914L252.607 220.133Z" fill="#C6C6C6"/>
<path d="M225.957 227.567L251.346 212.789C252.184 215.34 252.623 217.848 252.616 220.134L227.227 234.913C227.232 232.629 226.795 230.121 225.957 227.567Z" fill="#DADADA"/>
<path d="M243.207 188.103C242.241 185.176 240.174 182.47 237.905 181.156L202.94 160.934C202.091 160.443 201.322 160.397 200.768 160.719L175.379 175.498C175.933 175.175 176.702 175.221 177.551 175.712L212.517 195.932C214.785 197.246 216.852 199.95 217.818 202.879L225.957 227.571L251.345 212.792L243.207 188.103Z" fill="#EDEDED"/>
<path d="M220.096 202.13C218.941 198.633 216.495 195.464 213.713 193.855L181.062 174.974L201.663 162.982C201.684 162.994 236.7 183.242 236.7 183.242C238.449 184.253 240.147 186.512 240.925 188.861L248.451 211.697L227.305 224.005L220.096 202.13Z" fill="#DADADA"/>
<path d="M212.515 195.939C214.784 197.252 216.85 199.956 217.816 202.885L225.955 227.577C226.792 230.128 227.23 232.636 227.225 234.922L227.052 296.168L174.238 265.625L174.489 177.466C174.494 175.525 175.863 174.744 177.549 175.718L212.515 195.939Z" fill="#B7B7B7"/>
<path d="M216.176 233.444L220.41 230.98L220.235 292.217L216.004 294.681L216.176 233.444Z" fill="#DADADA"/>
<path d="M215.719 230.757L219.95 228.293C220.263 229.233 220.413 230.144 220.41 230.98L216.179 233.444C216.184 232.608 216.032 231.697 215.719 230.757Z" fill="#DADADA"/>
<path d="M170.238 186.214L174.47 183.75L211.315 205.058L207.084 207.522L170.238 186.214Z" fill="#DADADA"/>
<path d="M208.801 209.772L213.032 207.311L219.944 228.296L215.713 230.757L208.801 209.772Z" fill="#DADADA"/>
<path d="M207.074 207.522L211.306 205.059C212.042 205.485 212.716 206.368 213.027 207.308L208.795 209.772C208.482 208.832 207.811 207.947 207.074 207.522Z" fill="#DADADA"/>
<path d="M207.078 207.523C207.814 207.949 208.486 208.832 208.799 209.775L215.711 230.76C216.024 231.7 216.174 232.608 216.171 233.447L215.999 294.686L170 268.084L170.232 186.215L207.078 207.523Z" fill="#9D9D9C"/>
<path d="M192.287 236.634L192.28 238.778L174.379 228.425L174.386 226.281L192.287 236.634Z" fill="#3C3C3C"/>
<path d="M192.379 203.722L192.372 205.93L174.473 195.577L174.477 193.371L192.379 203.722Z" fill="#3C3C3C"/>
<path d="M192.18 273.577L192.175 275.785L174.273 265.432L174.28 263.227L192.18 273.577Z" fill="#3C3C3C"/>
<path d="M192.187 269.476L192.183 271.619L174.281 261.268L174.288 259.125L192.187 269.476Z" fill="#3C3C3C"/>
<path d="M192.207 265.369L192.202 267.522L174.301 257.171L174.308 255.016L192.207 265.369Z" fill="#3C3C3C"/>
<path d="M192.219 261.259L192.214 263.403L174.312 253.052L174.319 250.906L192.219 261.259Z" fill="#3C3C3C"/>
<path d="M192.226 257.16L192.222 259.303L174.32 248.95L174.327 246.807L192.226 257.16Z" fill="#3C3C3C"/>
<path d="M192.234 253.056L192.23 255.202L174.328 244.849L174.335 242.705L192.234 253.056Z" fill="#3C3C3C"/>
<path d="M192.26 248.939L192.253 251.085L174.352 240.731L174.358 238.588L192.26 248.939Z" fill="#3C3C3C"/>
<path d="M192.268 244.839L192.261 246.983L174.359 236.632L174.366 234.488L192.268 244.839Z" fill="#3C3C3C"/>
<path d="M192.272 240.738L192.265 242.881L174.363 232.528L174.37 230.385L192.272 240.738Z" fill="#3C3C3C"/>
<path d="M192.295 232.521L192.288 234.665L174.387 224.311L174.394 222.168L192.295 232.521Z" fill="#3C3C3C"/>
<path d="M192.311 228.417L192.304 230.563L174.402 220.21L174.409 218.066L192.311 228.417Z" fill="#3C3C3C"/>
<path d="M192.319 224.318L192.312 226.461L174.41 216.11L174.417 213.967L192.319 224.318Z" fill="#3C3C3C"/>
<path d="M192.334 220.205L192.327 222.348L174.426 211.997L174.433 209.852L192.334 220.205Z" fill="#3C3C3C"/>
<path d="M192.355 212L192.348 214.143L174.449 203.79L174.454 201.646L192.355 212Z" fill="#3C3C3C"/>
<path d="M208.949 221.592L209.826 224.247L194.039 215.118L194.046 212.975L208.949 221.592Z" fill="#3C3C3C"/>
<path d="M211.911 231.53L211.906 233.674L194.012 223.327L194.019 221.182L211.911 231.53Z" fill="#3C3C3C"/>
<path d="M211.888 239.741L211.881 241.884L193.988 231.538L193.995 229.395L211.888 239.741Z" fill="#3C3C3C"/>
<path d="M207.271 216.516L208.147 219.169L194.047 211.017L194.054 208.873L207.271 216.516Z" fill="#3C3C3C"/>
<path d="M205.569 211.349L206.468 214.078L194.055 206.901L194.062 204.695L205.569 211.349Z" fill="#3C3C3C"/>
<path d="M210.624 226.669L211.499 229.322L194.027 219.218L194.034 217.074L210.624 226.669Z" fill="#3C3C3C"/>
<path d="M192.371 207.894L192.364 210.04L174.465 199.686L174.469 197.543L192.371 207.894Z" fill="#3C3C3C"/>
<path d="M192.34 216.105L192.333 218.249L174.434 207.895L174.438 205.752L192.34 216.105Z" fill="#3C3C3C"/>
<path d="M211.817 264.38L211.81 266.525L193.918 256.177L193.925 254.033L211.817 264.38Z" fill="#3C3C3C"/>
<path d="M211.841 256.169L211.834 258.312L193.941 247.966L193.948 245.82L211.841 256.169Z" fill="#3C3C3C"/>
<path d="M211.763 284.905L211.756 287.111L193.863 276.764L193.868 274.559L211.763 284.905Z" fill="#3C3C3C"/>
<path d="M211.77 280.802L211.763 282.945L193.871 272.599L193.876 270.453L211.77 280.802Z" fill="#3C3C3C"/>
<path d="M211.79 276.685L211.783 278.837L193.891 268.489L193.895 266.336L211.79 276.685Z" fill="#3C3C3C"/>
<path d="M211.798 272.585L211.791 274.728L193.898 264.382L193.903 262.236L211.798 272.585Z" fill="#3C3C3C"/>
<path d="M211.806 268.483L211.799 270.627L193.906 260.278L193.911 258.135L211.806 268.483Z" fill="#3C3C3C"/>
<path d="M211.837 260.266L211.83 262.41L193.938 252.063L193.942 249.92L211.837 260.266Z" fill="#3C3C3C"/>
<path d="M211.856 252.06L211.849 254.203L193.957 243.854L193.964 241.711L211.856 252.06Z" fill="#3C3C3C"/>
<path d="M211.868 247.958L211.861 250.101L193.969 239.753L193.976 237.609L211.868 247.958Z" fill="#3C3C3C"/>
<path d="M211.903 235.64L211.896 237.783L194.004 227.437L194.011 225.291L211.903 235.64Z" fill="#3C3C3C"/>
<path d="M211.88 243.846L211.875 245.992L193.98 235.643L193.987 233.5L211.88 243.846Z" fill="#3C3C3C"/>
<path d="M232.472 198.234L233.017 199.894C231.347 200.86 230.569 203.388 231.273 205.529C231.979 207.682 233.898 208.638 235.571 207.673C236.706 207.016 237.433 205.633 237.557 204.137L238.949 204.287C238.733 206.573 237.66 208.449 236.121 209.341C234.579 210.233 232.808 210 231.475 208.726C230.408 207.714 229.75 206.158 229.632 204.471C229.602 204.043 229.607 203.607 229.651 203.169C229.851 201.007 230.93 199.126 232.472 198.234Z" fill="#D73027"/>
<path d="M231.526 195.348C235.143 193.255 239.328 195.334 240.859 199.992C242.391 204.661 240.691 210.145 237.071 212.237C233.445 214.335 229.266 212.251 227.734 207.582C226.206 202.924 227.9 197.445 231.526 195.348ZM236.671 210.767C238.617 209.64 239.975 207.271 240.235 204.537C240.431 202.497 239.996 200.506 239.066 198.952L236.917 201.151C236.033 199.653 234.43 199.084 233.019 199.9L232.474 198.24C230.932 199.132 229.853 201.013 229.651 203.173C229.607 203.61 229.602 204.048 229.632 204.475L228.475 204.65C228.631 206.768 229.46 208.706 230.803 209.988C232.492 211.597 234.724 211.892 236.671 210.767Z" fill="#383838"/>
<path d="M233.023 199.898C234.434 199.083 236.038 199.652 236.921 201.15C237.08 201.417 237.214 201.717 237.322 202.042C237.545 202.724 237.618 203.446 237.563 204.142C237.441 205.637 236.714 207.02 235.577 207.677C233.907 208.643 231.986 207.686 231.279 205.534C230.575 203.393 231.351 200.864 233.023 199.898Z" fill="#CCCCCC"/>
<path d="M228.473 204.655L229.63 204.48C229.747 206.167 230.405 207.72 231.473 208.734C232.803 210.009 234.577 210.239 236.119 209.35C237.66 208.458 238.73 206.582 238.942 204.417C238.949 204.298 237.557 204.145 237.557 204.145C237.614 203.449 237.541 202.728 237.315 202.046C237.209 201.721 237.074 201.423 236.915 201.154L239.064 198.955C239.994 200.509 240.428 202.5 240.233 204.54C239.973 207.275 238.615 209.645 236.669 210.77C234.722 211.897 232.49 211.602 230.804 209.993C229.46 208.711 228.631 206.771 228.473 204.655Z" fill="#95C11F"/>
<path d="M233.649 205.587C232.943 203.434 233.72 200.917 235.393 199.951C235.869 199.675 236.366 199.557 236.85 199.576L234.551 199.479C234.068 199.458 233.571 199.578 233.094 199.855C231.424 200.82 230.644 203.339 231.35 205.49C231.854 207.023 232.982 207.954 234.197 208.004L236.495 208.101C235.28 208.05 234.153 207.119 233.649 205.587Z" fill="white"/>
<path d="M235.392 199.951C237.062 198.985 238.983 199.941 239.69 202.092C240.394 204.233 239.618 206.761 237.946 207.727C236.275 208.693 234.352 207.727 233.647 205.584C232.941 203.433 233.719 200.916 235.392 199.951Z" fill="#DADADA"/>
<path d="M228.535 217.618C229.239 217.21 230.047 217.614 230.344 218.519C230.64 219.42 230.314 220.483 229.61 220.891C228.905 221.297 228.098 220.891 227.801 219.99C227.504 219.084 227.831 218.024 228.535 217.618Z" fill="#D73027"/>
<path d="M232.437 215.602C233.141 215.196 233.949 215.597 234.246 216.503C234.543 217.404 234.216 218.469 233.512 218.874C232.808 219.28 232 218.874 231.703 217.973C231.406 217.067 231.733 216.007 232.437 215.602Z" fill="#95C11F"/>
<path d="M250.557 273.065L250.497 282.519L229.004 295.016L229.075 285.575C229.124 277.937 233.205 270.889 239.786 267.054L240.003 266.934C244.71 264.189 250.594 267.616 250.557 273.065Z" fill="#575756"/>
<path d="M137.705 156.73C130.154 161.114 123.377 174.922 117.284 197.037C116.396 200.261 116.757 203.719 118.322 206.673L133.84 245.072L137.705 156.73Z" fill="white"/>
<path d="M197.205 286.875C177.921 296.861 156.559 300.441 134.538 302.725C122.762 302.725 121.957 277.476 128.011 275.418L147.486 269.404L200.85 283.328C199.895 284.614 198.685 285.798 197.205 286.875Z" fill="#305A82"/>
<path d="M133.028 280.613L119.802 281.33L111.388 280.795C104.185 281.69 103.435 299.315 105.145 315.347L118.371 323.672C122.876 323.43 124.006 323.107 127.398 320.54C128.827 318.034 128.663 315.25 124.091 311.408L124.984 302.186L134.029 300.485C140.177 298.16 139.821 283.835 133.028 280.613Z" fill="black"/>
<path d="M224.117 307.817C204.839 317.808 183.491 321.401 161.441 323.674C153.456 323.674 150.513 312.028 151.353 303.887C151.774 300.07 153.005 297.012 154.94 296.367L174.664 290.277C174.664 290.277 142.835 277.031 134.765 268.891C125.322 259.321 128.601 245.822 129.947 240.406C129.975 240.154 130.03 239.929 130.088 239.733C130.283 238.974 132.945 233.922 132.945 233.643C132.945 232.998 137.821 234.542 144.404 236.928C146.086 237.545 147.906 238.191 149.756 238.891C157.573 241.809 166.427 245.317 172.423 247.703C176.682 249.415 179.512 250.565 179.512 250.565C179.595 250.621 179.653 250.648 179.736 250.706C190.269 257.076 200.189 263.587 208.988 270.324C215.741 275.517 221.82 280.848 227.004 286.35C232.269 296 230.813 302.961 224.117 307.817Z" fill="#010F34"/>
<path d="M194.875 185.002C194.008 189.745 188.964 206.557 188.515 209.924C186.246 226.818 183.471 244.024 180.531 249.608C180.39 249.917 180.195 250.198 179.942 250.48C179.886 250.562 179.801 250.648 179.746 250.703C178.232 252.416 175.179 253.257 171.313 253.397C170.922 253.425 170.473 253.397 170.024 253.425C169.857 253.425 169.716 253.425 169.548 253.453C164.504 253.34 158.227 252.835 152.121 251.74C151.281 251.572 150.439 251.404 149.626 251.236C141.502 249.495 134.019 246.577 130.517 241.889C130.264 241.553 130.068 241.018 129.958 240.403C129.201 236.978 129.93 230.075 130.153 228.139C131.301 194.152 124.493 164.037 137.719 156.74C138.98 156.545 141.221 156.208 143.575 155.872C148.197 155.226 185.63 167.854 186.246 168.417C191.681 173.439 195.998 178.996 194.875 185.002Z" fill="#010F34"/>
<path d="M137.124 170.383L168.212 182.29C171.219 171.549 178.132 165.628 186.242 168.419C185.626 167.875 185.011 167.329 184.397 166.785C179.922 162.936 176.208 160.813 172.977 158.451C166.765 156.395 153.415 154.535 153.415 154.535C153.415 154.535 148.191 155.229 143.576 155.865C139.517 159.811 136.928 165.174 137.124 170.383Z" fill="white"/>
<path d="M163.718 134.659C163.239 137.457 162.758 140.271 162.77 143.11C162.779 145.948 163.301 148.838 164.712 151.297C166.302 154.063 169.019 156.128 172.075 157.006C173.032 157.287 174.021 157.451 175.022 157.479C176.019 157.506 177.038 157.409 177.954 157.011C179.383 156.398 180.402 155.146 181.23 153.798C181.419 153.489 181.594 153.185 181.76 152.88C185.646 145.874 187.413 136.606 188.695 128.694C188.881 127.523 188.258 127.392 188.147 126.205C187.818 122.704 186.148 120.134 182.841 118.933C179.537 117.734 175.871 117.983 172.438 118.744C171.495 118.954 170.545 119.202 169.716 119.705C168.929 120.182 168.285 120.862 167.537 121.401C166.615 122.063 164.438 130.457 163.718 134.659Z" fill="#FFBB7D"/>
<path opacity="0.1" d="M172.971 150.358C172.586 152.024 172.251 153.698 171.912 155.375C171.841 155.735 171.765 156.111 171.839 156.47C171.878 156.664 171.963 156.846 172.073 157.003C173.031 157.284 174.02 157.447 175.021 157.475C176.017 157.503 177.037 157.406 177.952 157.007C179.381 156.394 180.401 155.143 181.229 153.794C177.324 156.15 175.872 153.043 177.124 144.07C175.642 148.069 173.921 146.198 172.971 150.358Z" fill="#1D1D1B"/>
<path d="M159.525 132.199L178.823 136.601L173.135 161.62L154.168 155.757L159.525 132.199Z" fill="#FFBB7D"/>
<path d="M157.677 153.206C153.402 154.529 152.914 156.067 156.196 159.114C159.477 162.16 163.455 163.076 169.709 163.011C174.182 162.965 174.642 159.374 171.359 156.327C168.08 153.28 161.953 151.883 157.677 153.206Z" fill="#FFBB7D"/>
<path d="M181.689 139.953C181.291 144.21 177.446 141.301 176.355 144.494C172.078 157.004 155.488 150.965 154.97 145.86C151.487 111.385 172.524 114.04 175.292 114.582C184.708 116.419 190.161 121.028 188.353 129.148C179.211 127.378 182.179 134.74 181.689 139.953Z" fill="black"/>
<path d="M178.018 136.417C179.074 136.689 179.629 137.834 179.735 138.846C179.868 140.109 179.562 141.345 179.256 142.555C178.867 144.094 178.451 145.689 177.378 146.881C177.091 147.199 176.734 147.496 176.281 147.556C175.604 147.646 174.923 147.153 174.615 146.558C174.309 145.964 174.293 145.291 174.309 144.647C174.355 142.788 174.603 140.941 175.05 139.153C175.227 138.436 175.45 137.708 175.936 137.145C176.423 136.581 177.238 136.216 178.018 136.417Z" fill="#FFBB7D"/>
<path d="M160.313 299.049L147.087 299.766L138.673 299.231C131.471 300.123 130.721 317.75 132.43 333.782L145.656 342.107C150.161 341.865 151.291 341.543 154.683 338.975C156.112 336.467 155.948 333.683 151.376 329.843L152.269 320.624L161.317 318.923C167.462 316.595 167.106 302.271 160.313 299.049Z" fill="black"/>
<path opacity="0.6" d="M134.771 268.887C142.84 277.039 174.647 290.278 174.647 290.278L154.927 296.358C152.997 297.02 151.761 300.069 151.363 303.902L165.797 307.159C171.066 296.499 187.325 292.562 204.96 290.907C177.762 286.1 161.398 276.346 165.675 258.682C148.667 273.365 130.374 255.685 130.095 239.713C128.894 244.622 124.911 258.889 134.771 268.887Z" fill="black"/>
<path d="M189.307 125.743C189.323 126.458 189.293 127.188 189.234 127.946C189.19 128.006 189.16 128.05 189.116 128.11C188.983 128.318 188.849 128.513 188.714 128.691C188.178 129.422 187.628 130.09 187.048 130.731C186.155 131.699 185.205 132.563 184.192 133.321C183.849 133.575 183.509 133.812 183.152 134.036C183.092 134.08 183.033 134.126 182.975 134.156C182.828 134.259 182.678 134.349 182.515 134.439C182.381 134.529 182.248 134.603 182.114 134.663C181.714 134.9 181.371 135.08 181.015 135.23C180.688 135.393 180.361 135.543 180.034 135.677C179.767 135.81 179.588 135.87 179.411 135.93C179.234 136.004 179.068 136.064 178.875 136.124C178.801 136.168 178.695 136.198 178.608 136.214C178.341 136.318 178.148 136.377 177.968 136.424C177.775 136.483 177.582 136.527 177.388 136.587C177.269 136.617 177.149 136.647 177.032 136.677C176.555 136.797 176.065 136.901 175.575 136.991C175.472 137.004 175.382 137.02 175.292 137.034C174.995 137.078 174.698 137.124 174.386 137.168C172.289 135.917 170.357 134.785 168.467 133.803C164.379 131.657 160.529 130.171 156.974 129.484C156.275 129.364 155.695 129.276 155.117 129.216L155.504 124.243L155.771 120.831C155.92 118.942 156.827 117.167 158.327 116.008C166.192 109.902 174.71 109.068 184.017 114.443C187.598 117.208 189.234 121.037 189.307 125.743Z" fill="#010F34"/>
<path d="M182.038 134.71C182.038 134.71 173.405 140.426 169.109 143.717C167.28 145.132 164.01 146.024 161.794 144.268C161.661 144.164 161.528 144.06 161.378 143.954C159.712 142.749 157.216 141.557 154.523 140.737C154.45 140.707 154.376 140.693 154.3 140.663C152.383 140.098 150.391 139.709 148.562 139.665C146.956 139.605 145.469 139.815 144.279 140.35C144.013 140.469 143.833 140.052 144.026 139.842C145.483 138.34 149.611 134.647 150.92 133.262C152.927 131.119 154.59 129.533 155.112 129.213C163.608 124.018 177.278 135.214 182.038 134.71Z" fill="black"/>
<path opacity="0.25" d="M208.989 270.324C196.102 264.458 183.101 258.846 170.016 253.457C170.883 251.549 171.668 249.64 172.425 247.704C179.374 229.602 172.208 207.425 173.506 190.48C176.868 194.493 186.686 197.89 191.196 200.527L189.795 199.967C189.404 203.224 188.955 206.561 188.506 209.931C186.237 226.825 183.462 244.03 180.522 249.615C180.381 249.924 180.186 250.205 179.933 250.486C179.878 250.569 179.792 250.654 179.737 250.71C190.271 257.078 200.191 263.589 208.989 270.324Z" fill="#1D1D1B"/>
<path d="M252.612 202.894C253.321 202.749 253.891 203.558 253.928 204.284C254.015 206.049 252.363 207.324 251.358 208.776C250.267 210.35 250.424 212.858 249.372 214.46C247.515 217.288 242.973 217.921 239.89 216.536C239.777 214.685 236.436 212.574 237.119 210.85C238.199 211.498 243.256 211.09 244.13 210.184C245.005 209.278 245.615 208.114 246.627 207.368C248.132 206.257 250.417 206.135 251.349 204.514C251.705 203.894 251.917 203.035 252.612 202.894Z" fill="#FFBB7D"/>
<path d="M253.111 224.651C251.558 225.836 248.258 227.177 246.33 226.876C243.339 226.408 240.345 225.94 237.354 225.472C236.325 225.311 235.175 225.073 234.607 224.2C234.031 223.31 234.305 222.139 234.597 221.12C235.173 219.12 235.746 217.119 236.321 215.119C236.523 214.411 236.763 213.648 237.359 213.217C238.221 212.59 239.409 212.915 240.449 213.15C244.179 213.994 247.612 213.021 250.684 210.788C250.078 208.951 249.8 208.105 249.268 206.93C250 207.105 255.292 210.219 255.325 210.972C255.355 211.726 254.6 212.65 254.74 213.39C254.929 214.386 255.868 215.308 255.327 216.163C255.069 216.568 254.805 217.089 254.639 217.541C254.528 217.841 254.763 218.357 254.975 219.138C255.262 220.196 254.485 220.816 254.089 221.84C253.606 223.084 254.174 223.84 253.111 224.651Z" fill="#FFBB7D"/>
<path d="M194.632 180.105L200.889 206.302L237.265 210.697C240.311 214.959 241.724 224.362 236.59 228.412C219.029 233.031 205.654 233.45 190.281 231.007C179.34 222.09 174.345 209.699 173.003 193.24C171.344 172.845 190.656 166.327 194.632 180.105Z" fill="white"/>
<path d="M27.3527 126.718L18.7148 131.713V15.5918H27.3527V126.718Z" fill="white"/>
<path d="M97.0985 12.1602L20.582 56.4125L24.9009 63.9055L97.0985 22.1515V12.1602Z" fill="white"/>
<path opacity="0.15" d="M115.515 266.322L90.7172 280.663L52.5234 258.903L77.321 244.562L115.515 266.322Z" fill="#1D1D1B"/>
<path d="M70.5884 211.207C70.6345 211.23 70.6782 211.255 70.7196 211.283L72.7122 212.435L71.8632 213.908C72.0795 220.128 75.0569 223.27 80.3514 224.213L82.5259 225.469L80.9428 228.214L79.9396 227.633L77.5673 247.394L60.0914 260.016L57.917 258.757L55.1328 238.795C60.4273 231.729 63.4025 225.146 63.6211 218.674C63.6211 216.042 65.4665 212.841 67.7421 211.525C68.8167 210.902 69.7923 210.819 70.5263 211.174L70.5884 211.207Z" fill="#B52C25"/>
<path d="M69.9179 212.782C72.1936 211.466 74.039 212.533 74.039 215.166C74.2552 221.386 77.2327 224.525 82.5272 225.468L79.743 248.652L60.0928 260.015L57.3086 240.053C62.6031 232.986 65.5783 226.404 65.7969 219.932C65.7969 217.3 67.6423 214.098 69.9179 212.782Z" fill="#FF5500"/>
<path d="M67.6875 218.574C67.6875 219.998 68.6861 220.577 69.9171 219.862C71.1482 219.15 72.1468 217.419 72.1468 215.992C72.1468 214.566 71.1482 213.99 69.9171 214.702C68.6861 215.416 67.6875 217.149 67.6875 218.574Z" fill="#B52C25"/>
<path d="M57.3086 240.055L57.9183 258.761L90.7279 277.734L85.7693 256.513L57.3086 240.055Z" fill="#B52C25"/>
<path d="M82.5272 225.471C72.35 221.217 64.4807 228.839 57.3086 240.056L85.7693 256.515C94.2461 246.219 102.677 239.459 110.988 241.932L82.5272 225.471Z" fill="#FF5500"/>
<path d="M67.6875 218.578C67.6875 220.002 68.6861 220.581 69.9171 219.866C71.1482 219.154 72.1468 217.423 72.1468 215.996C72.1468 214.57 71.1482 213.993 69.9171 214.706C68.6861 215.42 67.6875 217.153 67.6875 218.578Z" fill="#B52C25"/>
<path d="M71.4699 214.552L68.3164 220.023L98.9493 237.739L102.103 232.268L71.4699 214.552Z" fill="#B52C25"/>
<path d="M101.219 228.923C101.265 228.946 101.309 228.972 101.35 228.999L103.345 230.152L102.496 231.625C102.712 237.845 105.69 240.987 110.984 241.929L113.159 243.186L111.576 245.931L110.572 245.35L108.2 265.111L90.7242 277.732L88.5498 276.474L85.7656 256.512C91.0602 249.445 94.0353 242.863 94.2539 236.391C94.2539 233.759 96.0993 230.557 98.3749 229.241C99.4495 228.619 100.425 228.536 101.159 228.891L101.219 228.923Z" fill="#B52C25"/>
<path d="M100.551 230.501C102.826 229.185 104.672 230.252 104.672 232.884C104.888 239.105 107.866 242.244 113.16 243.187L110.376 266.371L90.7256 277.734L87.9414 257.772C93.2359 250.705 96.2111 244.123 96.4297 237.651C96.4297 235.019 98.2728 231.817 100.551 230.501Z" fill="#FF5500"/>
<path d="M98.3203 236.295C98.3203 237.719 99.3189 238.298 100.55 237.586C101.781 236.873 102.78 235.14 102.78 233.716C102.78 232.291 101.781 231.713 100.55 232.427C99.3189 233.137 98.3203 234.868 98.3203 236.295Z" fill="#B52C25"/>
<path d="M72.6984 244.268L68.8281 247.769V246.017L72.6984 244.268Z" fill="#9D9D9C"/>
<path d="M72.1554 248.547L72.8572 253.023L71.1406 248.787L72.1554 248.547Z" fill="#878787"/>
<path d="M70.3507 247.496L71.0525 251.974L69.3359 247.736L70.3507 247.496Z" fill="#878787"/>
<path d="M71.0525 251.973L72.861 253.019L71.1445 248.783L69.3359 247.734L71.0525 251.973Z" fill="#B2B2B2"/>
<path d="M75.7921 246.098L71.9219 249.601V247.849L75.7921 246.098Z" fill="#9D9D9C"/>
<path d="M68.832 247.769L71.9222 249.599V247.848L68.832 246.018V247.769Z" fill="#C6C6C6"/>
<path d="M71.9222 247.847L75.7925 246.095L72.7023 244.268L68.832 246.017L71.9222 247.847Z" fill="#EDEDED"/>
<path d="M297.774 197.068C298.278 197.416 299.044 197.706 299.875 197.891C300.646 198.07 301.481 198.156 302.222 198.121C302.298 198.121 302.369 198.116 302.441 198.116C303.073 198.116 303.656 198.25 304.067 198.49L306.037 199.628L320.163 207.799C320.469 207.976 320.678 208.202 320.766 208.463C320.802 208.576 320.816 208.698 320.807 208.82C320.542 210.353 321.587 211.477 323.633 212.044C323.842 212.107 324.065 212.162 324.3 212.208C324.544 212.259 324.804 212.305 325.075 212.337C325.423 212.388 325.641 212.413 325.814 212.413C326.012 212.413 326.157 212.376 326.233 212.3C326.279 212.224 326.279 213.473 326.279 213.473C326.157 213.674 326.014 213.711 325.814 213.711C325.605 213.711 325.324 213.669 325.135 213.644C322.259 213.268 320.676 212.104 320.761 210.498V209.806C320.683 209.532 320.485 209.283 320.16 209.097L306.035 200.926L304.065 199.787C303.651 199.548 303.071 199.414 302.438 199.414C302.367 199.414 302.296 199.419 302.22 199.423C300.678 199.499 298.745 199.029 297.772 198.365C297.185 197.971 296.812 197.277 296.812 196.531V195.229C296.815 195.975 297.188 196.669 297.774 197.068Z" fill="#9D9D9C"/>
<path d="M324.341 209.904C325.213 209.317 326.387 208.939 327.666 208.816C327.809 208.816 327.951 208.853 328.018 208.897L329.838 210.782C329.992 210.941 330.446 210.935 330.598 210.782C331.042 210.303 331.235 209.745 331.24 209.213C331.242 209.109 331.242 210.397 331.242 210.397C331.219 211.082 331.023 211.612 330.595 212.08C330.443 212.239 329.988 212.239 329.836 212.085L328.014 210.199C327.947 210.149 327.804 210.112 327.662 210.112C326.78 210.165 325.676 210.603 325.022 210.847L324.316 210.121C324.27 210.047 324.286 209.955 324.341 209.904Z" fill="#9D9D9C"/>
<path d="M303.732 194.294C303.787 194.365 303.778 194.462 303.723 194.513C303.513 194.655 303.278 194.782 303.035 194.895L301.903 193.699C301.81 193.602 301.785 193.556 301.785 193.51V192.229C301.79 192.27 301.81 192.311 301.84 192.337L303.732 194.294Z" fill="#9D9D9C"/>
<path d="M325.812 212.416C325.639 212.416 325.418 212.391 325.241 212.366C324.802 212.31 324.542 212.264 324.298 212.214C324.063 212.167 323.837 212.112 323.63 212.05C321.585 211.483 320.54 210.358 320.793 208.913C320.814 208.703 320.798 208.581 320.763 208.468C320.676 208.208 320.469 207.982 320.16 207.804L306.035 199.634L304.065 198.495C303.651 198.256 303.071 198.122 302.438 198.122C302.367 198.122 302.296 198.127 302.22 198.127C301.479 198.163 300.644 198.076 299.873 197.896C299.042 197.712 298.276 197.421 297.772 197.073C297.185 196.675 296.812 195.981 296.812 195.234C296.812 195.082 296.829 194.928 296.863 194.775C296.939 194.386 297.135 193.994 297.459 193.637C297.611 193.478 298.062 193.473 298.218 193.637L299.871 195.342L300.038 195.515C300.101 195.561 300.248 195.596 300.386 195.596C301.111 195.529 301.79 195.37 302.411 195.151C302.625 195.075 302.834 194.987 303.027 194.895C303.271 194.782 303.506 194.656 303.715 194.513C303.771 194.462 303.782 194.365 303.725 194.294L301.831 192.337C301.801 192.312 301.78 192.27 301.776 192.229C301.776 192.187 301.785 192.148 301.826 192.106C301.902 192.035 302.04 191.998 302.241 191.998C302.287 191.998 302.337 191.998 302.395 192.003C302.574 192.012 302.777 192.037 302.924 192.063C305.963 192.461 307.56 193.743 307.266 195.501C307.19 195.93 307.425 196.333 307.899 196.615L322.024 204.781L323.994 205.919C324.401 206.159 324.979 206.288 325.616 206.288H325.842C327.372 206.207 329.316 206.677 330.289 207.337C330.876 207.733 331.244 208.431 331.242 209.174C331.24 209.743 331.044 210.301 330.6 210.78C330.448 210.932 329.992 210.939 329.841 210.78L328.021 208.895C327.954 208.849 327.811 208.814 327.669 208.814C326.387 208.936 325.216 209.314 324.344 209.902C324.288 209.953 324.272 210.045 324.323 210.121L325.029 210.847L325.278 211.103L325.646 211.481L326.224 212.073C326.154 212.38 326.012 212.416 325.812 212.416Z" fill="white"/>
</svg>
