<svg width="41" height="41" viewBox="0 0 41 41" fill="none" xmlns="http://www.w3.org/2000/svg">
<path d="M37.8906 26.8594C38.6719 27.224 39.2448 27.7708 39.6094 28.5C39.974 29.2292 40.0781 30.0104 39.9219 30.8438L38.2031 38.2656C37.9948 39.099 37.5781 39.75 36.9531 40.2188C36.3281 40.7396 35.599 41 34.7656 41C28.3073 40.9479 22.474 39.3594 17.2656 36.2344C12.0052 33.1615 7.83854 28.9948 4.76562 23.7344C1.64062 18.526 0.0520833 12.6927 0 6.23438C0 5.40104 0.260417 4.67188 0.78125 4.04688C1.25 3.42188 1.90104 3.00521 2.73438 2.79688L10.1562 1.07812C10.9896 0.921875 11.7708 1.02604 12.5 1.39062C13.2292 1.75521 13.776 2.32812 14.1406 3.10938L17.5781 11.0781C18.151 12.6927 17.8125 14.0729 16.5625 15.2188L13.4375 17.7969C15.7292 22.0156 18.9844 25.2708 23.2031 27.5625L25.7812 24.4375C26.9271 23.1875 28.3073 22.849 29.9219 23.4219L37.8906 26.8594ZM35.7812 37.7188L37.5 30.2969C37.5521 29.776 37.3438 29.3854 36.875 29.125L28.9062 25.6875C28.4375 25.5312 28.0469 25.6354 27.7344 26L24.4531 29.9844C24.0365 30.4531 23.5417 30.5573 22.9688 30.2969C20.3125 28.9948 17.9427 27.276 15.8594 25.1406C13.724 23.0573 12.0052 20.6875 10.7031 18.0312C10.4427 17.4583 10.5469 16.9635 11.0156 16.5469L15 13.2656C15.3646 12.9531 15.4688 12.5625 15.3125 12.0938L11.875 4.125C11.6667 3.70833 11.3542 3.5 10.9375 3.5C10.8333 3.5 10.7552 3.5 10.7031 3.5L3.28125 5.21875C2.8125 5.375 2.55208 5.71354 2.5 6.23438C2.55208 12.224 4.01042 17.6406 6.875 22.4844C9.79167 27.3281 13.6719 31.2083 18.5156 34.125C23.3594 36.9896 28.776 38.4479 34.7656 38.5C35.2865 38.4479 35.625 38.1875 35.7812 37.7188Z" fill="#010F34"/>
</svg>
