<svg width="40" height="40" viewBox="0 0 40 40" fill="none" xmlns="http://www.w3.org/2000/svg">
<path d="M18.75 8.75C18.8021 7.96875 19.2188 7.55208 20 7.5C20.7812 7.55208 21.1979 7.96875 21.25 8.75V19.2969L28.2031 23.9844C28.776 24.4531 28.8802 25.026 28.5156 25.7031C28.0469 26.276 27.474 26.3802 26.7969 26.0156L19.2969 21.0156C18.9323 20.7552 18.724 20.4167 18.6719 20L18.75 8.75ZM20 0C23.75 0.0520833 27.1094 0.963542 30.0781 2.73438C33.099 4.50521 35.4948 6.90104 37.2656 9.92188C39.0365 12.8906 39.9479 16.25 40 20C39.9479 23.75 39.0365 27.1094 37.2656 30.0781C35.4948 33.099 33.099 35.4948 30.0781 37.2656C27.1094 39.0365 23.75 39.9479 20 40C16.25 39.9479 12.8906 39.0365 9.92188 37.2656C6.90104 35.4948 4.50521 33.099 2.73438 30.0781C0.963542 27.1094 0.0520833 23.75 0 20C0.0520833 16.25 0.963542 12.8906 2.73438 9.92188C4.50521 6.90104 6.90104 4.50521 9.92188 2.73438C12.8906 0.963542 16.25 0.0520833 20 0ZM2.5 20C2.55208 23.2812 3.35938 26.224 4.92188 28.8281C6.43229 31.4844 8.51562 33.5677 11.1719 35.0781C13.776 36.6406 16.7188 37.4479 20 37.5C23.2812 37.4479 26.224 36.6406 28.8281 35.0781C31.4844 33.5677 33.5677 31.4844 35.0781 28.8281C36.6406 26.224 37.4479 23.2812 37.5 20C37.4479 16.7188 36.6406 13.776 35.0781 11.1719C33.5677 8.51562 31.4844 6.43229 28.8281 4.92188C26.224 3.35938 23.2812 2.55208 20 2.5C16.7188 2.55208 13.776 3.35938 11.1719 4.92188C8.51562 6.43229 6.43229 8.51562 4.92188 11.1719C3.35938 13.776 2.55208 16.7188 2.5 20Z" fill="#010F34"/>
</svg>
