<svg width="40" height="30" viewBox="0 0 40 30" fill="none" xmlns="http://www.w3.org/2000/svg">
<path d="M0 5C0.0520833 3.59375 0.546875 2.42188 1.48438 1.48438C2.42188 0.546875 3.59375 0.0520833 5 0H35C36.4062 0.0520833 37.5781 0.546875 38.5156 1.48438C39.4531 2.42188 39.9479 3.59375 40 5V25C39.9479 26.4062 39.4531 27.5781 38.5156 28.5156C37.5781 29.4531 36.4062 29.9479 35 30H5C3.59375 29.9479 2.42188 29.4531 1.48438 28.5156C0.546875 27.5781 0.0520833 26.4062 0 25V5ZM2.5 5V8.125L17.8125 19.2969C19.2708 20.2865 20.7292 20.2865 22.1875 19.2969L37.5 8.125V5C37.5 4.27083 37.2656 3.67188 36.7969 3.20312C36.3281 2.73438 35.7292 2.5 35 2.5H4.92188C4.24479 2.5 3.67188 2.73438 3.20312 3.20312C2.73438 3.67188 2.47396 4.27083 2.42188 5H2.5ZM2.5 11.25V25C2.5 25.7292 2.73438 26.3281 3.20312 26.7969C3.67188 27.2656 4.27083 27.5 5 27.5H35C35.7292 27.5 36.3281 27.2656 36.7969 26.7969C37.2656 26.3281 37.5 25.7292 37.5 25V11.25L23.6719 21.3281C22.5781 22.1615 21.3542 22.5781 20 22.5781C18.6458 22.5781 17.4219 22.1615 16.3281 21.3281L2.5 11.25Z" fill="#010F34"/>
</svg>
