<svg width="30" height="40" viewBox="0 0 30 40" fill="none" xmlns="http://www.w3.org/2000/svg">
<path d="M21.25 15C21.1979 16.7708 20.599 18.2552 19.4531 19.4531C18.2552 20.599 16.7708 21.1979 15 21.25C13.2292 21.1979 11.7448 20.599 10.5469 19.4531C9.40104 18.2552 8.80208 16.7708 8.75 15C8.80208 13.2292 9.40104 11.7448 10.5469 10.5469C11.7448 9.40104 13.2292 8.80208 15 8.75C16.7708 8.80208 18.2552 9.40104 19.4531 10.5469C20.599 11.7448 21.1979 13.2292 21.25 15ZM15 18.75C16.0417 18.6979 16.9271 18.3333 17.6562 17.6562C18.3333 16.9271 18.6979 16.0417 18.75 15C18.6979 13.9583 18.3333 13.0729 17.6562 12.3438C16.9271 11.6667 16.0417 11.3021 15 11.25C13.9583 11.3021 13.0729 11.6667 12.3438 12.3438C11.6667 13.0729 11.3021 13.9583 11.25 15C11.3021 16.0417 11.6667 16.9271 12.3438 17.6562C13.0729 18.3333 13.9583 18.6979 15 18.75ZM30 15C29.8958 17.3438 29.0625 20.0521 27.5 23.125C25.8854 26.1979 24.0625 29.1667 22.0312 32.0312C20 34.9479 18.2812 37.2656 16.875 38.9844C16.3542 39.6094 15.7292 39.9219 15 39.9219C14.2708 39.9219 13.6458 39.6094 13.125 38.9844C11.7188 37.2656 9.97396 34.9479 7.89062 32.0312C5.85938 29.1667 4.0625 26.1979 2.5 23.125C0.9375 20.0521 0.104167 17.3438 0 15C0.104167 10.7292 1.5625 7.1875 4.375 4.375C7.1875 1.5625 10.7292 0.104167 15 0C19.2708 0.104167 22.8125 1.5625 25.625 4.375C28.4375 7.1875 29.8958 10.7292 30 15ZM15 2.5C11.4583 2.60417 8.51562 3.82812 6.17188 6.17188C3.82812 8.51562 2.60417 11.4583 2.5 15C2.5 16.25 2.94271 17.8906 3.82812 19.9219C4.71354 22.0052 5.83333 24.1667 7.1875 26.4062C8.54167 28.5938 9.92188 30.625 11.3281 32.5C12.7344 34.4271 13.9583 36.0417 15 37.3438C16.0417 36.0417 17.2656 34.4271 18.6719 32.5C20.0781 30.625 21.4583 28.5938 22.8125 26.4062C24.1667 24.1667 25.2865 22.0052 26.1719 19.9219C27.0573 17.8906 27.5 16.25 27.5 15C27.3958 11.4583 26.1719 8.51562 23.8281 6.17188C21.4844 3.82812 18.5417 2.60417 15 2.5Z" fill="#010F34"/>
</svg>
