<svg width="50" height="51" viewBox="0 0 50 51" fill="none" xmlns="http://www.w3.org/2000/svg">
<path d="M45.3164 25.8326H38.0719C39.2901 23.5738 39.9007 21.0379 39.844 18.4727C39.7873 15.9076 39.0652 13.4011 37.7483 11.1982C36.4314 8.99527 34.5648 7.17143 32.331 5.90494C30.0971 4.63845 27.5725 3.97266 25.0039 3.97266C22.4353 3.97266 19.9107 4.63845 17.6768 5.90494C15.443 7.17143 13.5764 8.99527 12.2595 11.1982C10.9426 13.4011 10.2205 15.9076 10.1638 18.4727C10.1071 21.0379 10.7177 23.5738 11.9359 25.8326H4.69141C3.65579 25.8339 2.66294 26.2453 1.93064 26.9768C1.19835 27.7083 0.786397 28.7001 0.785156 29.7346V42.2208C0.786397 43.2553 1.19835 44.2471 1.93064 44.9786C2.66294 45.7101 3.65579 46.1216 4.69141 46.1228H45.3164C46.352 46.1216 47.3449 45.7101 48.0772 44.9786C48.8095 44.2471 49.2214 43.2553 49.2227 42.2208V29.7346C49.2214 28.7001 48.8095 27.7083 48.0772 26.9768C47.3449 26.2453 46.352 25.8339 45.3164 25.8326ZM25.0039 5.54243C28.3294 5.54122 31.5341 6.78686 33.9842 9.03291C36.4342 11.279 37.9511 14.3618 38.2346 17.6715C38.5182 20.9812 37.5478 24.2766 35.5154 26.9059C33.483 29.5351 30.5367 31.3065 27.2594 31.8697C27.0562 31.9046 26.8751 32.0182 26.7555 32.1858L25.0039 34.6347L23.2523 32.1858C23.1327 32.0182 22.9516 31.9046 22.7484 31.8697C19.4711 31.3065 16.5248 29.5351 14.4924 26.9059C12.4601 24.2766 11.4896 20.9812 11.7732 17.6715C12.0567 14.3618 13.5736 11.279 16.0236 9.03291C18.4737 6.78686 21.6785 5.54122 25.0039 5.54243ZM41.4102 41.4404H8.59766V40.6601C8.59766 40.4531 8.67997 40.2546 8.82648 40.1082C8.97299 39.9619 9.17171 39.8797 9.37891 39.8797H40.6289C40.8361 39.8797 41.0348 39.9619 41.1813 40.1082C41.3278 40.2546 41.4102 40.4531 41.4102 40.6601V41.4404ZM8.59766 43.0012H41.4102V44.562H8.59766V43.0012ZM47.6602 42.2208C47.6602 42.8418 47.4132 43.4372 46.9737 43.8763C46.5341 44.3154 45.938 44.562 45.3164 44.562H42.9727V40.6601C42.9727 40.0391 42.7257 39.4437 42.2862 39.0046C41.8466 38.5655 41.2505 38.3189 40.6289 38.3189H9.37891C8.75731 38.3189 8.16116 38.5655 7.72162 39.0046C7.28209 39.4437 7.03516 40.0391 7.03516 40.6601V44.562H4.69141C4.06981 44.562 3.47366 44.3154 3.03412 43.8763C2.59459 43.4372 2.34766 42.8418 2.34766 42.2208V29.7346C2.34766 29.1137 2.59459 28.5182 3.03412 28.0791C3.47366 27.6401 4.06981 27.3934 4.69141 27.3934H12.9C15.105 30.4968 18.4238 32.6306 22.1648 33.3501L24.368 36.4311C24.4402 36.5323 24.5356 36.6147 24.6463 36.6716C24.7569 36.7285 24.8795 36.7582 25.0039 36.7582C25.1283 36.7582 25.2509 36.7285 25.3616 36.6716C25.4722 36.6147 25.5676 36.5323 25.6398 36.4311L27.843 33.3501C31.584 32.6306 34.9028 30.4968 37.1078 27.3934H45.3164C45.938 27.3934 46.5341 27.6401 46.9737 28.0791C47.4132 28.5182 47.6602 29.1137 47.6602 29.7346V42.2208Z" fill="#FF5500"/>
<path d="M43.7539 28.9531C43.2904 28.9531 42.8372 29.0905 42.4518 29.3478C42.0664 29.6051 41.766 29.9708 41.5886 30.3986C41.4112 30.8265 41.3648 31.2973 41.4552 31.7515C41.5456 32.2058 41.7688 32.623 42.0966 32.9505C42.4244 33.2779 42.842 33.501 43.2967 33.5913C43.7513 33.6817 44.2226 33.6353 44.6508 33.4581C45.0791 33.2808 45.4451 32.9807 45.7027 32.5956C45.9602 32.2106 46.0977 31.7578 46.0977 31.2947C46.0977 30.6737 45.8507 30.0781 45.4112 29.639C44.9716 29.1998 44.3755 28.9531 43.7539 28.9531ZM43.7539 32.0752C43.5994 32.0752 43.4483 32.0295 43.3199 31.9437C43.1914 31.8579 43.0913 31.736 43.0321 31.5934C42.973 31.4508 42.9575 31.2938 42.9877 31.1424C43.0178 30.991 43.0922 30.852 43.2015 30.7428C43.3107 30.6336 43.4499 30.5593 43.6015 30.5292C43.753 30.4991 43.9101 30.5145 44.0529 30.5736C44.1956 30.6327 44.3176 30.7327 44.4035 30.8611C44.4893 30.9894 44.5352 31.1403 44.5352 31.2947C44.5352 31.5017 44.4528 31.7003 44.3063 31.8466C44.1598 31.993 43.9611 32.0752 43.7539 32.0752Z" fill="#FF5500"/>
<path d="M16.422 26.1427L18.2923 24.2698H19.5314V25.5075L17.6603 27.3757C17.5671 27.4687 17.4989 27.5837 17.4621 27.7101C17.4253 27.8364 17.4211 27.97 17.4499 28.0984C17.4786 28.2268 17.5394 28.3459 17.6266 28.4445C17.7138 28.5432 17.8246 28.6182 17.9486 28.6626C18.4551 28.8509 18.9909 28.9489 19.5314 28.9521C20.7742 28.9509 21.9658 28.4572 22.8446 27.5793C23.7234 26.7015 24.2176 25.5112 24.2189 24.2698C24.2173 23.8999 24.1698 23.5316 24.0775 23.1733L24.6095 22.6419L30.6978 28.7235C30.8443 28.8698 31.043 28.952 31.2501 28.952C31.4573 28.952 31.656 28.8698 31.8025 28.7235L34.9275 25.6019C35.0739 25.4556 35.1562 25.2571 35.1562 25.0502C35.1562 24.8432 35.0739 24.6448 34.9275 24.4984L28.8392 18.4168L29.3712 17.8854C29.7298 17.9777 30.0985 18.0251 30.4689 18.0266C31.2222 18.0323 31.9657 17.8552 32.6354 17.5105C33.3051 17.1657 33.881 16.6636 34.3135 16.0475C34.746 15.4313 35.0222 14.7194 35.1184 13.9729C35.2146 13.2265 35.1279 12.468 34.8657 11.7624C34.8211 11.6388 34.746 11.5284 34.6473 11.4415C34.5485 11.3546 34.4294 11.294 34.301 11.2654C34.1726 11.2367 34.039 11.2409 33.9127 11.2776C33.7863 11.3143 33.6713 11.3823 33.5782 11.4753L31.7079 13.3443H30.4689V12.1066L32.3439 10.2383C32.4369 10.1454 32.505 10.0305 32.5417 9.90429C32.5785 9.77808 32.5827 9.64464 32.554 9.51636C32.5253 9.38808 32.4647 9.26911 32.3777 9.17049C32.2907 9.07188 32.1802 8.99681 32.0564 8.95225C31.3498 8.69344 30.5911 8.60912 29.8448 8.70647C29.0986 8.80382 28.387 9.07996 27.7706 9.51135C27.1543 9.94274 26.6515 10.5166 26.3051 11.184C25.9588 11.8514 25.7791 12.5925 25.7814 13.3443C25.7829 13.7142 25.8304 14.0825 25.9228 14.4407L25.0001 15.3624L24.2189 14.582V13.3443C24.2188 13.1373 24.1365 12.9389 23.99 12.7926L20.0837 8.8906C19.9372 8.7443 19.7385 8.66211 19.5314 8.66211C19.3242 8.66211 19.1255 8.7443 18.979 8.8906L15.0728 12.7926C14.9263 12.9389 14.844 13.1374 14.844 13.3443C14.844 13.5512 14.9263 13.7497 15.0728 13.896L18.979 17.798C19.1255 17.9444 19.3242 18.0266 19.5314 18.0266H20.7704L21.5517 18.807L20.629 19.7287C20.2704 19.6364 19.9017 19.589 19.5314 19.5874C18.778 19.5817 18.0345 19.7589 17.3648 20.1036C16.6951 20.4484 16.1193 20.9504 15.6868 21.5666C15.2543 22.1828 14.978 22.8947 14.8818 23.6411C14.7856 24.3875 14.8723 25.1461 15.1345 25.8516C15.1791 25.9753 15.2543 26.0857 15.353 26.1726C15.4517 26.2595 15.5708 26.3201 15.6992 26.3487C15.8276 26.3774 15.9612 26.3731 16.0876 26.3364C16.2139 26.2997 16.329 26.2318 16.422 26.1388V26.1427ZM31.2501 27.0683L25.3236 21.1482L27.3439 19.1301L33.2704 25.0502L31.2501 27.0683ZM27.3595 15.2172C27.4644 15.1124 27.5372 14.9798 27.5695 14.8351C27.6017 14.6904 27.592 14.5396 27.5415 14.4002C27.4141 14.0625 27.3472 13.7051 27.3439 13.3443C27.3449 12.5759 27.6292 11.8347 28.1425 11.2624C28.6558 10.6901 29.3622 10.3266 30.1267 10.2415L29.1353 11.2318C28.9888 11.3781 28.9064 11.5766 28.9064 11.7835V14.1247C28.9064 14.3317 28.9887 14.5302 29.1352 14.6765C29.2817 14.8229 29.4804 14.9051 29.6876 14.9051H32.0314C32.2386 14.905 32.4372 14.8228 32.5837 14.6764L33.5751 13.6861C33.4899 14.4498 33.126 15.1554 32.5531 15.6681C31.9801 16.1808 31.2381 16.4648 30.4689 16.4659C30.109 16.4621 29.7525 16.3953 29.4158 16.2684C29.2762 16.218 29.1252 16.2083 28.9803 16.2405C28.8354 16.2727 28.7028 16.3455 28.5978 16.4503L27.7017 17.3461C27.5915 17.2877 27.4686 17.2572 27.3439 17.2572C27.2191 17.2572 27.0963 17.2877 26.9861 17.3461L26.1048 16.4659L27.3595 15.2172ZM19.8548 16.4659L16.7298 13.3443L19.5314 10.5458L22.6564 13.6674V14.9051C22.6564 15.112 22.7388 15.3105 22.8853 15.4568L25.8486 18.4168L24.6095 19.6545L21.6462 16.6945C21.4997 16.5482 21.3011 16.4659 21.0939 16.4659H19.8548ZM19.5314 21.1482C19.8913 21.152 20.2477 21.2188 20.5845 21.3456C20.7246 21.3969 20.8764 21.407 21.0221 21.3748C21.1677 21.3425 21.3011 21.2693 21.4064 21.1638L22.6564 19.9105L23.5376 20.7908C23.4791 20.9009 23.4486 21.0236 23.4486 21.1482C23.4486 21.2728 23.4791 21.3955 23.5376 21.5056L22.6407 22.4007C22.5359 22.5056 22.463 22.6381 22.4308 22.7828C22.3986 22.9275 22.4082 23.0784 22.4587 23.2178C22.5857 23.5542 22.6526 23.9103 22.6564 24.2698C22.6554 25.0383 22.3711 25.7795 21.8578 26.352C21.3445 26.9244 20.6382 27.288 19.8736 27.3734L20.865 26.3823C21.0115 26.236 21.0938 26.0375 21.0939 25.8306V23.4894C21.0939 23.2824 21.0116 23.0839 20.8651 22.9376C20.7185 22.7912 20.5198 22.709 20.3126 22.709H17.9689C17.7617 22.709 17.563 22.7913 17.4165 22.9376L16.4251 23.928C16.5104 23.1643 16.8742 22.4587 17.4472 21.946C18.0202 21.4332 18.7621 21.1492 19.5314 21.1482Z" fill="#FF5500"/>
</svg>
