<svg width="50" height="50" viewBox="0 0 50 50" fill="none" xmlns="http://www.w3.org/2000/svg">
<path d="M19.4375 26.4766C17.7378 26.4766 16.0763 26.9806 14.6631 27.9249C13.2498 28.8692 12.1484 30.2113 11.4979 31.7816C10.8475 33.3519 10.6773 35.0798 11.0089 36.7469C11.3405 38.4139 12.1589 39.9452 13.3608 41.147C14.5627 42.3489 16.0939 43.1673 17.7609 43.4989C19.428 43.8305 21.1559 43.6603 22.7262 43.0099C24.2965 42.3595 25.6387 41.258 26.5829 39.8447C27.5272 38.4315 28.0313 36.77 28.0313 35.0703C28.0288 32.7919 27.1226 30.6075 25.5115 28.9964C23.9004 27.3852 21.7159 26.479 19.4375 26.4766ZM25.8016 32.1016C25.2585 31.861 24.6803 31.7094 24.0891 31.6523C23.0243 31.5368 21.9537 31.8098 21.0742 32.4211C20.834 32.274 20.5749 32.1604 20.3039 32.0836C20.5699 31.3535 21.0565 30.7243 21.6963 30.2833C22.3361 29.8423 23.0973 29.6114 23.8742 29.6227C24.6944 30.2937 25.3532 31.1414 25.8016 32.1016ZM19.4375 36.6328C19.1285 36.6328 18.8264 36.5412 18.5694 36.3695C18.3125 36.1978 18.1122 35.9538 17.9939 35.6683C17.8757 35.3827 17.8447 35.0686 17.905 34.7655C17.9653 34.4624 18.1141 34.184 18.3326 33.9655C18.5512 33.7469 18.8296 33.5981 19.1327 33.5378C19.4358 33.4775 19.7499 33.5085 20.0354 33.6268C20.321 33.745 20.565 33.9453 20.7367 34.2022C20.9084 34.4592 21 34.7613 21 35.0703C21 35.4847 20.8354 35.8821 20.5424 36.1752C20.2493 36.4682 19.8519 36.6328 19.4375 36.6328ZM21.8438 28.4719C21.0614 28.7489 20.3633 29.222 19.8161 29.8461C19.269 30.4701 18.8911 31.2241 18.7188 32.0359C18.4454 32.1021 18.1825 32.2057 17.9375 32.3437C17.6316 31.802 17.5032 31.1779 17.5703 30.5594C17.6758 29.6285 18.0801 28.7568 18.7227 28.075C18.957 28.0516 19.1914 28.0391 19.4336 28.0391C20.2562 28.0404 21.0721 28.1869 21.8438 28.4719ZM16.468 28.7063C16.2276 29.2491 16.0759 29.827 16.0188 30.418C15.9026 31.483 16.1756 32.5541 16.7875 33.4336C16.6403 33.6737 16.5267 33.9329 16.45 34.2039C15.7199 33.9379 15.0907 33.4513 14.6497 32.8115C14.2087 32.1717 13.9778 31.4106 13.9891 30.6336C14.6601 29.8131 15.5074 29.1543 16.468 28.7063ZM12.8391 32.6648C13.1171 33.4468 13.5911 34.1443 14.2158 34.6906C14.8405 35.237 15.595 35.6138 16.407 35.7852C16.4748 36.0587 16.58 36.3216 16.7195 36.5664C16.0141 36.8951 15.2238 36.9958 14.4584 36.8545C13.6931 36.7132 12.9908 36.337 12.4492 35.7781C12.4258 35.5437 12.4133 35.3094 12.4133 35.0672C12.4133 34.2476 12.5574 33.4345 12.8391 32.6648ZM13.0734 38.0398C13.7593 38.341 14.4994 38.4989 15.2484 38.5039C16.1578 38.5112 17.0471 38.2363 17.7938 37.7172C18.0372 37.8664 18.3001 37.9813 18.575 38.0586C18.309 38.7887 17.8224 39.4179 17.1826 39.8589C16.5428 40.2999 15.7816 40.5308 15.0047 40.5195C14.1824 39.8485 13.522 39.0006 13.0727 38.0391L13.0734 38.0398ZM17.032 41.6687C17.8144 41.3917 18.5125 40.9186 19.0597 40.2946C19.6068 39.6705 19.9847 38.9165 20.157 38.1047C20.4306 38.0369 20.6935 37.9317 20.9383 37.7922C21.2669 38.4976 21.3676 39.288 21.2264 40.0533C21.0851 40.8186 20.7089 41.5209 20.15 42.0625C19.9156 42.0859 19.6813 42.0984 19.4391 42.0984C18.6177 42.0978 17.8029 41.9523 17.032 41.6687ZM22.4023 41.4344C22.7595 40.6852 22.9183 39.8569 22.8636 39.0287C22.8089 38.2006 22.5425 37.4004 22.0898 36.7047C22.2373 36.4643 22.3512 36.2049 22.4281 35.9336C23.1582 36.1996 23.7874 36.6862 24.2284 37.326C24.6694 37.9658 24.9003 38.7269 24.8891 39.5039C24.2159 40.3274 23.3657 40.9883 22.4016 41.4375L22.4023 41.4344ZM26.0367 37.4734C25.7597 36.6911 25.2866 35.9929 24.6625 35.4458C24.0385 34.8986 23.2845 34.5208 22.4727 34.3484C22.4049 34.0749 22.2997 33.812 22.1602 33.5672C22.7016 33.2603 23.3261 33.1324 23.9445 33.2016C24.8757 33.3069 25.7477 33.7112 26.4297 34.3539C26.4531 34.5883 26.4656 34.8227 26.4656 35.0648C26.4655 35.8878 26.32 36.7042 26.0359 37.4766L26.0367 37.4734ZM36.7195 28.1336H32.032C31.8248 28.1336 31.6261 28.2159 31.4796 28.3624C31.3331 28.5089 31.2508 28.7076 31.2508 28.9148V32.0398C31.2508 32.247 31.3331 32.4458 31.4796 32.5923C31.6261 32.7388 31.8248 32.8211 32.032 32.8211H36.7195C36.9267 32.8211 37.1255 32.7388 37.272 32.5923C37.4185 32.4458 37.5008 32.247 37.5008 32.0398V28.9148C37.5008 28.7076 37.4185 28.5089 37.272 28.3624C37.1255 28.2159 36.9267 28.1336 36.7195 28.1336ZM35.9383 31.2586H32.8133V29.6961H35.9383V31.2586ZM31.2508 34.3836H37.5008V35.9461H31.2508V34.3836ZM31.2508 37.5086H37.5008V39.0711H31.2508V37.5086ZM31.2508 40.6336H37.5008V42.1961H31.2508V40.6336Z" fill="#333333"/>
<path d="M46.0938 18.7587H39.0625V17.9774C39.0625 17.3558 38.8156 16.7597 38.376 16.3201C37.9365 15.8806 37.3404 15.6337 36.7188 15.6337H35.9375V10.9462C35.9375 10.739 35.8552 10.5402 35.7087 10.3937C35.5622 10.2472 35.3635 10.1649 35.1563 10.1649H30.4688V11.7274H34.375V13.2899H28.9063C28.6991 13.2899 28.5003 13.3722 28.3538 13.5187C28.2073 13.6652 28.125 13.864 28.125 14.0712V15.6337H27.3438C26.7222 15.6337 26.126 15.8806 25.6865 16.3201C25.2469 16.7597 25 17.3558 25 17.9774V18.7587H14.8438C14.6366 18.7587 14.4378 18.6763 14.2913 18.5298C14.1448 18.3833 14.0625 18.1846 14.0625 17.9774V17.8626C14.5293 17.7401 14.9618 17.5121 15.3266 17.1962H21.0938C21.301 17.1962 21.4997 17.1138 21.6462 16.9673C21.7927 16.8208 21.875 16.6221 21.875 16.4149V15.6337H23.4375V14.0712H21.875V13.2899C21.875 13.0827 21.7927 12.884 21.6462 12.7375C21.4997 12.591 21.301 12.5087 21.0938 12.5087H19.5313V10.8758C20.6902 10.68 21.7332 10.0558 22.4536 9.1272C23.1741 8.19855 23.5194 7.03313 23.4211 5.86191C23.3228 4.69068 22.7881 3.59912 21.923 2.80353C21.0578 2.00795 19.9254 1.56641 18.75 1.56641C17.5747 1.56641 16.4422 2.00795 15.5771 2.80353C14.7119 3.59912 14.1772 4.69068 14.0789 5.86191C13.9806 7.03313 14.3259 8.19855 15.0464 9.1272C15.7668 10.0558 16.8099 10.68 17.9688 10.8758V12.5087H15.3266C14.7641 12.0056 14.0359 11.7274 13.2813 11.7274C12.5266 11.7274 11.7984 12.0056 11.2359 12.5087H8.59376V10.8758C9.75266 10.68 10.7957 10.0558 11.5161 9.1272C12.2366 8.19855 12.5819 7.03313 12.4836 5.86191C12.3853 4.69068 11.8506 3.59912 10.9855 2.80353C10.1203 2.00795 8.98785 1.56641 7.81251 1.56641C6.63717 1.56641 5.50471 2.00795 4.63956 2.80353C3.77442 3.59912 3.23972 4.69068 3.14143 5.86191C3.04314 7.03313 3.38843 8.19855 4.10888 9.1272C4.82933 10.0558 5.87235 10.68 7.03126 10.8758V12.5087H5.46876C5.26156 12.5087 5.06284 12.591 4.91633 12.7375C4.76982 12.884 4.68751 13.0827 4.68751 13.2899V14.0712H3.12501V15.6337H4.68751V16.4149C4.68751 16.6221 4.76982 16.8208 4.91633 16.9673C5.06284 17.1138 5.26156 17.1962 5.46876 17.1962H11.2359C11.6008 17.5121 12.0332 17.7401 12.5 17.8626V17.9774C12.5 18.599 12.7469 19.1952 13.1865 19.6347C13.626 20.0742 14.2222 20.3212 14.8438 20.3212H25.1438C25.2605 20.6479 25.4483 20.9447 25.6936 21.19C25.939 21.4354 26.2358 21.6232 26.5625 21.7399V23.4462H10.1563C9.53466 23.4462 8.93852 23.6931 8.49898 24.1326C8.05944 24.5722 7.81251 25.1683 7.81251 25.7899V44.5399C7.81251 45.1615 8.05944 45.7576 8.49898 46.1972C8.93852 46.6367 9.53466 46.8837 10.1563 46.8837V48.4462H11.7188V46.8837H36.7188V48.4462H38.2813V46.8837C38.7643 46.8817 39.2349 46.7305 39.6287 46.4508C40.0225 46.1711 40.3203 45.7766 40.4813 45.3212H42.9688C43.176 45.3212 43.3747 45.2388 43.5212 45.0923C43.6677 44.9458 43.75 44.7471 43.75 44.5399V42.1962H46.0938C46.7154 42.1962 47.3115 41.9492 47.751 41.5097C48.1906 41.0701 48.4375 40.474 48.4375 39.8524V21.1024C48.4375 20.4808 48.1906 19.8847 47.751 19.4451C47.3115 19.0056 46.7154 18.7587 46.0938 18.7587ZM15.625 6.25866C15.625 5.64059 15.8083 5.0364 16.1517 4.5225C16.495 4.0086 16.9831 3.60806 17.5541 3.37153C18.1251 3.13501 18.7535 3.07312 19.3597 3.1937C19.9659 3.31428 20.5227 3.61191 20.9597 4.04895C21.3968 4.48599 21.6944 5.04281 21.815 5.649C21.9355 6.25519 21.8737 6.88352 21.6371 7.45454C21.4006 8.02556 21.0001 8.51362 20.4862 8.857C19.9723 9.20038 19.3681 9.38366 18.75 9.38366C17.9212 9.38366 17.1264 9.05442 16.5403 8.46836C15.9543 7.88231 15.625 7.08746 15.625 6.25866ZM16.2953 14.0712H20.3125V15.6337H16.2953C16.4432 15.1233 16.4432 14.5815 16.2953 14.0712ZM4.68751 6.25866C4.68751 5.64059 4.87079 5.0364 5.21417 4.5225C5.55755 4.0086 6.0456 3.60806 6.61662 3.37153C7.18764 3.13501 7.81598 3.07312 8.42217 3.1937C9.02836 3.31428 9.58518 3.61191 10.0222 4.04895C10.4593 4.48599 10.7569 5.04281 10.8775 5.649C10.998 6.25519 10.9362 6.88352 10.6996 7.45454C10.4631 8.02556 10.0626 8.51362 9.54867 8.857C9.03476 9.20038 8.43058 9.38366 7.81251 9.38366C6.98371 9.38366 6.18885 9.05442 5.6028 8.46836C5.01675 7.88231 4.68751 7.08746 4.68751 6.25866ZM10.2672 15.6337H6.25001V14.0712H10.2672C10.1193 14.5815 10.1193 15.1233 10.2672 15.6337ZM11.7188 14.8524C11.7188 14.5434 11.8104 14.2413 11.9821 13.9843C12.1538 13.7274 12.3978 13.5271 12.6833 13.4088C12.9688 13.2906 13.283 13.2596 13.5861 13.3199C13.8892 13.3802 14.1676 13.529 14.3861 13.7476C14.6046 13.9661 14.7534 14.2445 14.8137 14.5476C14.874 14.8507 14.8431 15.1648 14.7248 15.4503C14.6066 15.7359 14.4063 15.9799 14.1493 16.1516C13.8924 16.3233 13.5903 16.4149 13.2813 16.4149C12.8669 16.4149 12.4694 16.2503 12.1764 15.9573C11.8834 15.6642 11.7188 15.2668 11.7188 14.8524ZM37.5 17.9774V19.5399C37.5 19.7471 37.4177 19.9458 37.2712 20.0923C37.1247 20.2388 36.926 20.3212 36.7188 20.3212H35.9375V17.1962H36.7188C36.926 17.1962 37.1247 17.2785 37.2712 17.425C37.4177 17.5715 37.5 17.7702 37.5 17.9774ZM34.375 20.3212H29.6875V17.1962H34.375V20.3212ZM29.6875 14.8524H34.375V15.6337H29.6875V14.8524ZM26.5625 17.9774C26.5625 17.7702 26.6448 17.5715 26.7913 17.425C26.9378 17.2785 27.1366 17.1962 27.3438 17.1962H28.125V20.3212H27.3438C27.1366 20.3212 26.9378 20.2388 26.7913 20.0923C26.6448 19.9458 26.5625 19.7471 26.5625 19.5399V17.9774ZM28.125 21.8837H35.9375V23.4462H28.125V21.8837ZM38.2813 45.3212H10.1563C9.94906 45.3212 9.75035 45.2388 9.60383 45.0923C9.45732 44.9458 9.37501 44.7471 9.37501 44.5399V25.7899C9.37501 25.5827 9.45732 25.384 9.60383 25.2375C9.75035 25.091 9.94906 25.0087 10.1563 25.0087H38.2813C38.4885 25.0087 38.6872 25.091 38.8337 25.2375C38.9802 25.384 39.0625 25.5827 39.0625 25.7899V44.5399C39.0625 44.7471 38.9802 44.9458 38.8337 45.0923C38.6872 45.2388 38.4885 45.3212 38.2813 45.3212ZM42.1875 43.7587H40.625V37.9915L42.1875 38.7727V43.7587ZM46.875 39.8524C46.875 40.0596 46.7927 40.2583 46.6462 40.4048C46.4997 40.5513 46.301 40.6337 46.0938 40.6337H43.75V38.2899C43.7508 38.1441 43.7108 38.0009 43.6344 37.8766C43.5581 37.7524 43.4484 37.652 43.318 37.5868L40.625 36.2446V25.7899C40.625 25.1683 40.3781 24.5722 39.9385 24.1326C39.499 23.6931 38.9029 23.4462 38.2813 23.4462H37.5V21.7399C37.8268 21.6232 38.1235 21.4354 38.3689 21.19C38.6142 20.9447 38.802 20.6479 38.9188 20.3212H46.0938C46.301 20.3212 46.4997 20.4035 46.6462 20.55C46.7927 20.6965 46.875 20.8952 46.875 21.1024V39.8524Z" fill="#333333"/>
<path d="M8.59375 6.25781C8.58987 6.10657 8.5409 5.95994 8.45312 5.83672L7.8125 3.91406L7.17188 5.83672C7.0841 5.95994 7.03513 6.10657 7.03125 6.25781C7.03125 6.46501 7.11356 6.66373 7.26007 6.81024C7.40659 6.95675 7.6053 7.03906 7.8125 7.03906C8.0197 7.03906 8.21841 6.95675 8.36493 6.81024C8.51144 6.66373 8.59375 6.46501 8.59375 6.25781ZM18.75 7.03906C18.9572 7.03906 19.1559 6.95675 19.3024 6.81024C19.4489 6.66373 19.5312 6.46501 19.5312 6.25781C19.5298 6.0746 19.4631 5.89791 19.3431 5.75945C19.2231 5.621 19.0577 5.52984 18.8766 5.50234L17.1875 4.69531L17.9945 6.38437C18.022 6.56551 18.1132 6.73092 18.2516 6.85091C18.3901 6.9709 18.5668 7.03761 18.75 7.03906Z" fill="#333333"/>
</svg>
