<svg width="25" height="25" viewBox="0 0 25 25" fill="none" xmlns="http://www.w3.org/2000/svg">
<path d="M22.7344 16.5156C23.2031 16.7344 23.5469 17.0625 23.7656 17.5C23.9844 17.9375 24.0469 18.4062 23.9531 18.9062L22.9219 23.3594C22.7969 23.8594 22.5469 24.25 22.1719 24.5312C21.7969 24.8438 21.3594 25 20.8594 25C16.9844 24.9688 13.4844 24.0156 10.3594 22.1406C7.20312 20.2969 4.70312 17.7969 2.85938 14.6406C0.984375 11.5156 0.03125 8.01562 0 4.14062C0 3.64062 0.15625 3.20312 0.46875 2.82812C0.75 2.45312 1.14062 2.20313 1.64062 2.07812L6.09375 1.04688C6.59375 0.953125 7.0625 1.01562 7.5 1.23438C7.9375 1.45313 8.26562 1.79688 8.48438 2.26562L10.5469 7.04688C10.8906 8.01562 10.6875 8.84375 9.9375 9.53125L8.0625 11.0781C9.4375 13.6094 11.3906 15.5625 13.9219 16.9375L15.4688 15.0625C16.1562 14.3125 16.9844 14.1094 17.9531 14.4531L22.7344 16.5156ZM21.4688 23.0312L22.5 18.5781C22.5312 18.2656 22.4062 18.0312 22.125 17.875L17.3438 15.8125C17.0625 15.7188 16.8281 15.7812 16.6406 16L14.6719 18.3906C14.4219 18.6719 14.125 18.7344 13.7812 18.5781C12.1875 17.7969 10.7656 16.7656 9.51562 15.4844C8.23438 14.2344 7.20312 12.8125 6.42188 11.2188C6.26562 10.875 6.32812 10.5781 6.60938 10.3281L9 8.35938C9.21875 8.17188 9.28125 7.9375 9.1875 7.65625L7.125 2.875C7 2.625 6.8125 2.5 6.5625 2.5C6.5 2.5 6.45312 2.5 6.42188 2.5L1.96875 3.53125C1.6875 3.625 1.53125 3.82812 1.5 4.14062C1.53125 7.73438 2.40625 10.9844 4.125 13.8906C5.875 16.7969 8.20312 19.125 11.1094 20.875C14.0156 22.5938 17.2656 23.4688 20.8594 23.5C21.1719 23.4688 21.375 23.3125 21.4688 23.0312Z" fill="white"/>
</svg>
