<svg width="25" height="25" viewBox="0 0 25 25" fill="none" xmlns="http://www.w3.org/2000/svg">
<path d="M18.8394 16.4276C18.6222 16.2111 18.3642 16.0393 18.08 15.922C17.7958 15.8048 17.4911 15.7445 17.1834 15.7445C16.8757 15.7445 16.5711 15.8048 16.2869 15.922C16.0027 16.0393 15.7446 16.2111 15.5274 16.4276L14.3974 17.5502C13.1251 16.748 11.9464 15.808 10.8828 14.7476C9.81755 13.6889 8.87161 12.5182 8.06168 11.256L9.19167 10.1334C9.40963 9.91761 9.58256 9.66122 9.70056 9.3789C9.81856 9.09659 9.8793 8.79391 9.8793 8.48823C9.8793 8.18255 9.81856 7.87987 9.70056 7.59755C9.58256 7.31524 9.40963 7.05884 9.19167 6.84307L6.98624 4.65984C6.77211 4.4426 6.5162 4.27034 6.23372 4.1533C5.95125 4.03626 5.64797 3.97684 5.34191 3.97855C5.03368 3.9778 4.72835 4.03761 4.44347 4.15453C4.1586 4.27145 3.89981 4.44318 3.682 4.65984L2.62214 5.705C2.11698 6.24459 1.73995 6.88979 1.51878 7.59316C1.29761 8.29654 1.23791 9.04021 1.34408 9.76952C1.59346 12.6727 3.51055 16.1644 6.46411 19.1063C9.41767 22.0482 12.9713 23.945 15.8937 24.2237C16.1117 24.2353 16.3302 24.2353 16.5483 24.2237C17.1774 24.25 17.8054 24.1512 18.3955 23.9331C18.9857 23.7151 19.5261 23.3822 19.985 22.954L21.0371 21.9011C21.2552 21.6847 21.428 21.4277 21.5457 21.1446C21.6634 20.8616 21.7236 20.5583 21.7229 20.2521C21.7246 19.9481 21.6648 19.6468 21.547 19.3661C21.4292 19.0855 21.2558 18.8313 21.0371 18.6186L18.8394 16.4276ZM19.9383 20.8095L18.8784 21.8547C18.4865 22.1791 18.0291 22.4162 17.537 22.5497C17.0449 22.6833 16.5297 22.7103 16.0262 22.6289C13.4934 22.4121 10.2671 20.6315 7.60189 17.9837C4.93667 15.336 3.14428 12.154 2.90269 9.63791C2.81865 9.13771 2.8448 8.62536 2.97934 8.13617C3.11388 7.64699 3.35361 7.19261 3.682 6.80436L4.78081 5.75145C4.85363 5.6797 4.93999 5.62293 5.03494 5.58441C5.12989 5.54588 5.23156 5.52635 5.33412 5.52694C5.43668 5.52635 5.53835 5.54588 5.6333 5.58441C5.72825 5.62293 5.81461 5.6797 5.88742 5.75145L8.09285 7.96565C8.238 8.1107 8.31947 8.30692 8.31947 8.51146C8.31947 8.71599 8.238 8.91221 8.09285 9.05726L6.53425 10.6056C6.41228 10.7262 6.33391 10.8835 6.31136 11.0529C6.2888 11.2224 6.32333 11.3945 6.40956 11.5424C7.34269 13.1206 8.47684 14.5726 9.78394 15.8624C11.0823 17.161 12.5439 18.2877 14.1325 19.2147C14.2813 19.3003 14.4546 19.3346 14.6252 19.3122C14.7957 19.2898 14.9541 19.212 15.0754 19.0908L16.634 17.5424C16.78 17.3982 16.9775 17.3173 17.1834 17.3173C17.3893 17.3173 17.5868 17.3982 17.7328 17.5424L19.9383 19.7334C20.0105 19.8057 20.0676 19.8915 20.1064 19.9858C20.1452 20.0802 20.1649 20.1812 20.1643 20.2831C20.1594 20.4808 20.0785 20.6692 19.9383 20.8095Z" fill="#010F34"/>
<path d="M21.2938 4.39678C20.2108 3.31676 18.9233 2.4604 17.5055 1.87708C16.0877 1.29375 14.5678 0.995011 13.0332 0.99807C12.8265 0.99807 12.6283 1.07964 12.4822 1.22483C12.336 1.37002 12.2539 1.56693 12.2539 1.77226C12.2539 1.97759 12.336 2.17451 12.4822 2.3197C12.6283 2.46489 12.8265 2.54646 13.0332 2.54646C14.3709 2.54641 15.6953 2.80953 16.9301 3.32064C18.1648 3.83174 19.2855 4.58072 20.2273 5.52433C21.1692 6.46795 21.9137 7.58752 22.4177 8.81845C22.9218 10.0494 23.1755 11.3673 23.1642 12.6961C23.1642 12.9015 23.2463 13.0984 23.3924 13.2436C23.5386 13.3888 23.7368 13.4703 23.9435 13.4703C24.1501 13.4703 24.3484 13.3888 24.4945 13.2436C24.6407 13.0984 24.7228 12.9015 24.7228 12.6961C24.7377 11.1554 24.442 9.62737 23.8531 8.20199C23.2642 6.77662 22.394 5.48279 21.2938 4.39678Z" fill="#010F34"/>
<path d="M16.8609 8.82677C17.3032 9.26348 17.6531 9.78367 17.8899 10.3567C18.1268 10.9298 18.2459 11.5441 18.2403 12.1635C18.2403 12.3689 18.3224 12.5658 18.4685 12.711C18.6147 12.8562 18.8129 12.9377 19.0196 12.9377C19.2263 12.9377 19.4245 12.8562 19.5706 12.711C19.7168 12.5658 19.7989 12.3689 19.7989 12.1635C19.8092 11.3437 19.6556 10.53 19.3469 9.7696C19.0382 9.0092 18.5806 8.31726 18.0006 7.73391C17.4207 7.15056 16.7299 6.68741 15.9684 6.37133C15.2069 6.05524 14.3898 5.89251 13.5645 5.89258C13.3578 5.89258 13.1596 5.97414 13.0134 6.11933C12.8673 6.26452 12.7852 6.46144 12.7852 6.66677C12.7852 6.8721 12.8673 7.06902 13.0134 7.21421C13.1596 7.3594 13.3578 7.44097 13.5645 7.44097C14.1786 7.44556 14.7858 7.57031 15.3515 7.80809C15.9171 8.04587 16.43 8.39202 16.8609 8.82677Z" fill="#010F34"/>
</svg>
