<svg width="40" height="40" viewBox="0 0 40 40" fill="none" xmlns="http://www.w3.org/2000/svg">
<g clip-path="url(#clip0_6157_1201)">
<path d="M38 3.33594H2C0.895469 3.33594 0 4.23141 0 5.33594V17.3359C0 17.7041 0.298516 18.0026 0.666641 18.0026C1.03477 18.0026 1.33328 17.7041 1.33328 17.3359V5.33594C1.33328 4.96773 1.6318 4.6693 1.99992 4.6693H3.33328V10.0026C3.33328 11.4753 4.52719 12.6692 5.99992 12.6692H33.9999C35.4727 12.6692 36.6666 11.4753 36.6666 10.0026V4.66922H38C38.3682 4.66922 38.6666 4.96773 38.6666 5.33586V19.3359C38.6645 21.1759 37.1734 22.667 35.3333 22.6692H33.3333V21.3359C33.3333 19.8631 32.1394 18.6692 30.6666 18.6692H23.24C22.8718 18.6692 22.5734 18.9677 22.5734 19.3359C22.5734 19.7041 22.8718 20.0025 23.24 20.0025H30.6666C31.403 20.0025 32 20.5995 32 21.3359V22.6692H24.52C24.1518 22.6692 23.8534 22.9677 23.8534 23.3359C23.8534 23.7041 24.1519 24.0025 24.52 24.0025H35.3334C37.9095 23.9995 39.9971 21.912 40 19.3359V5.33586C40 4.23133 39.1046 3.33594 38 3.33594ZM35.3334 10.0026C35.3334 10.739 34.7364 11.3359 34 11.3359H6C5.26359 11.3359 4.66664 10.739 4.66664 10.0026V4.66922H35.3333V10.0026H35.3334Z" fill="#010F34"/>
<path d="M6.66664 10.0032H33.3333C33.7015 10.0032 33.9999 9.70477 33.9999 9.33656C33.9999 8.96836 33.7015 8.66992 33.3333 8.66992H6.66664C6.29844 8.66992 6 8.96836 6 9.33656C6 9.70477 6.29852 10.0032 6.66664 10.0032Z" fill="#010F34"/>
<path d="M6.66664 7.33523H33.3333C33.7015 7.33523 33.9999 7.03672 33.9999 6.66859C33.9999 6.30047 33.7015 6.00195 33.3333 6.00195H6.66664C6.29844 6.00195 6 6.30047 6 6.66859C6 7.03672 6.29852 7.33523 6.66664 7.33523Z" fill="#010F34"/>
<path d="M33.3346 17.3352C33.7028 17.3352 34.0013 17.0368 34.0013 16.6686C34.0013 16.3004 33.7028 16.002 33.3346 16.002C32.9664 16.002 32.668 16.3004 32.668 16.6686C32.668 17.0368 32.9664 17.3352 33.3346 17.3352Z" fill="#010F34"/>
<path d="M35.9987 17.3352C36.3668 17.3352 36.6653 17.0368 36.6653 16.6686C36.6653 16.3004 36.3668 16.002 35.9987 16.002C35.6305 16.002 35.332 16.3004 35.332 16.6686C35.332 17.0368 35.6305 17.3352 35.9987 17.3352Z" fill="#010F34"/>
<path d="M24 34.6692C24 35.0374 24.2985 35.3359 24.6666 35.3359C25.0348 35.3359 25.3333 35.0373 25.3333 34.6692C25.3395 34.2816 25.5194 33.9172 25.8233 33.6766C26.3602 33.192 26.6666 32.5027 26.6666 31.7795C26.6666 31.0563 26.3602 30.367 25.8233 29.8825C25.5145 29.6463 25.3334 29.2796 25.3334 28.8909C25.3334 28.5021 25.5145 28.1355 25.8233 27.8992C26.3573 27.4127 26.6631 26.7249 26.6666 26.0026C26.6666 25.6344 26.3682 25.3359 26 25.3359C25.6318 25.3359 25.3334 25.6344 25.3334 26.0026C25.3272 26.3898 25.1473 26.7538 24.8434 26.9939C24.3066 27.4782 24.0002 28.1673 24.0002 28.8902C24.0002 29.6132 24.3066 30.3023 24.8434 30.7866C25.1522 31.0232 25.3333 31.3902 25.3333 31.7792C25.3333 32.1683 25.1522 32.5352 24.8434 32.7719C24.3097 33.2589 24.004 33.9468 24 34.6692Z" fill="#010F34"/>
<path d="M28.668 34.6692C28.668 35.0374 28.9665 35.3359 29.3346 35.3359C29.7028 35.3359 30.0012 35.0373 30.0012 34.6692C30.0075 34.2816 30.1873 33.9172 30.4912 33.6766C31.0281 33.192 31.3345 32.5027 31.3345 31.7795C31.3345 31.0563 31.0281 30.367 30.4912 29.8825C30.1825 29.6463 30.0014 29.2796 30.0014 28.8909C30.0014 28.5021 30.1825 28.1355 30.4912 27.8992C31.0252 27.4127 31.3311 26.7249 31.3346 26.0026C31.3346 25.6344 31.0362 25.3359 30.668 25.3359C30.2998 25.3359 30.0013 25.6344 30.0013 26.0026C29.9952 26.3898 29.8152 26.7538 29.5113 26.9939C28.9745 27.4782 28.6681 28.1673 28.6681 28.8902C28.6681 29.6132 28.9745 30.3023 29.5113 30.7866C29.8202 31.0232 30.0012 31.3902 30.0012 31.7792C30.0012 32.1683 29.8202 32.5352 29.5113 32.7719C28.9777 33.2589 28.672 33.9468 28.668 34.6692Z" fill="#010F34"/>
<path d="M32.668 34.6692C32.668 35.0374 32.9664 35.3359 33.3346 35.3359C33.7028 35.3359 34.0013 35.0373 34.0013 34.6692C34.0075 34.2816 34.1873 33.9172 34.4913 33.6766C35.0281 33.192 35.3345 32.5027 35.3345 31.7795C35.3345 31.0563 35.0281 30.367 34.4913 29.8825C34.1825 29.6463 34.0014 29.2796 34.0014 28.8909C34.0014 28.5021 34.1825 28.1355 34.4913 27.8992C35.0252 27.4127 35.3311 26.7249 35.3346 26.0026C35.3346 25.6344 35.0361 25.3359 34.668 25.3359C34.2998 25.3359 34.0013 25.6344 34.0013 26.0026C33.9952 26.3898 33.8152 26.7538 33.5113 26.9939C32.9745 27.4782 32.6681 28.1673 32.6681 28.8902C32.6681 29.6132 32.9745 30.3023 33.5113 30.7866C33.8202 31.0232 34.0013 31.3902 34.0013 31.7792C34.0013 32.1683 33.8202 32.5352 33.5113 32.7719C32.9777 33.2589 32.672 33.9468 32.668 34.6692Z" fill="#010F34"/>
<path d="M11.3334 36.6686C17.5926 36.6686 22.6667 31.5945 22.6667 25.3352C22.6667 19.076 17.5926 14.002 11.3334 14.002C5.07414 14.002 0 19.0761 0 25.3353C0.00695312 31.5916 5.07703 36.6616 11.3334 36.6686ZM11.3334 15.3353C16.8562 15.3353 21.3334 19.8125 21.3334 25.3353C21.3334 30.8581 16.8562 35.3353 11.3334 35.3353C5.81055 35.3353 1.33336 30.8581 1.33336 25.3353C1.33961 19.815 5.81305 15.3416 11.3334 15.3353Z" fill="#010F34"/>
<path d="M7.83176 24.9645L10.2531 25.7505L8.75778 27.8084L5.11442 28.3858C4.87653 28.4202 4.67551 28.5801 4.58848 28.8041C4.50145 29.0282 4.54176 29.2818 4.69403 29.4678C4.84629 29.6538 5.08692 29.7435 5.32379 29.7024L7.64981 29.3358L6.39848 31.0538C6.182 31.3516 6.24793 31.7686 6.54582 31.9851C6.84371 32.2016 7.26067 32.1356 7.47715 31.8377L8.73184 30.1184L9.09981 32.4437C9.1509 32.7673 9.42957 33.0059 9.75715 33.0064C9.79246 33.0065 9.8277 33.0036 9.86246 32.9977C10.226 32.9404 10.4743 32.5993 10.4172 32.2357L9.83981 28.5923L11.3318 26.5357L12.8272 28.5944L12.2498 32.2377C12.1927 32.6013 12.441 32.9423 12.8045 32.9998C12.8393 33.0056 12.8746 33.0085 12.9098 33.0084C13.2374 33.0079 13.5161 32.7694 13.5672 32.4458L13.9351 30.1205L15.1844 31.8398C15.3248 32.0328 15.5575 32.1363 15.795 32.1112C16.0323 32.0861 16.2383 31.9362 16.3353 31.7182C16.4322 31.5002 16.4055 31.2468 16.2651 31.0538L15.0138 29.3358L17.3398 29.7045C17.5767 29.7455 17.8173 29.6559 17.9696 29.4698C18.1218 29.2838 18.1622 29.0302 18.0751 28.8062C17.9881 28.5821 17.7871 28.4223 17.5492 28.3878L13.9058 27.8105L12.4105 25.7525L14.8318 24.9665L18.1165 26.6405C18.3296 26.7573 18.5893 26.7488 18.7943 26.6187C18.9994 26.4884 19.1175 26.257 19.1024 26.0145C19.0873 25.772 18.9415 25.557 18.7219 25.4532L16.6253 24.3866L18.6486 23.7299C18.8859 23.6654 19.0683 23.4755 19.1233 23.2359C19.1783 22.9962 19.097 22.7458 18.9117 22.5842C18.7264 22.4227 18.4672 22.3762 18.2373 22.4633L16.2107 23.1206L17.2773 21.0206C17.4447 20.6926 17.3143 20.2909 16.9863 20.1236C16.6582 19.9562 16.2566 20.0866 16.0893 20.4146L14.4139 23.7026L11.9986 24.4826V21.9359L14.6066 19.328C14.8397 19.0639 14.8271 18.6642 14.578 18.4152C14.3289 18.1663 13.9292 18.1541 13.6653 18.3873L11.9984 20.0538V17.9245C11.9984 17.5562 11.6999 17.2578 11.3318 17.2578C10.9636 17.2578 10.6651 17.5563 10.6651 17.9245V20.0524L8.9984 18.3858C8.83098 18.2125 8.58317 18.143 8.35004 18.204C8.11692 18.265 7.93496 18.447 7.87395 18.6801C7.81293 18.9132 7.88246 19.161 8.05575 19.3284L10.665 21.9358V24.4824L8.24637 23.6971L6.57106 20.4091C6.40371 20.081 6.00215 19.9507 5.67403 20.118C5.34598 20.2854 5.21567 20.687 5.38301 21.0151L6.45301 23.1151L4.42637 22.4577C4.19645 22.3706 3.93731 22.4171 3.752 22.5787C3.56668 22.7402 3.48535 22.9907 3.54035 23.2303C3.59535 23.4699 3.77778 23.6598 4.01504 23.7244L6.0384 24.381L3.94176 25.4477C3.62567 25.6209 3.50457 26.0141 3.66825 26.3352C3.83192 26.6562 4.22121 26.7891 4.54707 26.6351L7.83176 24.9645Z" fill="#010F34"/>
</g>
<defs>
<clipPath id="clip0_6157_1201">
<rect width="40" height="40" fill="white" transform="translate(0 0.00195312)"/>
</clipPath>
</defs>
</svg>
