<svg width="60" height="60" viewBox="0 0 60 60" fill="none" xmlns="http://www.w3.org/2000/svg">
<g clip-path="url(#clip0_5720_4242)">
<path d="M29.9998 32.9981C28.9279 32.9954 27.9361 33.5647 27.3979 34.4917C26.8596 35.4185 26.8568 36.5622 27.3904 37.4917C27.924 38.4213 28.9129 38.9956 29.9847 38.9982H29.9918C31.0636 38.9996 32.0548 38.4291 32.5919 37.5017C33.129 36.5742 33.1306 35.4306 32.5959 34.5016C32.0611 33.5726 31.0716 32.9995 29.9998 32.9981ZM29.9918 36.9981C29.4405 36.9937 28.9968 36.544 28.9998 35.9929C29.0027 35.4416 29.4512 34.9967 30.0024 34.9981C30.5537 34.9996 30.9999 35.4469 30.9999 35.9981C30.9999 36.265 30.8933 36.5207 30.7038 36.7084C30.5143 36.8963 30.2577 37.0005 29.9908 36.9981H29.9918Z" fill="#FF5500"/>
<path d="M14.1999 42.7434C14.7818 42.9568 15.396 43.0694 16.016 43.0764C17.1942 43.0744 18.3206 42.592 19.135 41.7403C19.8594 40.9984 20.7083 40.3891 21.6431 39.9403C22.3381 39.5118 23.1701 39.3638 23.9702 39.5263C24.0002 39.5772 24.0312 39.6262 24.0622 39.6782C22.1578 41.7891 20.9737 44.4506 20.6811 47.2784C20.4315 49.3455 21.1299 51.4145 22.5811 52.9076C23.5893 53.9222 24.7995 54.7136 26.1332 55.2306C27.2875 55.7265 28.529 55.9874 29.7853 55.9987C31.1295 55.9928 32.4537 55.6741 33.6534 55.0676C35.0862 54.4388 36.2042 53.2577 36.7535 51.7925C37.4606 50.0997 37.0594 48.1466 35.7425 46.8693C35.0061 46.1403 34.4002 45.2906 33.9504 44.3572C33.5238 43.6633 33.3739 42.8344 33.5304 42.0352C33.5844 42.0032 33.6374 41.9721 33.6903 41.9352C35.7992 43.8386 38.4588 45.022 41.2845 45.3143C41.5606 45.3428 41.838 45.3572 42.1155 45.3573C43.9103 45.3707 45.6369 44.6707 46.9156 43.4112C47.9297 42.4022 48.7211 41.1918 49.2387 39.8581C50.3193 37.4549 50.2587 34.6925 49.0737 32.3389C48.4408 30.9119 47.2616 29.7987 45.8006 29.2489C44.1074 28.5352 42.1498 28.9321 40.8685 30.2489C40.1431 30.9902 39.294 31.5992 38.3594 32.0489C37.6651 32.4751 36.8358 32.6248 36.0364 32.468L35.9364 32.304C37.8391 30.1956 39.0239 27.5382 39.3205 24.7138C39.5699 22.6443 38.8662 20.5736 37.4075 19.0847C36.402 18.07 35.1941 17.2785 33.8624 16.7616C31.4615 15.6843 28.7034 15.7438 26.3511 16.9236C24.915 17.5494 23.7939 18.7308 23.2441 20.1976C22.5371 21.8908 22.9382 23.8441 24.2551 25.1218C24.9914 25.848 25.5998 26.6932 26.0551 27.6218C26.4791 28.3202 26.6278 29.1517 26.4721 29.9539L26.3141 30.0489C24.2049 28.1421 21.5425 26.9577 18.7139 26.6679C16.6481 26.4072 14.5768 27.1073 13.0928 28.5679C12.0793 29.5756 11.2886 30.7846 10.7717 32.117C9.68604 34.5196 9.74264 37.2839 10.9257 39.6402C11.5562 41.0725 12.736 42.1907 14.1999 42.7434ZM35.0005 35.9982C34.9956 38.7601 32.7562 40.9968 29.9944 40.9984H29.9833C27.2219 40.9937 24.987 38.7513 24.9917 35.9898C24.9964 33.2283 27.2389 30.9935 30.0003 30.9982H30.0054C32.7649 31.0009 35.0005 33.2387 35.0005 35.9982ZM32.1514 45.2374C32.7002 46.3694 33.4366 47.4003 34.3295 48.2865C35.1005 49.0212 35.3152 50.1666 34.8625 51.1306C34.4853 52.0991 33.7305 52.8724 32.7714 53.2726C30.9358 54.2037 28.7752 54.2449 26.9052 53.3846C25.8284 52.972 24.8495 52.3392 24.0311 51.5266C22.9827 50.459 22.4812 48.9698 22.6701 47.4855C22.9091 45.1732 23.8479 42.989 25.3611 41.2243C26.6306 42.3624 28.2744 42.9938 29.9792 42.9984H29.9942C30.4799 42.9974 30.9641 42.9465 31.4393 42.8464C31.5129 43.683 31.755 44.496 32.1514 45.2365V45.2374ZM39.2406 33.8472C40.3762 33.3001 41.4081 32.5602 42.2907 31.6602C43.0249 30.8875 44.1731 30.6755 45.1348 31.1352C46.1018 31.515 46.8743 32.2695 47.2768 33.2273C48.2079 35.0626 48.2492 37.2229 47.3889 39.0924C46.979 40.1699 46.3466 41.1489 45.5328 41.9655C44.4686 43.0216 42.9751 43.5249 41.4887 43.3285C39.1759 43.0906 36.9912 42.1512 35.2275 40.6364C36.7055 38.9844 37.3084 36.7272 36.8506 34.5582C37.6871 34.4855 38.5003 34.2436 39.2406 33.8472ZM27.8522 26.758C27.3006 25.6251 26.5611 24.5939 25.6652 23.7079C24.8939 22.9734 24.6792 21.8276 25.1322 20.8638C25.5101 19.8927 26.269 19.1187 27.2323 18.7217C29.0682 17.793 31.2274 17.7518 33.0975 18.6097C34.1746 19.0199 35.1522 19.6542 35.9656 20.4708C37.0264 21.5299 37.5323 23.0232 37.3337 24.509C37.0903 26.8206 36.1485 29.0032 34.6336 30.7661C33.3614 29.6294 31.7155 29.0002 30.0095 28.9981H30.0005C29.5148 28.9982 29.0306 29.0488 28.5554 29.1491C28.4813 28.3133 28.2424 27.5007 27.8522 26.758ZM12.6149 32.8982C13.0248 31.8197 13.658 30.84 14.4729 30.0231C15.5339 28.9685 17.0242 28.466 18.507 28.6631C20.8211 28.8995 23.0073 29.8395 24.7712 31.3562C23.2939 33.0081 22.6931 35.2657 23.1542 37.4333C22.3173 37.5057 21.5038 37.7472 20.7631 38.1434C19.6295 38.6914 18.5987 39.4306 17.7161 40.3284C16.9815 41.1026 15.832 41.3153 14.869 40.8554C13.8996 40.4784 13.1243 39.7248 12.72 38.7664C11.79 36.9291 11.7513 34.7675 12.6149 32.8982Z" fill="#FF5500"/>
<path d="M1.9989 25.9983H5.99897V57.9992C5.99897 59.1038 6.89442 59.9993 7.99906 59.9993H52.0003C53.1049 59.9993 54.0004 59.1038 54.0004 57.9992V25.9983H58.0005C58.8505 25.998 59.6074 25.4606 59.8879 24.6583C60.1685 23.856 59.9111 22.964 59.2466 22.4343L52.0003 16.7411V5.99768C52.0003 4.89304 51.1049 3.99758 50.0002 3.99758H45C43.8954 3.99758 42.9999 4.89304 42.9999 5.99768V9.66973L31.2557 0.440494C30.5253 -0.142882 29.4893 -0.145811 28.7556 0.433462L0.744842 22.4412C0.084824 22.9732 -0.167956 23.8636 0.113887 24.6632C0.395731 25.4627 1.15102 25.9977 1.9989 25.9983ZM45 5.99768H50.0002V15.17L45 11.2408V5.99768ZM30.0096 2.00558L58.0103 23.9982H53.0002C52.4479 23.9982 52.0002 24.446 52.0002 24.9982V57.9991H7.99906V24.9982C7.99906 24.4458 7.55128 23.9982 6.99908 23.9982L1.99093 24.0061L30.0096 2.00558Z" fill="#FF5500"/>
</g>
<defs>
<clipPath id="clip0_5720_4242">
<rect width="60" height="60" fill="white"/>
</clipPath>
</defs>
</svg>
