<svg width="40" height="40" viewBox="0 0 40 40" fill="none" xmlns="http://www.w3.org/2000/svg">
<g clip-path="url(#clip0_6160_1298)">
<path d="M35.1044 27.1537L34.0388 28.7506H30.8831L32.7588 26.875H34.375V25.625H33.125V24.375H31.875V25.9912L30 27.8662V24.7094L31.5963 23.645L30.9025 22.605L30 23.2069V21.875H28.75V23.2069L27.8463 22.605L27.1525 23.645L28.75 24.7088V27.8662L26.875 25.9912V24.375H25.625V25.625H24.375V26.875H25.9912L27.8669 28.7506H24.7094L23.645 27.1544L22.605 27.8481L23.2069 28.7506H21.875V30.0006H23.2069L22.605 30.9044L23.645 31.5981L24.7088 30.0006H27.8656L25.9912 31.875H24.375V33.125H25.625V34.375H26.875V32.7587L28.75 30.8837V34.0412L27.1531 35.1056L27.8469 36.1456L28.75 35.5431V36.8762H30V35.5431L30.9031 36.1456L31.5969 35.1056L30 34.04V30.8837L31.875 32.7587V34.375H33.125V33.125H34.375V31.875H32.7588L30.8844 30.0006H34.04L35.1044 31.5975L36.1444 30.9037L35.5419 30.0006H36.875V28.7506H35.5419L36.1444 27.8475L35.1044 27.1537Z" fill="#010F34"/>
<path d="M29.375 19.376C27.2457 19.3766 25.173 20.0616 23.4625 21.3297L18.125 19.5504V17.9054C18.8896 17.4634 19.5522 16.8649 20.0692 16.1489C20.5862 15.433 20.946 14.6158 21.125 13.751H21.25C21.8577 13.7517 22.4448 13.5307 22.9011 13.1293C23.3573 12.7279 23.6514 12.1738 23.7281 11.5709C23.8049 10.9681 23.6589 10.358 23.3177 9.85513C22.9765 9.35226 22.4635 8.9912 21.875 8.83973V7.50098C21.875 5.67761 21.1507 3.92893 19.8614 2.63962C18.5721 1.35031 16.8234 0.625977 15 0.625977C13.1766 0.625977 11.428 1.35031 10.1386 2.63962C8.84933 3.92893 8.125 5.67761 8.125 7.50098V8.83973C7.53648 8.9912 7.02348 9.35226 6.68228 9.85513C6.34108 10.358 6.19514 10.9681 6.27186 11.5709C6.34857 12.1738 6.64267 12.7279 7.09895 13.1293C7.55522 13.5307 8.1423 13.7517 8.75 13.751H8.875C9.054 14.6158 9.41381 15.433 9.93083 16.1489C10.4479 16.8649 11.1104 17.4634 11.875 17.9054V19.5504L5.79563 21.5772C4.2892 22.0779 2.97883 23.0404 2.05063 24.3282C1.12243 25.616 0.6236 27.1635 0.625003 28.751V38.751C0.625003 38.9167 0.690851 39.0757 0.808061 39.1929C0.925271 39.3101 1.08424 39.376 1.25 39.376H23.75C23.9158 39.376 24.0747 39.3101 24.1919 39.1929C24.3092 39.0757 24.375 38.9167 24.375 38.751V38.0229C25.7026 38.7907 27.189 39.2428 28.7193 39.3441C30.2496 39.4454 31.7827 39.1932 33.1999 38.607C34.6171 38.0208 35.8803 37.1164 36.8919 35.9637C37.9035 34.811 38.6363 33.4409 39.0335 31.9596C39.4307 30.4783 39.4817 28.9254 39.1825 27.4213C38.8833 25.9171 38.242 24.5019 37.3082 23.2853C36.3745 22.0687 35.1732 21.0833 33.7976 20.4054C32.4219 19.7275 30.9086 19.3753 29.375 19.376ZM22.3444 22.2741C21.6665 22.9459 21.0876 23.7106 20.625 24.5454V21.701L22.3444 22.2741ZM22.5 11.251C22.5 11.5825 22.3683 11.9004 22.1339 12.1349C21.8995 12.3693 21.5815 12.501 21.25 12.501V10.001C21.5815 10.001 21.8995 10.1327 22.1339 10.3671C22.3683 10.6015 22.5 10.9195 22.5 11.251ZM15 1.87598C16.4913 1.87763 17.9211 2.47079 18.9757 3.52533C20.0302 4.57986 20.6233 6.00964 20.625 7.50098V7.52035C20.3366 7.12802 19.9601 6.80881 19.526 6.58835C19.0918 6.3679 18.6119 6.25234 18.125 6.25098H11.875C11.3881 6.25234 10.9082 6.3679 10.474 6.58835C10.0399 6.80881 9.66343 7.12802 9.375 7.52035V7.50098C9.37666 6.00964 9.96982 4.57986 11.0244 3.52533C12.0789 2.47079 13.5087 1.87763 15 1.87598ZM19.885 8.75098H10.115C10.2438 8.38666 10.482 8.07103 10.7971 7.84728C11.1121 7.62353 11.4886 7.50258 11.875 7.50098H18.125C18.5114 7.50258 18.8879 7.62353 19.2029 7.84728C19.518 8.07103 19.7562 8.38666 19.885 8.75098ZM7.5 11.251C7.5 10.9195 7.6317 10.6015 7.86612 10.3671C8.10054 10.1327 8.41848 10.001 8.75 10.001V12.501C8.41848 12.501 8.10054 12.3693 7.86612 12.1349C7.6317 11.9004 7.5 11.5825 7.5 11.251ZM10 12.501V10.001H20V12.501C20 13.8271 19.4732 15.0988 18.5355 16.0365C17.5979 16.9742 16.3261 17.501 15 17.501C13.6739 17.501 12.4022 16.9742 11.4645 16.0365C10.5268 15.0988 10 13.8271 10 12.501ZM15 18.751C15.636 18.751 16.2683 18.6539 16.875 18.4629V19.8135L16.4231 20.491C16.267 20.7253 16.0554 20.9175 15.8071 21.0504C15.5589 21.1834 15.2816 21.2529 15 21.2529C14.7184 21.2529 14.4411 21.1834 14.1929 21.0504C13.9446 20.9175 13.733 20.7253 13.5769 20.491L13.125 19.8135V18.4629C13.7317 18.6539 14.364 18.751 15 18.751ZM12.2444 20.7447L12.5369 21.1822C12.8073 21.5877 13.1735 21.9201 13.6032 22.15C14.0329 22.3799 14.5127 22.5002 15 22.5002C15.4873 22.5002 15.9671 22.3799 16.3968 22.15C16.8265 21.9201 17.1927 21.5877 17.4631 21.1822L17.7556 20.7447L19.375 21.2847V29.376C19.375 29.5872 19.3938 29.7935 19.4069 30.001H10.625V21.2847L12.2444 20.7447ZM6.875 22.5347L9.375 21.7016V30.001H6.875V22.5347ZM1.875 28.751C1.87432 27.53 2.22836 26.335 2.89409 25.3115C3.55982 24.2879 4.50857 23.4798 5.625 22.9854V38.126H1.875V28.751ZM18.125 38.126H11.875V35.001H18.125V38.126ZM23.125 38.126H19.375V34.376C19.375 34.2102 19.3092 34.0512 19.1919 33.934C19.0747 33.8168 18.9158 33.751 18.75 33.751H11.25C11.0842 33.751 10.9253 33.8168 10.8081 33.934C10.6909 34.0512 10.625 34.2102 10.625 34.376V38.126H6.875V31.251H19.5575C20.0055 33.5852 21.2702 35.6835 23.125 37.1697V38.126ZM29.375 38.126C27.0551 38.1235 24.831 37.2008 23.1906 35.5604C21.5502 33.92 20.6275 31.6959 20.625 29.376V29.3641C20.6273 27.634 21.1425 25.9435 22.1054 24.5061C23.0683 23.0687 24.4357 21.9491 26.0347 21.2886C27.6338 20.6282 29.3928 20.4566 31.0893 20.7956C32.7859 21.1345 34.3438 21.9688 35.5664 23.193C36.7889 24.4172 37.6211 25.9763 37.9577 27.6733C38.2944 29.3703 38.1204 31.129 37.4578 32.7272C36.7952 34.3254 35.6737 35.6912 34.235 36.6522C32.7963 37.6131 31.1051 38.126 29.375 38.126Z" fill="#010F34"/>
<path d="M36.875 0.625977H26.875C26.212 0.625977 25.5761 0.889369 25.1072 1.35821C24.6384 1.82705 24.375 2.46294 24.375 3.12598V7.50098C24.375 7.66674 24.4408 7.82571 24.5581 7.94292C24.6753 8.06013 24.8342 8.12598 25 8.12598H38.75C38.9158 8.12598 39.0747 8.06013 39.1919 7.94292C39.3092 7.82571 39.375 7.66674 39.375 7.50098V3.12598C39.375 2.46294 39.1116 1.82705 38.6428 1.35821C38.1739 0.889369 37.538 0.625977 36.875 0.625977ZM26.875 1.87598H36.875C37.2065 1.87598 37.5245 2.00767 37.7589 2.24209C37.9933 2.47651 38.125 2.79446 38.125 3.12598V4.37598H25.625V3.12598C25.625 2.79446 25.7567 2.47651 25.9911 2.24209C26.2255 2.00767 26.5435 1.87598 26.875 1.87598ZM25.625 6.87598V5.62598H38.125V6.87598H25.625Z" fill="#010F34"/>
<path d="M31.25 10.001H32.5V13.126H31.25V10.001Z" fill="#010F34"/>
<path d="M26.875 10.001H28.125V13.126H26.875V10.001Z" fill="#010F34"/>
<path d="M35.625 10.001H36.875V13.126H35.625V10.001Z" fill="#010F34"/>
</g>
<defs>
<clipPath id="clip0_6160_1298">
<rect width="40" height="40" fill="white" transform="translate(0 0.000976562)"/>
</clipPath>
</defs>
</svg>
