<svg width="40" height="40" viewBox="0 0 40 40" fill="none" xmlns="http://www.w3.org/2000/svg">
<g clip-path="url(#clip0_6157_1221)">
<path d="M38 19.3348H33.3334V14.5255C35.7271 13.3055 37.2612 10.8731 37.3307 8.18737C37.4002 5.50151 35.9941 2.99307 33.6667 1.65088C33.4605 1.53182 33.2063 1.53182 33.0001 1.65088C32.7938 1.76995 32.6667 1.99002 32.6667 2.22823V8.29088L30 9.89081L27.3334 8.29081V2.22807C27.3334 1.98987 27.2063 1.76979 27 1.65073C26.7938 1.53167 26.5396 1.53167 26.3334 1.65073C24.0059 2.99292 22.5998 5.50143 22.6694 8.18721C22.7389 10.8731 24.273 13.3054 26.6667 14.5253V19.3346H15.3334V9.68276C15.3334 8.2301 15.6387 7.19409 16.2173 6.68807C16.3671 6.55706 16.543 6.4594 16.7334 6.40143C16.9075 6.95502 17.4197 7.33245 18 7.33479H20C20.7364 7.33479 21.3334 6.73784 21.3334 6.00143V2.66807C21.3334 1.93167 20.7364 1.33471 20 1.33471H18C17.5824 1.33573 17.1897 1.53338 16.94 1.86807C14.3837 0.105181 11.1803 -0.441382 8.18398 0.374087C5.4893 0.997056 3.29664 2.94807 2.36469 5.55206C2.19711 6.07612 2.36867 6.64924 2.79656 6.99502C3.22445 7.34088 3.82078 7.38838 4.29805 7.11471C5.38633 6.3751 6.78398 6.26416 7.97539 6.82268C8.86672 7.32932 9.33336 8.31799 9.33336 9.68268V19.3347H2C0.895469 19.3347 0 20.2302 0 21.3347V35.3347C0.00296875 37.9108 2.09055 39.9985 4.66664 40.0014H35.3333C37.9094 39.9984 39.997 37.9108 39.9999 35.3347V21.3347C40 20.2302 39.1046 19.3348 38 19.3348ZM18 2.66807H20V6.00143H18V2.66807ZM24 8.00143C24.0045 6.29659 24.7312 4.67346 26 3.53479V8.66815C26.0001 8.90213 26.1227 9.11901 26.3234 9.23948L29.6567 11.2395C29.868 11.3664 30.1321 11.3664 30.3434 11.2395L33.6767 9.23948C33.8773 9.11901 34 8.90213 34.0001 8.66815V3.53479C36.0556 5.37331 36.5932 8.37627 35.3031 10.8137C34.013 13.2511 31.2277 14.4953 28.5514 13.8295C25.8752 13.1635 23.9975 10.7592 24 8.00143ZM28 15.0508C29.3065 15.4295 30.6936 15.4295 32 15.0508V19.3348H28V15.0508ZM8.63664 5.66479C7.03344 4.86698 5.12695 4.98198 3.63133 5.96682C4.42852 3.79112 6.27602 2.16909 8.53664 1.66018C11.36 0.888618 14.3821 1.51456 16.6666 3.34417V5.04752C16.1892 5.12987 15.7429 5.3394 15.3746 5.65416C14.462 6.42752 13.9999 7.78213 13.9999 9.68284V13.3349H10.6666V9.68284C10.6666 7.83807 9.94531 6.41081 8.63664 5.66479ZM10.6666 14.6681H14V19.3347H10.6666V14.6681ZM10 20.6681H35.3334V26.0014C35.3334 26.7378 34.7364 27.3348 34 27.3348H6C5.26359 27.3348 4.66664 26.7378 4.66664 26.0014V20.6681H10ZM8 38.6681V37.3347C8 36.5983 8.59695 36.0014 9.33336 36.0014H30.6667C31.4031 36.0014 32.0001 36.5983 32.0001 37.3347V38.6681H8ZM38.6666 35.3348C38.6645 37.1748 37.1734 38.6659 35.3333 38.6681H33.3333V37.3348C33.3333 35.8621 32.1394 34.6681 30.6666 34.6681H9.33336C7.86063 34.6681 6.66672 35.8621 6.66672 37.3348V38.6681H4.66672C2.82672 38.666 1.33562 37.1749 1.33336 35.3348V21.3348C1.33336 20.9666 1.63188 20.6681 2 20.6681H3.33336V26.0015C3.33336 27.4742 4.52727 28.6681 6 28.6681H34C35.4727 28.6681 36.6666 27.4742 36.6666 26.0015V20.6681H38C38.3682 20.6681 38.6666 20.9666 38.6666 21.3348V35.3348Z" fill="#010F34"/>
<path d="M23.9987 32.002H15.9987C15.6305 32.002 15.332 32.3004 15.332 32.6686C15.332 33.0368 15.6305 33.3352 15.9987 33.3352H23.9987C24.3669 33.3352 24.6653 33.0368 24.6653 32.6686C24.6653 32.3004 24.3669 32.002 23.9987 32.002Z" fill="#010F34"/>
<path d="M6.66664 26.0013H33.3333C33.7015 26.0013 33.9999 25.7028 33.9999 25.3346C33.9999 24.9664 33.7015 24.668 33.3333 24.668H6.66664C6.29844 24.668 6 24.9664 6 25.3346C6 25.7028 6.29852 26.0013 6.66664 26.0013Z" fill="#010F34"/>
<path d="M6.66664 23.3352H33.3333C33.7015 23.3352 33.9999 23.0368 33.9999 22.6686C33.9999 22.3004 33.7015 22.002 33.3333 22.002H6.66664C6.29844 22.002 6 22.3005 6 22.6686C6 23.0367 6.29852 23.3352 6.66664 23.3352Z" fill="#010F34"/>
<path d="M33.3346 33.3352C33.7028 33.3352 34.0013 33.0368 34.0013 32.6686C34.0013 32.3004 33.7028 32.002 33.3346 32.002C32.9664 32.002 32.668 32.3004 32.668 32.6686C32.668 33.0368 32.9664 33.3352 33.3346 33.3352Z" fill="#010F34"/>
<path d="M35.9987 33.3352C36.3668 33.3352 36.6653 33.0368 36.6653 32.6686C36.6653 32.3004 36.3668 32.002 35.9987 32.002C35.6305 32.002 35.332 32.3004 35.332 32.6686C35.332 33.0368 35.6305 33.3352 35.9987 33.3352Z" fill="#010F34"/>
</g>
<defs>
<clipPath id="clip0_6157_1221">
<rect width="40" height="40" fill="white" transform="translate(0 0.00195312)"/>
</clipPath>
</defs>
</svg>
