<svg width="60" height="60" viewBox="0 0 60 60" fill="none" xmlns="http://www.w3.org/2000/svg">
<g clip-path="url(#clip0_5720_4322)">
<path d="M52.6566 40.7287L51.0581 43.124H46.3247L49.1381 40.3105H51.5625V38.4355H49.6875V36.5605H47.8125V38.9849L45 41.7974V37.0621L47.3944 35.4655L46.3538 33.9055L45 34.8084V32.8105H43.125V34.8084L41.7694 33.9055L40.7288 35.4655L43.125 37.0612V41.7974L40.3125 38.9849V36.5605H38.4375V38.4355H36.5625V40.3105H38.9869L41.8003 43.124H37.0641L35.4675 40.7296L33.9075 41.7702L34.8103 43.124H32.8125V44.999H34.8103L33.9075 46.3546L35.4675 47.3952L37.0631 44.999H41.7984L38.9869 47.8105H36.5625V49.6855H38.4375V51.5605H40.3125V49.1362L43.125 46.3237V51.0599L40.7297 52.6565L41.7703 54.2165L43.125 53.3127V55.3124H45V53.3127L46.3547 54.2165L47.3953 52.6565L45 51.058V46.3237L47.8125 49.1362V51.5605H49.6875V49.6855H51.5625V47.8105H49.1381L46.3266 44.999H51.06L52.6566 47.3943L54.2166 46.3537L53.3128 44.999H55.3125V43.124H53.3128L54.2166 41.7693L52.6566 40.7287Z" fill="#FF5500"/>
<path d="M44.0625 29.0625C40.8685 29.0635 37.7595 30.0909 35.1938 31.9931L27.1875 29.3241V26.8566C28.3344 26.1937 29.3282 25.2958 30.1038 24.2219C30.8793 23.148 31.419 21.9222 31.6875 20.625H31.875C32.7866 20.6261 33.6672 20.2945 34.3516 19.6925C35.036 19.0904 35.4771 18.2592 35.5922 17.355C35.7073 16.4507 35.4884 15.5355 34.9766 14.7812C34.4648 14.0269 33.6953 13.4853 32.8125 13.2581V11.25C32.8125 8.51496 31.726 5.89193 29.792 3.95796C27.8581 2.02399 25.235 0.9375 22.5 0.9375C19.765 0.9375 17.1419 2.02399 15.208 3.95796C13.274 5.89193 12.1875 8.51496 12.1875 11.25V13.2581C11.3047 13.4853 10.5352 14.0269 10.0234 14.7812C9.51162 15.5355 9.29271 16.4507 9.40779 17.355C9.52286 18.2592 9.964 19.0904 10.6484 19.6925C11.3328 20.2945 12.2135 20.6261 13.125 20.625H13.3125C13.581 21.9222 14.1207 23.148 14.8962 24.2219C15.6718 25.2958 16.6656 26.1937 17.8125 26.8566V29.3241L8.69344 32.3644C6.4338 33.1153 4.46824 34.5592 3.07594 36.4909C1.68364 38.4226 0.935399 40.7438 0.937504 43.125V58.125C0.937504 58.3736 1.03628 58.6121 1.21209 58.7879C1.38791 58.9637 1.62636 59.0625 1.875 59.0625H35.625C35.8736 59.0625 36.1121 58.9637 36.2879 58.7879C36.4637 58.6121 36.5625 58.3736 36.5625 58.125V57.0328C38.5538 58.1847 40.7835 58.8628 43.079 59.0148C45.3744 59.1667 47.674 58.7884 49.7998 57.9091C51.9256 57.0298 53.8205 55.6731 55.3379 53.944C56.8553 52.215 57.9544 50.1599 58.5502 47.9379C59.146 45.716 59.2225 43.3867 58.7737 41.1304C58.325 38.8742 57.3631 36.7514 55.9624 34.9265C54.5617 33.1016 52.7599 31.6236 50.6963 30.6067C48.6328 29.5898 46.363 29.0615 44.0625 29.0625ZM33.5166 33.4097C32.4998 34.4174 31.6315 35.5645 30.9375 36.8166V32.55L33.5166 33.4097ZM33.75 16.875C33.75 17.3723 33.5525 17.8492 33.2008 18.2008C32.8492 18.5525 32.3723 18.75 31.875 18.75V15C32.3723 15 32.8492 15.1975 33.2008 15.5492C33.5525 15.9008 33.75 16.3777 33.75 16.875ZM22.5 2.8125C24.737 2.81498 26.8817 3.70473 28.4635 5.28653C30.0453 6.86833 30.935 9.013 30.9375 11.25V11.2791C30.5049 10.6906 29.9402 10.2117 29.2889 9.88106C28.6377 9.55038 27.9179 9.37705 27.1875 9.375H17.8125C17.0821 9.37705 16.3623 9.55038 15.7111 9.88106C15.0598 10.2117 14.4952 10.6906 14.0625 11.2791V11.25C14.065 9.013 14.9547 6.86833 16.5365 5.28653C18.1183 3.70473 20.263 2.81498 22.5 2.8125ZM29.8275 13.125H15.1725C15.3657 12.5785 15.723 12.1051 16.1956 11.7695C16.6682 11.4338 17.2329 11.2524 17.8125 11.25H27.1875C27.7671 11.2524 28.3318 11.4338 28.8044 11.7695C29.277 12.1051 29.6343 12.5785 29.8275 13.125ZM11.25 16.875C11.25 16.3777 11.4475 15.9008 11.7992 15.5492C12.1508 15.1975 12.6277 15 13.125 15V18.75C12.6277 18.75 12.1508 18.5525 11.7992 18.2008C11.4475 17.8492 11.25 17.3723 11.25 16.875ZM15 18.75V15H30V18.75C30 20.7391 29.2098 22.6468 27.8033 24.0533C26.3968 25.4598 24.4891 26.25 22.5 26.25C20.5109 26.25 18.6032 25.4598 17.1967 24.0533C15.7902 22.6468 15 20.7391 15 18.75ZM22.5 28.125C23.454 28.1251 24.4025 27.9793 25.3125 27.6928V29.7188L24.6347 30.735C24.4005 31.0866 24.0831 31.3748 23.7107 31.5742C23.3383 31.7736 22.9224 31.8779 22.5 31.8779C22.0776 31.8779 21.6617 31.7736 21.2893 31.5742C20.9169 31.3748 20.5995 31.0866 20.3653 30.735L19.6875 29.7188V27.6928C20.5975 27.9793 21.546 28.1251 22.5 28.125ZM18.3666 31.1156L18.8053 31.7719C19.2109 32.38 19.7603 32.8787 20.4048 33.2235C21.0493 33.5684 21.769 33.7488 22.5 33.7488C23.231 33.7488 23.9507 33.5684 24.5952 33.2235C25.2397 32.8787 25.7891 32.38 26.1947 31.7719L26.6334 31.1156L29.0625 31.9256V44.0625C29.0625 44.3794 29.0906 44.6888 29.1103 45H15.9375V31.9256L18.3666 31.1156ZM10.3125 33.8006L14.0625 32.5509V45H10.3125V33.8006ZM2.8125 43.125C2.81147 41.2935 3.34254 39.5011 4.34114 37.9657C5.33974 36.4304 6.76286 35.2182 8.4375 34.4766V57.1875H2.8125V43.125ZM27.1875 57.1875H17.8125V52.5H27.1875V57.1875ZM34.6875 57.1875H29.0625V51.5625C29.0625 51.3139 28.9637 51.0754 28.7879 50.8996C28.6121 50.7238 28.3736 50.625 28.125 50.625H16.875C16.6264 50.625 16.3879 50.7238 16.2121 50.8996C16.0363 51.0754 15.9375 51.3139 15.9375 51.5625V57.1875H10.3125V46.875H29.3363C30.0083 50.3763 31.9054 53.5237 34.6875 55.7531V57.1875ZM44.0625 57.1875C40.5827 57.1838 37.2464 55.7998 34.7858 53.3392C32.3252 50.8786 30.9412 47.5423 30.9375 44.0625V44.0447C30.941 41.4496 31.7138 38.9137 33.1581 36.7577C34.6025 34.6016 36.6535 32.9221 39.0521 31.9315C41.4507 30.9408 44.0891 30.6834 46.634 31.1919C49.1788 31.7003 51.5158 32.9517 53.3496 34.788C55.1833 36.6243 56.4316 38.963 56.9366 41.5085C57.4416 44.054 57.1806 46.6921 56.1867 49.0893C55.1928 51.4866 53.5105 53.5354 51.3525 54.9768C49.1945 56.4182 46.6576 57.1875 44.0625 57.1875Z" fill="#FF5500"/>
<path d="M55.3125 0.9375H40.3125C39.3179 0.9375 38.3641 1.33259 37.6609 2.03585C36.9576 2.73911 36.5625 3.69294 36.5625 4.6875V11.25C36.5625 11.4986 36.6613 11.7371 36.8371 11.9129C37.0129 12.0887 37.2514 12.1875 37.5 12.1875H58.125C58.3736 12.1875 58.6121 12.0887 58.7879 11.9129C58.9637 11.7371 59.0625 11.4986 59.0625 11.25V4.6875C59.0625 3.69294 58.6674 2.73911 57.9641 2.03585C57.2609 1.33259 56.3071 0.9375 55.3125 0.9375ZM40.3125 2.8125H55.3125C55.8098 2.8125 56.2867 3.01004 56.6383 3.36167C56.99 3.71331 57.1875 4.19022 57.1875 4.6875V6.5625H38.4375V4.6875C38.4375 4.19022 38.635 3.71331 38.9867 3.36167C39.3383 3.01004 39.8152 2.8125 40.3125 2.8125ZM38.4375 10.3125V8.4375H57.1875V10.3125H38.4375Z" fill="#FF5500"/>
<path d="M46.875 15H48.75V19.6875H46.875V15Z" fill="#FF5500"/>
<path d="M40.3125 15H42.1875V19.6875H40.3125V15Z" fill="#FF5500"/>
<path d="M53.4375 15H55.3125V19.6875H53.4375V15Z" fill="#FF5500"/>
</g>
<defs>
<clipPath id="clip0_5720_4322">
<rect width="60" height="60" fill="white"/>
</clipPath>
</defs>
</svg>
