<svg width="40" height="40" viewBox="0 0 40 40" fill="none" xmlns="http://www.w3.org/2000/svg">
<g clip-path="url(#clip0_6157_1240)">
<path d="M13.75 36.877C14.2473 36.877 14.7242 36.6794 15.0758 36.3278C15.4275 35.9761 15.625 35.4992 15.625 35.002C15.625 34.2032 14.6737 32.7388 14.2644 32.147C14.2038 32.0681 14.1259 32.0043 14.0367 31.9603C13.9475 31.9164 13.8494 31.8935 13.75 31.8935C13.6506 31.8935 13.5525 31.9164 13.4633 31.9603C13.3741 32.0043 13.2962 32.0681 13.2356 32.147C12.8263 32.7388 11.875 34.2032 11.875 35.002C11.875 35.4992 12.0725 35.9761 12.4242 36.3278C12.7758 36.6794 13.2527 36.877 13.75 36.877ZM13.75 33.6607C14.0284 34.0717 14.2394 34.5244 14.375 35.002C14.375 35.1677 14.3092 35.3267 14.1919 35.4439C14.0747 35.5611 13.9158 35.627 13.75 35.627C13.5842 35.627 13.4253 35.5611 13.3081 35.4439C13.1908 35.3267 13.125 35.1677 13.125 35.002C13.2606 34.5244 13.4716 34.0717 13.75 33.6607ZM35 0.626953H5C3.84008 0.628276 2.72805 1.08964 1.90787 1.90982C1.08768 2.73001 0.626323 3.84204 0.625 5.00195V17.502C0.625 17.6677 0.690848 17.8267 0.808058 17.9439C0.925268 18.0611 1.08424 18.127 1.25 18.127H4.47062L5.00875 21.3551C5.03315 21.5009 5.10845 21.6334 5.22127 21.7289C5.3341 21.8245 5.47715 21.8769 5.625 21.877H14.1625L16.875 27.0313V29.377C16.875 29.5427 16.9408 29.7017 17.0581 29.8189C17.1753 29.9361 17.3342 30.002 17.5 30.002H18.1569C18.3136 31.5428 19.036 32.9708 20.1846 34.0098C21.3332 35.0488 22.8262 35.625 24.375 35.627C25.3693 35.6279 26.3225 36.0234 27.0256 36.7264C27.7286 37.4294 28.124 38.3827 28.125 39.377H29.375C29.3735 38.0513 28.8462 36.7804 27.9089 35.8431C26.9715 34.9057 25.7006 34.3784 24.375 34.377C23.1581 34.3749 21.9837 33.9297 21.0714 33.1244C20.159 32.3192 19.5713 31.2091 19.4181 30.002H20.6812C20.8295 30.8748 21.2816 31.6671 21.9575 32.239C22.6334 32.8108 23.4897 33.1253 24.375 33.127C26.032 33.1288 27.6207 33.7878 28.7924 34.9595C29.9641 36.1313 30.6232 37.7199 30.625 39.377H31.875C31.8728 37.3885 31.082 35.4821 29.6759 34.076C28.2699 32.67 26.3635 31.8791 24.375 31.877C23.8224 31.8749 23.286 31.6898 22.8497 31.3505C22.4135 31.0113 22.1019 30.537 21.9637 30.002H22.5C22.6658 30.002 22.8247 29.9361 22.9419 29.8189C23.0592 29.7017 23.125 29.5427 23.125 29.377V27.0313L25.8375 21.877H34.375C34.5229 21.8769 34.6659 21.8245 34.7787 21.7289C34.8916 21.6334 34.9669 21.5009 34.9912 21.3551L35.5294 18.127H38.75C38.9158 18.127 39.0747 18.0611 39.1919 17.9439C39.3092 17.8267 39.375 17.6677 39.375 17.502V5.00195C39.3737 3.84204 38.9123 2.73001 38.0921 1.90982C37.2719 1.08964 36.1599 0.628276 35 0.626953ZM28.4694 16.877L29.125 15.627H34.375V16.877H28.4694ZM22.125 26.252H21.395L23.6319 15.627H27.715L22.125 26.252ZM12.285 15.627H16.3681L18.605 26.252H17.875L12.285 15.627ZM19.8819 26.252L17.645 15.627H22.355L20.1181 26.252H19.8819ZM18.125 27.502H21.875V28.752H18.125V27.502ZM34.375 9.37695H5.625V8.12695H34.375V9.37695ZM5.625 10.627H34.375V11.877H5.625V10.627ZM5.625 13.127H34.375V14.377H5.625V13.127ZM5.625 15.627H10.875L11.5331 16.877H5.625V15.627ZM6.15438 20.627L5.7375 18.127H12.1875L13.5031 20.627H6.15438ZM33.8456 20.627H26.4956L27.8081 18.127H34.2625L33.8456 20.627ZM38.125 16.877H35.625V7.50195C35.625 7.33619 35.5592 7.17722 35.4419 7.06001C35.3247 6.9428 35.1658 6.87695 35 6.87695H5C4.83424 6.87695 4.67527 6.9428 4.55806 7.06001C4.44085 7.17722 4.375 7.33619 4.375 7.50195V16.877H1.875V5.00195C1.87599 4.17346 2.20555 3.37918 2.79139 2.79334C3.37722 2.2075 4.1715 1.87795 5 1.87695H35C35.8285 1.87795 36.6228 2.2075 37.2086 2.79334C37.7944 3.37918 38.124 4.17346 38.125 5.00195V16.877ZM6.36063 25.897C5.95125 26.4888 5 27.9532 5 28.752C5 29.2492 5.19754 29.7261 5.54917 30.0778C5.90081 30.4294 6.37772 30.627 6.875 30.627C7.37228 30.627 7.84919 30.4294 8.20083 30.0778C8.55246 29.7261 8.75 29.2492 8.75 28.752C8.75 27.9532 7.79875 26.4888 7.38937 25.897C7.32879 25.8181 7.25089 25.7543 7.1617 25.7103C7.07252 25.6664 6.97442 25.6435 6.875 25.6435C6.77558 25.6435 6.67748 25.6664 6.5883 25.7103C6.49911 25.7543 6.42121 25.8181 6.36063 25.897ZM6.875 29.377C6.70924 29.377 6.55027 29.3111 6.43306 29.1939C6.31585 29.0767 6.25 28.9177 6.25 28.752C6.38552 28.2742 6.59651 27.8212 6.875 27.4101C7.15349 27.8212 7.36448 28.2742 7.5 28.752C7.5 28.9177 7.43415 29.0767 7.31694 29.1939C7.19973 29.3111 7.04076 29.377 6.875 29.377Z" fill="#010F34"/>
<path d="M10.7356 22.771C10.3263 23.3629 9.375 24.8272 9.375 25.626C9.375 26.1233 9.57254 26.6002 9.92417 26.9518C10.2758 27.3034 10.7527 27.501 11.25 27.501C11.7473 27.501 12.2242 27.3034 12.5758 26.9518C12.9275 26.6002 13.125 26.1233 13.125 25.626C13.125 24.8272 12.1737 23.3629 11.7644 22.771C11.7038 22.6922 11.6259 22.6283 11.5367 22.5844C11.4475 22.5404 11.3494 22.5176 11.25 22.5176C11.1506 22.5176 11.0525 22.5404 10.9633 22.5844C10.8741 22.6283 10.7962 22.6922 10.7356 22.771ZM11.25 26.251C11.0842 26.251 10.9253 26.1851 10.8081 26.0679C10.6908 25.9507 10.625 25.7917 10.625 25.626C10.7605 25.1483 10.9715 24.6953 11.25 24.2841C11.5285 24.6953 11.7395 25.1483 11.875 25.626C11.875 25.7917 11.8092 25.9507 11.6919 26.0679C11.5747 26.1851 11.4158 26.251 11.25 26.251ZM28.2356 22.771C27.8262 23.3629 26.875 24.8272 26.875 25.626C26.875 26.1233 27.0725 26.6002 27.4242 26.9518C27.7758 27.3034 28.2527 27.501 28.75 27.501C29.2473 27.501 29.7242 27.3034 30.0758 26.9518C30.4275 26.6002 30.625 26.1233 30.625 25.626C30.625 24.8272 29.6738 23.3629 29.2644 22.771C29.2038 22.6922 29.1259 22.6283 29.0367 22.5844C28.9475 22.5404 28.8494 22.5176 28.75 22.5176C28.6506 22.5176 28.5525 22.5404 28.4633 22.5844C28.3741 22.6283 28.2962 22.6922 28.2356 22.771ZM29.375 25.626C29.375 25.7917 29.3092 25.9507 29.1919 26.0679C29.0747 26.1851 28.9158 26.251 28.75 26.251C28.5842 26.251 28.4253 26.1851 28.3081 26.0679C28.1908 25.9507 28.125 25.7917 28.125 25.626C28.2605 25.1483 28.4715 24.6953 28.75 24.2841C29.0285 24.6953 29.2395 25.1483 29.375 25.626ZM33.6394 25.896C33.5788 25.8172 33.5009 25.7533 33.4117 25.7094C33.3225 25.6654 33.2244 25.6426 33.125 25.6426C33.0256 25.6426 32.9275 25.6654 32.8383 25.7094C32.7491 25.7533 32.6712 25.8172 32.6106 25.896C32.2012 26.4879 31.25 27.9522 31.25 28.751C31.25 29.2483 31.4475 29.7252 31.7992 30.0768C32.1508 30.4284 32.6277 30.626 33.125 30.626C33.6223 30.626 34.0992 30.4284 34.4508 30.0768C34.8025 29.7252 35 29.2483 35 28.751C35 27.9522 34.0488 26.4879 33.6394 25.896ZM33.125 29.376C32.9592 29.376 32.8003 29.3101 32.6831 29.1929C32.5658 29.0757 32.5 28.9167 32.5 28.751C32.6355 28.2733 32.8465 27.8203 33.125 27.4091C33.4035 27.8203 33.6145 28.2733 33.75 28.751C33.75 28.9167 33.6842 29.0757 33.5669 29.1929C33.4497 29.3101 33.2908 29.376 33.125 29.376Z" fill="#010F34"/>
</g>
<defs>
<clipPath id="clip0_6157_1240">
<rect width="40" height="40" fill="white" transform="translate(0 0.00195312)"/>
</clipPath>
</defs>
</svg>
