<svg width="16" height="14" viewBox="0 0 16 14" fill="none" xmlns="http://www.w3.org/2000/svg">
<path d="M6.5 6.5C6.16667 6.8125 5.82292 6.8125 5.46875 6.5L2.96875 4C2.67708 3.66667 2.67708 3.32292 2.96875 2.96875C3.32292 2.67708 3.67708 2.67708 4.03125 2.96875L6 4.9375L10.4688 0.46875C10.8229 0.177083 11.1667 0.177083 11.5 0.46875C11.8125 0.822917 11.8125 1.17708 11.5 1.53125L6.5 6.5ZM6.5 13.5C6.16667 13.8125 5.82292 13.8125 5.46875 13.5L1.21875 9.25C0.927083 8.91667 0.927083 8.57292 1.21875 8.21875C1.57292 7.92708 1.92708 7.92708 2.28125 8.21875L6 11.9375L13.7188 4.21875C14.0729 3.92708 14.4167 3.92708 14.75 4.21875C15.0625 4.57292 15.0625 4.91667 14.75 5.25L6.5 13.5Z" fill="#010F34"/>
</svg>
