<svg width="45" height="41" viewBox="0 0 45 41" fill="none" xmlns="http://www.w3.org/2000/svg">
<path d="M22.8128 31.1602H2.30818C2.10823 31.1599 1.9452 30.9968 1.94476 30.7982V10.4364H38.7864V19.9803C38.7893 20.1663 38.8653 20.3437 38.9979 20.4743C39.1305 20.6048 39.3091 20.6779 39.4951 20.6779C39.6812 20.6779 39.8598 20.6048 39.9924 20.4743C40.125 20.3437 40.201 20.1663 40.2039 19.9803V4.06626C40.2013 3.08812 39.4039 2.29061 38.4245 2.28885H34.5399V1.17703C34.5409 1.08329 34.5234 0.990267 34.4882 0.903356C34.4531 0.816446 34.401 0.737372 34.3351 0.670713C34.2692 0.604053 34.1907 0.551133 34.1042 0.515015C34.0176 0.478897 33.9248 0.4603 33.8311 0.4603C33.7373 0.4603 33.6445 0.478897 33.558 0.515015C33.4715 0.551133 33.393 0.604053 33.3271 0.670713C33.2612 0.737372 33.2091 0.816446 33.174 0.903356C33.1388 0.990267 33.1212 1.08329 33.1223 1.17703V2.28885H29.1534V1.17703C29.1545 1.0833 29.1369 0.99029 29.1017 0.90339C29.0666 0.816491 29.0146 0.737426 28.9486 0.670775C28.8827 0.604124 28.8043 0.55121 28.7178 0.515097C28.6312 0.478984 28.5384 0.460389 28.4447 0.460389C28.351 0.460389 28.2582 0.478984 28.1717 0.515097C28.0852 0.55121 28.0067 0.604124 27.9408 0.670775C27.8748 0.737426 27.8228 0.816491 27.7877 0.90339C27.7525 0.99029 27.735 1.0833 27.736 1.17703V2.28885H23.7675V1.17703C23.7685 1.08329 23.751 0.990267 23.7158 0.903356C23.6806 0.816446 23.6286 0.737372 23.5627 0.670713C23.4968 0.604053 23.4183 0.551133 23.3318 0.515015C23.2452 0.478897 23.1524 0.4603 23.0587 0.4603C22.9649 0.4603 22.8721 0.478897 22.7856 0.515015C22.6991 0.551133 22.6206 0.604053 22.5547 0.670713C22.4888 0.737372 22.4367 0.816446 22.4016 0.903356C22.3664 0.990267 22.3488 1.08329 22.3499 1.17703V2.28885H18.3809V1.17703C18.3824 1.08302 18.3652 0.989649 18.3302 0.902362C18.2953 0.815075 18.2433 0.735614 18.1773 0.668607C18.1114 0.6016 18.0327 0.548385 17.946 0.512061C17.8593 0.475738 17.7662 0.457031 17.6722 0.457031C17.5781 0.457031 17.4851 0.475738 17.3983 0.512061C17.3116 0.548385 17.233 0.6016 17.167 0.668607C17.1011 0.735614 17.0491 0.815075 17.0141 0.902362C16.9792 0.989649 16.9619 1.08302 16.9634 1.17703V2.28885H12.9948V1.17703C12.9963 1.08302 12.979 0.989649 12.9441 0.902362C12.9091 0.815075 12.8572 0.735614 12.7912 0.668607C12.7253 0.6016 12.6466 0.548385 12.5599 0.512061C12.4732 0.475738 12.3801 0.457031 12.2861 0.457031C12.192 0.457031 12.0989 0.475738 12.0122 0.512061C11.9255 0.548385 11.8469 0.6016 11.7809 0.668607C11.7149 0.735614 11.663 0.815075 11.628 0.902362C11.5931 0.989649 11.5758 1.08302 11.5773 1.17703V2.28885H7.60852V1.17703C7.60852 0.785654 7.29123 0.468105 6.89977 0.468105C6.5083 0.468105 6.19102 0.785654 6.19102 1.17703V2.28885H2.30458C1.32688 2.29122 0.529805 3.08848 0.527344 4.06793V30.8C0.529893 31.7778 1.32688 32.5752 2.30651 32.578H22.8128C22.9994 32.5759 23.1777 32.5003 23.309 32.3676C23.4402 32.2349 23.5138 32.0557 23.5138 31.8691C23.5138 31.6824 23.4402 31.5033 23.309 31.3706C23.1777 31.2379 22.9994 31.1623 22.8128 31.1602ZM2.30651 3.70626H6.19093V4.51389C5.44605 4.80041 4.9144 5.51813 4.9144 6.36214C4.9144 7.45717 5.80482 8.34776 6.89968 8.34776C7.99462 8.34776 8.88504 7.45717 8.88504 6.36214C8.88504 5.51804 8.35321 4.80032 7.60852 4.51389V3.70626H11.5774V4.51389C10.833 4.80041 10.3009 5.51813 10.3009 6.36214C10.3009 7.45717 11.1912 8.34776 12.2862 8.34776C13.3811 8.34776 14.2716 7.45717 14.2716 6.36214C14.2716 5.51804 13.7395 4.80032 12.995 4.51389V3.70626H16.9636V4.51389C16.2191 4.80041 15.687 5.51813 15.687 6.36214C15.687 7.45717 16.5775 8.34776 17.6724 8.34776C18.7672 8.34776 19.6577 7.45717 19.6577 6.36214C19.6577 5.51804 19.1255 4.80032 18.3811 4.51389V3.70626H22.3501V4.51389C21.6053 4.80041 21.0735 5.51813 21.0735 6.36214C21.0735 7.45717 21.9639 8.34776 23.0588 8.34776C24.1537 8.34776 25.0441 7.45717 25.0441 6.36214C25.0441 5.51804 24.5124 4.80032 23.7676 4.51389V3.70626H27.7362V4.51389C26.9912 4.80041 26.4596 5.51813 26.4596 6.36214C26.4596 7.45717 27.3501 8.34776 28.4449 8.34776C29.5399 8.34776 30.4303 7.45717 30.4303 6.36214C30.4303 5.51804 29.8985 4.80032 29.1538 4.51389V3.70626H33.1226V4.51389C32.3782 4.80041 31.846 5.51813 31.846 6.36214C31.846 7.45717 32.7366 8.34776 33.8315 8.34776C34.9263 8.34776 35.8168 7.45717 35.8168 6.36214C35.8168 5.51804 35.2846 4.80032 34.5402 4.51389V3.70626H38.4234C38.6234 3.70679 38.7864 3.86965 38.7867 4.06793V9.01881H1.94476V4.06986C1.9452 3.86965 2.10823 3.70679 2.30651 3.70626ZM6.89968 5.79454C7.21257 5.79454 7.46745 6.04907 7.46745 6.36223C7.46745 6.67538 7.21257 6.93026 6.89968 6.93026C6.58679 6.93026 6.3319 6.67538 6.3319 6.36223C6.3319 6.04907 6.58679 5.79454 6.89968 5.79454ZM12.2862 5.79454C12.5991 5.79454 12.854 6.04907 12.854 6.36223C12.854 6.67538 12.5991 6.93026 12.2862 6.93026C11.9733 6.93026 11.7184 6.67538 11.7184 6.36223C11.7184 6.04907 11.9733 5.79454 12.2862 5.79454ZM17.6723 5.79454C17.9851 5.79454 18.2401 6.04907 18.2401 6.36223C18.2401 6.67538 17.9851 6.93026 17.6723 6.93026C17.3593 6.93026 17.1045 6.67538 17.1045 6.36223C17.1045 6.04907 17.3593 5.79454 17.6723 5.79454ZM23.0587 5.79454C23.3716 5.79454 23.6265 6.04907 23.6265 6.36223C23.6265 6.67538 23.3716 6.93026 23.0587 6.93026C22.7457 6.93026 22.4909 6.67538 22.4909 6.36223C22.4909 6.04907 22.7457 5.79454 23.0587 5.79454ZM28.4447 5.79454C28.7578 5.79454 29.0125 6.04907 29.0125 6.36223C29.0125 6.67538 28.7578 6.93026 28.4447 6.93026C28.1318 6.93026 27.877 6.67538 27.877 6.36223C27.877 6.04907 28.1319 5.79454 28.4447 5.79454ZM33.8312 5.79454C34.1442 5.79454 34.3991 6.04907 34.3991 6.36223C34.3991 6.67538 34.1442 6.93026 33.8312 6.93026C33.5182 6.93026 33.2634 6.67538 33.2634 6.36223C33.2634 6.04907 33.5183 5.79454 33.8312 5.79454ZM11.9837 15.1225C11.9837 15.0294 11.9654 14.9372 11.9298 14.8512C11.8942 14.7652 11.842 14.6871 11.7761 14.6213C11.7103 14.5555 11.6322 14.5033 11.5462 14.4676C11.4602 14.432 11.368 14.4137 11.275 14.4137H7.86023C7.76715 14.4137 7.67498 14.432 7.58898 14.4676C7.50298 14.5032 7.42484 14.5554 7.35902 14.6212C7.2932 14.6871 7.241 14.7652 7.20539 14.8512C7.16978 14.9372 7.15146 15.0294 7.15148 15.1225V18.5374C7.15147 18.6304 7.1698 18.7226 7.20541 18.8086C7.24103 18.8946 7.29324 18.9727 7.35905 19.0385C7.42487 19.1043 7.50301 19.1565 7.589 19.1921C7.67499 19.2277 7.76716 19.246 7.86023 19.246H11.275C11.368 19.246 11.4602 19.2277 11.5462 19.1921C11.6322 19.1565 11.7103 19.1043 11.7761 19.0385C11.8419 18.9727 11.8941 18.8946 11.9298 18.8086C11.9654 18.7226 11.9837 18.6304 11.9837 18.5374V15.1225ZM10.5662 17.8283H8.56898V15.8314H10.5662V17.8283ZM19.1825 15.1225C19.1825 15.0294 19.1642 14.9372 19.1286 14.8512C19.093 14.7652 19.0408 14.6871 18.9749 14.6212C18.9091 14.5554 18.831 14.5032 18.745 14.4676C18.659 14.432 18.5668 14.4137 18.4737 14.4137H15.0589C14.9658 14.4137 14.8737 14.432 14.7877 14.4676C14.7017 14.5032 14.6235 14.5554 14.5577 14.6212C14.4919 14.6871 14.4397 14.7652 14.4041 14.8512C14.3685 14.9372 14.3501 15.0294 14.3502 15.1225V18.5374C14.3502 18.6304 14.3685 18.7226 14.4041 18.8086C14.4397 18.8946 14.4919 18.9727 14.5578 19.0385C14.6236 19.1043 14.7017 19.1565 14.7877 19.1921C14.8737 19.2277 14.9658 19.246 15.0589 19.246H18.4737C18.5668 19.246 18.659 19.2277 18.745 19.1921C18.831 19.1565 18.9091 19.1043 18.9749 19.0385C19.0407 18.9727 19.0929 18.8946 19.1286 18.8086C19.1642 18.7226 19.1825 18.6304 19.1825 18.5374V15.1225ZM17.765 17.8283H15.7677V15.8314H17.765V17.8283ZM22.2577 14.4136C22.1646 14.4136 22.0724 14.4319 21.9864 14.4675C21.9004 14.5031 21.8223 14.5553 21.7564 14.6212C21.6906 14.687 21.6384 14.7651 21.6028 14.8511C21.5672 14.9371 21.5488 15.0293 21.5488 15.1224V18.5373C21.5489 18.6303 21.5672 18.7225 21.6028 18.8085C21.6385 18.8945 21.6907 18.9726 21.7565 19.0384C21.8223 19.1042 21.9005 19.1564 21.9865 19.192C22.0724 19.2276 22.1646 19.2459 22.2577 19.2459H25.6725C25.7656 19.2459 25.8577 19.2276 25.9437 19.192C26.0297 19.1564 26.1078 19.1042 26.1737 19.0384C26.2395 18.9726 26.2917 18.8945 26.3273 18.8085C26.3629 18.7225 26.3813 18.6303 26.3813 18.5373V15.1224C26.3813 14.9344 26.3066 14.7541 26.1737 14.6212C26.0407 14.4883 25.8605 14.4136 25.6725 14.4136H22.2577ZM24.9637 17.8283H22.9664V15.8314H24.9637V17.8283ZM29.4564 14.4136C29.3633 14.4136 29.2711 14.4319 29.1851 14.4675C29.0991 14.5031 29.021 14.5553 28.9552 14.6212C28.8894 14.687 28.8372 14.7651 28.8016 14.8511C28.766 14.9371 28.7477 15.0293 28.7477 15.1224V18.5373C28.7477 18.6303 28.766 18.7225 28.8016 18.8085C28.8372 18.8945 28.8894 18.9726 28.9552 19.0384C29.0211 19.1042 29.0992 19.1564 29.1852 19.192C29.2711 19.2276 29.3633 19.2459 29.4564 19.2459H32.8712C32.9642 19.2459 33.0564 19.2276 33.1424 19.192C33.2284 19.1564 33.3065 19.1042 33.3723 19.0384C33.4381 18.9726 33.4903 18.8945 33.5259 18.8085C33.5615 18.7225 33.5799 18.6303 33.5798 18.5373V15.1224C33.5799 15.0293 33.5616 14.9371 33.526 14.8511C33.4903 14.7651 33.4381 14.687 33.3723 14.6212C33.3065 14.5554 33.2284 14.5032 33.1424 14.4676C33.0564 14.4319 32.9643 14.4136 32.8712 14.4136H29.4564ZM32.1624 17.8283H30.1652V15.8314H32.1624V17.8283ZM11.275 22.3508H7.86023C7.76715 22.3507 7.67498 22.3691 7.58898 22.4047C7.50298 22.4403 7.42484 22.4925 7.35902 22.5583C7.2932 22.6241 7.241 22.7023 7.20539 22.7883C7.16978 22.8743 7.15146 22.9664 7.15148 23.0595V26.4744C7.15146 26.5675 7.16978 26.6597 7.20539 26.7457C7.241 26.8317 7.2932 26.9098 7.35902 26.9756C7.42484 27.0414 7.50298 27.0936 7.58898 27.1293C7.67498 27.1649 7.76715 27.1832 7.86023 27.1832H11.275C11.368 27.1832 11.4602 27.1648 11.5462 27.1292C11.6322 27.0936 11.7103 27.0414 11.7761 26.9756C11.842 26.9098 11.8942 26.8316 11.9298 26.7457C11.9654 26.6597 11.9837 26.5675 11.9837 26.4744V23.0595C11.9837 22.9664 11.9654 22.8743 11.9298 22.7883C11.8942 22.7023 11.842 22.6241 11.7761 22.5583C11.7103 22.4925 11.6322 22.4403 11.5462 22.4047C11.4602 22.3691 11.368 22.3507 11.275 22.3508ZM10.5662 25.7657H8.56898V23.7681H10.5662V25.7657ZM18.4737 22.3508H15.0589C14.9658 22.3507 14.8737 22.3691 14.7877 22.4047C14.7017 22.4403 14.6235 22.4925 14.5577 22.5583C14.4919 22.6241 14.4397 22.7023 14.4041 22.7883C14.3685 22.8743 14.3501 22.9664 14.3502 23.0595V26.4744C14.3501 26.5675 14.3685 26.6597 14.4041 26.7457C14.4397 26.8317 14.4919 26.9098 14.5577 26.9756C14.6235 27.0414 14.7017 27.0936 14.7877 27.1293C14.8737 27.1649 14.9658 27.1832 15.0589 27.1832H18.4737C18.5668 27.1832 18.659 27.1649 18.745 27.1293C18.831 27.0936 18.9091 27.0414 18.9749 26.9756C19.0408 26.9098 19.093 26.8317 19.1286 26.7457C19.1642 26.6597 19.1825 26.5675 19.1825 26.4744V23.0595C19.1825 22.9664 19.1642 22.8743 19.1286 22.7883C19.093 22.7023 19.0408 22.6241 18.9749 22.5583C18.9091 22.4925 18.831 22.4403 18.745 22.4047C18.659 22.3691 18.5668 22.3507 18.4737 22.3508ZM17.765 25.7657H15.7677V23.7681H17.765V25.7657ZM34.3504 20.2882C28.769 20.2882 24.2279 24.8292 24.2279 30.4108C24.2279 35.9924 28.769 40.5335 34.3504 40.5335C39.9319 40.5335 44.4728 35.9924 44.4728 30.4108C44.4728 24.8292 39.9319 20.2882 34.3504 20.2882ZM34.3504 39.1157C29.5505 39.1157 25.6454 35.2106 25.6454 30.4108C25.6454 25.6108 29.5505 21.7056 34.3504 21.7056C39.1502 21.7056 43.0552 25.6108 43.0552 30.4108C43.0552 35.2106 39.1502 39.1157 34.3504 39.1157ZM42.1519 30.4108C42.1519 34.7128 38.6521 38.2125 34.3504 38.2125C31.6014 38.2125 29.0252 36.7403 27.6267 34.3703C27.5312 34.2084 27.5039 34.0152 27.5508 33.8332C27.5977 33.6511 27.715 33.4952 27.8769 33.3996C28.0388 33.3042 28.232 33.2771 28.414 33.324C28.5959 33.371 28.7518 33.4883 28.8474 33.6501C29.9924 35.59 32.1006 36.7951 34.3503 36.7951C37.8703 36.7951 40.7342 33.9314 40.7342 30.4108C40.7342 26.8903 37.8703 24.0263 34.3503 24.0263C30.8298 24.0263 27.9659 26.8903 27.9659 30.4108C27.9659 30.852 28.0114 31.294 28.1011 31.7245C28.1393 31.9085 28.1029 32.1002 27.9999 32.2574C27.8969 32.4147 27.7357 32.5246 27.5517 32.563C27.1692 32.6434 26.7932 32.3967 26.7131 32.0137C26.6036 31.4864 26.5484 30.9493 26.5483 30.4108C26.5483 26.1086 30.0482 22.6087 34.3503 22.6087C38.6521 22.6087 42.1519 26.1086 42.1519 30.4108ZM35.0591 25.6697V30.0016L37.3992 31.3523C37.5619 31.4464 37.6807 31.6013 37.7294 31.7828C37.7781 31.9644 37.7527 32.1578 37.6589 32.3207C37.5966 32.4286 37.507 32.5181 37.3991 32.5803C37.2911 32.6425 37.1687 32.6752 37.0441 32.675C36.92 32.6749 36.7981 32.6423 36.6905 32.5804L33.9961 31.0249C33.8884 30.9625 33.799 30.873 33.7368 30.7653C33.6746 30.6575 33.6418 30.5353 33.6417 30.4109V25.6698C33.6417 25.5767 33.66 25.4845 33.6956 25.3985C33.7313 25.3125 33.7835 25.2344 33.8493 25.1686C33.9151 25.1028 33.9932 25.0506 34.0792 25.015C34.1652 24.9793 34.2574 24.961 34.3505 24.961C34.4435 24.961 34.5357 24.9793 34.6217 25.0149C34.7077 25.0505 34.7858 25.1027 34.8516 25.1685C34.9175 25.2343 34.9697 25.3125 35.0053 25.3985C35.0409 25.4844 35.0592 25.5766 35.0591 25.6697Z" fill="#FF5500"/>
</svg>
